<svg width="60" height="60" viewBox="0 0 60 60" fill="none" xmlns="http://www.w3.org/2000/svg">
<g clip-path="url(#clip0_0_4962)">
<path fill-rule="evenodd" clip-rule="evenodd" d="M30 -0.00268555C13.1025 -0.00268555 0 12.3798 0 29.0973C0 37.8423 3.585 45.4023 9.42 50.6223C9.9075 51.0573 10.2075 51.6723 10.2225 52.3323L10.3875 57.6723C10.44 59.3748 12.195 60.4848 13.755 59.7948L19.71 57.1698C20.2125 56.9448 20.7825 56.9073 21.315 57.0498C24.0525 57.7998 26.9625 58.2048 30 58.2048C46.8975 58.2048 60 45.8223 60 29.1048C60 12.3873 46.8975 -0.00268555 30 -0.00268555Z" fill="url(#paint0_radial_0_4962)"/>
</g>
<path d="M39.716 46.143H19.9672C17.5409 46.143 15.5752 44.1155 15.5752 41.6128C15.5752 39.11 17.5409 37.0825 19.9672 37.0825H39.716C42.1424 37.0825 44.108 39.11 44.108 41.6128C44.108 44.1155 42.1424 46.143 39.716 46.143Z" fill="white"/>
<path d="M44.6606 37.3045C43.1557 37.3045 41.6814 36.4808 40.8522 35.0552L30.9931 17.441C29.7953 15.2868 30.5017 12.499 32.5902 11.2634C34.6787 10.0279 37.3815 10.7565 38.5794 12.9108L48.4384 30.5249C49.6362 32.6792 48.9298 35.467 46.8413 36.7025C46.1349 37.1144 45.3978 37.3045 44.6606 37.3045Z" fill="white"/>
<path d="M15.0223 37.3044C14.2852 37.3044 13.5174 37.1143 12.8417 36.7025C10.7532 35.4669 10.016 32.6791 11.2446 30.5248L21.1036 12.9107C22.3014 10.7565 25.0042 9.99614 27.0928 11.2633C29.1813 12.4989 29.9184 15.2867 28.6898 17.441L18.8308 35.0551C18.0323 36.4807 16.558 37.3044 15.0223 37.3044Z" fill="white"/>
<defs>
<radialGradient id="paint0_radial_0_4962" cx="0" cy="0" r="1" gradientUnits="userSpaceOnUse" gradientTransform="translate(11.55 59.6806) scale(65.376 65.376)">
<stop stop-color="#0099FF"/>
<stop offset="0.6098" stop-color="#A033FF"/>
<stop offset="0.9348" stop-color="#FF5280"/>
<stop offset="1" stop-color="#FF7061"/>
</radialGradient>
<clipPath id="clip0_0_4962">
<rect width="60" height="60" fill="white"/>
</clipPath>
</defs>
</svg>
