<svg width="74" height="74" viewBox="0 0 74 74" fill="none" xmlns="http://www.w3.org/2000/svg">
<ellipse cx="36.6667" cy="37.3324" rx="36.6667" ry="36.6667" fill="#A3BDFF"/>
<path d="M36.6718 66.6657C38.5849 66.6657 40.1526 65.2589 40.4182 63.2678C43.0486 45.5351 45.4664 43.0663 62.5247 41.1286C64.4906 40.8896 66.0052 39.2439 66.0052 37.3325C66.0052 35.3945 64.5173 33.8018 62.5511 33.5098C45.5994 31.1472 43.5005 29.0766 40.4182 11.3705C40.0728 9.40608 38.5582 7.99902 36.6718 7.99902C34.7323 7.99902 33.1911 9.40608 32.8723 11.3969C30.2951 29.1032 27.8773 31.572 10.8457 33.5098C8.82638 33.7754 7.3385 35.3681 7.3385 37.3325C7.3385 39.2439 8.77326 40.8365 10.7926 41.1286C27.7708 43.5442 29.8432 45.5881 32.8723 63.2945C33.2709 65.2853 34.8119 66.6657 36.6718 66.6657Z" fill="#142D6F"/>
</svg>
