<svg width="80" height="80" viewBox="0 0 80 80" fill="none" xmlns="http://www.w3.org/2000/svg">
<g clip-path="url(#clip0_0_5388)">
<path fill-rule="evenodd" clip-rule="evenodd" d="M40 -0.00341797C17.47 -0.00341797 0 16.5066 0 38.7966C0 50.4566 4.78 60.5366 12.56 67.4966C13.21 68.0766 13.61 68.8966 13.63 69.7766L13.85 76.8966C13.92 79.1666 16.26 80.6466 18.34 79.7266L26.28 76.2266C26.95 75.9266 27.71 75.8766 28.42 76.0666C32.07 77.0666 35.95 77.6066 40 77.6066C62.53 77.6066 80 61.0966 80 38.8066C80 16.5166 62.53 -0.00341797 40 -0.00341797Z" fill="url(#paint0_radial_0_5388)"/>
</g>
<path d="M52.9564 61.526H26.6247C23.3896 61.526 20.7687 58.8226 20.7687 55.4857C20.7687 52.1487 23.3896 49.4453 26.6247 49.4453H52.9564C56.1916 49.4453 58.8124 52.1487 58.8124 55.4857C58.8124 58.8226 56.1916 61.526 52.9564 61.526Z" fill="white"/>
<path d="M59.5496 49.741C57.5429 49.741 55.5773 48.6428 54.4716 46.742L41.3262 23.2564C39.7291 20.3841 40.671 16.667 43.4557 15.0196C46.2404 13.3722 49.8441 14.3438 51.4412 17.2161L64.5866 40.7016C66.1837 43.5739 65.2418 47.2911 62.4571 48.9384C61.5152 49.4876 60.5324 49.741 59.5496 49.741Z" fill="white"/>
<path d="M20.0316 49.741C19.0487 49.741 18.025 49.4875 17.124 48.9384C14.3394 47.291 13.3565 43.5739 14.9946 40.7016L28.1399 17.2161C29.737 14.3437 33.3408 13.33 36.1255 15.0196C38.9101 16.667 39.893 20.3841 38.2549 23.2564L25.1095 46.7419C24.0448 48.6427 22.0791 49.741 20.0316 49.741Z" fill="white"/>
<defs>
<radialGradient id="paint0_radial_0_5388" cx="0" cy="0" r="1" gradientUnits="userSpaceOnUse" gradientTransform="translate(15.4 79.5743) scale(87.168 87.168)">
<stop stop-color="#0099FF"/>
<stop offset="0.6098" stop-color="#A033FF"/>
<stop offset="0.9348" stop-color="#FF5280"/>
<stop offset="1" stop-color="#FF7061"/>
</radialGradient>
<clipPath id="clip0_0_5388">
<rect width="80" height="80" fill="white"/>
</clipPath>
</defs>
</svg>
