<svg width="60" height="58" viewBox="0 0 60 58" fill="none" xmlns="http://www.w3.org/2000/svg">
<path fill-rule="evenodd" clip-rule="evenodd" d="M32.1429 0.000488281H27.8571V18.3439L20.7486 1.33618L16.775 2.88812L24.0677 20.3364L10.302 7.02965L7.27158 9.95912L20.4653 22.713L3.36723 15.4917L1.65138 19.2881L19.7432 26.9291H0V31.072H19.7431L1.65138 38.7129L3.36723 42.5093L20.4653 35.288L7.27158 48.0419L10.302 50.9712L24.0677 37.6645L16.775 55.113L20.7486 56.6648L27.8571 39.6571V58.0005H32.1429V39.6571L39.2514 56.6648L43.2249 55.113L35.9325 37.6645L49.698 50.9712L52.7283 48.0419L39.5346 35.288L56.6328 42.5093L58.3485 38.7129L40.257 31.072H60V26.9291H40.2567L58.3485 19.2881L56.6328 15.4917L39.5346 22.713L52.7283 9.95909L49.698 7.02965L35.9325 20.3364L43.2249 2.88812L39.2514 1.33618L32.1429 18.3439V0.000488281Z" fill="#FF4A00"/>
</svg>
