<svg width="50" height="50" viewBox="0 0 50 50" fill="none" xmlns="http://www.w3.org/2000/svg">
<path d="M0 0.000488281H22.9508V4.91856H0V0.000488281ZM0 9.01682H22.9508V13.9348H0V9.01682ZM0 18.0332V22.9512H22.9508V18.0332H0ZM45.0818 0.000488281H49.9999V22.9513H45.0818V0.000488281ZM36.0654 0.000488281H40.9834V22.9513H36.0654V0.000488281ZM27.0491 0.000488281V22.9512H31.9671V0.000488281H27.0491ZM27.0491 45.0824H49.9999V50.0005H27.0491V45.0824ZM27.0491 36.066H49.9999V40.984H27.0491V36.066ZM43.0328 27.0497H27.0491V31.9676H50V27.0497H43.0328ZM0 27.0497H4.91807V50.0005H0V27.0497ZM9.01641 27.0497H13.9344V50.0005H9.01641V27.0497ZM18.0327 27.0497V50.0004H22.9508V27.0497H18.0327Z" fill="#36C5F0"/>
<mask id="mask0_0_4996" style="mask-type:alpha" maskUnits="userSpaceOnUse" x="0" y="26" width="24" height="24">
<rect y="26.4146" width="23.5849" height="23.5849" fill="#D9D9D9"/>
</mask>
<g mask="url(#mask0_0_4996)">
<path d="M0 0.000488281H22.9508V4.91856H0V0.000488281ZM0 9.01682H22.9508V13.9348H0V9.01682ZM0 18.0332V22.9512H22.9508V18.0332H0ZM45.0818 0.000488281H49.9999V22.9513H45.0818V0.000488281ZM36.0654 0.000488281H40.9834V22.9513H36.0654V0.000488281ZM27.0491 0.000488281V22.9512H31.9671V0.000488281H27.0491ZM27.0491 45.0824H49.9999V50.0005H27.0491V45.0824ZM27.0491 36.066H49.9999V40.984H27.0491V36.066ZM43.0328 27.0497H27.0491V31.9676H50V27.0497H43.0328ZM0 27.0497H4.91807V50.0005H0V27.0497ZM9.01641 27.0497H13.9344V50.0005H9.01641V27.0497ZM18.0327 27.0497V50.0004H22.9508V27.0497H18.0327Z" fill="#E01E5A"/>
</g>
<mask id="mask1_0_4996" style="mask-type:alpha" maskUnits="userSpaceOnUse" x="0" y="0" width="50" height="51">
<path d="M0 0.000488281H22.9508V4.91856H0V0.000488281ZM0 9.01682H22.9508V13.9348H0V9.01682ZM0 18.0332V22.9512H22.9508V18.0332H0ZM45.0818 0.000488281H49.9999V22.9513H45.0818V0.000488281ZM36.0654 0.000488281H40.9834V22.9513H36.0654V0.000488281ZM27.0491 0.000488281V22.9512H31.9671V0.000488281H27.0491ZM27.0491 45.0824H49.9999V50.0005H27.0491V45.0824ZM27.0491 36.066H49.9999V40.984H27.0491V36.066ZM43.0328 27.0497H27.0491V31.9676H50V27.0497H43.0328ZM0 27.0497H4.91807V50.0005H0V27.0497ZM9.01641 27.0497H13.9344V50.0005H9.01641V27.0497ZM18.0327 27.0497V50.0004H22.9508V27.0497H18.0327Z" fill="black"/>
</mask>
<g mask="url(#mask1_0_4996)">
<rect x="26.4141" y="0.000488281" width="23.5849" height="23.5849" fill="#2EB67D"/>
</g>
<mask id="mask2_0_4996" style="mask-type:alpha" maskUnits="userSpaceOnUse" x="0" y="0" width="50" height="51">
<path d="M0 0.000488281H22.9508V4.91856H0V0.000488281ZM0 9.01682H22.9508V13.9348H0V9.01682ZM0 18.0332V22.9512H22.9508V18.0332H0ZM45.0818 0.000488281H49.9999V22.9513H45.0818V0.000488281ZM36.0654 0.000488281H40.9834V22.9513H36.0654V0.000488281ZM27.0491 0.000488281V22.9512H31.9671V0.000488281H27.0491ZM27.0491 45.0824H49.9999V50.0005H27.0491V45.0824ZM27.0491 36.066H49.9999V40.984H27.0491V36.066ZM43.0328 27.0497H27.0491V31.9676H50V27.0497H43.0328ZM0 27.0497H4.91807V50.0005H0V27.0497ZM9.01641 27.0497H13.9344V50.0005H9.01641V27.0497ZM18.0327 27.0497V50.0004H22.9508V27.0497H18.0327Z" fill="black"/>
</mask>
<g mask="url(#mask2_0_4996)">
<rect x="26.416" y="26.4146" width="23.5849" height="23.5849" fill="#ECB22E"/>
</g>
</svg>
