<svg width="60" height="60" viewBox="0 0 60 60" fill="none" xmlns="http://www.w3.org/2000/svg">
<g clip-path="url(#clip0_0_5016)">
<path d="M0 60.0005L4.24068 44.6013C1.61891 40.0813 0.243553 34.9625 0.257879 29.7296C0.257879 13.3322 13.6676 0.000488281 30.1289 0.000488281C38.1232 0.000488281 45.6303 3.09459 51.2607 8.71247C56.9054 14.3303 60.0143 21.8018 60 29.7438C60 46.1412 46.5902 59.4729 30.1146 59.4729H30.1003C25.1003 59.4729 20.1862 58.2182 15.8166 55.8513L0 60.0005ZM16.5759 50.4758L17.4785 51.0176C21.2894 53.2705 25.659 54.4539 30.1146 54.4682H30.1289C43.8109 54.4682 54.957 43.3893 54.957 29.7581C54.957 23.1564 52.3782 16.9539 47.6934 12.2771C43.0086 7.6003 36.7621 5.03376 30.1289 5.03376C16.447 5.0195 5.30086 16.0984 5.30086 29.7296C5.30086 34.3921 6.60458 38.9406 9.09741 42.876L9.68481 43.817L7.17764 52.9283L16.5759 50.4758Z" fill="white"/>
<path d="M1.0459 58.9598L5.14332 44.0881C2.6075 39.7392 1.27512 34.7915 1.27512 29.744C1.28945 13.917 14.2264 1.0415 30.129 1.0415C37.851 1.0415 45.086 4.0358 50.5301 9.45405C55.9742 14.8723 58.9685 22.0871 58.9685 29.7582C58.9685 45.5852 46.0172 58.4607 30.129 58.4607H30.1146C25.2866 58.4607 20.5445 57.2487 16.3324 54.9674L1.0459 58.9598Z" fill="url(#paint0_linear_0_5016)"/>
<path d="M0 60.0005L4.24068 44.6013C1.61891 40.0813 0.243553 34.9625 0.257879 29.7296C0.257879 13.3322 13.6676 0.000488281 30.1289 0.000488281C38.1232 0.000488281 45.6303 3.09459 51.2607 8.71247C56.9054 14.3303 60.0143 21.8018 60 29.7438C60 46.1412 46.5902 59.4729 30.1146 59.4729H30.1003C25.1003 59.4729 20.1862 58.2182 15.8166 55.8513L0 60.0005ZM16.5759 50.4758L17.4785 51.0176C21.2894 53.2705 25.659 54.4539 30.1146 54.4682H30.1289C43.8109 54.4682 54.957 43.3893 54.957 29.7581C54.957 23.1564 52.3782 16.9539 47.6934 12.2771C43.0086 7.6003 36.7621 5.03376 30.1289 5.03376C16.447 5.0195 5.30086 16.0984 5.30086 29.7296C5.30086 34.3921 6.60458 38.9406 9.09741 42.876L9.68481 43.817L7.17764 52.9283L16.5759 50.4758Z" fill="url(#paint1_linear_0_5016)"/>
</g>
<path fill-rule="evenodd" clip-rule="evenodd" d="M42.3956 29.6575L30.564 17.7466L18.7324 29.6575H30.4062L18.7324 41.4097H42.3956L30.7217 29.6575H42.3956Z" fill="white"/>
<defs>
<linearGradient id="paint0_linear_0_5016" x1="30.0057" y1="58.9569" x2="30.0057" y2="1.03948" gradientUnits="userSpaceOnUse">
<stop stop-color="#20B038"/>
<stop offset="1" stop-color="#60D66A"/>
</linearGradient>
<linearGradient id="paint1_linear_0_5016" x1="30.0058" y1="59.9948" x2="30.0058" y2="0.000488281" gradientUnits="userSpaceOnUse">
<stop stop-color="#F9F9F9"/>
<stop offset="1" stop-color="white"/>
</linearGradient>
<clipPath id="clip0_0_5016">
<rect width="60" height="60" fill="white" transform="translate(0 0.000488281)"/>
</clipPath>
</defs>
</svg>
