<svg width="60" height="60" viewBox="0 0 60 60" fill="none" xmlns="http://www.w3.org/2000/svg">
<rect y="0.000488281" width="60" height="60" rx="30" fill="#5865F2"/>
<path fill-rule="evenodd" clip-rule="evenodd" d="M43.9671 40.5308V39.2323H47.3271V20.9142H43.9671V19.6156H47.272C46.9415 15.8028 43.7468 12.8188 39.8635 12.8188H20.2819C16.3987 12.8188 13.2039 15.8028 12.8734 19.6156H16.1784V20.9142H12.8184V39.2323H16.1784V40.5308H12.8734C13.2039 44.3436 16.3987 47.3276 20.2819 47.3276H39.8635C43.7468 47.3276 46.9415 44.3436 47.272 40.5308H43.9671ZM30.114 36.718C26.4511 36.718 23.4767 33.7341 23.4767 30.0594C23.4767 26.3847 26.4511 23.4008 30.114 23.4008C33.777 23.4008 36.7514 26.3847 36.7514 30.0594C36.7514 33.7341 33.7494 36.718 30.114 36.718Z" fill="white"/>
</svg>
