<svg width="60" height="60" viewBox="0 0 60 60" fill="none" xmlns="http://www.w3.org/2000/svg">
<path d="M30 9.40849C41.328 9.40849 50.592 18.6245 50.592 30.0005C50.592 41.3765 41.376 50.5925 30 50.5925C18.624 50.5925 9.40799 41.3765 9.40799 30.0005C9.40799 18.6245 18.624 9.40849 30 9.40849ZM30 0.000488281C13.44 0.000488281 0 13.4405 0 30.0005C0 46.5605 13.44 60.0005 30 60.0005C46.56 60.0005 60 46.5605 60 30.0005C60 13.4405 46.56 0.000488281 30 0.000488281Z" fill="black"/>
<path d="M30 0.000488281C13.44 0.000488281 0 13.4405 0 30.0005H30V0.000488281Z" fill="black"/>
<path d="M30 59.9525C46.56 59.9525 60 46.5125 60 29.9525H30V59.9525Z" fill="black"/>
</svg>
