<svg width="40" height="40" viewBox="0 0 40 40" fill="none" xmlns="http://www.w3.org/2000/svg">
<path d="M39.4676 32.1948L32.1953 39.4672C31.8541 39.8083 31.3914 40 30.909 40C30.4265 40 29.9638 39.8083 29.6227 39.4672C29.2815 39.126 29.0899 38.6634 29.0899 38.1809C29.0899 37.6984 29.2815 37.2357 29.6227 36.8946L33.7929 32.7266H1.81952C1.33733 32.7266 0.874895 32.5351 0.533937 32.1941C0.192979 31.8532 0.00143044 31.3907 0.00143044 30.9085C0.00143044 30.4263 0.192979 29.9639 0.533937 29.623C0.874895 29.282 1.33733 29.0904 1.81952 29.0904H33.7929L29.6227 24.9225C29.2815 24.5813 29.0899 24.1186 29.0899 23.6362C29.0899 23.1537 29.2815 22.691 29.6227 22.3499C29.9638 22.0087 30.4265 21.8171 30.909 21.8171C31.3914 21.8171 31.8541 22.0087 32.1953 22.3499L39.4676 29.6222C39.6367 29.7911 39.7708 29.9916 39.8622 30.2123C39.9537 30.433 40.0008 30.6696 40.0008 30.9085C40.0008 31.1475 39.9537 31.384 39.8622 31.6048C39.7708 31.8255 39.6367 32.026 39.4676 32.1948ZM7.80558 17.6501C8.14673 17.9913 8.60942 18.1829 9.09188 18.1829C9.57433 18.1829 10.037 17.9913 10.3782 17.6501C10.7193 17.309 10.911 16.8463 10.911 16.3638C10.911 15.8814 10.7193 15.4187 10.3782 15.0775L6.20793 10.9095H38.1813C38.6635 10.9095 39.1259 10.718 39.4669 10.377C39.8079 10.0361 39.9994 9.57365 39.9994 9.09146C39.9994 8.60927 39.8079 8.14683 39.4669 7.80588C39.1259 7.46492 38.6635 7.27337 38.1813 7.27337H6.20793L10.3782 3.1054C10.7193 2.76425 10.911 2.30156 10.911 1.8191C10.911 1.33665 10.7193 0.87395 10.3782 0.532802C10.037 0.191655 9.57433 7.18915e-09 9.09188 0C8.60942 -7.18915e-09 8.14673 0.191655 7.80558 0.532802L0.533222 7.80516C0.364182 7.97401 0.230082 8.17453 0.138588 8.39524C0.0470938 8.61595 0 8.85253 0 9.09146C0 9.33038 0.0470938 9.56697 0.138588 9.78768C0.230082 10.0084 0.364182 10.2089 0.533222 10.3778L7.80558 17.6501Z" fill="#142D6F"/>
</svg>
