<svg width="18" height="15" viewBox="0 0 18 15" fill="none" xmlns="http://www.w3.org/2000/svg">
<path d="M17.7796 8.03059L11.03 14.7802C10.8893 14.9209 10.6984 15 10.4994 15C10.3004 15 10.1095 14.9209 9.96882 14.7802C9.8281 14.6395 9.74904 14.4486 9.74904 14.2496C9.74904 14.0506 9.8281 13.8598 9.96882 13.719L15.4388 8.24996H0.749958C0.551057 8.24996 0.360302 8.17095 0.219658 8.0303C0.0790134 7.88966 0 7.6989 0 7.5C0 7.3011 0.0790134 7.11034 0.219658 6.9697C0.360302 6.82905 0.551057 6.75004 0.749958 6.75004H15.4388L9.96882 1.28097C9.8281 1.14025 9.74904 0.949387 9.74904 0.750375C9.74904 0.551363 9.8281 0.360502 9.96882 0.21978C10.1095 0.0790571 10.3004 0 10.4994 0C10.6984 0 10.8893 0.0790571 11.03 0.21978L17.7796 6.9694C17.8494 7.03905 17.9047 7.12177 17.9424 7.21281C17.9802 7.30385 17.9996 7.40144 17.9996 7.5C17.9996 7.59856 17.9802 7.69615 17.9424 7.78719C17.9047 7.87823 17.8494 7.96094 17.7796 8.03059Z" fill="#142D6F"/>
</svg>
