<svg width="80" height="80" viewBox="0 0 80 80" fill="none" xmlns="http://www.w3.org/2000/svg">
<path d="M40 0C32.0888 0 24.3552 2.34596 17.7772 6.74121C11.1992 11.1365 6.07234 17.3836 3.04484 24.6927C0.0173314 32.0017 -0.774802 40.0444 0.768607 47.8036C2.31202 55.5628 6.12164 62.6902 11.7157 68.2843C17.3098 73.8784 24.4372 77.688 32.1964 79.2314C39.9556 80.7748 47.9983 79.9827 55.3073 76.9552C62.6164 73.9277 68.8635 68.8008 73.2588 62.2228C77.654 55.6448 80 47.9112 80 40C79.9888 29.3948 75.7709 19.2271 68.2719 11.7281C60.7729 4.22907 50.6052 0.0111993 40 0ZM55.5962 42.5308L35.5962 56.3769C35.1344 56.6962 34.5942 56.8831 34.0339 56.9173C33.4736 56.9515 32.9146 56.8319 32.4174 56.5712C31.9202 56.3105 31.5039 55.9188 31.2133 55.4385C30.9228 54.9581 30.7692 54.4075 30.7692 53.8461V26.1538C30.7692 25.5925 30.9228 25.0418 31.2133 24.5615C31.5039 24.0812 31.9202 23.6895 32.4174 23.4288C32.9146 23.1681 33.4736 23.0484 34.0339 23.0827C34.5942 23.1169 35.1344 23.3038 35.5962 23.6231L55.5962 37.4692C56.0055 37.7523 56.3401 38.1304 56.5712 38.5712C56.8023 39.012 56.923 39.5023 56.923 40C56.923 40.4977 56.8023 40.988 56.5712 41.4287C56.3401 41.8695 56.0055 42.2477 55.5962 42.5308Z" fill="#F6F4EF"/>
</svg>
