<svg width="122" height="20" viewBox="0 0 122 20" fill="none" xmlns="http://www.w3.org/2000/svg">
<path d="M21.0395 7.64275H13.0015L10.5271 0L8.03807 7.64275L0 7.62811L6.50073 12.3572L4.01171 20L10.5124 15.2709L17.0132 20L14.5388 12.3572L21.0395 7.64275Z" fill="#14B082"/>
<path d="M15.0954 14.0851L14.5391 12.3574L10.5273 15.271L15.0954 14.0851Z" fill="#142D6F"/>
<path d="M46.0786 7.64275H38.0405L35.5661 0L33.0771 7.64275L25.0391 7.62811L31.5398 12.3572L29.0508 20L35.5515 15.2709L42.0522 20L39.5779 12.3572L46.0786 7.64275Z" fill="#14B082"/>
<path d="M40.1345 14.0851L39.5781 12.3574L35.5664 15.271L40.1345 14.0851Z" fill="#142D6F"/>
<path d="M71.1177 7.64275H63.0796L60.6052 0L58.1162 7.64275L50.0781 7.62811L56.5789 12.3572L54.0898 20L60.5906 15.2709L67.0913 20L64.6169 12.3572L71.1177 7.64275Z" fill="#14B082"/>
<path d="M65.1735 14.0851L64.6172 12.3574L60.6055 15.271L65.1735 14.0851Z" fill="#142D6F"/>
<path d="M96.1567 7.64275H88.1186L85.6443 0L83.1553 7.64275L75.1172 7.62811L81.6179 12.3572L79.1289 20L85.6296 15.2709L92.1304 20L89.656 12.3572L96.1567 7.64275Z" fill="#14B082"/>
<path d="M90.2126 14.0851L89.6562 12.3574L85.6445 15.271L90.2126 14.0851Z" fill="#142D6F"/>
<path d="M121.196 7.64275H113.158L110.683 0L108.194 7.64275L100.156 7.62811L106.657 12.3572L104.168 20L110.669 15.2709L117.169 20L114.695 12.3572L121.196 7.64275Z" fill="#14B082"/>
<path d="M115.252 14.0851L114.695 12.3574L110.684 15.271L115.252 14.0851Z" fill="#142D6F"/>
</svg>
