<svg width="20" height="21" viewBox="0 0 20 21" fill="none" xmlns="http://www.w3.org/2000/svg">
<path d="M9.75 0.75C7.82164 0.75 5.93657 1.32183 4.33319 2.39317C2.72982 3.46451 1.48013 4.98726 0.742179 6.76884C0.00422452 8.55042 -0.188858 10.5108 0.187348 12.4021C0.563554 14.2934 1.49215 16.0307 2.85571 17.3943C4.21928 18.7579 5.95656 19.6865 7.84787 20.0627C9.73919 20.4389 11.6996 20.2458 13.4812 19.5078C15.2627 18.7699 16.7855 17.5202 17.8568 15.9168C18.9282 14.3134 19.5 12.4284 19.5 10.5C19.4973 7.91498 18.4692 5.43661 16.6413 3.60872C14.8134 1.78084 12.335 0.75273 9.75 0.75ZM15 11.25H9.75C9.55109 11.25 9.36033 11.171 9.21967 11.0303C9.07902 10.8897 9 10.6989 9 10.5V5.25C9 5.05109 9.07902 4.86032 9.21967 4.71967C9.36033 4.57902 9.55109 4.5 9.75 4.5C9.94892 4.5 10.1397 4.57902 10.2803 4.71967C10.421 4.86032 10.5 5.05109 10.5 5.25V9.75H15C15.1989 9.75 15.3897 9.82902 15.5303 9.96967C15.671 10.1103 15.75 10.3011 15.75 10.5C15.75 10.6989 15.671 10.8897 15.5303 11.0303C15.3897 11.171 15.1989 11.25 15 11.25Z" fill="#142D6F"/>
</svg>
