<svg width="18" height="21" viewBox="0 0 18 21" fill="none" xmlns="http://www.w3.org/2000/svg">
<path d="M16.5 2.25H14.25V1.5C14.25 1.30109 14.171 1.11032 14.0303 0.96967C13.8897 0.829018 13.6989 0.75 13.5 0.75C13.3011 0.75 13.1103 0.829018 12.9697 0.96967C12.829 1.11032 12.75 1.30109 12.75 1.5V2.25H5.25V1.5C5.25 1.30109 5.17098 1.11032 5.03033 0.96967C4.88968 0.829018 4.69891 0.75 4.5 0.75C4.30109 0.75 4.11032 0.829018 3.96967 0.96967C3.82902 1.11032 3.75 1.30109 3.75 1.5V2.25H1.5C1.10218 2.25 0.720644 2.40804 0.43934 2.68934C0.158035 2.97064 0 3.35218 0 3.75V18.75C0 19.1478 0.158035 19.5294 0.43934 19.8107C0.720644 20.092 1.10218 20.25 1.5 20.25H16.5C16.8978 20.25 17.2794 20.092 17.5607 19.8107C17.842 19.5294 18 19.1478 18 18.75V3.75C18 3.35218 17.842 2.97064 17.5607 2.68934C17.2794 2.40804 16.8978 2.25 16.5 2.25ZM4.875 16.5C4.6525 16.5 4.43499 16.434 4.24998 16.3104C4.06498 16.1868 3.92078 16.0111 3.83564 15.8055C3.75049 15.6 3.72821 15.3738 3.77162 15.1555C3.81502 14.9373 3.92217 14.7368 4.0795 14.5795C4.23684 14.4222 4.43729 14.315 4.65552 14.2716C4.87375 14.2282 5.09995 14.2505 5.30552 14.3356C5.51109 14.4208 5.68679 14.565 5.8104 14.75C5.93402 14.935 6 15.1525 6 15.375C6 15.6734 5.88147 15.9595 5.6705 16.1705C5.45952 16.3815 5.17337 16.5 4.875 16.5ZM9 16.5C8.7775 16.5 8.55999 16.434 8.37498 16.3104C8.18998 16.1868 8.04578 16.0111 7.96064 15.8055C7.87549 15.6 7.85321 15.3738 7.89662 15.1555C7.94002 14.9373 8.04717 14.7368 8.2045 14.5795C8.36184 14.4222 8.56229 14.315 8.78052 14.2716C8.99875 14.2282 9.22495 14.2505 9.43052 14.3356C9.63608 14.4208 9.81179 14.565 9.9354 14.75C10.059 14.935 10.125 15.1525 10.125 15.375C10.125 15.6734 10.0065 15.9595 9.79549 16.1705C9.58452 16.3815 9.29837 16.5 9 16.5ZM9 12.75C8.7775 12.75 8.55999 12.684 8.37498 12.5604C8.18998 12.4368 8.04578 12.2611 7.96064 12.0555C7.87549 11.85 7.85321 11.6238 7.89662 11.4055C7.94002 11.1873 8.04717 10.9868 8.2045 10.8295C8.36184 10.6722 8.56229 10.565 8.78052 10.5216C8.99875 10.4782 9.22495 10.5005 9.43052 10.5856C9.63608 10.6708 9.81179 10.815 9.9354 11C10.059 11.185 10.125 11.4025 10.125 11.625C10.125 11.9234 10.0065 12.2095 9.79549 12.4205C9.58452 12.6315 9.29837 12.75 9 12.75ZM13.125 16.5C12.9025 16.5 12.685 16.434 12.5 16.3104C12.315 16.1868 12.1708 16.0111 12.0856 15.8055C12.0005 15.6 11.9782 15.3738 12.0216 15.1555C12.065 14.9373 12.1722 14.7368 12.3295 14.5795C12.4868 14.4222 12.6873 14.315 12.9055 14.2716C13.1238 14.2282 13.35 14.2505 13.5555 14.3356C13.7611 14.4208 13.9368 14.565 14.0604 14.75C14.184 14.935 14.25 15.1525 14.25 15.375C14.25 15.6734 14.1315 15.9595 13.9205 16.1705C13.7095 16.3815 13.4234 16.5 13.125 16.5ZM13.125 12.75C12.9025 12.75 12.685 12.684 12.5 12.5604C12.315 12.4368 12.1708 12.2611 12.0856 12.0555C12.0005 11.85 11.9782 11.6238 12.0216 11.4055C12.065 11.1873 12.1722 10.9868 12.3295 10.8295C12.4868 10.6722 12.6873 10.565 12.9055 10.5216C13.1238 10.4782 13.35 10.5005 13.5555 10.5856C13.7611 10.6708 13.9368 10.815 14.0604 11C14.184 11.185 14.25 11.4025 14.25 11.625C14.25 11.9234 14.1315 12.2095 13.9205 12.4205C13.7095 12.6315 13.4234 12.75 13.125 12.75ZM16.5 6.75H1.5V3.75H3.75V4.5C3.75 4.69891 3.82902 4.88968 3.96967 5.03033C4.11032 5.17098 4.30109 5.25 4.5 5.25C4.69891 5.25 4.88968 5.17098 5.03033 5.03033C5.17098 4.88968 5.25 4.69891 5.25 4.5V3.75H12.75V4.5C12.75 4.69891 12.829 4.88968 12.9697 5.03033C13.1103 5.17098 13.3011 5.25 13.5 5.25C13.6989 5.25 13.8897 5.17098 14.0303 5.03033C14.171 4.88968 14.25 4.69891 14.25 4.5V3.75H16.5V6.75Z" fill="#142D6F"/>
</svg>
