<svg width="10" height="16" viewBox="0 0 10 16" fill="none" xmlns="http://www.w3.org/2000/svg">
<path d="M1.02302 15.477L1.02302 15.477C0.936464 15.3904 0.867802 15.2877 0.820956 15.1746L1.05193 15.0789L0.820956 15.1746C0.774111 15.0615 0.75 14.9403 0.75 14.8178C0.75 14.6954 0.774111 14.5742 0.820956 14.4611C0.867802 14.348 0.936464 14.2453 1.02302 14.1587L1.02304 14.1587L7.18255 8L1.02304 1.84131L1.02302 1.8413C0.848209 1.66649 0.75 1.42939 0.75 1.18216C0.75 0.934938 0.848209 0.697839 1.02302 0.523024C1.19784 0.34821 1.43494 0.25 1.68216 0.25C1.92939 0.25 2.16649 0.34821 2.3413 0.523024L9.15904 7.34076L1.02302 15.477ZM1.02302 15.477C1.10958 15.5635 1.21235 15.6322 1.32544 15.679C1.43853 15.7259 1.55975 15.75 1.68216 15.75C1.80458 15.75 1.92579 15.7259 2.03889 15.679C2.15198 15.6322 2.25474 15.5635 2.3413 15.477L9.15904 8.65924L1.02302 15.477Z" fill="#142D6F" stroke="#142D6F" stroke-width="0.5"/>
</svg>
