<svg width="443" height="211" viewBox="0 0 443 211" fill="none" xmlns="http://www.w3.org/2000/svg">
<g filter="url(#filter0_d_0_2232)">
<rect x="24.4414" y="125.451" width="70.7498" height="70.7498" rx="35.3749" fill="white"/>
</g>
<path d="M59.9238 137.543C47.0224 137.543 36.5332 148.032 36.5332 160.933C36.5332 173.835 47.0224 184.324 59.9238 184.324C72.8252 184.324 83.3145 173.835 83.3145 160.933C83.3145 148.032 72.8252 137.543 59.9238 137.543Z" fill="#FDDD4C"/>
<path fill-rule="evenodd" clip-rule="evenodd" d="M63.0642 173.736H57.7928V159.722C57.7928 158.315 56.6127 157.175 55.1571 157.175C53.7014 157.175 52.5214 158.315 52.5214 159.722V173.736H47.25V160.996C47.25 153.961 53.1502 148.257 60.4285 148.257C67.7067 148.257 73.607 153.961 73.607 160.996V173.736H68.3356V159.722C68.3356 158.315 67.1556 157.175 65.6999 157.175C64.2442 157.175 63.0642 158.315 63.0642 159.722V173.736Z" fill="black"/>
<g filter="url(#filter1_d_0_2232)">
<g filter="url(#filter2_d_0_2232)">
<rect x="204.441" y="21.8516" width="70.7498" height="70.7498" rx="35.3749" fill="white"/>
</g>
<g clip-path="url(#clip0_0_2232)">
<path fill-rule="evenodd" clip-rule="evenodd" d="M238.95 35.4593C226.631 35.4593 217.078 44.4869 217.078 56.6749C217.078 63.0505 219.692 68.5622 223.946 72.3679C224.301 72.685 224.52 73.1334 224.531 73.6146L224.651 77.5078C224.69 78.749 225.969 79.5582 227.106 79.0552L231.448 77.1414C231.814 76.9774 232.23 76.95 232.618 77.0539C234.614 77.6007 236.735 77.896 238.95 77.896C251.269 77.896 260.822 68.8684 260.822 56.6804C260.822 44.4923 251.269 35.4593 238.95 35.4593Z" fill="url(#paint0_radial_0_2232)"/>
</g>
<path d="M246.032 69.1025H231.634C229.865 69.1025 228.432 67.6243 228.432 65.7996C228.432 63.975 229.865 62.4968 231.634 62.4968H246.032C247.801 62.4968 249.234 63.975 249.234 65.7996C249.234 67.6243 247.801 69.1025 246.032 69.1025Z" fill="white"/>
<path d="M249.637 62.6585C248.54 62.6585 247.465 62.058 246.861 61.0186L239.673 48.1769C238.799 46.6063 239.314 44.5738 240.837 43.673C242.36 42.7723 244.33 43.3035 245.204 44.8741L252.391 57.7158C253.265 59.2864 252.75 61.3189 251.227 62.2196C250.712 62.5199 250.175 62.6585 249.637 62.6585Z" fill="white"/>
<path d="M228.029 62.6585C227.491 62.6585 226.931 62.5199 226.439 62.2197C224.916 61.3189 224.379 59.2864 225.274 57.7158L232.462 44.8741C233.336 43.3035 235.306 42.7492 236.829 43.673C238.351 44.5738 238.889 46.6063 237.993 48.1769L230.805 61.0186C230.223 62.058 229.148 62.6585 228.029 62.6585Z" fill="white"/>
</g>
<rect x="371.84" y="115.451" width="70.7498" height="70.7498" rx="35.3749" fill="white"/>
<path d="M387.393 131.003H405.241V134.828H387.393V131.003ZM387.393 138.015H405.241V141.84H387.393V138.015ZM387.393 145.027V148.851H405.241V145.027H387.393ZM422.451 131.003H426.276V148.851H422.451V131.003ZM415.439 131.003H419.264V148.851H415.439V131.003ZM408.428 131.003V148.851H412.252V131.003H408.428ZM408.428 166.062H426.276V169.887H408.428V166.062ZM408.428 159.05H426.276V162.875H408.428V159.05ZM420.858 152.039H408.428V155.863H426.276V152.039H420.858ZM387.393 152.039H391.217V169.887H387.393V152.039ZM394.404 152.039H398.229V169.887H394.404V152.039ZM401.416 152.039V169.886H405.241V152.039H401.416Z" fill="#36C5F0"/>
<mask id="mask0_0_2232" style="mask-type:alpha" maskUnits="userSpaceOnUse" x="387" y="151" width="19" height="19">
<rect x="387.393" y="151.546" width="18.3411" height="18.3411" fill="#D9D9D9"/>
</mask>
<g mask="url(#mask0_0_2232)">
<path d="M387.393 131.003H405.241V134.827H387.393V131.003ZM387.393 138.014H405.241V141.839H387.393V138.014ZM387.393 145.026V148.851H405.241V145.026H387.393ZM422.451 131.003H426.276V148.851H422.451V131.003ZM415.439 131.003H419.264V148.851H415.439V131.003ZM408.428 131.003V148.851H412.252V131.003H408.428ZM408.428 166.061H426.276V169.886H408.428V166.061ZM408.428 159.049H426.276V162.874H408.428V159.049ZM420.858 152.038H408.428V155.862H426.276V152.038H420.858ZM387.393 152.038H391.217V169.886H387.393V152.038ZM394.404 152.038H398.229V169.886H394.404V152.038ZM401.416 152.038V169.886H405.241V152.038H401.416Z" fill="#E01E5A"/>
</g>
<mask id="mask1_0_2232" style="mask-type:alpha" maskUnits="userSpaceOnUse" x="387" y="131" width="40" height="39">
<path d="M387.393 131.004H405.241V134.828H387.393V131.004ZM387.393 138.015H405.241V141.84H387.393V138.015ZM387.393 145.027V148.852H405.241V145.027H387.393ZM422.451 131.004H426.276V148.852H422.451V131.004ZM415.439 131.004H419.264V148.852H415.439V131.004ZM408.428 131.004V148.852H412.252V131.004H408.428ZM408.428 166.062H426.276V169.887H408.428V166.062ZM408.428 159.051H426.276V162.875H408.428V159.051ZM420.858 152.039H408.428V155.863H426.276V152.039H420.858ZM387.393 152.039H391.217V169.887H387.393V152.039ZM394.404 152.039H398.229V169.887H394.404V152.039ZM401.416 152.039V169.887H405.241V152.039H401.416Z" fill="black"/>
</mask>
<g mask="url(#mask1_0_2232)">
<rect x="407.936" y="131.004" width="18.3411" height="18.3411" fill="#2EB67D"/>
</g>
<mask id="mask2_0_2232" style="mask-type:alpha" maskUnits="userSpaceOnUse" x="387" y="131" width="40" height="39">
<path d="M387.393 131.004H405.241V134.828H387.393V131.004ZM387.393 138.015H405.241V141.84H387.393V138.015ZM387.393 145.027V148.852H405.241V145.027H387.393ZM422.451 131.004H426.276V148.852H422.451V131.004ZM415.439 131.004H419.264V148.852H415.439V131.004ZM408.428 131.004V148.852H412.252V131.004H408.428ZM408.428 166.062H426.276V169.887H408.428V166.062ZM408.428 159.051H426.276V162.875H408.428V159.051ZM420.858 152.039H408.428V155.863H426.276V152.039H420.858ZM387.393 152.039H391.217V169.887H387.393V152.039ZM394.404 152.039H398.229V169.887H394.404V152.039ZM401.416 152.039V169.887H405.241V152.039H401.416Z" fill="black"/>
</mask>
<g mask="url(#mask2_0_2232)">
<rect x="407.936" y="151.548" width="18.3411" height="18.3411" fill="#ECB22E"/>
</g>
<g filter="url(#filter3_d_0_2232)">
<rect x="320" y="65" width="39" height="39" rx="19.5" fill="white"/>
</g>
<rect x="325.895" y="70.9002" width="27.2885" height="26.7924" rx="13.3962" fill="#1877F2"/>
<g clip-path="url(#clip1_0_2232)">
<path fill-rule="evenodd" clip-rule="evenodd" d="M339.531 77.3728H332.828L339.531 84.0755H332.828L339.531 90.7782H346.234L339.531 84.0755H346.234L339.531 77.3728Z" fill="white"/>
</g>
<rect x="123" y="63" width="39" height="39" rx="19.5" fill="white"/>
<path fill-rule="evenodd" clip-rule="evenodd" d="M143.33 70.4989H141.548V78.125L138.593 71.0542L136.941 71.6994L139.973 78.9534L134.25 73.4212L132.99 74.6391L138.475 79.9415L131.367 76.9393L130.653 78.5176L138.175 81.6943H129.967V83.4167H138.175L130.653 86.5933L131.367 88.1716L138.475 85.1694L132.99 90.4718L134.25 91.6896L139.973 86.1575L136.941 93.4115L138.593 94.0567L141.548 86.9859V94.612H143.33V86.9859L146.285 94.0567L147.937 93.4115L144.905 86.1575L150.628 91.6896L151.888 90.4718L146.403 85.1694L153.512 88.1716L154.225 86.5933L146.703 83.4167H154.911V81.6943H146.703L154.225 78.5176L153.512 76.9393L146.403 79.9415L151.888 74.6391L150.628 73.4212L144.905 78.9534L147.937 71.6994L146.285 71.0542L143.33 78.125V70.4989Z" fill="#FF4A00"/>
<rect x="122" y="128" width="53.0623" height="53.0623" rx="26.5312" fill="white"/>
<path d="M148.732 143.058C155.156 143.058 160.409 148.284 160.409 154.734C160.409 161.185 155.183 166.411 148.732 166.411C142.281 166.411 137.055 161.185 137.055 154.734C137.055 148.284 142.281 143.058 148.732 143.058ZM148.732 137.723C139.342 137.723 131.721 145.344 131.721 154.734C131.721 164.124 139.342 171.746 148.732 171.746C158.122 171.746 165.743 164.124 165.743 154.734C165.743 145.344 158.122 137.723 148.732 137.723Z" fill="black"/>
<path d="M148.732 137.723C139.342 137.723 131.721 145.344 131.721 154.734H148.732V137.723Z" fill="black"/>
<path d="M148.732 171.718C158.123 171.718 165.744 164.097 165.744 154.707H148.732V171.718Z" fill="black"/>
<g filter="url(#filter4_d_0_2232)">
<rect x="293" y="128" width="53.0623" height="53.0623" rx="26.5312" fill="white"/>
</g>
<g clip-path="url(#clip2_0_2232)">
<path d="M297.861 176.605L300.953 165.378C299.042 162.082 298.039 158.35 298.049 154.535C298.049 142.581 307.826 132.861 319.827 132.861C325.655 132.861 331.129 135.117 335.233 139.213C339.349 143.308 341.615 148.755 341.605 154.546C341.605 166.5 331.828 176.22 319.817 176.22H319.806C316.161 176.22 312.578 175.305 309.393 173.579L297.861 176.605ZM309.946 169.66L310.604 170.055C313.383 171.698 316.568 172.561 319.817 172.571H319.827C329.802 172.571 337.928 164.494 337.928 154.556C337.928 149.743 336.048 145.221 332.633 141.811C329.217 138.402 324.663 136.531 319.827 136.531C309.852 136.52 301.726 144.597 301.726 154.535C301.726 157.934 302.676 161.251 304.494 164.12L304.922 164.806L303.094 171.448L309.946 169.66Z" fill="white"/>
<path d="M298.623 175.846L301.61 165.003C299.762 161.833 298.79 158.226 298.79 154.546C298.801 143.007 308.232 133.62 319.826 133.62C325.456 133.62 330.731 135.803 334.7 139.753C338.669 143.703 340.852 148.963 340.852 154.556C340.852 166.095 331.41 175.482 319.826 175.482H319.816C316.296 175.482 312.839 174.598 309.768 172.935L298.623 175.846Z" fill="url(#paint1_linear_0_2232)"/>
<path d="M297.861 176.605L300.953 165.378C299.042 162.082 298.039 158.35 298.049 154.535C298.049 142.581 307.826 132.861 319.827 132.861C325.655 132.861 331.129 135.117 335.233 139.213C339.349 143.308 341.615 148.755 341.605 154.546C341.605 166.5 331.828 176.22 319.817 176.22H319.806C316.161 176.22 312.578 175.305 309.393 173.579L297.861 176.605ZM309.946 169.66L310.604 170.055C313.383 171.698 316.568 172.561 319.817 172.571H319.827C329.802 172.571 337.928 164.494 337.928 154.556C337.928 149.743 336.048 145.221 332.633 141.811C329.217 138.402 324.663 136.531 319.827 136.531C309.852 136.52 301.726 144.597 301.726 154.535C301.726 157.934 302.676 161.251 304.494 164.12L304.922 164.806L303.094 171.448L309.946 169.66Z" fill="url(#paint2_linear_0_2232)"/>
</g>
<path fill-rule="evenodd" clip-rule="evenodd" d="M328.771 154.485L320.145 145.801L311.52 154.485H320.03L311.52 163.053H328.771L320.26 154.485H328.771Z" fill="white"/>
<defs>
<filter id="filter0_d_0_2232" x="0.441406" y="115.451" width="110.75" height="110.75" filterUnits="userSpaceOnUse" color-interpolation-filters="sRGB">
<feFlood flood-opacity="0" result="BackgroundImageFix"/>
<feColorMatrix in="SourceAlpha" type="matrix" values="0 0 0 0 0 0 0 0 0 0 0 0 0 0 0 0 0 0 127 0" result="hardAlpha"/>
<feOffset dx="-4" dy="10"/>
<feGaussianBlur stdDeviation="10"/>
<feComposite in2="hardAlpha" operator="out"/>
<feColorMatrix type="matrix" values="0 0 0 0 0.0784314 0 0 0 0 0.176471 0 0 0 0 0.435294 0 0 0 0.1 0"/>
<feBlend mode="normal" in2="BackgroundImageFix" result="effect1_dropShadow_0_2232"/>
<feBlend mode="normal" in="SourceGraphic" in2="effect1_dropShadow_0_2232" result="shape"/>
</filter>
<filter id="filter1_d_0_2232" x="165.558" y="0.465828" width="148.516" height="148.516" filterUnits="userSpaceOnUse" color-interpolation-filters="sRGB">
<feFlood flood-opacity="0" result="BackgroundImageFix"/>
<feColorMatrix in="SourceAlpha" type="matrix" values="0 0 0 0 0 0 0 0 0 0 0 0 0 0 0 0 0 0 127 0" result="hardAlpha"/>
<feOffset dy="17.4974"/>
<feGaussianBlur stdDeviation="19.4416"/>
<feColorMatrix type="matrix" values="0 0 0 0 0.439216 0 0 0 0 0.564706 0 0 0 0 0.690196 0 0 0 0.12 0"/>
<feBlend mode="normal" in2="BackgroundImageFix" result="effect1_dropShadow_0_2232"/>
<feBlend mode="normal" in="SourceGraphic" in2="effect1_dropShadow_0_2232" result="shape"/>
</filter>
<filter id="filter2_d_0_2232" x="180.441" y="11.8516" width="110.75" height="110.75" filterUnits="userSpaceOnUse" color-interpolation-filters="sRGB">
<feFlood flood-opacity="0" result="BackgroundImageFix"/>
<feColorMatrix in="SourceAlpha" type="matrix" values="0 0 0 0 0 0 0 0 0 0 0 0 0 0 0 0 0 0 127 0" result="hardAlpha"/>
<feOffset dx="-4" dy="10"/>
<feGaussianBlur stdDeviation="10"/>
<feComposite in2="hardAlpha" operator="out"/>
<feColorMatrix type="matrix" values="0 0 0 0 0.0784314 0 0 0 0 0.176471 0 0 0 0 0.435294 0 0 0 0.1 0"/>
<feBlend mode="normal" in2="BackgroundImageFix" result="effect1_dropShadow_0_2232"/>
<feBlend mode="normal" in="SourceGraphic" in2="effect1_dropShadow_0_2232" result="shape"/>
</filter>
<filter id="filter3_d_0_2232" x="296" y="55" width="79" height="79" filterUnits="userSpaceOnUse" color-interpolation-filters="sRGB">
<feFlood flood-opacity="0" result="BackgroundImageFix"/>
<feColorMatrix in="SourceAlpha" type="matrix" values="0 0 0 0 0 0 0 0 0 0 0 0 0 0 0 0 0 0 127 0" result="hardAlpha"/>
<feOffset dx="-4" dy="10"/>
<feGaussianBlur stdDeviation="10"/>
<feComposite in2="hardAlpha" operator="out"/>
<feColorMatrix type="matrix" values="0 0 0 0 0.0784314 0 0 0 0 0.176471 0 0 0 0 0.435294 0 0 0 0.1 0"/>
<feBlend mode="normal" in2="BackgroundImageFix" result="effect1_dropShadow_0_2232"/>
<feBlend mode="normal" in="SourceGraphic" in2="effect1_dropShadow_0_2232" result="shape"/>
</filter>
<filter id="filter4_d_0_2232" x="269" y="118" width="93.0625" height="93.0623" filterUnits="userSpaceOnUse" color-interpolation-filters="sRGB">
<feFlood flood-opacity="0" result="BackgroundImageFix"/>
<feColorMatrix in="SourceAlpha" type="matrix" values="0 0 0 0 0 0 0 0 0 0 0 0 0 0 0 0 0 0 127 0" result="hardAlpha"/>
<feOffset dx="-4" dy="10"/>
<feGaussianBlur stdDeviation="10"/>
<feComposite in2="hardAlpha" operator="out"/>
<feColorMatrix type="matrix" values="0 0 0 0 0.0784314 0 0 0 0 0.176471 0 0 0 0 0.435294 0 0 0 0.1 0"/>
<feBlend mode="normal" in2="BackgroundImageFix" result="effect1_dropShadow_0_2232"/>
<feBlend mode="normal" in="SourceGraphic" in2="effect1_dropShadow_0_2232" result="shape"/>
</filter>
<radialGradient id="paint0_radial_0_2232" cx="0" cy="0" r="1" gradientUnits="userSpaceOnUse" gradientTransform="translate(225.499 78.9719) scale(47.663)">
<stop stop-color="#0099FF"/>
<stop offset="0.6098" stop-color="#A033FF"/>
<stop offset="0.9348" stop-color="#FF5280"/>
<stop offset="1" stop-color="#FF7061"/>
</radialGradient>
<linearGradient id="paint1_linear_0_2232" x1="319.736" y1="175.844" x2="319.736" y2="133.618" gradientUnits="userSpaceOnUse">
<stop stop-color="#20B038"/>
<stop offset="1" stop-color="#60D66A"/>
</linearGradient>
<linearGradient id="paint2_linear_0_2232" x1="319.737" y1="176.6" x2="319.737" y2="132.861" gradientUnits="userSpaceOnUse">
<stop stop-color="#F9F9F9"/>
<stop offset="1" stop-color="white"/>
</linearGradient>
<clipPath id="clip0_0_2232">
<rect width="43.7435" height="43.7435" fill="white" transform="translate(217.078 35.4611)"/>
</clipPath>
<clipPath id="clip1_0_2232">
<rect width="13.4054" height="13.4054" fill="white" transform="translate(332.828 77.3728)"/>
</clipPath>
<clipPath id="clip2_0_2232">
<rect width="43.7435" height="43.7435" fill="white" transform="translate(297.861 132.861)"/>
</clipPath>
</defs>
</svg>
