<svg width="786" height="460" viewBox="0 0 786 460" fill="none" xmlns="http://www.w3.org/2000/svg">
<g filter="url(#filter0_d_0_2279)">
<rect x="24" y="10" width="746" height="420" rx="10" fill="#F6F4EF"/>
</g>
<mask id="mask0_0_2279" style="mask-type:alpha" maskUnits="userSpaceOnUse" x="24" y="10" width="746" height="420">
<rect x="24" y="10" width="746" height="420" rx="10" fill="white"/>
</mask>
<g mask="url(#mask0_0_2279)">
<rect x="481" y="153.068" width="258.75" height="143.068" rx="5" fill="white"/>
<path d="M511.904 183.068V173.484H508.176V171.788H517.696V173.484H513.968V183.068H511.904ZM521.392 183.228C520.56 183.228 519.84 183.058 519.232 182.716C518.624 182.375 518.15 181.89 517.808 181.26C517.478 180.631 517.312 179.884 517.312 179.02C517.312 178.156 517.478 177.415 517.808 176.796C518.15 176.167 518.624 175.682 519.232 175.34C519.84 174.999 520.56 174.828 521.392 174.828C522.224 174.828 522.944 174.999 523.552 175.34C524.171 175.682 524.646 176.167 524.976 176.796C525.318 177.415 525.488 178.156 525.488 179.02C525.488 179.884 525.318 180.631 524.976 181.26C524.646 181.89 524.171 182.375 523.552 182.716C522.944 183.058 522.224 183.228 521.392 183.228ZM521.392 181.692C522.022 181.692 522.523 181.474 522.896 181.036C523.27 180.588 523.456 179.916 523.456 179.02C523.456 178.124 523.27 177.458 522.896 177.02C522.523 176.583 522.022 176.364 521.392 176.364C520.763 176.364 520.262 176.583 519.888 177.02C519.515 177.458 519.328 178.124 519.328 179.02C519.328 179.916 519.515 180.588 519.888 181.036C520.262 181.474 520.763 181.692 521.392 181.692ZM530.591 183.228C529.631 183.228 528.906 182.978 528.415 182.476C527.924 181.975 527.679 181.223 527.679 180.22V176.492H526.127V174.988H527.679V172.924L529.679 172.412V174.988H531.839V176.492H529.679V180.092C529.679 180.647 529.786 181.036 529.999 181.26C530.212 181.484 530.506 181.596 530.879 181.596C531.082 181.596 531.252 181.58 531.391 181.548C531.54 181.516 531.684 181.474 531.823 181.42V183.004C531.642 183.079 531.439 183.132 531.215 183.164C531.002 183.207 530.794 183.228 530.591 183.228ZM536.317 183.228C535.613 183.228 534.995 183.063 534.461 182.732C533.928 182.391 533.512 181.906 533.213 181.276C532.915 180.647 532.765 179.895 532.765 179.02C532.765 178.146 532.915 177.399 533.213 176.78C533.512 176.151 533.928 175.671 534.461 175.34C534.995 174.999 535.613 174.828 536.317 174.828C537 174.828 537.597 174.999 538.109 175.34C538.632 175.671 538.979 176.119 539.149 176.684H538.973L539.149 174.988H541.069C541.037 175.319 541.005 175.655 540.973 175.996C540.952 176.338 540.941 176.674 540.941 177.004V183.068H538.957L538.941 181.404H539.133C538.963 181.959 538.616 182.402 538.093 182.732C537.571 183.063 536.979 183.228 536.317 183.228ZM536.877 181.692C537.507 181.692 538.013 181.474 538.397 181.036C538.781 180.588 538.973 179.916 538.973 179.02C538.973 178.124 538.781 177.458 538.397 177.02C538.013 176.583 537.507 176.364 536.877 176.364C536.248 176.364 535.741 176.583 535.357 177.02C534.973 177.458 534.781 178.124 534.781 179.02C534.781 179.916 534.968 180.588 535.341 181.036C535.725 181.474 536.237 181.692 536.877 181.692ZM543.119 183.068V171.292H545.119V183.068H543.119ZM551.842 183.068V171.788H553.906V183.068H551.842ZM556.229 183.068V177.004C556.229 176.674 556.218 176.338 556.197 175.996C556.175 175.655 556.143 175.319 556.101 174.988H558.037L558.197 176.588H558.005C558.261 176.023 558.639 175.591 559.141 175.292C559.642 174.983 560.223 174.828 560.885 174.828C561.834 174.828 562.549 175.095 563.029 175.628C563.509 176.162 563.749 176.994 563.749 178.124V183.068H561.749V178.22C561.749 177.57 561.621 177.106 561.365 176.828C561.119 176.54 560.746 176.396 560.245 176.396C559.626 176.396 559.135 176.588 558.773 176.972C558.41 177.356 558.229 177.868 558.229 178.508V183.068H556.229ZM569.581 183.228C568.749 183.228 568.019 183.058 567.389 182.716C566.771 182.375 566.291 181.89 565.949 181.26C565.608 180.62 565.437 179.863 565.437 178.988C565.437 178.114 565.608 177.367 565.949 176.748C566.301 176.13 566.787 175.655 567.405 175.324C568.024 174.994 568.749 174.828 569.581 174.828C570.115 174.828 570.632 174.914 571.133 175.084C571.645 175.244 572.061 175.479 572.381 175.788L571.773 177.18C571.485 176.914 571.16 176.716 570.797 176.588C570.445 176.45 570.099 176.38 569.757 176.38C569.043 176.38 568.483 176.604 568.077 177.052C567.683 177.5 567.485 178.151 567.485 179.004C567.485 179.858 567.683 180.514 568.077 180.972C568.483 181.431 569.043 181.66 569.757 181.66C570.088 181.66 570.429 181.596 570.781 181.468C571.144 181.34 571.475 181.143 571.773 180.876L572.381 182.252C572.051 182.562 571.629 182.802 571.117 182.972C570.616 183.143 570.104 183.228 569.581 183.228ZM577.424 183.228C576.592 183.228 575.872 183.058 575.264 182.716C574.656 182.375 574.181 181.89 573.84 181.26C573.509 180.631 573.344 179.884 573.344 179.02C573.344 178.156 573.509 177.415 573.84 176.796C574.181 176.167 574.656 175.682 575.264 175.34C575.872 174.999 576.592 174.828 577.424 174.828C578.256 174.828 578.976 174.999 579.584 175.34C580.202 175.682 580.677 176.167 581.008 176.796C581.349 177.415 581.52 178.156 581.52 179.02C581.52 179.884 581.349 180.631 581.008 181.26C580.677 181.89 580.202 182.375 579.584 182.716C578.976 183.058 578.256 183.228 577.424 183.228ZM577.424 181.692C578.053 181.692 578.554 181.474 578.928 181.036C579.301 180.588 579.488 179.916 579.488 179.02C579.488 178.124 579.301 177.458 578.928 177.02C578.554 176.583 578.053 176.364 577.424 176.364C576.794 176.364 576.293 176.583 575.92 177.02C575.546 177.458 575.36 178.124 575.36 179.02C575.36 179.916 575.546 180.588 575.92 181.036C576.293 181.474 576.794 181.692 577.424 181.692ZM583.244 183.068V177.004C583.244 176.674 583.234 176.338 583.212 175.996C583.191 175.655 583.159 175.319 583.116 174.988H585.052L585.212 176.588H585.02C585.244 176.034 585.586 175.602 586.044 175.292C586.514 174.983 587.068 174.828 587.708 174.828C588.348 174.828 588.876 174.983 589.292 175.292C589.719 175.591 590.018 176.06 590.188 176.7H589.932C590.156 176.124 590.524 175.671 591.036 175.34C591.548 174.999 592.135 174.828 592.796 174.828C593.703 174.828 594.38 175.095 594.828 175.628C595.276 176.162 595.5 176.994 595.5 178.124V183.068H593.5V178.204C593.5 177.564 593.394 177.106 593.18 176.828C592.967 176.54 592.626 176.396 592.156 176.396C591.602 176.396 591.164 176.594 590.844 176.988C590.524 177.372 590.364 177.895 590.364 178.556V183.068H588.364V178.204C588.364 177.564 588.258 177.106 588.044 176.828C587.831 176.54 587.49 176.396 587.02 176.396C586.466 176.396 586.028 176.594 585.708 176.988C585.399 177.372 585.244 177.895 585.244 178.556V183.068H583.244ZM601.539 183.228C600.184 183.228 599.123 182.855 598.355 182.108C597.587 181.362 597.203 180.338 597.203 179.036C597.203 178.194 597.368 177.458 597.699 176.828C598.03 176.199 598.488 175.708 599.075 175.356C599.672 175.004 600.366 174.828 601.155 174.828C601.934 174.828 602.584 174.994 603.107 175.324C603.63 175.655 604.024 176.119 604.291 176.716C604.568 177.314 604.707 178.012 604.707 178.812V179.34H598.819V178.284H603.283L603.011 178.508C603.011 177.762 602.851 177.191 602.531 176.796C602.222 176.402 601.768 176.204 601.171 176.204C600.51 176.204 599.998 176.439 599.635 176.908C599.283 177.378 599.107 178.034 599.107 178.876V179.084C599.107 179.959 599.32 180.615 599.747 181.052C600.184 181.479 600.798 181.692 601.587 181.692C602.046 181.692 602.472 181.634 602.867 181.516C603.272 181.388 603.656 181.186 604.019 180.908L604.611 182.252C604.227 182.562 603.768 182.802 603.235 182.972C602.702 183.143 602.136 183.228 601.539 183.228Z" fill="#A1A0BD"/>
<path d="M515.569 231.625V206.134H517.483V231.625H515.569ZM516.787 229.45C515.318 229.45 514.003 229.199 512.843 228.696C511.683 228.194 510.774 227.459 510.117 226.492C509.46 225.526 509.112 224.356 509.073 222.983H513.22C513.259 223.583 513.413 224.124 513.684 224.607C513.974 225.091 514.38 225.477 514.902 225.767C515.424 226.038 516.043 226.173 516.758 226.173C517.377 226.173 517.908 226.077 518.353 225.883C518.817 225.69 519.175 225.41 519.426 225.042C519.697 224.675 519.832 224.23 519.832 223.708C519.832 223.128 519.687 222.645 519.397 222.258C519.107 221.852 518.701 221.514 518.179 221.243C517.676 220.973 517.106 220.731 516.468 220.518C515.83 220.286 515.153 220.054 514.438 219.822C512.853 219.281 511.635 218.575 510.784 217.705C509.953 216.835 509.537 215.685 509.537 214.254C509.537 213.036 509.827 212.002 510.407 211.151C511.006 210.281 511.818 209.614 512.843 209.15C513.887 208.686 515.086 208.454 516.439 208.454C517.812 208.454 519.01 208.696 520.035 209.179C521.079 209.643 521.901 210.32 522.5 211.209C523.099 212.099 523.418 213.143 523.457 214.341H519.252C519.252 213.877 519.126 213.452 518.875 213.065C518.643 212.659 518.314 212.34 517.889 212.108C517.464 211.857 516.951 211.731 516.352 211.731C515.849 211.712 515.395 211.789 514.989 211.963C514.583 212.137 514.254 212.389 514.003 212.717C513.771 213.046 513.655 213.471 513.655 213.993C513.655 214.477 513.771 214.883 514.003 215.211C514.235 215.54 514.564 215.82 514.989 216.052C515.414 216.284 515.907 216.507 516.468 216.719C517.048 216.932 517.686 217.154 518.382 217.386C519.387 217.734 520.315 218.15 521.166 218.633C522.017 219.097 522.693 219.706 523.196 220.46C523.699 221.214 523.95 222.2 523.95 223.418C523.95 224.501 523.67 225.497 523.109 226.405C522.568 227.314 521.765 228.049 520.702 228.609C519.639 229.17 518.334 229.45 516.787 229.45ZM529.166 229.102V213.297L525.773 214.08V211.035L530.819 208.802H533.197V229.102H529.166ZM543.894 229.45C542.502 229.45 541.235 229.199 540.095 228.696C538.973 228.194 538.074 227.488 537.398 226.579C536.74 225.671 536.412 224.617 536.412 223.418C536.412 222.587 536.547 221.833 536.818 221.156C537.108 220.48 537.514 219.88 538.036 219.358C538.558 218.836 539.167 218.44 539.863 218.169C538.973 217.763 538.258 217.183 537.717 216.429C537.175 215.675 536.905 214.825 536.905 213.877C536.905 212.93 537.166 212.041 537.688 211.209C538.229 210.378 539.012 209.711 540.037 209.208C541.081 208.706 542.366 208.454 543.894 208.454C545.421 208.454 546.707 208.706 547.751 209.208C548.795 209.711 549.568 210.378 550.071 211.209C550.593 212.041 550.854 212.93 550.854 213.877C550.854 214.805 550.583 215.656 550.042 216.429C549.5 217.183 548.785 217.763 547.896 218.169C548.63 218.459 549.249 218.865 549.752 219.387C550.274 219.89 550.67 220.48 550.941 221.156C551.231 221.833 551.376 222.587 551.376 223.418C551.376 224.617 551.037 225.671 550.361 226.579C549.703 227.488 548.814 228.194 547.693 228.696C546.571 229.199 545.305 229.45 543.894 229.45ZM543.894 226.173C545.092 226.173 546.001 225.883 546.62 225.303C547.238 224.723 547.548 223.989 547.548 223.099C547.548 222.113 547.219 221.34 546.562 220.779C545.924 220.199 545.034 219.909 543.894 219.909C542.753 219.909 541.854 220.199 541.197 220.779C540.539 221.34 540.211 222.113 540.211 223.099C540.211 223.989 540.52 224.723 541.139 225.303C541.777 225.883 542.695 226.173 543.894 226.173ZM543.894 217.038C544.88 217.038 545.643 216.787 546.185 216.284C546.745 215.782 547.026 215.134 547.026 214.341C547.026 213.491 546.745 212.833 546.185 212.369C545.643 211.886 544.88 211.644 543.894 211.644C542.908 211.644 542.144 211.886 541.603 212.369C541.061 212.833 540.791 213.5 540.791 214.37C540.791 215.144 541.061 215.782 541.603 216.284C542.144 216.787 542.908 217.038 543.894 217.038ZM561.791 229.45C560.303 229.45 559.017 229.189 557.934 228.667C556.852 228.126 556.001 227.401 555.382 226.492C554.783 225.564 554.435 224.52 554.338 223.36H558.166C558.321 224.134 558.727 224.791 559.384 225.332C560.042 225.854 560.844 226.115 561.791 226.115C562.487 226.115 563.096 225.941 563.618 225.593C564.16 225.245 564.575 224.772 564.865 224.172C565.155 223.554 565.3 222.877 565.3 222.142C565.3 221.35 565.146 220.673 564.836 220.112C564.546 219.532 564.14 219.097 563.618 218.807C563.096 218.498 562.497 218.343 561.82 218.343C561.008 218.343 560.293 218.546 559.674 218.952C559.056 219.358 558.63 219.871 558.398 220.489H554.628L556.368 208.802H567.707V212.224H559.268L558.398 216.69C558.824 216.246 559.394 215.878 560.109 215.588C560.825 215.298 561.627 215.153 562.516 215.153C563.618 215.153 564.575 215.347 565.387 215.733C566.199 216.101 566.876 216.613 567.417 217.27C567.978 217.928 568.394 218.672 568.664 219.503C568.954 220.335 569.099 221.195 569.099 222.084C569.099 223.167 568.916 224.163 568.548 225.071C568.2 225.961 567.698 226.734 567.04 227.391C566.402 228.049 565.629 228.561 564.72 228.928C563.831 229.276 562.855 229.45 561.791 229.45ZM578.831 229.45C577.516 229.45 576.308 229.209 575.206 228.725C574.104 228.242 573.224 227.507 572.567 226.521C571.909 225.535 571.561 224.288 571.523 222.78H575.38C575.399 223.418 575.544 223.998 575.815 224.52C576.085 225.023 576.472 225.429 576.975 225.738C577.497 226.028 578.115 226.173 578.831 226.173C579.527 226.173 580.107 226.038 580.571 225.767C581.054 225.497 581.421 225.139 581.673 224.694C581.924 224.25 582.05 223.737 582.05 223.157C582.05 222.461 581.885 221.891 581.557 221.446C581.228 220.982 580.764 220.634 580.165 220.402C579.585 220.151 578.908 220.025 578.135 220.025H576.627V216.806H578.135C579.082 216.806 579.875 216.594 580.513 216.168C581.151 215.724 581.47 215.066 581.47 214.196C581.47 213.462 581.228 212.872 580.745 212.427C580.281 211.983 579.633 211.76 578.802 211.76C577.893 211.76 577.178 212.031 576.656 212.572C576.153 213.114 575.873 213.781 575.815 214.573H572.016C572.074 213.297 572.393 212.205 572.973 211.296C573.553 210.368 574.336 209.663 575.322 209.179C576.327 208.696 577.497 208.454 578.831 208.454C580.223 208.454 581.402 208.706 582.369 209.208C583.335 209.692 584.07 210.349 584.573 211.18C585.075 211.992 585.327 212.891 585.327 213.877C585.327 214.651 585.172 215.347 584.863 215.965C584.573 216.565 584.176 217.067 583.674 217.473C583.19 217.879 582.649 218.179 582.05 218.372C582.804 218.508 583.471 218.798 584.051 219.242C584.631 219.687 585.075 220.257 585.385 220.953C585.713 221.63 585.878 222.413 585.878 223.302C585.878 224.404 585.607 225.429 585.066 226.376C584.524 227.304 583.732 228.049 582.688 228.609C581.644 229.17 580.358 229.45 578.831 229.45ZM588.572 229.102V226.231C589.79 225.245 590.979 224.259 592.139 223.273C593.299 222.287 594.343 221.311 595.271 220.344C596.199 219.358 596.924 218.401 597.446 217.473C597.987 216.545 598.258 215.646 598.258 214.776C598.258 214.235 598.161 213.742 597.968 213.297C597.774 212.833 597.475 212.466 597.069 212.195C596.663 211.905 596.121 211.76 595.445 211.76C594.787 211.76 594.227 211.915 593.763 212.224C593.299 212.534 592.951 212.949 592.719 213.471C592.487 213.974 592.371 214.544 592.371 215.182H588.601C588.639 213.694 588.968 212.447 589.587 211.441C590.205 210.436 591.037 209.692 592.081 209.208C593.125 208.706 594.285 208.454 595.561 208.454C596.991 208.454 598.19 208.725 599.157 209.266C600.143 209.788 600.887 210.504 601.39 211.412C601.912 212.321 602.173 213.365 602.173 214.544C602.173 215.434 602.008 216.304 601.68 217.154C601.37 218.005 600.926 218.836 600.346 219.648C599.785 220.441 599.147 221.205 598.432 221.939C597.736 222.674 597.001 223.38 596.228 224.056C595.474 224.714 594.729 225.332 593.995 225.912H602.637V229.102H588.572Z" fill="#142D6F"/>
<path d="M605.984 229.197C605.516 229.197 605.129 229.058 604.825 228.779C604.534 228.488 604.388 228.133 604.388 227.715C604.388 227.297 604.534 226.949 604.825 226.67C605.129 226.379 605.516 226.233 605.984 226.233C606.453 226.233 606.833 226.379 607.124 226.67C607.416 226.949 607.561 227.297 607.561 227.715C607.561 228.133 607.416 228.488 607.124 228.779C606.833 229.058 606.453 229.197 605.984 229.197ZM614.402 229.33C613.426 229.33 612.59 229.159 611.894 228.817C611.197 228.475 610.646 228.007 610.241 227.411C609.848 226.803 609.62 226.119 609.557 225.359H612.065C612.153 225.866 612.413 226.29 612.844 226.632C613.274 226.974 613.8 227.145 614.421 227.145C614.877 227.145 615.276 227.031 615.618 226.803C615.96 226.575 616.226 226.265 616.416 225.872C616.606 225.48 616.701 225.036 616.701 224.542C616.701 224.036 616.606 223.599 616.416 223.231C616.226 222.864 615.96 222.579 615.618 222.376C615.276 222.174 614.883 222.072 614.44 222.072C613.908 222.072 613.445 222.205 613.053 222.471C612.66 222.737 612.381 223.06 612.217 223.44H609.747L610.868 215.802H618.297V218.044H612.768L612.198 220.989C612.476 220.698 612.85 220.457 613.319 220.267C613.787 220.077 614.313 219.982 614.896 219.982C615.618 219.982 616.245 220.109 616.777 220.362C617.309 220.603 617.752 220.939 618.107 221.369C618.474 221.8 618.746 222.288 618.924 222.832C619.101 223.364 619.19 223.928 619.19 224.523C619.19 225.22 619.069 225.866 618.829 226.461C618.601 227.044 618.271 227.551 617.841 227.981C617.423 228.412 616.922 228.748 616.34 228.988C615.757 229.216 615.111 229.33 614.402 229.33ZM620.591 229.102V227.221C621.389 226.575 622.168 225.929 622.928 225.283C623.688 224.637 624.372 223.998 624.98 223.364C625.6 222.718 626.082 222.091 626.424 221.483C626.778 220.875 626.956 220.286 626.956 219.716C626.956 219.362 626.892 219.039 626.766 218.747C626.639 218.443 626.436 218.203 626.158 218.025C625.892 217.835 625.537 217.74 625.094 217.74C624.663 217.74 624.296 217.842 623.992 218.044C623.688 218.247 623.46 218.519 623.308 218.861C623.156 219.191 623.08 219.564 623.08 219.982H620.61C620.635 219.007 620.85 218.19 621.256 217.531C621.661 216.873 622.206 216.385 622.89 216.068C623.574 215.739 624.334 215.574 625.17 215.574C626.107 215.574 626.899 215.752 627.545 216.106C628.191 216.448 628.678 216.917 629.008 217.512C629.35 218.108 629.521 218.792 629.521 219.564C629.521 220.147 629.413 220.717 629.198 221.274C628.995 221.832 628.704 222.376 628.324 222.908C627.956 223.428 627.538 223.928 627.07 224.409C626.614 224.891 626.132 225.353 625.626 225.796C625.119 226.227 624.625 226.632 624.144 227.012H629.844V229.102H620.591Z" fill="#A3BDFF"/>
<rect x="508" y="251.137" width="103" height="32" rx="16" fill="#DCF5E8"/>
<path fill-rule="evenodd" clip-rule="evenodd" d="M538.495 261.763C538.495 261.597 538.558 261.437 538.671 261.32C538.783 261.202 538.936 261.137 539.095 261.137H543.899C544.059 261.137 544.211 261.202 544.324 261.32C544.437 261.437 544.5 261.597 544.5 261.763V266.771C544.5 266.937 544.437 267.096 544.324 267.214C544.211 267.331 544.059 267.397 543.899 267.397C543.74 267.397 543.587 267.331 543.475 267.214C543.362 267.096 543.299 266.937 543.299 266.771V263.516L538.96 269.046C538.906 269.114 538.84 269.169 538.765 269.208C538.691 269.248 538.609 269.27 538.525 269.275C538.441 269.279 538.358 269.265 538.279 269.234C538.201 269.202 538.13 269.154 538.071 269.092L534.964 265.853L530.573 272.147C530.477 272.275 530.337 272.358 530.183 272.381C530.029 272.403 529.873 272.362 529.747 272.267C529.622 272.171 529.536 272.029 529.509 271.869C529.482 271.71 529.515 271.546 529.602 271.411L534.406 264.525C534.457 264.451 534.523 264.391 534.599 264.346C534.674 264.302 534.758 264.276 534.845 264.268C534.931 264.261 535.018 264.274 535.1 264.305C535.181 264.336 535.255 264.386 535.317 264.45L538.45 267.718L542.632 262.389H539.095C538.936 262.389 538.783 262.323 538.671 262.205C538.558 262.088 538.495 261.929 538.495 261.763Z" fill="#4FD18B"/>
<path d="M554.208 270.389V263.017H555.881V270.389H554.208ZM551.358 267.54V265.867H558.73V267.54H551.358ZM569.22 261.227V272.137H567.244V263.15H567.18L564.628 264.78V262.969L567.34 261.227H569.22ZM576.427 261.227V272.137H574.451V263.15H574.387L571.835 264.78V262.969L574.547 261.227H576.427ZM585.03 270.091V269.516C585.03 269.093 585.119 268.704 585.296 268.349C585.477 267.994 585.74 267.708 586.084 267.492C586.429 267.275 586.846 267.167 587.336 267.167C587.84 267.167 588.263 267.275 588.604 267.492C588.945 267.705 589.202 267.989 589.376 268.344C589.554 268.699 589.643 269.09 589.643 269.516V270.091C589.643 270.514 589.554 270.903 589.376 271.258C589.199 271.613 588.938 271.899 588.593 272.115C588.252 272.332 587.833 272.44 587.336 272.44C586.839 272.44 586.418 272.332 586.074 272.115C585.729 271.899 585.468 271.613 585.291 271.258C585.117 270.903 585.03 270.514 585.03 270.091ZM586.42 269.516V270.091C586.42 270.372 586.487 270.629 586.622 270.863C586.757 271.098 586.995 271.215 587.336 271.215C587.681 271.215 587.917 271.1 588.045 270.869C588.176 270.634 588.242 270.375 588.242 270.091V269.516C588.242 269.232 588.18 268.972 588.055 268.738C587.931 268.5 587.691 268.381 587.336 268.381C587.002 268.381 586.766 268.5 586.628 268.738C586.489 268.972 586.42 269.232 586.42 269.516ZM579.485 263.848V263.273C579.485 262.847 579.575 262.456 579.756 262.101C579.937 261.746 580.2 261.462 580.545 261.249C580.889 261.032 581.306 260.924 581.796 260.924C582.297 260.924 582.718 261.032 583.059 261.249C583.403 261.462 583.663 261.746 583.837 262.101C584.011 262.456 584.098 262.847 584.098 263.273V263.848C584.098 264.274 584.009 264.665 583.831 265.02C583.657 265.372 583.398 265.654 583.054 265.867C582.709 266.08 582.29 266.187 581.796 266.187C581.296 266.187 580.873 266.08 580.529 265.867C580.188 265.654 579.929 265.37 579.751 265.015C579.573 264.66 579.485 264.271 579.485 263.848ZM580.886 263.273V263.848C580.886 264.132 580.951 264.392 581.083 264.626C581.218 264.857 581.456 264.972 581.796 264.972C582.137 264.972 582.372 264.857 582.5 264.626C582.631 264.392 582.697 264.132 582.697 263.848V263.273C582.697 262.989 582.634 262.73 582.51 262.495C582.386 262.257 582.148 262.138 581.796 262.138C581.459 262.138 581.223 262.257 581.088 262.495C580.953 262.733 580.886 262.992 580.886 263.273ZM580.092 272.137L587.592 261.227H588.924L581.424 272.137H580.092Z" fill="#4FD18B"/>
<rect x="481" y="311.137" width="258.75" height="143.068" rx="5" fill="white"/>
<path d="M511.904 341.137V331.553H508.176V329.857H517.696V331.553H513.968V341.137H511.904ZM521.392 341.297C520.56 341.297 519.84 341.126 519.232 340.785C518.624 340.443 518.15 339.958 517.808 339.329C517.478 338.699 517.312 337.953 517.312 337.089C517.312 336.225 517.478 335.483 517.808 334.865C518.15 334.235 518.624 333.75 519.232 333.409C519.84 333.067 520.56 332.897 521.392 332.897C522.224 332.897 522.944 333.067 523.552 333.409C524.171 333.75 524.646 334.235 524.976 334.865C525.318 335.483 525.488 336.225 525.488 337.089C525.488 337.953 525.318 338.699 524.976 339.329C524.646 339.958 524.171 340.443 523.552 340.785C522.944 341.126 522.224 341.297 521.392 341.297ZM521.392 339.761C522.022 339.761 522.523 339.542 522.896 339.105C523.27 338.657 523.456 337.985 523.456 337.089C523.456 336.193 523.27 335.526 522.896 335.089C522.523 334.651 522.022 334.433 521.392 334.433C520.763 334.433 520.262 334.651 519.888 335.089C519.515 335.526 519.328 336.193 519.328 337.089C519.328 337.985 519.515 338.657 519.888 339.105C520.262 339.542 520.763 339.761 521.392 339.761ZM530.591 341.297C529.631 341.297 528.906 341.046 528.415 340.545C527.924 340.043 527.679 339.291 527.679 338.289V334.561H526.127V333.057H527.679V330.993L529.679 330.481V333.057H531.839V334.561H529.679V338.161C529.679 338.715 529.786 339.105 529.999 339.329C530.212 339.553 530.506 339.665 530.879 339.665C531.082 339.665 531.252 339.649 531.391 339.617C531.54 339.585 531.684 339.542 531.823 339.489V341.073C531.642 341.147 531.439 341.201 531.215 341.233C531.002 341.275 530.794 341.297 530.591 341.297ZM536.317 341.297C535.613 341.297 534.995 341.131 534.461 340.801C533.928 340.459 533.512 339.974 533.213 339.345C532.915 338.715 532.765 337.963 532.765 337.089C532.765 336.214 532.915 335.467 533.213 334.849C533.512 334.219 533.928 333.739 534.461 333.409C534.995 333.067 535.613 332.897 536.317 332.897C537 332.897 537.597 333.067 538.109 333.409C538.632 333.739 538.979 334.187 539.149 334.753H538.973L539.149 333.057H541.069C541.037 333.387 541.005 333.723 540.973 334.065C540.952 334.406 540.941 334.742 540.941 335.073V341.137H538.957L538.941 339.473H539.133C538.963 340.027 538.616 340.47 538.093 340.801C537.571 341.131 536.979 341.297 536.317 341.297ZM536.877 339.761C537.507 339.761 538.013 339.542 538.397 339.105C538.781 338.657 538.973 337.985 538.973 337.089C538.973 336.193 538.781 335.526 538.397 335.089C538.013 334.651 537.507 334.433 536.877 334.433C536.248 334.433 535.741 334.651 535.357 335.089C534.973 335.526 534.781 336.193 534.781 337.089C534.781 337.985 534.968 338.657 535.341 339.105C535.725 339.542 536.237 339.761 536.877 339.761ZM543.119 341.137V329.361H545.119V341.137H543.119ZM555.778 341.297C554.871 341.297 554.034 341.185 553.266 340.961C552.508 340.726 551.858 340.406 551.314 340.001L551.954 338.385C552.316 338.641 552.695 338.859 553.09 339.041C553.484 339.211 553.906 339.345 554.354 339.441C554.802 339.526 555.276 339.569 555.778 339.569C556.62 339.569 557.228 339.43 557.602 339.153C557.975 338.875 558.162 338.513 558.162 338.065C558.162 337.67 558.034 337.371 557.778 337.169C557.522 336.955 557.063 336.779 556.402 336.641L554.594 336.273C553.559 336.059 552.786 335.702 552.274 335.201C551.762 334.699 551.506 334.027 551.506 333.185C551.506 332.481 551.692 331.867 552.066 331.345C552.439 330.822 552.962 330.417 553.634 330.129C554.306 329.841 555.09 329.697 555.986 329.697C556.786 329.697 557.527 329.814 558.21 330.049C558.892 330.273 559.463 330.598 559.922 331.025L559.282 332.561C558.823 332.177 558.322 331.894 557.778 331.713C557.234 331.521 556.626 331.425 555.954 331.425C555.196 331.425 554.604 331.574 554.178 331.873C553.762 332.161 553.554 332.561 553.554 333.073C553.554 333.467 553.682 333.782 553.938 334.017C554.204 334.251 554.652 334.433 555.282 334.561L557.074 334.913C558.14 335.126 558.93 335.478 559.442 335.969C559.954 336.449 560.21 337.099 560.21 337.921C560.21 338.593 560.028 339.185 559.666 339.697C559.303 340.198 558.791 340.593 558.13 340.881C557.468 341.158 556.684 341.297 555.778 341.297ZM565.114 341.297C564.41 341.297 563.792 341.131 563.258 340.801C562.725 340.459 562.309 339.974 562.01 339.345C561.712 338.715 561.562 337.963 561.562 337.089C561.562 336.214 561.712 335.467 562.01 334.849C562.309 334.219 562.725 333.739 563.258 333.409C563.792 333.067 564.41 332.897 565.114 332.897C565.797 332.897 566.394 333.067 566.906 333.409C567.429 333.739 567.776 334.187 567.946 334.753H567.77L567.946 333.057H569.866C569.834 333.387 569.802 333.723 569.77 334.065C569.749 334.406 569.738 334.742 569.738 335.073V341.137H567.754L567.738 339.473H567.93C567.76 340.027 567.413 340.47 566.89 340.801C566.368 341.131 565.776 341.297 565.114 341.297ZM565.674 339.761C566.304 339.761 566.81 339.542 567.194 339.105C567.578 338.657 567.77 337.985 567.77 337.089C567.77 336.193 567.578 335.526 567.194 335.089C566.81 334.651 566.304 334.433 565.674 334.433C565.045 334.433 564.538 334.651 564.154 335.089C563.77 335.526 563.578 336.193 563.578 337.089C563.578 337.985 563.765 338.657 564.138 339.105C564.522 339.542 565.034 339.761 565.674 339.761ZM574.206 341.137L570.718 333.057H572.846L575.374 339.377H574.878L577.47 333.057H579.47L575.966 341.137H574.206ZM584.289 341.297C582.934 341.297 581.873 340.923 581.105 340.177C580.337 339.43 579.953 338.406 579.953 337.105C579.953 336.262 580.118 335.526 580.449 334.897C580.78 334.267 581.238 333.777 581.825 333.425C582.422 333.073 583.116 332.897 583.905 332.897C584.684 332.897 585.334 333.062 585.857 333.393C586.38 333.723 586.774 334.187 587.041 334.785C587.318 335.382 587.457 336.081 587.457 336.881V337.409H581.569V336.353H586.033L585.761 336.577C585.761 335.83 585.601 335.259 585.281 334.865C584.972 334.47 584.518 334.273 583.921 334.273C583.26 334.273 582.748 334.507 582.385 334.977C582.033 335.446 581.857 336.102 581.857 336.945V337.153C581.857 338.027 582.07 338.683 582.497 339.121C582.934 339.547 583.548 339.761 584.337 339.761C584.796 339.761 585.222 339.702 585.617 339.585C586.022 339.457 586.406 339.254 586.769 338.977L587.361 340.321C586.977 340.63 586.518 340.87 585.985 341.041C585.452 341.211 584.886 341.297 584.289 341.297ZM592.031 341.297C591.337 341.297 590.697 341.217 590.111 341.057C589.535 340.886 589.049 340.651 588.655 340.353L589.215 339.009C589.62 339.286 590.068 339.499 590.559 339.649C591.049 339.798 591.545 339.873 592.047 339.873C592.58 339.873 592.975 339.782 593.231 339.601C593.497 339.419 593.631 339.174 593.631 338.865C593.631 338.619 593.545 338.427 593.375 338.289C593.215 338.139 592.953 338.027 592.591 337.953L590.991 337.649C590.308 337.499 589.785 337.243 589.423 336.881C589.071 336.518 588.895 336.043 588.895 335.457C588.895 334.955 589.028 334.513 589.295 334.129C589.572 333.745 589.961 333.446 590.463 333.233C590.975 333.009 591.572 332.897 592.255 332.897C592.852 332.897 593.412 332.977 593.935 333.137C594.468 333.297 594.916 333.537 595.279 333.857L594.703 335.153C594.372 334.886 593.993 334.678 593.567 334.529C593.14 334.379 592.724 334.305 592.319 334.305C591.764 334.305 591.359 334.406 591.103 334.609C590.847 334.801 590.719 335.051 590.719 335.361C590.719 335.595 590.793 335.793 590.943 335.953C591.103 336.102 591.348 336.214 591.679 336.289L593.279 336.593C593.993 336.731 594.532 336.977 594.895 337.329C595.268 337.67 595.455 338.139 595.455 338.737C595.455 339.27 595.311 339.729 595.023 340.113C594.735 340.497 594.335 340.79 593.823 340.993C593.311 341.195 592.713 341.297 592.031 341.297Z" fill="#A1A0BD"/>
<path d="M515.569 389.694V364.203H517.483V389.694H515.569ZM516.787 387.519C515.318 387.519 514.003 387.267 512.843 386.765C511.683 386.262 510.774 385.527 510.117 384.561C509.46 383.594 509.112 382.424 509.073 381.052H513.22C513.259 381.651 513.413 382.192 513.684 382.676C513.974 383.159 514.38 383.546 514.902 383.836C515.424 384.106 516.043 384.242 516.758 384.242C517.377 384.242 517.908 384.145 518.353 383.952C518.817 383.758 519.175 383.478 519.426 383.111C519.697 382.743 519.832 382.299 519.832 381.777C519.832 381.197 519.687 380.713 519.397 380.327C519.107 379.921 518.701 379.582 518.179 379.312C517.676 379.041 517.106 378.799 516.468 378.587C515.83 378.355 515.153 378.123 514.438 377.891C512.853 377.349 511.635 376.644 510.784 375.774C509.953 374.904 509.537 373.753 509.537 372.323C509.537 371.105 509.827 370.07 510.407 369.22C511.006 368.35 511.818 367.683 512.843 367.219C513.887 366.755 515.086 366.523 516.439 366.523C517.812 366.523 519.01 366.764 520.035 367.248C521.079 367.712 521.901 368.388 522.5 369.278C523.099 370.167 523.418 371.211 523.457 372.41H519.252C519.252 371.946 519.126 371.52 518.875 371.134C518.643 370.728 518.314 370.409 517.889 370.177C517.464 369.925 516.951 369.8 516.352 369.8C515.849 369.78 515.395 369.858 514.989 370.032C514.583 370.206 514.254 370.457 514.003 370.786C513.771 371.114 513.655 371.54 513.655 372.062C513.655 372.545 513.771 372.951 514.003 373.28C514.235 373.608 514.564 373.889 514.989 374.121C515.414 374.353 515.907 374.575 516.468 374.788C517.048 375 517.686 375.223 518.382 375.455C519.387 375.803 520.315 376.218 521.166 376.702C522.017 377.166 522.693 377.775 523.196 378.529C523.699 379.283 523.95 380.269 523.95 381.487C523.95 382.569 523.67 383.565 523.109 384.474C522.568 385.382 521.765 386.117 520.702 386.678C519.639 387.238 518.334 387.519 516.787 387.519ZM529.166 387.171V371.366L525.773 372.149V369.104L530.819 366.871H533.197V387.171H529.166ZM543.459 387.519C542.144 387.519 540.936 387.277 539.834 386.794C538.732 386.31 537.852 385.576 537.195 384.59C536.537 383.604 536.189 382.357 536.151 380.849H540.008C540.027 381.487 540.172 382.067 540.443 382.589C540.713 383.091 541.1 383.497 541.603 383.807C542.125 384.097 542.743 384.242 543.459 384.242C544.155 384.242 544.735 384.106 545.199 383.836C545.682 383.565 546.049 383.207 546.301 382.763C546.552 382.318 546.678 381.806 546.678 381.226C546.678 380.53 546.513 379.959 546.185 379.515C545.856 379.051 545.392 378.703 544.793 378.471C544.213 378.219 543.536 378.094 542.763 378.094H541.255V374.875H542.763C543.71 374.875 544.503 374.662 545.141 374.237C545.779 373.792 546.098 373.135 546.098 372.265C546.098 371.53 545.856 370.94 545.373 370.496C544.909 370.051 544.261 369.829 543.43 369.829C542.521 369.829 541.806 370.099 541.284 370.641C540.781 371.182 540.501 371.849 540.443 372.642H536.644C536.702 371.366 537.021 370.273 537.601 369.365C538.181 368.437 538.964 367.731 539.95 367.248C540.955 366.764 542.125 366.523 543.459 366.523C544.851 366.523 546.03 366.774 546.997 367.277C547.963 367.76 548.698 368.417 549.201 369.249C549.703 370.061 549.955 370.96 549.955 371.946C549.955 372.719 549.8 373.415 549.491 374.034C549.201 374.633 548.804 375.136 548.302 375.542C547.818 375.948 547.277 376.247 546.678 376.441C547.432 376.576 548.099 376.866 548.679 377.311C549.259 377.755 549.703 378.326 550.013 379.022C550.341 379.698 550.506 380.481 550.506 381.371C550.506 382.473 550.235 383.497 549.694 384.445C549.152 385.373 548.36 386.117 547.316 386.678C546.272 387.238 544.986 387.519 543.459 387.519ZM554.856 387.171L562.425 370.206H552.594V366.871H566.456V369.626L558.887 387.171H554.856Z" fill="#142D6F"/>
<path d="M569.649 387.266C569.181 387.266 568.794 387.126 568.49 386.848C568.199 386.556 568.053 386.202 568.053 385.784C568.053 385.366 568.199 385.017 568.49 384.739C568.794 384.447 569.181 384.302 569.649 384.302C570.118 384.302 570.498 384.447 570.789 384.739C571.081 385.017 571.226 385.366 571.226 385.784C571.226 386.202 571.081 386.556 570.789 386.848C570.498 387.126 570.118 387.266 569.649 387.266ZM579.378 387.171V384.758H572.842V382.725L579.036 373.871H581.943V382.535H583.672V384.758H581.943V387.171H579.378ZM575.578 382.535H579.549V376.702L575.578 382.535ZM590.007 387.399C589.145 387.399 588.354 387.24 587.632 386.924C586.922 386.607 586.352 386.126 585.922 385.48C585.491 384.834 585.263 384.017 585.238 383.029H587.746C587.758 383.447 587.853 383.827 588.031 384.169C588.208 384.498 588.468 384.764 588.81 384.967C589.152 385.157 589.557 385.252 590.026 385.252C590.469 385.252 590.849 385.163 591.166 384.986C591.482 384.808 591.717 384.574 591.869 384.283C592.033 383.991 592.116 383.656 592.116 383.276C592.116 382.832 592.008 382.465 591.793 382.174C591.577 381.87 591.273 381.642 590.881 381.49C590.501 381.325 590.064 381.243 589.57 381.243H588.563V379.134H589.551C590.184 379.134 590.71 378.988 591.128 378.697C591.546 378.405 591.755 377.975 591.755 377.405C591.755 376.923 591.596 376.537 591.28 376.246C590.976 375.954 590.551 375.809 590.007 375.809C589.399 375.809 588.924 375.986 588.582 376.341C588.252 376.695 588.069 377.132 588.031 377.652H585.523C585.561 376.816 585.77 376.1 586.15 375.505C586.53 374.897 587.049 374.434 587.708 374.118C588.379 373.801 589.145 373.643 590.007 373.643C590.931 373.643 591.71 373.807 592.344 374.137C592.977 374.453 593.458 374.884 593.788 375.429C594.117 375.973 594.282 376.562 594.282 377.196C594.282 377.715 594.18 378.177 593.978 378.583C593.788 378.975 593.528 379.305 593.199 379.571C592.882 379.837 592.527 380.027 592.135 380.141C592.629 380.242 593.059 380.438 593.427 380.73C593.807 381.021 594.098 381.388 594.301 381.832C594.516 382.275 594.624 382.788 594.624 383.371C594.624 384.093 594.446 384.764 594.092 385.385C593.737 385.993 593.218 386.48 592.534 386.848C591.85 387.215 591.007 387.399 590.007 387.399Z" fill="#A3BDFF"/>
<rect x="508" y="409.205" width="92" height="32" rx="16" fill="#F5DCDC"/>
<path fill-rule="evenodd" clip-rule="evenodd" d="M538.495 430.579C538.495 430.745 538.558 430.904 538.671 431.022C538.783 431.139 538.936 431.205 539.095 431.205H543.899C544.059 431.205 544.211 431.139 544.324 431.022C544.437 430.904 544.5 430.745 544.5 430.579V425.57C544.5 425.404 544.437 425.245 544.324 425.128C544.211 425.01 544.059 424.944 543.899 424.944C543.74 424.944 543.587 425.01 543.475 425.128C543.362 425.245 543.299 425.404 543.299 425.57V428.826L538.96 423.295C538.906 423.228 538.84 423.173 538.765 423.133C538.691 423.094 538.609 423.071 538.525 423.067C538.441 423.063 538.358 423.076 538.279 423.108C538.201 423.139 538.13 423.187 538.071 423.249L534.964 426.488L530.573 420.194C530.477 420.067 530.337 419.983 530.183 419.961C530.029 419.939 529.873 419.979 529.747 420.075C529.622 420.17 529.536 420.312 529.509 420.472C529.482 420.631 529.515 420.796 529.602 420.93L534.406 427.817C534.457 427.89 534.523 427.951 534.599 427.995C534.674 428.039 534.758 428.066 534.845 428.073C534.931 428.08 535.018 428.068 535.1 428.036C535.181 428.005 535.255 427.956 535.317 427.892L538.45 424.624L542.632 429.953H539.095C538.936 429.953 538.783 430.019 538.671 430.136C538.558 430.254 538.495 430.413 538.495 430.579Z" fill="#D14F4F"/>
<path d="M555.95 423.957V425.544H551.039V423.957H555.95ZM561.835 430.354C561.043 430.354 560.34 430.221 559.725 429.955C559.114 429.688 558.635 429.324 558.287 428.863C557.943 428.397 557.772 427.87 557.776 427.281C557.772 426.822 557.872 426.402 558.074 426.018C558.276 425.635 558.55 425.315 558.894 425.059C559.242 424.8 559.629 424.635 560.055 424.564V424.489C559.494 424.365 559.04 424.079 558.692 423.632C558.347 423.181 558.177 422.661 558.18 422.071C558.177 421.51 558.333 421.009 558.649 420.569C558.965 420.129 559.399 419.782 559.949 419.53C560.499 419.274 561.128 419.147 561.835 419.147C562.534 419.147 563.157 419.274 563.704 419.53C564.255 419.782 564.688 420.129 565.004 420.569C565.324 421.009 565.483 421.51 565.483 422.071C565.483 422.661 565.308 423.181 564.956 423.632C564.608 424.079 564.159 424.365 563.608 424.489V424.564C564.035 424.635 564.418 424.8 564.759 425.059C565.103 425.315 565.377 425.635 565.579 426.018C565.785 426.402 565.888 426.822 565.888 427.281C565.888 427.87 565.714 428.397 565.366 428.863C565.018 429.324 564.539 429.688 563.928 429.955C563.321 430.221 562.623 430.354 561.835 430.354ZM561.835 428.831C562.243 428.831 562.598 428.761 562.9 428.623C563.202 428.481 563.436 428.282 563.603 428.026C563.77 427.771 563.855 427.476 563.859 427.142C563.855 426.794 563.765 426.487 563.587 426.221C563.413 425.951 563.173 425.739 562.868 425.587C562.566 425.434 562.222 425.358 561.835 425.358C561.444 425.358 561.096 425.434 560.791 425.587C560.485 425.739 560.244 425.951 560.066 426.221C559.892 426.487 559.807 426.794 559.81 427.142C559.807 427.476 559.889 427.771 560.055 428.026C560.222 428.278 560.457 428.475 560.759 428.618C561.064 428.76 561.423 428.831 561.835 428.831ZM561.835 423.861C562.168 423.861 562.463 423.793 562.719 423.658C562.978 423.523 563.182 423.335 563.331 423.094C563.481 422.852 563.557 422.574 563.56 422.257C563.557 421.945 563.482 421.672 563.337 421.437C563.191 421.199 562.989 421.016 562.729 420.888C562.47 420.757 562.172 420.691 561.835 420.691C561.49 420.691 561.187 420.757 560.924 420.888C560.665 421.016 560.462 421.199 560.316 421.437C560.174 421.672 560.105 421.945 560.109 422.257C560.105 422.574 560.176 422.852 560.322 423.094C560.471 423.332 560.675 423.52 560.934 423.658C561.197 423.793 561.497 423.861 561.835 423.861ZM573.472 428.159V427.584C573.472 427.162 573.561 426.773 573.738 426.418C573.92 426.062 574.182 425.777 574.527 425.56C574.871 425.343 575.289 425.235 575.779 425.235C576.283 425.235 576.705 425.343 577.046 425.56C577.387 425.773 577.645 426.057 577.819 426.412C577.996 426.767 578.085 427.158 578.085 427.584V428.159C578.085 428.582 577.996 428.971 577.819 429.326C577.641 429.681 577.38 429.967 577.036 430.184C576.695 430.4 576.276 430.509 575.779 430.509C575.281 430.509 574.861 430.4 574.516 430.184C574.172 429.967 573.911 429.681 573.733 429.326C573.559 428.971 573.472 428.582 573.472 428.159ZM574.862 427.584V428.159C574.862 428.44 574.93 428.697 575.065 428.932C575.2 429.166 575.438 429.283 575.779 429.283C576.123 429.283 576.359 429.168 576.487 428.937C576.618 428.703 576.684 428.444 576.684 428.159V427.584C576.684 427.3 576.622 427.041 576.498 426.806C576.373 426.569 576.134 426.45 575.779 426.45C575.445 426.45 575.209 426.569 575.07 426.806C574.932 427.041 574.862 427.3 574.862 427.584ZM567.927 421.917V421.341C567.927 420.915 568.018 420.524 568.199 420.169C568.38 419.814 568.643 419.53 568.987 419.317C569.331 419.1 569.749 418.992 570.239 418.992C570.74 418.992 571.16 419.1 571.501 419.317C571.846 419.53 572.105 419.814 572.279 420.169C572.453 420.524 572.54 420.915 572.54 421.341V421.917C572.54 422.343 572.451 422.733 572.274 423.088C572.1 423.44 571.84 423.722 571.496 423.935C571.151 424.148 570.732 424.255 570.239 424.255C569.738 424.255 569.316 424.148 568.971 423.935C568.63 423.722 568.371 423.438 568.193 423.083C568.016 422.728 567.927 422.339 567.927 421.917ZM569.328 421.341V421.917C569.328 422.201 569.394 422.46 569.525 422.694C569.66 422.925 569.898 423.04 570.239 423.04C570.58 423.04 570.814 422.925 570.942 422.694C571.073 422.46 571.139 422.201 571.139 421.917V421.341C571.139 421.057 571.077 420.798 570.953 420.564C570.828 420.326 570.59 420.207 570.239 420.207C569.901 420.207 569.665 420.326 569.53 420.564C569.395 420.801 569.328 421.061 569.328 421.341ZM568.534 430.205L576.034 419.296H577.366L569.866 430.205H568.534Z" fill="#D14F4F"/>
<rect x="481" y="-5" width="258.75" height="143.068" rx="5" fill="white"/>
<path d="M513.952 25.16C512.341 25.16 511.141 24.76 510.352 23.96C509.573 23.1493 509.184 21.9547 509.184 20.376V13.72H511.248V20.36C511.248 21.3627 511.461 22.12 511.888 22.632C512.325 23.144 513.013 23.4 513.952 23.4C514.848 23.4 515.52 23.144 515.968 22.632C516.427 22.12 516.656 21.3627 516.656 20.36V13.72H518.688V20.376C518.688 21.9547 518.288 23.1493 517.488 23.96C516.699 24.76 515.52 25.16 513.952 25.16ZM520.932 28.456V18.936C520.932 18.6053 520.921 18.2693 520.9 17.928C520.878 17.5867 520.846 17.2507 520.804 16.92H522.74L522.916 18.616H522.74C522.9 18.0507 523.236 17.6027 523.748 17.272C524.27 16.9307 524.873 16.76 525.556 16.76C526.27 16.76 526.894 16.9307 527.428 17.272C527.961 17.6027 528.377 18.0827 528.676 18.712C528.974 19.3307 529.124 20.0773 529.124 20.952C529.124 21.8267 528.974 22.5787 528.676 23.208C528.377 23.8373 527.961 24.3227 527.428 24.664C526.894 24.9947 526.27 25.16 525.556 25.16C524.884 25.16 524.292 24.9947 523.78 24.664C523.268 24.3333 522.926 23.8907 522.756 23.336H522.932V28.456H520.932ZM524.996 23.624C525.636 23.624 526.148 23.4053 526.532 22.968C526.916 22.52 527.108 21.848 527.108 20.952C527.108 20.056 526.916 19.3893 526.532 18.952C526.148 18.5147 525.636 18.296 524.996 18.296C524.366 18.296 523.86 18.5147 523.476 18.952C523.092 19.3893 522.9 20.056 522.9 20.952C522.9 21.848 523.092 22.52 523.476 22.968C523.86 23.4053 524.366 23.624 524.996 23.624ZM534.566 25.16C533.734 25.16 533.003 24.9893 532.374 24.648C531.755 24.3067 531.275 23.8213 530.934 23.192C530.592 22.552 530.422 21.7947 530.422 20.92C530.422 20.0453 530.592 19.2987 530.934 18.68C531.286 18.0613 531.771 17.5867 532.39 17.256C533.008 16.9253 533.734 16.76 534.566 16.76C535.099 16.76 535.616 16.8453 536.118 17.016C536.63 17.176 537.046 17.4107 537.366 17.72L536.758 19.112C536.47 18.8453 536.144 18.648 535.782 18.52C535.43 18.3813 535.083 18.312 534.742 18.312C534.027 18.312 533.467 18.536 533.062 18.984C532.667 19.432 532.47 20.0827 532.47 20.936C532.47 21.7893 532.667 22.4453 533.062 22.904C533.467 23.3627 534.027 23.592 534.742 23.592C535.072 23.592 535.414 23.528 535.766 23.4C536.128 23.272 536.459 23.0747 536.758 22.808L537.366 24.184C537.035 24.4933 536.614 24.7333 536.102 24.904C535.6 25.0747 535.088 25.16 534.566 25.16ZM542.408 25.16C541.576 25.16 540.856 24.9893 540.248 24.648C539.64 24.3067 539.165 23.8213 538.824 23.192C538.493 22.5627 538.328 21.816 538.328 20.952C538.328 20.088 538.493 19.3467 538.824 18.728C539.165 18.0987 539.64 17.6133 540.248 17.272C540.856 16.9307 541.576 16.76 542.408 16.76C543.24 16.76 543.96 16.9307 544.568 17.272C545.187 17.6133 545.661 18.0987 545.992 18.728C546.333 19.3467 546.504 20.088 546.504 20.952C546.504 21.816 546.333 22.5627 545.992 23.192C545.661 23.8213 545.187 24.3067 544.568 24.648C543.96 24.9893 543.24 25.16 542.408 25.16ZM542.408 23.624C543.037 23.624 543.539 23.4053 543.912 22.968C544.285 22.52 544.472 21.848 544.472 20.952C544.472 20.056 544.285 19.3893 543.912 18.952C543.539 18.5147 543.037 18.296 542.408 18.296C541.779 18.296 541.277 18.5147 540.904 18.952C540.531 19.3893 540.344 20.056 540.344 20.952C540.344 21.848 540.531 22.52 540.904 22.968C541.277 23.4053 541.779 23.624 542.408 23.624ZM548.229 25V18.936C548.229 18.6053 548.218 18.2693 548.197 17.928C548.175 17.5867 548.143 17.2507 548.101 16.92H550.037L550.197 18.52H550.005C550.229 17.9653 550.57 17.5333 551.029 17.224C551.498 16.9147 552.053 16.76 552.693 16.76C553.333 16.76 553.861 16.9147 554.277 17.224C554.703 17.5227 555.002 17.992 555.173 18.632H554.917C555.141 18.056 555.509 17.6027 556.021 17.272C556.533 16.9307 557.119 16.76 557.781 16.76C558.687 16.76 559.365 17.0267 559.813 17.56C560.261 18.0933 560.485 18.9253 560.485 20.056V25H558.485V20.136C558.485 19.496 558.378 19.0373 558.165 18.76C557.951 18.472 557.61 18.328 557.141 18.328C556.586 18.328 556.149 18.5253 555.829 18.92C555.509 19.304 555.349 19.8267 555.349 20.488V25H553.349V20.136C553.349 19.496 553.242 19.0373 553.029 18.76C552.815 18.472 552.474 18.328 552.005 18.328C551.45 18.328 551.013 18.5253 550.693 18.92C550.383 19.304 550.229 19.8267 550.229 20.488V25H548.229ZM562.619 25V16.92H564.619V25H562.619ZM562.507 15.4V13.448H564.731V15.4H562.507ZM566.791 25V18.936C566.791 18.6053 566.78 18.2693 566.759 17.928C566.738 17.5867 566.706 17.2507 566.663 16.92H568.599L568.759 18.52H568.567C568.823 17.9547 569.202 17.5227 569.703 17.224C570.204 16.9147 570.786 16.76 571.447 16.76C572.396 16.76 573.111 17.0267 573.591 17.56C574.071 18.0933 574.311 18.9253 574.311 20.056V25H572.311V20.152C572.311 19.5013 572.183 19.0373 571.927 18.76C571.682 18.472 571.308 18.328 570.807 18.328C570.188 18.328 569.698 18.52 569.335 18.904C568.972 19.288 568.791 19.8 568.791 20.44V25H566.791ZM580.176 28.584C579.429 28.584 578.752 28.504 578.144 28.344C577.546 28.184 577.013 27.9387 576.544 27.608L576.976 26.168C577.285 26.3707 577.605 26.536 577.936 26.664C578.266 26.792 578.608 26.888 578.96 26.952C579.312 27.016 579.669 27.048 580.032 27.048C580.778 27.048 581.333 26.8613 581.696 26.488C582.069 26.1253 582.256 25.6027 582.256 24.92V22.984H582.416C582.245 23.5387 581.898 23.9813 581.376 24.312C580.864 24.6427 580.272 24.808 579.6 24.808C578.874 24.808 578.24 24.648 577.696 24.328C577.162 23.9973 576.746 23.528 576.448 22.92C576.149 22.312 576 21.5973 576 20.776C576 19.9547 576.149 19.2453 576.448 18.648C576.746 18.04 577.162 17.576 577.696 17.256C578.24 16.9253 578.874 16.76 579.6 16.76C580.282 16.76 580.874 16.9253 581.376 17.256C581.888 17.576 582.229 18.0133 582.4 18.568L582.256 18.472L582.416 16.92H584.352C584.309 17.2507 584.277 17.5867 584.256 17.928C584.234 18.2693 584.224 18.6053 584.224 18.936V24.68C584.224 25.9493 583.877 26.9147 583.184 27.576C582.501 28.248 581.498 28.584 580.176 28.584ZM580.144 23.272C580.784 23.272 581.29 23.0587 581.664 22.632C582.048 22.1947 582.24 21.576 582.24 20.776C582.24 19.976 582.048 19.3627 581.664 18.936C581.29 18.5093 580.784 18.296 580.144 18.296C579.493 18.296 578.976 18.5093 578.592 18.936C578.208 19.3627 578.016 19.976 578.016 20.776C578.016 21.576 578.208 22.1947 578.592 22.632C578.976 23.0587 579.493 23.272 580.144 23.272Z" fill="#A1A0BD"/>
<path d="M515.569 73.5571V48.0661H517.483V73.5571H515.569ZM516.787 71.3821C515.318 71.3821 514.003 71.1307 512.843 70.6281C511.683 70.1254 510.774 69.3907 510.117 68.4241C509.46 67.4574 509.112 66.2877 509.073 64.9151H513.22C513.259 65.5144 513.413 66.0557 513.684 66.5391C513.974 67.0224 514.38 67.4091 514.902 67.6991C515.424 67.9697 516.043 68.1051 516.758 68.1051C517.377 68.1051 517.908 68.0084 518.353 67.8151C518.817 67.6217 519.175 67.3414 519.426 66.9741C519.697 66.6067 519.832 66.1621 519.832 65.6401C519.832 65.0601 519.687 64.5767 519.397 64.1901C519.107 63.7841 518.701 63.4457 518.179 63.1751C517.676 62.9044 517.106 62.6627 516.468 62.4501C515.83 62.2181 515.153 61.9861 514.438 61.7541C512.853 61.2127 511.635 60.5071 510.784 59.6371C509.953 58.7671 509.537 57.6167 509.537 56.1861C509.537 54.9681 509.827 53.9337 510.407 53.0831C511.006 52.2131 511.818 51.5461 512.843 51.0821C513.887 50.6181 515.086 50.3861 516.439 50.3861C517.812 50.3861 519.01 50.6277 520.035 51.1111C521.079 51.5751 521.901 52.2517 522.5 53.1411C523.099 54.0304 523.418 55.0744 523.457 56.2731H519.252C519.252 55.8091 519.126 55.3837 518.875 54.9971C518.643 54.5911 518.314 54.2721 517.889 54.0401C517.464 53.7887 516.951 53.6631 516.352 53.6631C515.849 53.6437 515.395 53.7211 514.989 53.8951C514.583 54.0691 514.254 54.3204 514.003 54.6491C513.771 54.9777 513.655 55.4031 513.655 55.9251C513.655 56.4084 513.771 56.8144 514.003 57.1431C514.235 57.4717 514.564 57.7521 514.989 57.9841C515.414 58.2161 515.907 58.4384 516.468 58.6511C517.048 58.8637 517.686 59.0861 518.382 59.3181C519.387 59.6661 520.315 60.0817 521.166 60.5651C522.017 61.0291 522.693 61.6381 523.196 62.3921C523.699 63.1461 523.95 64.1321 523.95 65.3501C523.95 66.4327 523.67 67.4284 523.109 68.3371C522.568 69.2457 521.765 69.9804 520.702 70.5411C519.639 71.1017 518.334 71.3821 516.787 71.3821ZM526.295 71.0341V68.1631C527.513 67.1771 528.702 66.1911 529.862 65.2051C531.022 64.2191 532.066 63.2427 532.994 62.2761C533.922 61.2901 534.647 60.3331 535.169 59.4051C535.71 58.4771 535.981 57.5781 535.981 56.7081C535.981 56.1667 535.884 55.6737 535.691 55.2291C535.498 54.7651 535.198 54.3977 534.792 54.1271C534.386 53.8371 533.845 53.6921 533.168 53.6921C532.511 53.6921 531.95 53.8467 531.486 54.1561C531.022 54.4654 530.674 54.8811 530.442 55.4031C530.21 55.9057 530.094 56.4761 530.094 57.1141H526.324C526.363 55.6254 526.691 54.3784 527.31 53.3731C527.929 52.3677 528.76 51.6234 529.804 51.1401C530.848 50.6374 532.008 50.3861 533.284 50.3861C534.715 50.3861 535.913 50.6567 536.88 51.1981C537.866 51.7201 538.61 52.4354 539.113 53.3441C539.635 54.2527 539.896 55.2967 539.896 56.4761C539.896 57.3654 539.732 58.2354 539.403 59.0861C539.094 59.9367 538.649 60.7681 538.069 61.5801C537.508 62.3727 536.87 63.1364 536.155 63.8711C535.459 64.6057 534.724 65.3114 533.951 65.9881C533.197 66.6454 532.453 67.2641 531.718 67.8441H540.36V71.0341H526.295ZM551.486 71.3821C549.591 71.3821 547.967 70.9374 546.614 70.0481C545.28 69.1587 544.245 67.9311 543.511 66.3651C542.795 64.7797 542.438 62.9527 542.438 60.8841C542.438 58.8154 542.795 56.9981 543.511 55.4321C544.245 53.8467 545.28 52.6094 546.614 51.7201C547.967 50.8307 549.591 50.3861 551.486 50.3861C553.361 50.3861 554.966 50.8307 556.3 51.7201C557.653 52.6094 558.687 53.8467 559.403 55.4321C560.137 56.9981 560.505 58.8154 560.505 60.8841C560.505 62.9527 560.137 64.7797 559.403 66.3651C558.687 67.9311 557.653 69.1587 556.3 70.0481C554.966 70.9374 553.361 71.3821 551.486 71.3821ZM551.457 67.8731C552.462 67.8731 553.342 67.5927 554.096 67.0321C554.85 66.4521 555.439 65.6401 555.865 64.5961C556.29 63.5521 556.503 62.3147 556.503 60.8841C556.503 59.4341 556.29 58.1967 555.865 57.1721C555.439 56.1281 554.85 55.3257 554.096 54.7651C553.342 54.2044 552.462 53.9241 551.457 53.9241C550.471 53.9241 549.591 54.2044 548.818 54.7651C548.064 55.3257 547.474 56.1281 547.049 57.1721C546.623 58.1967 546.411 59.4341 546.411 60.8841C546.411 62.3147 546.623 63.5521 547.049 64.5961C547.474 65.6401 548.064 66.4521 548.818 67.0321C549.591 67.5927 550.471 67.8731 551.457 67.8731ZM565.784 71.0341V55.2291L562.391 56.0121V52.9671L567.437 50.7341H569.815V71.0341H565.784Z" fill="#142D6F"/>
<path d="M573.926 71.1291C573.457 71.1291 573.071 70.9897 572.767 70.7111C572.475 70.4197 572.33 70.0651 572.33 69.6471C572.33 69.2291 572.475 68.8807 572.767 68.6021C573.071 68.3107 573.457 68.1651 573.926 68.1651C574.394 68.1651 574.774 68.3107 575.066 68.6021C575.357 68.8807 575.503 69.2291 575.503 69.6471C575.503 70.0651 575.357 70.4197 575.066 70.7111C574.774 70.9897 574.394 71.1291 573.926 71.1291ZM583.654 71.0341V68.6211H577.118V66.5881L583.312 57.7341H586.219V66.3981H587.948V68.6211H586.219V71.0341H583.654ZM579.854 66.3981H583.825V60.5651L579.854 66.3981ZM594.625 71.2621C593.713 71.2621 592.89 71.0974 592.155 70.7681C591.42 70.4387 590.831 69.9764 590.388 69.3811C589.957 68.7857 589.742 68.0954 589.742 67.3101C589.742 66.7654 589.831 66.2714 590.008 65.8281C590.198 65.3847 590.458 64.9921 590.787 64.6501C591.129 64.3081 591.528 64.0484 591.984 63.8711C591.401 63.6051 590.933 63.2251 590.578 62.7311C590.236 62.2371 590.065 61.6797 590.065 61.0591C590.065 60.4384 590.236 59.8557 590.578 59.3111C590.92 58.7664 591.427 58.3294 592.098 58.0001C592.782 57.6707 593.624 57.5061 594.625 57.5061C595.626 57.5061 596.462 57.6707 597.133 58.0001C597.817 58.3294 598.33 58.7664 598.672 59.3111C599.014 59.8557 599.185 60.4384 599.185 61.0591C599.185 61.6671 599.008 62.2244 598.653 62.7311C598.298 63.2251 597.836 63.6051 597.266 63.8711C597.735 64.0611 598.134 64.3271 598.463 64.6691C598.805 64.9984 599.065 65.3847 599.242 65.8281C599.432 66.2714 599.527 66.7654 599.527 67.3101C599.527 68.0954 599.305 68.7857 598.862 69.3811C598.431 69.9764 597.842 70.4387 597.095 70.7681C596.36 71.0974 595.537 71.2621 594.625 71.2621ZM594.625 69.1151C595.41 69.1151 595.999 68.9251 596.392 68.5451C596.797 68.1651 597 67.6837 597 67.1011C597 66.4551 596.791 65.9484 596.373 65.5811C595.955 65.2011 595.372 65.0111 594.625 65.0111C593.89 65.0111 593.308 65.2011 592.877 65.5811C592.446 65.9484 592.231 66.4551 592.231 67.1011C592.231 67.6837 592.434 68.1651 592.839 68.5451C593.257 68.9251 593.852 69.1151 594.625 69.1151ZM594.625 63.1301C595.271 63.1301 595.771 62.9654 596.126 62.6361C596.481 62.3067 596.658 61.8824 596.658 61.3631C596.658 60.8057 596.481 60.3751 596.126 60.0711C595.771 59.7544 595.271 59.5961 594.625 59.5961C593.979 59.5961 593.479 59.7544 593.124 60.0711C592.782 60.3751 592.611 60.8121 592.611 61.3821C592.611 61.8887 592.788 62.3067 593.143 62.6361C593.498 62.9654 593.992 63.1301 594.625 63.1301Z" fill="#A3BDFF"/>
<rect x="508.5" y="93.5681" width="112" height="31" rx="15.5" stroke="#142D6F" stroke-opacity="0.6"/>
<path d="M530.028 104.841L532.3 111.71H532.389L534.656 104.841H536.395L533.318 113.568H531.366L528.294 104.841H530.028ZM537.476 113.568V107.023H539.019V113.568H537.476ZM538.252 106.094C538.007 106.094 537.797 106.013 537.621 105.851C537.445 105.686 537.357 105.489 537.357 105.258C537.357 105.026 537.445 104.828 537.621 104.666C537.797 104.501 538.007 104.419 538.252 104.419C538.499 104.419 538.709 104.501 538.882 104.666C539.059 104.828 539.147 105.026 539.147 105.258C539.147 105.489 539.059 105.686 538.882 105.851C538.709 106.013 538.499 106.094 538.252 106.094ZM543.503 113.696C542.847 113.696 542.28 113.56 541.803 113.287C541.328 113.011 540.963 112.622 540.707 112.119C540.452 111.614 540.324 111.018 540.324 110.334C540.324 109.66 540.452 109.07 540.707 108.561C540.966 108.05 541.327 107.652 541.79 107.368C542.253 107.081 542.797 106.937 543.422 106.937C543.825 106.937 544.206 107.003 544.564 107.133C544.925 107.261 545.243 107.46 545.518 107.73C545.797 108 546.016 108.344 546.175 108.761C546.334 109.176 546.413 109.67 546.413 110.244V110.717H541.048V109.677H544.935C544.932 109.382 544.868 109.119 544.743 108.889C544.618 108.656 544.443 108.473 544.219 108.339C543.997 108.206 543.739 108.139 543.443 108.139C543.128 108.139 542.851 108.216 542.612 108.369C542.374 108.52 542.188 108.719 542.054 108.966C541.923 109.21 541.857 109.479 541.854 109.771V110.679C541.854 111.06 541.923 111.386 542.062 111.659C542.202 111.929 542.396 112.136 542.646 112.281C542.896 112.423 543.189 112.494 543.524 112.494C543.749 112.494 543.952 112.463 544.134 112.401C544.315 112.335 544.473 112.24 544.607 112.115C544.74 111.99 544.841 111.835 544.909 111.651L546.349 111.812C546.259 112.193 546.085 112.526 545.83 112.81C545.577 113.091 545.253 113.31 544.858 113.466C544.463 113.619 544.011 113.696 543.503 113.696ZM549.034 113.568L547.185 107.023H548.757L549.908 111.625H549.967L551.143 107.023H552.699L553.875 111.599H553.939L555.072 107.023H556.649L554.795 113.568H553.189L551.962 109.145H551.872L550.645 113.568H549.034ZM563.728 113.568H560.771V104.841H563.788C564.654 104.841 565.399 105.016 566.021 105.365C566.646 105.712 567.126 106.21 567.461 106.861C567.797 107.511 567.964 108.29 567.964 109.196C567.964 110.105 567.795 110.886 567.457 111.54C567.122 112.193 566.637 112.695 566.004 113.044C565.373 113.393 564.615 113.568 563.728 113.568ZM562.352 112.2H563.652C564.26 112.2 564.767 112.089 565.173 111.868C565.579 111.643 565.885 111.31 566.089 110.866C566.294 110.42 566.396 109.864 566.396 109.196C566.396 108.528 566.294 107.974 566.089 107.534C565.885 107.091 565.582 106.76 565.181 106.541C564.784 106.32 564.289 106.209 563.699 106.209H562.352V112.2ZM572.296 113.696C571.64 113.696 571.073 113.56 570.596 113.287C570.121 113.011 569.756 112.622 569.5 112.119C569.245 111.614 569.117 111.018 569.117 110.334C569.117 109.66 569.245 109.07 569.5 108.561C569.759 108.05 570.12 107.652 570.583 107.368C571.046 107.081 571.59 106.937 572.215 106.937C572.618 106.937 572.999 107.003 573.357 107.133C573.718 107.261 574.036 107.46 574.311 107.73C574.59 108 574.809 108.344 574.968 108.761C575.127 109.176 575.206 109.67 575.206 110.244V110.717H569.841V109.677H573.728C573.725 109.382 573.661 109.119 573.536 108.889C573.411 108.656 573.236 108.473 573.012 108.339C572.79 108.206 572.532 108.139 572.236 108.139C571.921 108.139 571.644 108.216 571.405 108.369C571.167 108.52 570.98 108.719 570.847 108.966C570.716 109.21 570.65 109.479 570.647 109.771V110.679C570.647 111.06 570.716 111.386 570.855 111.659C570.995 111.929 571.189 112.136 571.439 112.281C571.689 112.423 571.982 112.494 572.317 112.494C572.542 112.494 572.745 112.463 572.926 112.401C573.108 112.335 573.266 112.24 573.4 112.115C573.533 111.99 573.634 111.835 573.702 111.651L575.142 111.812C575.051 112.193 574.878 112.526 574.623 112.81C574.37 113.091 574.046 113.31 573.651 113.466C573.256 113.619 572.804 113.696 572.296 113.696ZM579.78 107.023V108.216H576.017V107.023H579.78ZM576.946 105.454H578.489V111.599C578.489 111.807 578.52 111.966 578.582 112.077C578.648 112.185 578.733 112.258 578.838 112.298C578.943 112.338 579.06 112.358 579.188 112.358C579.284 112.358 579.372 112.351 579.452 112.337C579.534 112.322 579.597 112.31 579.639 112.298L579.899 113.504C579.817 113.533 579.699 113.564 579.545 113.598C579.395 113.632 579.21 113.652 578.991 113.658C578.605 113.669 578.257 113.611 577.947 113.483C577.638 113.352 577.392 113.151 577.21 112.878C577.031 112.605 576.943 112.264 576.946 111.855V105.454ZM582.953 113.7C582.539 113.7 582.165 113.626 581.833 113.479C581.503 113.328 581.242 113.106 581.049 112.814C580.858 112.521 580.763 112.16 580.763 111.731C580.763 111.362 580.831 111.057 580.968 110.815C581.104 110.574 581.29 110.381 581.526 110.236C581.762 110.091 582.027 109.981 582.323 109.908C582.621 109.831 582.929 109.776 583.248 109.741C583.631 109.702 583.942 109.666 584.181 109.635C584.419 109.601 584.593 109.55 584.701 109.481C584.811 109.41 584.867 109.301 584.867 109.153V109.128C584.867 108.807 584.772 108.558 584.581 108.382C584.391 108.206 584.117 108.118 583.759 108.118C583.381 108.118 583.081 108.2 582.86 108.365C582.641 108.53 582.493 108.724 582.417 108.949L580.976 108.744C581.09 108.347 581.277 108.014 581.539 107.747C581.8 107.477 582.12 107.276 582.498 107.142C582.875 107.006 583.293 106.937 583.75 106.937C584.066 106.937 584.38 106.974 584.692 107.048C585.005 107.122 585.29 107.244 585.549 107.415C585.807 107.582 586.015 107.811 586.171 108.101C586.33 108.391 586.409 108.753 586.409 109.187V113.568H584.926V112.669H584.875C584.782 112.851 584.65 113.021 584.479 113.18C584.311 113.337 584.1 113.463 583.844 113.56C583.591 113.653 583.294 113.7 582.953 113.7ZM583.354 112.567C583.664 112.567 583.932 112.506 584.159 112.383C584.387 112.258 584.561 112.094 584.684 111.889C584.809 111.685 584.871 111.462 584.871 111.22V110.449C584.823 110.489 584.74 110.526 584.624 110.56C584.51 110.594 584.382 110.624 584.24 110.649C584.098 110.675 583.958 110.697 583.819 110.717C583.679 110.737 583.559 110.754 583.456 110.768C583.226 110.8 583.02 110.851 582.838 110.922C582.657 110.993 582.513 111.092 582.408 111.22C582.303 111.345 582.25 111.507 582.25 111.706C582.25 111.99 582.354 112.204 582.561 112.349C582.769 112.494 583.033 112.567 583.354 112.567ZM587.961 113.568V107.023H589.503V113.568H587.961ZM588.736 106.094C588.492 106.094 588.282 106.013 588.105 105.851C587.929 105.686 587.841 105.489 587.841 105.258C587.841 105.026 587.929 104.828 588.105 104.666C588.282 104.501 588.492 104.419 588.736 104.419C588.983 104.419 589.194 104.501 589.367 104.666C589.543 104.828 589.631 105.026 589.631 105.258C589.631 105.489 589.543 105.686 589.367 105.851C589.194 106.013 588.983 106.094 588.736 106.094ZM592.632 104.841V113.568H591.089V104.841H592.632ZM599.392 108.753L597.985 108.906C597.946 108.764 597.876 108.631 597.777 108.506C597.68 108.381 597.549 108.28 597.385 108.203C597.22 108.126 597.018 108.088 596.779 108.088C596.458 108.088 596.189 108.158 595.97 108.297C595.754 108.436 595.647 108.616 595.65 108.838C595.647 109.028 595.717 109.183 595.859 109.302C596.004 109.422 596.243 109.52 596.575 109.597L597.691 109.835C598.311 109.969 598.771 110.18 599.072 110.47C599.376 110.76 599.529 111.139 599.532 111.608C599.529 112.02 599.409 112.383 599.17 112.699C598.934 113.011 598.606 113.256 598.186 113.432C597.765 113.608 597.282 113.696 596.737 113.696C595.936 113.696 595.291 113.528 594.802 113.193C594.314 112.855 594.022 112.385 593.929 111.783L595.433 111.638C595.501 111.933 595.646 112.156 595.868 112.307C596.089 112.457 596.377 112.533 596.733 112.533C597.099 112.533 597.393 112.457 597.615 112.307C597.839 112.156 597.951 111.97 597.951 111.749C597.951 111.561 597.879 111.406 597.734 111.284C597.592 111.162 597.37 111.068 597.069 111.003L595.953 110.768C595.325 110.638 594.86 110.418 594.559 110.108C594.258 109.795 594.109 109.401 594.112 108.923C594.109 108.52 594.218 108.17 594.44 107.875C594.664 107.577 594.975 107.347 595.373 107.185C595.774 107.02 596.235 106.937 596.758 106.937C597.525 106.937 598.129 107.101 598.569 107.427C599.012 107.754 599.287 108.196 599.392 108.753Z" fill="#142D6F" fill-opacity="0.6"/>
</g>
<defs>
<filter id="filter0_d_0_2279" x="0" y="0" width="786" height="460" filterUnits="userSpaceOnUse" color-interpolation-filters="sRGB">
<feFlood flood-opacity="0" result="BackgroundImageFix"/>
<feColorMatrix in="SourceAlpha" type="matrix" values="0 0 0 0 0 0 0 0 0 0 0 0 0 0 0 0 0 0 127 0" result="hardAlpha"/>
<feOffset dx="-4" dy="10"/>
<feGaussianBlur stdDeviation="10"/>
<feComposite in2="hardAlpha" operator="out"/>
<feColorMatrix type="matrix" values="0 0 0 0 0.0784314 0 0 0 0 0.176471 0 0 0 0 0.435294 0 0 0 0.1 0"/>
<feBlend mode="normal" in2="BackgroundImageFix" result="effect1_dropShadow_0_2279"/>
<feBlend mode="normal" in="SourceGraphic" in2="effect1_dropShadow_0_2279" result="shape"/>
</filter>
</defs>
</svg>
