<svg width="259" height="129" viewBox="0 0 259 129" fill="none" xmlns="http://www.w3.org/2000/svg">
<rect y="-15" width="258.75" height="143.068" rx="5" fill="white"/>
<path d="M32.952 15.16C31.3413 15.16 30.1413 14.76 29.352 13.96C28.5733 13.1493 28.184 11.9547 28.184 10.376V3.72H30.248V10.36C30.248 11.3627 30.4613 12.12 30.888 12.632C31.3253 13.144 32.0133 13.4 32.952 13.4C33.848 13.4 34.52 13.144 34.968 12.632C35.4267 12.12 35.656 11.3627 35.656 10.36V3.72H37.688V10.376C37.688 11.9547 37.288 13.1493 36.488 13.96C35.6987 14.76 34.52 15.16 32.952 15.16ZM39.9318 18.456V8.936C39.9318 8.60533 39.9211 8.26933 39.8997 7.928C39.8784 7.58667 39.8464 7.25067 39.8038 6.92H41.7398L41.9158 8.616H41.7398C41.8998 8.05067 42.2358 7.60267 42.7478 7.272C43.2704 6.93067 43.8731 6.76 44.5558 6.76C45.2704 6.76 45.8944 6.93067 46.4278 7.272C46.9611 7.60267 47.3771 8.08267 47.6758 8.712C47.9744 9.33067 48.1238 10.0773 48.1238 10.952C48.1238 11.8267 47.9744 12.5787 47.6758 13.208C47.3771 13.8373 46.9611 14.3227 46.4278 14.664C45.8944 14.9947 45.2704 15.16 44.5558 15.16C43.8838 15.16 43.2918 14.9947 42.7798 14.664C42.2678 14.3333 41.9264 13.8907 41.7558 13.336H41.9318V18.456H39.9318ZM43.9958 13.624C44.6358 13.624 45.1478 13.4053 45.5318 12.968C45.9158 12.52 46.1078 11.848 46.1078 10.952C46.1078 10.056 45.9158 9.38933 45.5318 8.952C45.1478 8.51467 44.6358 8.296 43.9958 8.296C43.3664 8.296 42.8598 8.51467 42.4758 8.952C42.0918 9.38933 41.8998 10.056 41.8998 10.952C41.8998 11.848 42.0918 12.52 42.4758 12.968C42.8598 13.4053 43.3664 13.624 43.9958 13.624ZM53.5656 15.16C52.7336 15.16 52.003 14.9893 51.3736 14.648C50.755 14.3067 50.275 13.8213 49.9336 13.192C49.5923 12.552 49.4216 11.7947 49.4216 10.92C49.4216 10.0453 49.5923 9.29867 49.9336 8.68C50.2856 8.06133 50.771 7.58667 51.3896 7.256C52.0083 6.92533 52.7336 6.76 53.5656 6.76C54.099 6.76 54.6163 6.84533 55.1176 7.016C55.6296 7.176 56.0456 7.41067 56.3656 7.72L55.7576 9.112C55.4696 8.84533 55.1443 8.648 54.7816 8.52C54.4296 8.38133 54.083 8.312 53.7416 8.312C53.027 8.312 52.467 8.536 52.0616 8.984C51.667 9.432 51.4696 10.0827 51.4696 10.936C51.4696 11.7893 51.667 12.4453 52.0616 12.904C52.467 13.3627 53.027 13.592 53.7416 13.592C54.0723 13.592 54.4136 13.528 54.7656 13.4C55.1283 13.272 55.459 13.0747 55.7576 12.808L56.3656 14.184C56.035 14.4933 55.6136 14.7333 55.1016 14.904C54.6003 15.0747 54.0883 15.16 53.5656 15.16ZM61.4079 15.16C60.5759 15.16 59.8559 14.9893 59.2479 14.648C58.6399 14.3067 58.1652 13.8213 57.8239 13.192C57.4932 12.5627 57.3279 11.816 57.3279 10.952C57.3279 10.088 57.4932 9.34667 57.8239 8.728C58.1652 8.09867 58.6399 7.61333 59.2479 7.272C59.8559 6.93067 60.5759 6.76 61.4079 6.76C62.2399 6.76 62.9599 6.93067 63.5679 7.272C64.1865 7.61333 64.6612 8.09867 64.9919 8.728C65.3332 9.34667 65.5039 10.088 65.5039 10.952C65.5039 11.816 65.3332 12.5627 64.9919 13.192C64.6612 13.8213 64.1865 14.3067 63.5679 14.648C62.9599 14.9893 62.2399 15.16 61.4079 15.16ZM61.4079 13.624C62.0372 13.624 62.5385 13.4053 62.9119 12.968C63.2852 12.52 63.4719 11.848 63.4719 10.952C63.4719 10.056 63.2852 9.38933 62.9119 8.952C62.5385 8.51467 62.0372 8.296 61.4079 8.296C60.7785 8.296 60.2772 8.51467 59.9039 8.952C59.5305 9.38933 59.3439 10.056 59.3439 10.952C59.3439 11.848 59.5305 12.52 59.9039 12.968C60.2772 13.4053 60.7785 13.624 61.4079 13.624ZM67.2286 15V8.936C67.2286 8.60533 67.218 8.26933 67.1966 7.928C67.1753 7.58667 67.1433 7.25067 67.1006 6.92H69.0366L69.1966 8.52H69.0046C69.2286 7.96533 69.57 7.53333 70.0286 7.224C70.498 6.91467 71.0526 6.76 71.6926 6.76C72.3326 6.76 72.8606 6.91467 73.2766 7.224C73.7033 7.52267 74.002 7.992 74.1726 8.632H73.9166C74.1406 8.056 74.5086 7.60267 75.0206 7.272C75.5326 6.93067 76.1193 6.76 76.7806 6.76C77.6873 6.76 78.3646 7.02667 78.8126 7.56C79.2606 8.09333 79.4846 8.92533 79.4846 10.056V15H77.4846V10.136C77.4846 9.496 77.378 9.03733 77.1646 8.76C76.9513 8.472 76.61 8.328 76.1406 8.328C75.586 8.328 75.1486 8.52533 74.8286 8.92C74.5086 9.304 74.3486 9.82667 74.3486 10.488V15H72.3486V10.136C72.3486 9.496 72.242 9.03733 72.0286 8.76C71.8153 8.472 71.474 8.328 71.0046 8.328C70.45 8.328 70.0126 8.52533 69.6926 8.92C69.3833 9.304 69.2286 9.82667 69.2286 10.488V15H67.2286ZM81.6193 15V6.92H83.6193V15H81.6193ZM81.5073 5.4V3.448H83.7313V5.4H81.5073ZM85.7911 15V8.936C85.7911 8.60533 85.7805 8.26933 85.7591 7.928C85.7378 7.58667 85.7058 7.25067 85.6631 6.92H87.5991L87.7591 8.52H87.5671C87.8231 7.95467 88.2018 7.52267 88.7031 7.224C89.2045 6.91467 89.7858 6.76 90.4471 6.76C91.3965 6.76 92.1111 7.02667 92.5911 7.56C93.0711 8.09333 93.3111 8.92533 93.3111 10.056V15H91.3111V10.152C91.3111 9.50133 91.1831 9.03733 90.9271 8.76C90.6818 8.472 90.3085 8.328 89.8071 8.328C89.1885 8.328 88.6978 8.52 88.3351 8.904C87.9725 9.288 87.7911 9.8 87.7911 10.44V15H85.7911ZM99.1758 18.584C98.4291 18.584 97.7518 18.504 97.1438 18.344C96.5464 18.184 96.0131 17.9387 95.5438 17.608L95.9758 16.168C96.2851 16.3707 96.6051 16.536 96.9358 16.664C97.2664 16.792 97.6078 16.888 97.9598 16.952C98.3118 17.016 98.6691 17.048 99.0318 17.048C99.7784 17.048 100.333 16.8613 100.696 16.488C101.069 16.1253 101.256 15.6027 101.256 14.92V12.984H101.416C101.245 13.5387 100.898 13.9813 100.376 14.312C99.8638 14.6427 99.2718 14.808 98.5998 14.808C97.8744 14.808 97.2398 14.648 96.6957 14.328C96.1624 13.9973 95.7464 13.528 95.4478 12.92C95.1491 12.312 94.9998 11.5973 94.9998 10.776C94.9998 9.95467 95.1491 9.24533 95.4478 8.648C95.7464 8.04 96.1624 7.576 96.6957 7.256C97.2398 6.92533 97.8744 6.76 98.5998 6.76C99.2824 6.76 99.8744 6.92533 100.376 7.256C100.888 7.576 101.229 8.01333 101.4 8.568L101.256 8.472L101.416 6.92H103.352C103.309 7.25067 103.277 7.58667 103.256 7.928C103.234 8.26933 103.224 8.60533 103.224 8.936V14.68C103.224 15.9493 102.877 16.9147 102.184 17.576C101.501 18.248 100.498 18.584 99.1758 18.584ZM99.1438 13.272C99.7838 13.272 100.29 13.0587 100.664 12.632C101.048 12.1947 101.24 11.576 101.24 10.776C101.24 9.976 101.048 9.36267 100.664 8.936C100.29 8.50933 99.7838 8.296 99.1438 8.296C98.4931 8.296 97.9758 8.50933 97.5918 8.936C97.2078 9.36267 97.0158 9.976 97.0158 10.776C97.0158 11.576 97.2078 12.1947 97.5918 12.632C97.9758 13.0587 98.4931 13.272 99.1438 13.272Z" fill="#A1A0BD"/>
<path d="M34.569 63.5571V38.0661H36.483V63.5571H34.569ZM35.787 61.3821C34.3177 61.3821 33.003 61.1307 31.843 60.6281C30.683 60.1254 29.7743 59.3907 29.117 58.4241C28.4597 57.4574 28.1117 56.2877 28.073 54.9151H32.22C32.2587 55.5144 32.4133 56.0557 32.684 56.5391C32.974 57.0224 33.38 57.4091 33.902 57.6991C34.424 57.9697 35.0427 58.1051 35.758 58.1051C36.3767 58.1051 36.9083 58.0084 37.353 57.8151C37.817 57.6217 38.1747 57.3414 38.426 56.9741C38.6967 56.6067 38.832 56.1621 38.832 55.6401C38.832 55.0601 38.687 54.5767 38.397 54.1901C38.107 53.7841 37.701 53.4457 37.179 53.1751C36.6763 52.9044 36.106 52.6627 35.468 52.4501C34.83 52.2181 34.1533 51.9861 33.438 51.7541C31.8527 51.2127 30.6347 50.5071 29.784 49.6371C28.9527 48.7671 28.537 47.6167 28.537 46.1861C28.537 44.9681 28.827 43.9337 29.407 43.0831C30.0063 42.2131 30.8183 41.5461 31.843 41.0821C32.887 40.6181 34.0857 40.3861 35.439 40.3861C36.8117 40.3861 38.0103 40.6277 39.035 41.1111C40.079 41.5751 40.9007 42.2517 41.5 43.1411C42.0993 44.0304 42.4183 45.0744 42.457 46.2731H38.252C38.252 45.8091 38.1263 45.3837 37.875 44.9971C37.643 44.5911 37.3143 44.2721 36.889 44.0401C36.4637 43.7887 35.9513 43.6631 35.352 43.6631C34.8493 43.6437 34.395 43.7211 33.989 43.8951C33.583 44.0691 33.2543 44.3204 33.003 44.6491C32.771 44.9777 32.655 45.4031 32.655 45.9251C32.655 46.4084 32.771 46.8144 33.003 47.1431C33.235 47.4717 33.5637 47.7521 33.989 47.9841C34.4143 48.2161 34.9073 48.4384 35.468 48.6511C36.048 48.8637 36.686 49.0861 37.382 49.3181C38.3873 49.6661 39.3153 50.0817 40.166 50.5651C41.0167 51.0291 41.6933 51.6381 42.196 52.3921C42.6987 53.1461 42.95 54.1321 42.95 55.3501C42.95 56.4327 42.6697 57.4284 42.109 58.3371C41.5677 59.2457 40.7653 59.9804 39.702 60.5411C38.6387 61.1017 37.3337 61.3821 35.787 61.3821ZM45.2951 61.0341V58.1631C46.5131 57.1771 47.7021 56.1911 48.8621 55.2051C50.0221 54.2191 51.0661 53.2427 51.9941 52.2761C52.9221 51.2901 53.6471 50.3331 54.1691 49.4051C54.7105 48.4771 54.9811 47.5781 54.9811 46.7081C54.9811 46.1667 54.8845 45.6737 54.6911 45.2291C54.4978 44.7651 54.1981 44.3977 53.7921 44.1271C53.3861 43.8371 52.8448 43.6921 52.1681 43.6921C51.5108 43.6921 50.9501 43.8467 50.4861 44.1561C50.0221 44.4654 49.6741 44.8811 49.4421 45.4031C49.2101 45.9057 49.0941 46.4761 49.0941 47.1141H45.3241C45.3628 45.6254 45.6915 44.3784 46.3101 43.3731C46.9288 42.3677 47.7601 41.6234 48.8041 41.1401C49.8481 40.6374 51.0081 40.3861 52.2841 40.3861C53.7148 40.3861 54.9135 40.6567 55.8801 41.1981C56.8661 41.7201 57.6105 42.4354 58.1131 43.3441C58.6351 44.2527 58.8961 45.2967 58.8961 46.4761C58.8961 47.3654 58.7318 48.2354 58.4031 49.0861C58.0938 49.9367 57.6491 50.7681 57.0691 51.5801C56.5085 52.3727 55.8705 53.1364 55.1551 53.8711C54.4591 54.6057 53.7245 55.3114 52.9511 55.9881C52.1971 56.6454 51.4528 57.2641 50.7181 57.8441H59.3601V61.0341H45.2951ZM70.4857 61.3821C68.5911 61.3821 66.9671 60.9374 65.6137 60.0481C64.2797 59.1587 63.2454 57.9311 62.5107 56.3651C61.7954 54.7797 61.4377 52.9527 61.4377 50.8841C61.4377 48.8154 61.7954 46.9981 62.5107 45.4321C63.2454 43.8467 64.2797 42.6094 65.6137 41.7201C66.9671 40.8307 68.5911 40.3861 70.4857 40.3861C72.3611 40.3861 73.9657 40.8307 75.2997 41.7201C76.6531 42.6094 77.6874 43.8467 78.4027 45.4321C79.1374 46.9981 79.5047 48.8154 79.5047 50.8841C79.5047 52.9527 79.1374 54.7797 78.4027 56.3651C77.6874 57.9311 76.6531 59.1587 75.2997 60.0481C73.9657 60.9374 72.3611 61.3821 70.4857 61.3821ZM70.4567 57.8731C71.4621 57.8731 72.3417 57.5927 73.0957 57.0321C73.8497 56.4521 74.4394 55.6401 74.8647 54.5961C75.2901 53.5521 75.5027 52.3147 75.5027 50.8841C75.5027 49.4341 75.2901 48.1967 74.8647 47.1721C74.4394 46.1281 73.8497 45.3257 73.0957 44.7651C72.3417 44.2044 71.4621 43.9241 70.4567 43.9241C69.4707 43.9241 68.5911 44.2044 67.8177 44.7651C67.0637 45.3257 66.4741 46.1281 66.0487 47.1721C65.6234 48.1967 65.4107 49.4341 65.4107 50.8841C65.4107 52.3147 65.6234 53.5521 66.0487 54.5961C66.4741 55.6401 67.0637 56.4521 67.8177 57.0321C68.5911 57.5927 69.4707 57.8731 70.4567 57.8731ZM84.7843 61.0341V45.2291L81.3913 46.0121V42.9671L86.4373 40.7341H88.8153V61.0341H84.7843Z" fill="#142D6F"/>
<path d="M92.9258 61.1291C92.4571 61.1291 92.0708 60.9897 91.7668 60.7111C91.4754 60.4197 91.3298 60.0651 91.3298 59.6471C91.3298 59.2291 91.4754 58.8807 91.7668 58.6021C92.0708 58.3107 92.4571 58.1651 92.9258 58.1651C93.3944 58.1651 93.7744 58.3107 94.0658 58.6021C94.3571 58.8807 94.5028 59.2291 94.5028 59.6471C94.5028 60.0651 94.3571 60.4197 94.0658 60.7111C93.7744 60.9897 93.3944 61.1291 92.9258 61.1291ZM102.654 61.0341V58.6211H96.1182V56.5881L102.312 47.7341H105.219V56.3981H106.948V58.6211H105.219V61.0341H102.654ZM98.8542 56.3981H102.825V50.5651L98.8542 56.3981ZM113.625 61.2621C112.713 61.2621 111.89 61.0974 111.155 60.7681C110.42 60.4387 109.831 59.9764 109.388 59.3811C108.957 58.7857 108.742 58.0954 108.742 57.3101C108.742 56.7654 108.831 56.2714 109.008 55.8281C109.198 55.3847 109.458 54.9921 109.787 54.6501C110.129 54.3081 110.528 54.0484 110.984 53.8711C110.401 53.6051 109.933 53.2251 109.578 52.7311C109.236 52.2371 109.065 51.6797 109.065 51.0591C109.065 50.4384 109.236 49.8557 109.578 49.3111C109.92 48.7664 110.427 48.3294 111.098 48.0001C111.782 47.6707 112.624 47.5061 113.625 47.5061C114.626 47.5061 115.462 47.6707 116.133 48.0001C116.817 48.3294 117.33 48.7664 117.672 49.3111C118.014 49.8557 118.185 50.4384 118.185 51.0591C118.185 51.6671 118.008 52.2244 117.653 52.7311C117.298 53.2251 116.836 53.6051 116.266 53.8711C116.735 54.0611 117.134 54.3271 117.463 54.6691C117.805 54.9984 118.065 55.3847 118.242 55.8281C118.432 56.2714 118.527 56.7654 118.527 57.3101C118.527 58.0954 118.305 58.7857 117.862 59.3811C117.431 59.9764 116.842 60.4387 116.095 60.7681C115.36 61.0974 114.537 61.2621 113.625 61.2621ZM113.625 59.1151C114.41 59.1151 114.999 58.9251 115.392 58.5451C115.797 58.1651 116 57.6837 116 57.1011C116 56.4551 115.791 55.9484 115.373 55.5811C114.955 55.2011 114.372 55.0111 113.625 55.0111C112.89 55.0111 112.308 55.2011 111.877 55.5811C111.446 55.9484 111.231 56.4551 111.231 57.1011C111.231 57.6837 111.434 58.1651 111.839 58.5451C112.257 58.9251 112.852 59.1151 113.625 59.1151ZM113.625 53.1301C114.271 53.1301 114.771 52.9654 115.126 52.6361C115.481 52.3067 115.658 51.8824 115.658 51.3631C115.658 50.8057 115.481 50.3751 115.126 50.0711C114.771 49.7544 114.271 49.5961 113.625 49.5961C112.979 49.5961 112.479 49.7544 112.124 50.0711C111.782 50.3751 111.611 50.8121 111.611 51.3821C111.611 51.8887 111.788 52.3067 112.143 52.6361C112.498 52.9654 112.992 53.1301 113.625 53.1301Z" fill="#A3BDFF"/>
<rect x="27.5" y="83.5681" width="112" height="31" rx="15.5" stroke="#142D6F" stroke-opacity="0.6"/>
<path d="M49.0284 94.8408L51.2997 101.71H51.3892L53.6562 94.8408H55.3949L52.3182 103.568H50.3665L47.294 94.8408H49.0284ZM56.4762 103.568V97.0227H58.0188V103.568H56.4762ZM57.2518 96.0937C57.0075 96.0937 56.7972 96.0127 56.6211 95.8508C56.445 95.686 56.3569 95.4886 56.3569 95.2585C56.3569 95.0255 56.445 94.8281 56.6211 94.6661C56.7972 94.5014 57.0075 94.419 57.2518 94.419C57.4989 94.419 57.7092 94.5014 57.8825 94.6661C58.0586 94.8281 58.1467 95.0255 58.1467 95.2585C58.1467 95.4886 58.0586 95.686 57.8825 95.8508C57.7092 96.0127 57.4989 96.0937 57.2518 96.0937ZM62.5028 103.696C61.8466 103.696 61.2798 103.56 60.8026 103.287C60.3281 103.011 59.9631 102.622 59.7074 102.119C59.4517 101.614 59.3239 101.018 59.3239 100.334C59.3239 99.6604 59.4517 99.0695 59.7074 98.561C59.9659 98.0496 60.3267 97.6519 60.7898 97.3678C61.2528 97.0809 61.7969 96.9374 62.4219 96.9374C62.8253 96.9374 63.206 97.0028 63.5639 97.1335C63.9247 97.2613 64.2429 97.4602 64.5185 97.73C64.7969 97.9999 65.0156 98.3437 65.1747 98.7613C65.3338 99.1761 65.4134 99.6704 65.4134 100.244V100.717H60.0483V99.6775H63.9347C63.9318 99.382 63.8679 99.1193 63.7429 98.8891C63.6179 98.6562 63.4432 98.4729 63.2188 98.3394C62.9972 98.2059 62.7386 98.1391 62.4432 98.1391C62.1278 98.1391 61.8509 98.2158 61.6122 98.3693C61.3736 98.5198 61.1875 98.7187 61.054 98.9658C60.9233 99.2102 60.8565 99.4786 60.8537 99.7712V100.679C60.8537 101.06 60.9233 101.386 61.0625 101.659C61.2017 101.929 61.3963 102.136 61.6463 102.281C61.8963 102.423 62.1889 102.494 62.5241 102.494C62.7486 102.494 62.9517 102.463 63.1335 102.401C63.3153 102.335 63.473 102.24 63.6065 102.115C63.7401 101.99 63.8409 101.835 63.9091 101.651L65.3494 101.812C65.2585 102.193 65.0852 102.526 64.8295 102.81C64.5767 103.091 64.2528 103.31 63.858 103.466C63.4631 103.619 63.0114 103.696 62.5028 103.696ZM68.0341 103.568L66.1847 97.0227H67.7571L68.9077 101.625H68.9673L70.1435 97.0227H71.6989L72.875 101.599H72.9389L74.0724 97.0227H75.6491L73.7955 103.568H72.1889L70.9616 99.1448H70.8722L69.6449 103.568H68.0341ZM82.7283 103.568H79.771V94.8408H82.788C83.6545 94.8408 84.3988 95.0156 85.021 95.365C85.646 95.7116 86.1261 96.2102 86.4613 96.8607C86.7965 97.5113 86.9641 98.2897 86.9641 99.196C86.9641 100.105 86.7951 100.886 86.457 101.54C86.1218 102.193 85.6374 102.695 85.0039 103.044C84.3732 103.393 83.6147 103.568 82.7283 103.568ZM81.3519 102.2H82.6516C83.2596 102.2 83.7667 102.089 84.1729 101.868C84.5792 101.643 84.8846 101.31 85.0891 100.866C85.2937 100.42 85.396 99.8636 85.396 99.196C85.396 98.5283 85.2937 97.9744 85.0891 97.534C84.8846 97.0908 84.582 96.7599 84.1815 96.5411C83.7837 96.3195 83.2894 96.2087 82.6985 96.2087H81.3519V102.2ZM91.2958 103.696C90.6396 103.696 90.0728 103.56 89.5955 103.287C89.1211 103.011 88.756 102.622 88.5004 102.119C88.2447 101.614 88.1168 101.018 88.1168 100.334C88.1168 99.6604 88.2447 99.0695 88.5004 98.561C88.7589 98.0496 89.1197 97.6519 89.5827 97.3678C90.0458 97.0809 90.5898 96.9374 91.2148 96.9374C91.6183 96.9374 91.9989 97.0028 92.3569 97.1335C92.7177 97.2613 93.0359 97.4602 93.3114 97.73C93.5898 97.9999 93.8086 98.3437 93.9677 98.7613C94.1268 99.1761 94.2063 99.6704 94.2063 100.244V100.717H88.8413V99.6775H92.7276C92.7248 99.382 92.6609 99.1193 92.5359 98.8891C92.4109 98.6562 92.2362 98.4729 92.0117 98.3394C91.7901 98.2059 91.5316 98.1391 91.2362 98.1391C90.9208 98.1391 90.6438 98.2158 90.4052 98.3693C90.1665 98.5198 89.9805 98.7187 89.8469 98.9658C89.7163 99.2102 89.6495 99.4786 89.6467 99.7712V100.679C89.6467 101.06 89.7163 101.386 89.8555 101.659C89.9947 101.929 90.1893 102.136 90.4393 102.281C90.6893 102.423 90.9819 102.494 91.3171 102.494C91.5415 102.494 91.7447 102.463 91.9265 102.401C92.1083 102.335 92.266 102.24 92.3995 102.115C92.533 101.99 92.6339 101.835 92.7021 101.651L94.1424 101.812C94.0515 102.193 93.8782 102.526 93.6225 102.81C93.3697 103.091 93.0458 103.31 92.6509 103.466C92.256 103.619 91.8043 103.696 91.2958 103.696ZM98.7798 97.0227V98.2158H95.017V97.0227H98.7798ZM95.946 95.4545H97.4886V101.599C97.4886 101.807 97.5199 101.966 97.5824 102.077C97.6477 102.185 97.733 102.258 97.8381 102.298C97.9432 102.338 98.0597 102.358 98.1875 102.358C98.2841 102.358 98.3722 102.351 98.4517 102.337C98.5341 102.322 98.5966 102.31 98.6392 102.298L98.8991 103.504C98.8168 103.533 98.6989 103.564 98.5455 103.598C98.3949 103.632 98.2102 103.652 97.9915 103.658C97.6051 103.669 97.2571 103.611 96.9474 103.483C96.6378 103.352 96.392 103.151 96.2102 102.878C96.0313 102.605 95.9432 102.264 95.946 101.855V95.4545ZM101.953 103.7C101.539 103.7 101.165 103.626 100.833 103.479C100.503 103.328 100.242 103.106 100.049 102.814C99.8583 102.521 99.7631 102.16 99.7631 101.731C99.7631 101.362 99.8313 101.057 99.9677 100.815C100.104 100.574 100.29 100.381 100.526 100.236C100.762 100.091 101.027 99.9815 101.323 99.9076C101.621 99.8309 101.929 99.7755 102.248 99.7414C102.631 99.7016 102.942 99.6661 103.181 99.6349C103.419 99.6008 103.593 99.5496 103.701 99.4815C103.811 99.4104 103.867 99.3011 103.867 99.1533V99.1278C103.867 98.8068 103.772 98.5582 103.581 98.382C103.391 98.2059 103.117 98.1178 102.759 98.1178C102.381 98.1178 102.081 98.2002 101.86 98.365C101.641 98.5298 101.493 98.7244 101.417 98.9488L99.9762 98.7443C100.09 98.3465 100.277 98.0141 100.539 97.7471C100.8 97.4772 101.12 97.2755 101.498 97.142C101.875 97.0056 102.293 96.9374 102.75 96.9374C103.066 96.9374 103.38 96.9744 103.692 97.0482C104.005 97.1221 104.29 97.2443 104.549 97.4147C104.807 97.5823 105.015 97.811 105.171 98.1008C105.33 98.3906 105.409 98.7528 105.409 99.1874V103.568H103.926V102.669H103.875C103.782 102.851 103.65 103.021 103.479 103.18C103.311 103.337 103.1 103.463 102.844 103.56C102.591 103.653 102.294 103.7 101.953 103.7ZM102.354 102.567C102.664 102.567 102.932 102.506 103.159 102.383C103.387 102.258 103.561 102.094 103.684 101.889C103.809 101.685 103.871 101.462 103.871 101.22V100.449C103.823 100.489 103.74 100.526 103.624 100.56C103.51 100.594 103.382 100.624 103.24 100.649C103.098 100.675 102.958 100.697 102.819 100.717C102.679 100.737 102.559 100.754 102.456 100.768C102.226 100.8 102.02 100.851 101.838 100.922C101.657 100.993 101.513 101.092 101.408 101.22C101.303 101.345 101.25 101.507 101.25 101.706C101.25 101.99 101.354 102.204 101.561 102.349C101.769 102.494 102.033 102.567 102.354 102.567ZM106.961 103.568V97.0227H108.503V103.568H106.961ZM107.736 96.0937C107.492 96.0937 107.282 96.0127 107.105 95.8508C106.929 95.686 106.841 95.4886 106.841 95.2585C106.841 95.0255 106.929 94.8281 107.105 94.6661C107.282 94.5014 107.492 94.419 107.736 94.419C107.983 94.419 108.194 94.5014 108.367 94.6661C108.543 94.8281 108.631 95.0255 108.631 95.2585C108.631 95.4886 108.543 95.686 108.367 95.8508C108.194 96.0127 107.983 96.0937 107.736 96.0937ZM111.632 94.8408V103.568H110.089V94.8408H111.632ZM118.392 98.7528L116.985 98.9062C116.946 98.7641 116.876 98.6306 116.777 98.5056C116.68 98.3806 116.549 98.2798 116.385 98.2031C116.22 98.1264 116.018 98.088 115.779 98.088C115.458 98.088 115.189 98.1576 114.97 98.2968C114.754 98.436 114.647 98.6164 114.65 98.838C114.647 99.0283 114.717 99.1832 114.859 99.3025C115.004 99.4218 115.243 99.5198 115.575 99.5965L116.691 99.8352C117.311 99.9687 117.771 100.18 118.072 100.47C118.376 100.76 118.529 101.139 118.532 101.608C118.529 102.02 118.409 102.383 118.17 102.699C117.934 103.011 117.606 103.256 117.186 103.432C116.765 103.608 116.282 103.696 115.737 103.696C114.936 103.696 114.291 103.528 113.802 103.193C113.314 102.855 113.022 102.385 112.929 101.783L114.433 101.638C114.501 101.933 114.646 102.156 114.868 102.307C115.089 102.457 115.377 102.533 115.733 102.533C116.099 102.533 116.393 102.457 116.615 102.307C116.839 102.156 116.951 101.97 116.951 101.749C116.951 101.561 116.879 101.406 116.734 101.284C116.592 101.162 116.37 101.068 116.069 101.003L114.953 100.768C114.325 100.638 113.86 100.418 113.559 100.108C113.258 99.7954 113.109 99.4005 113.112 98.9232C113.109 98.5198 113.218 98.1704 113.44 97.8749C113.664 97.5766 113.975 97.3465 114.373 97.1846C114.774 97.0198 115.235 96.9374 115.758 96.9374C116.525 96.9374 117.129 97.1008 117.569 97.4275C118.012 97.7542 118.287 98.196 118.392 98.7528Z" fill="#142D6F" fill-opacity="0.6"/>
</svg>
