<svg width="259" height="144" viewBox="0 0 259 144" fill="none" xmlns="http://www.w3.org/2000/svg">
<rect x="0.5" y="0.705078" width="257.75" height="142.068" rx="4.5" fill="white"/>
<rect x="0.5" y="0.705078" width="257.75" height="142.068" rx="4.5" stroke="black"/>
<path d="M31.904 31.2051V21.6211H28.176V19.9251H37.696V21.6211H33.968V31.2051H31.904ZM41.3923 31.3651C40.5603 31.3651 39.8403 31.1944 39.2323 30.8531C38.6243 30.5117 38.1496 30.0264 37.8083 29.3971C37.4776 28.7677 37.3123 28.0211 37.3123 27.1571C37.3123 26.2931 37.4776 25.5517 37.8083 24.9331C38.1496 24.3037 38.6243 23.8184 39.2323 23.4771C39.8403 23.1357 40.5603 22.9651 41.3923 22.9651C42.2243 22.9651 42.9443 23.1357 43.5523 23.4771C44.1709 23.8184 44.6456 24.3037 44.9763 24.9331C45.3176 25.5517 45.4883 26.2931 45.4883 27.1571C45.4883 28.0211 45.3176 28.7677 44.9763 29.3971C44.6456 30.0264 44.1709 30.5117 43.5523 30.8531C42.9443 31.1944 42.2243 31.3651 41.3923 31.3651ZM41.3923 29.8291C42.0216 29.8291 42.5229 29.6104 42.8963 29.1731C43.2696 28.7251 43.4563 28.0531 43.4563 27.1571C43.4563 26.2611 43.2696 25.5944 42.8963 25.1571C42.5229 24.7197 42.0216 24.5011 41.3923 24.5011C40.7629 24.5011 40.2616 24.7197 39.8883 25.1571C39.5149 25.5944 39.3283 26.2611 39.3283 27.1571C39.3283 28.0531 39.5149 28.7251 39.8883 29.1731C40.2616 29.6104 40.7629 29.8291 41.3923 29.8291ZM50.5909 31.3651C49.6309 31.3651 48.9055 31.1144 48.4149 30.6131C47.9242 30.1117 47.6789 29.3597 47.6789 28.3571V24.6291H46.1269V23.1251H47.6789V21.0611L49.6789 20.5491V23.1251H51.8389V24.6291H49.6789V28.2291C49.6789 28.7837 49.7855 29.1731 49.9989 29.3971C50.2122 29.6211 50.5055 29.7331 50.8789 29.7331C51.0815 29.7331 51.2522 29.7171 51.3909 29.6851C51.5402 29.6531 51.6842 29.6104 51.8229 29.5571V31.1411C51.6415 31.2157 51.4389 31.2691 51.2149 31.3011C51.0015 31.3437 50.7935 31.3651 50.5909 31.3651ZM56.3174 31.3651C55.6134 31.3651 54.9947 31.1997 54.4614 30.8691C53.928 30.5277 53.512 30.0424 53.2134 29.4131C52.9147 28.7837 52.7654 28.0317 52.7654 27.1571C52.7654 26.2824 52.9147 25.5357 53.2134 24.9171C53.512 24.2877 53.928 23.8077 54.4614 23.4771C54.9947 23.1357 55.6134 22.9651 56.3174 22.9651C57 22.9651 57.5974 23.1357 58.1094 23.4771C58.632 23.8077 58.9787 24.2557 59.1494 24.8211H58.9734L59.1494 23.1251H61.0694C61.0374 23.4557 61.0054 23.7917 60.9734 24.1331C60.952 24.4744 60.9414 24.8104 60.9414 25.1411V31.2051H58.9574L58.9414 29.5411H59.1334C58.9627 30.0957 58.616 30.5384 58.0934 30.8691C57.5707 31.1997 56.9787 31.3651 56.3174 31.3651ZM56.8774 29.8291C57.5067 29.8291 58.0134 29.6104 58.3974 29.1731C58.7814 28.7251 58.9734 28.0531 58.9734 27.1571C58.9734 26.2611 58.7814 25.5944 58.3974 25.1571C58.0134 24.7197 57.5067 24.5011 56.8774 24.5011C56.248 24.5011 55.7414 24.7197 55.3574 25.1571C54.9734 25.5944 54.7814 26.2611 54.7814 27.1571C54.7814 28.0531 54.968 28.7251 55.3414 29.1731C55.7254 29.6104 56.2374 29.8291 56.8774 29.8291ZM63.1193 31.2051V19.4291H65.1193V31.2051H63.1193ZM71.8418 31.2051V19.9251H79.4418V21.5411H73.8258V24.6611H79.0738V26.2931H73.8258V29.5731H79.4418V31.2051H71.8418ZM79.9494 31.2051L83.7094 26.5811V27.4931L80.1574 23.1251H82.5254L84.8454 26.1171H84.1254L86.4454 23.1251H88.7974L85.2774 27.4931V26.5811L89.0214 31.2051H86.6374L84.1254 27.9891H84.8454L82.3174 31.2051H79.9494ZM89.9786 34.6611V25.1411C89.9786 24.8104 89.968 24.4744 89.9466 24.1331C89.9253 23.7917 89.8933 23.4557 89.8506 23.1251H91.7866L91.9626 24.8211H91.7866C91.9466 24.2557 92.2826 23.8077 92.7946 23.4771C93.3173 23.1357 93.92 22.9651 94.6026 22.9651C95.3173 22.9651 95.9413 23.1357 96.4746 23.4771C97.008 23.8077 97.424 24.2877 97.7226 24.9171C98.0213 25.5357 98.1706 26.2824 98.1706 27.1571C98.1706 28.0317 98.0213 28.7837 97.7226 29.4131C97.424 30.0424 97.008 30.5277 96.4746 30.8691C95.9413 31.1997 95.3173 31.3651 94.6026 31.3651C93.9306 31.3651 93.3386 31.1997 92.8266 30.8691C92.3146 30.5384 91.9733 30.0957 91.8026 29.5411H91.9786V34.6611H89.9786ZM94.0426 29.8291C94.6826 29.8291 95.1946 29.6104 95.5786 29.1731C95.9626 28.7251 96.1546 28.0531 96.1546 27.1571C96.1546 26.2611 95.9626 25.5944 95.5786 25.1571C95.1946 24.7197 94.6826 24.5011 94.0426 24.5011C93.4133 24.5011 92.9066 24.7197 92.5226 25.1571C92.1386 25.5944 91.9466 26.2611 91.9466 27.1571C91.9466 28.0531 92.1386 28.7251 92.5226 29.1731C92.9066 29.6104 93.4133 29.8291 94.0426 29.8291ZM103.805 31.3651C102.45 31.3651 101.389 30.9917 100.621 30.2451C99.8525 29.4984 99.4685 28.4744 99.4685 27.1731C99.4685 26.3304 99.6338 25.5944 99.9645 24.9651C100.295 24.3357 100.754 23.8451 101.341 23.4931C101.938 23.1411 102.631 22.9651 103.421 22.9651C104.199 22.9651 104.85 23.1304 105.373 23.4611C105.895 23.7917 106.29 24.2557 106.557 24.8531C106.834 25.4504 106.973 26.1491 106.973 26.9491V27.4771H101.085V26.4211H105.549L105.277 26.6451C105.277 25.8984 105.117 25.3277 104.797 24.9331C104.487 24.5384 104.034 24.3411 103.437 24.3411C102.775 24.3411 102.263 24.5757 101.901 25.0451C101.549 25.5144 101.373 26.1704 101.373 27.0131V27.2211C101.373 28.0957 101.586 28.7517 102.013 29.1891C102.45 29.6157 103.063 29.8291 103.853 29.8291C104.311 29.8291 104.738 29.7704 105.133 29.6531C105.538 29.5251 105.922 29.3224 106.285 29.0451L106.877 30.3891C106.493 30.6984 106.034 30.9384 105.501 31.1091C104.967 31.2797 104.402 31.3651 103.805 31.3651ZM108.666 31.2051V25.1411C108.666 24.8104 108.655 24.4744 108.634 24.1331C108.613 23.7917 108.581 23.4557 108.538 23.1251H110.474L110.634 24.7251H110.442C110.698 24.1597 111.077 23.7277 111.578 23.4291C112.079 23.1197 112.661 22.9651 113.322 22.9651C114.271 22.9651 114.986 23.2317 115.466 23.7651C115.946 24.2984 116.186 25.1304 116.186 26.2611V31.2051H114.186V26.3571C114.186 25.7064 114.058 25.2424 113.802 24.9651C113.557 24.6771 113.183 24.5331 112.682 24.5331C112.063 24.5331 111.573 24.7251 111.21 25.1091C110.847 25.4931 110.666 26.0051 110.666 26.6451V31.2051H108.666ZM121.187 31.3651C120.493 31.3651 119.853 31.2851 119.267 31.1251C118.691 30.9544 118.205 30.7197 117.811 30.4211L118.371 29.0771C118.776 29.3544 119.224 29.5677 119.715 29.7171C120.205 29.8664 120.701 29.9411 121.203 29.9411C121.736 29.9411 122.131 29.8504 122.387 29.6691C122.653 29.4877 122.787 29.2424 122.787 28.9331C122.787 28.6877 122.701 28.4957 122.531 28.3571C122.371 28.2077 122.109 28.0957 121.747 28.0211L120.147 27.7171C119.464 27.5677 118.941 27.3117 118.579 26.9491C118.227 26.5864 118.051 26.1117 118.051 25.5251C118.051 25.0237 118.184 24.5811 118.451 24.1971C118.728 23.8131 119.117 23.5144 119.619 23.3011C120.131 23.0771 120.728 22.9651 121.411 22.9651C122.008 22.9651 122.568 23.0451 123.091 23.2051C123.624 23.3651 124.072 23.6051 124.435 23.9251L123.859 25.2211C123.528 24.9544 123.149 24.7464 122.723 24.5971C122.296 24.4477 121.88 24.3731 121.475 24.3731C120.92 24.3731 120.515 24.4744 120.259 24.6771C120.003 24.8691 119.875 25.1197 119.875 25.4291C119.875 25.6637 119.949 25.8611 120.099 26.0211C120.259 26.1704 120.504 26.2824 120.835 26.3571L122.435 26.6611C123.149 26.7997 123.688 27.0451 124.051 27.3971C124.424 27.7384 124.611 28.2077 124.611 28.8051C124.611 29.3384 124.467 29.7971 124.179 30.1811C123.891 30.5651 123.491 30.8584 122.979 31.0611C122.467 31.2637 121.869 31.3651 121.187 31.3651ZM130.226 31.3651C128.872 31.3651 127.81 30.9917 127.042 30.2451C126.274 29.4984 125.89 28.4744 125.89 27.1731C125.89 26.3304 126.056 25.5944 126.386 24.9651C126.717 24.3357 127.176 23.8451 127.762 23.4931C128.36 23.1411 129.053 22.9651 129.842 22.9651C130.621 22.9651 131.272 23.1304 131.794 23.4611C132.317 23.7917 132.712 24.2557 132.978 24.8531C133.256 25.4504 133.394 26.1491 133.394 26.9491V27.4771H127.506V26.4211H131.97L131.698 26.6451C131.698 25.8984 131.538 25.3277 131.218 24.9331C130.909 24.5384 130.456 24.3411 129.858 24.3411C129.197 24.3411 128.685 24.5757 128.322 25.0451C127.97 25.5144 127.794 26.1704 127.794 27.0131V27.2211C127.794 28.0957 128.008 28.7517 128.434 29.1891C128.872 29.6157 129.485 29.8291 130.274 29.8291C130.733 29.8291 131.16 29.7704 131.554 29.6531C131.96 29.5251 132.344 29.3224 132.706 29.0451L133.298 30.3891C132.914 30.6984 132.456 30.9384 131.922 31.1091C131.389 31.2797 130.824 31.3651 130.226 31.3651Z" fill="#A1A0BD"/>
<path d="M36.9286 79.3755V53.0119H38.6175V79.3755H36.9286ZM40.9964 61.9714C40.9278 61.2162 40.6223 60.6292 40.0799 60.2104C39.5444 59.7847 38.7789 59.5719 37.7834 59.5719C37.1243 59.5719 36.575 59.6577 36.1357 59.8293C35.6963 60.001 35.3667 60.2378 35.147 60.5399C34.9273 60.8351 34.814 61.175 34.8072 61.5594C34.7934 61.8753 34.8552 62.1533 34.9925 62.3936C35.1367 62.6339 35.3427 62.8467 35.6104 63.0321C35.8851 63.2106 36.2146 63.3685 36.5991 63.5058C36.9835 63.6431 37.4161 63.7633 37.8967 63.8663L39.7092 64.2782C40.7527 64.5048 41.6727 64.8068 42.4691 65.1844C43.2724 65.5621 43.9452 66.0117 44.4876 66.5335C45.0368 67.0553 45.4522 67.656 45.7337 68.3357C46.0152 69.0154 46.1593 69.7775 46.1662 70.6219C46.1593 71.9539 45.8229 73.097 45.157 74.0513C44.491 75.0056 43.5333 75.7368 42.2837 76.2448C41.0411 76.7529 39.541 77.0069 37.7834 77.0069C36.0189 77.0069 34.4811 76.7426 33.1697 76.2139C31.8584 75.6853 30.8389 74.882 30.1112 73.8041C29.3834 72.7262 29.0092 71.3634 28.9886 69.7157H33.87C33.9112 70.3954 34.0932 70.9618 34.4158 71.4149C34.7385 71.868 35.1813 72.2113 35.7443 72.4447C36.3142 72.6782 36.9732 72.7949 37.7216 72.7949C38.4081 72.7949 38.9917 72.7022 39.4723 72.5168C39.9598 72.3315 40.3339 72.074 40.5948 71.7445C40.8557 71.4149 40.9896 71.0373 40.9964 70.6116C40.9896 70.2134 40.866 69.8736 40.6257 69.5921C40.3854 69.3038 40.0147 69.0566 39.5135 68.8506C39.0192 68.6378 38.3875 68.4421 37.6186 68.2636L35.4148 67.7487C33.5885 67.3299 32.1502 66.6537 31.0998 65.72C30.0494 64.7794 29.5276 63.5093 29.5344 61.9096C29.5276 60.6051 29.8777 59.462 30.5849 58.4803C31.292 57.4985 32.2704 56.733 33.5199 56.1837C34.7694 55.6345 36.194 55.3599 37.7937 55.3599C39.4277 55.3599 40.8454 55.6379 42.0469 56.194C43.2552 56.7433 44.1924 57.5157 44.8583 58.5112C45.5243 59.5067 45.8641 60.6601 45.8778 61.9714H40.9964ZM63.0039 77.0275C61.466 77.0275 60.0998 76.7494 58.9052 76.1933C57.7106 75.6372 56.7666 74.8717 56.0732 73.8968C55.3866 72.9219 55.0296 71.8028 55.0021 70.5396H59.9453C59.9865 71.3154 60.3023 71.9401 60.8928 72.4139C61.4832 72.8807 62.1869 73.1141 63.0039 73.1141C63.6424 73.1141 64.2088 72.9734 64.7031 72.6919C65.1974 72.4104 65.5853 72.0157 65.8668 71.5076C66.1483 70.9927 66.2856 70.4023 66.2788 69.7363C66.2856 69.0566 66.1449 68.4627 65.8565 67.9547C65.575 67.4466 65.1837 67.0519 64.6825 66.7704C64.1882 66.482 63.6184 66.3379 62.973 66.3379C62.362 66.331 61.7818 66.4649 61.2326 66.7395C60.6902 67.0141 60.2783 67.3883 59.9968 67.862L55.4964 67.0175L56.413 55.6482H69.945V59.7572H60.6044L60.1204 64.7313H60.244C60.5941 64.1478 61.1571 63.6672 61.9329 63.2896C62.7156 62.9051 63.6046 62.7129 64.6001 62.7129C65.8634 62.7129 66.9893 63.0081 67.978 63.5985C68.9735 64.1821 69.7562 64.9922 70.326 66.0289C70.9027 67.0656 71.1911 68.2533 71.1911 69.5921C71.1911 71.0407 70.8478 72.3246 70.1612 73.4437C69.4815 74.5628 68.5272 75.4416 67.2983 76.08C66.0762 76.7117 64.6448 77.0275 63.0039 77.0275ZM82.7123 77.2541C80.8723 77.2541 79.2864 76.8181 77.9545 75.9462C76.6225 75.0674 75.5961 73.8076 74.8753 72.1667C74.1544 70.519 73.7974 68.5383 73.8042 66.2246C73.8111 63.9109 74.1715 61.9473 74.8856 60.3339C75.6064 58.7137 76.6294 57.4813 77.9545 56.6369C79.2864 55.7855 80.8723 55.3599 82.7123 55.3599C84.5522 55.3599 86.1382 55.7855 87.4701 56.6369C88.8089 57.4813 89.8387 58.7137 90.5596 60.3339C91.2805 61.9542 91.6375 63.9178 91.6306 66.2246C91.6306 68.5451 91.2702 70.5293 90.5493 72.177C89.8284 73.8247 88.802 75.0845 87.4701 75.9565C86.145 76.8215 84.5591 77.2541 82.7123 77.2541ZM82.7123 73.0832C83.8108 73.0832 84.6998 72.5237 85.3795 71.4046C86.0592 70.2787 86.3956 68.552 86.3888 66.2246C86.3888 64.7004 86.2343 63.444 85.9253 62.4554C85.6164 61.4599 85.1873 60.7184 84.6381 60.231C84.0888 59.7435 83.4469 59.4998 82.7123 59.4998C81.6206 59.4998 80.7384 60.0525 80.0656 61.1578C79.3928 62.2563 79.0529 63.9452 79.0461 66.2246C79.0392 67.7693 79.1868 69.0497 79.4889 70.0658C79.7979 71.0819 80.2304 71.8406 80.7865 72.3418C81.3426 72.8361 81.9845 73.0832 82.7123 73.0832ZM103.273 77.2541C101.433 77.2541 99.8469 76.8181 98.515 75.9462C97.1831 75.0674 96.1567 73.8076 95.4358 72.1667C94.7149 70.519 94.3579 68.5383 94.3648 66.2246C94.3717 63.9109 94.7321 61.9473 95.4461 60.3339C96.167 58.7137 97.19 57.4813 98.515 56.6369C99.8469 55.7855 101.433 55.3599 103.273 55.3599C105.113 55.3599 106.699 55.7855 108.031 56.6369C109.369 57.4813 110.399 58.7137 111.12 60.3339C111.841 61.9542 112.198 63.9178 112.191 66.2246C112.191 68.5451 111.831 70.5293 111.11 72.177C110.389 73.8247 109.363 75.0845 108.031 75.9565C106.706 76.8215 105.12 77.2541 103.273 77.2541ZM103.273 73.0832C104.371 73.0832 105.26 72.5237 105.94 71.4046C106.62 70.2787 106.956 68.552 106.949 66.2246C106.949 64.7004 106.795 63.444 106.486 62.4554C106.177 61.4599 105.748 60.7184 105.199 60.231C104.649 59.7435 104.007 59.4998 103.273 59.4998C102.181 59.4998 101.299 60.0525 100.626 61.1578C99.9533 62.2563 99.6135 63.9452 99.6066 66.2246C99.5998 67.7693 99.7474 69.0497 100.049 70.0658C100.358 71.0819 100.791 71.8406 101.347 72.3418C101.903 72.8361 102.545 73.0832 103.273 73.0832ZM123.833 77.2541C121.993 77.2541 120.407 76.8181 119.076 75.9462C117.744 75.0674 116.717 73.8076 115.996 72.1667C115.275 70.519 114.918 68.5383 114.925 66.2246C114.932 63.9109 115.293 61.9473 116.007 60.3339C116.728 58.7137 117.751 57.4813 119.076 56.6369C120.407 55.7855 121.993 55.3599 123.833 55.3599C125.673 55.3599 127.259 55.7855 128.591 56.6369C129.93 57.4813 130.96 58.7137 131.681 60.3339C132.402 61.9542 132.759 63.9178 132.752 66.2246C132.752 68.5451 132.391 70.5293 131.67 72.177C130.949 73.8247 129.923 75.0845 128.591 75.9565C127.266 76.8215 125.68 77.2541 123.833 77.2541ZM123.833 73.0832C124.932 73.0832 125.821 72.5237 126.501 71.4046C127.18 70.2787 127.517 68.552 127.51 66.2246C127.51 64.7004 127.355 63.444 127.046 62.4554C126.737 61.4599 126.308 60.7184 125.759 60.231C125.21 59.7435 124.568 59.4998 123.833 59.4998C122.742 59.4998 121.86 60.0525 121.187 61.1578C120.514 62.2563 120.174 63.9452 120.167 66.2246C120.16 67.7693 120.308 69.0497 120.61 70.0658C120.919 71.0819 121.351 71.8406 121.908 72.3418C122.464 72.8361 123.106 73.0832 123.833 73.0832Z" fill="#142D6F"/>
<path d="M137.017 76.9348C136.532 76.9348 136.116 76.7639 135.769 76.422C135.427 76.0802 135.259 75.6663 135.263 75.1805C135.259 74.7037 135.427 74.2967 135.769 73.9593C136.116 73.6175 136.532 73.4465 137.017 73.4465C137.476 73.4465 137.881 73.6175 138.232 73.9593C138.587 74.2967 138.767 74.7037 138.772 75.1805C138.767 75.5044 138.682 75.799 138.515 76.0644C138.353 76.3298 138.14 76.5412 137.874 76.6987C137.613 76.8561 137.328 76.9348 137.017 76.9348ZM146.045 77.0765C144.84 77.0765 143.801 76.7909 142.928 76.2196C142.055 75.6438 141.383 74.8184 140.911 73.7434C140.438 72.6639 140.204 71.3661 140.209 69.8503C140.213 68.3344 140.45 67.048 140.917 65.9909C141.39 64.9294 142.06 64.1219 142.928 63.5687C143.801 63.0109 144.84 62.732 146.045 62.732C147.251 62.732 148.29 63.0109 149.162 63.5687C150.04 64.1219 150.714 64.9294 151.187 65.9909C151.659 67.0525 151.893 68.3389 151.888 69.8503C151.888 71.3706 151.652 72.6706 151.18 73.7501C150.707 74.8297 150.035 75.6551 149.162 76.2264C148.294 76.7931 147.255 77.0765 146.045 77.0765ZM146.045 74.3439C146.765 74.3439 147.347 73.9773 147.793 73.2441C148.238 72.5064 148.458 71.3751 148.454 69.8503C148.454 68.8517 148.353 68.0286 148.15 67.3808C147.948 66.7286 147.667 66.2428 147.307 65.9234C146.947 65.6041 146.526 65.4444 146.045 65.4444C145.33 65.4444 144.752 65.8065 144.311 66.5307C143.87 67.2504 143.648 68.3569 143.643 69.8503C143.639 70.8624 143.735 71.7013 143.933 72.367C144.136 73.0327 144.419 73.5297 144.783 73.8581C145.148 74.182 145.568 74.3439 146.045 74.3439ZM159.516 77.0765C158.31 77.0765 157.271 76.7909 156.399 76.2196C155.526 75.6438 154.854 74.8184 154.381 73.7434C153.909 72.6639 153.675 71.3661 153.68 69.8503C153.684 68.3344 153.92 67.048 154.388 65.9909C154.86 64.9294 155.531 64.1219 156.399 63.5687C157.271 63.0109 158.31 62.732 159.516 62.732C160.721 62.732 161.76 63.0109 162.633 63.5687C163.51 64.1219 164.185 64.9294 164.657 65.9909C165.13 67.0525 165.363 68.3389 165.359 69.8503C165.359 71.3706 165.123 72.6706 164.65 73.7501C164.178 74.8297 163.506 75.6551 162.633 76.2264C161.765 76.7931 160.726 77.0765 159.516 77.0765ZM159.516 74.3439C160.236 74.3439 160.818 73.9773 161.263 73.2441C161.709 72.5064 161.929 71.3751 161.925 69.8503C161.925 68.8517 161.823 68.0286 161.621 67.3808C161.419 66.7286 161.137 66.2428 160.778 65.9234C160.418 65.6041 159.997 65.4444 159.516 65.4444C158.801 65.4444 158.223 65.8065 157.782 66.5307C157.341 67.2504 157.118 68.3569 157.114 69.8503C157.109 70.8624 157.206 71.7013 157.404 72.367C157.606 73.0327 157.89 73.5297 158.254 73.8581C158.619 74.182 159.039 74.3439 159.516 74.3439Z" fill="#A3BDFF"/>
<rect x="28" y="97.2733" width="87" height="32" rx="16" fill="#DCF5E8"/>
<path fill-rule="evenodd" clip-rule="evenodd" d="M50.4947 107.899C50.4947 107.733 50.558 107.574 50.6706 107.457C50.7832 107.339 50.936 107.273 51.0953 107.273H55.8995C56.0587 107.273 56.2115 107.339 56.3241 107.457C56.4367 107.574 56.5 107.733 56.5 107.899V112.908C56.5 113.074 56.4367 113.233 56.3241 113.35C56.2115 113.468 56.0587 113.534 55.8995 113.534C55.7402 113.534 55.5875 113.468 55.4748 113.35C55.3622 113.233 55.2989 113.074 55.2989 112.908V109.652L50.9595 115.183C50.9064 115.25 50.8403 115.306 50.7655 115.345C50.6906 115.384 50.6087 115.407 50.525 115.411C50.4413 115.416 50.3576 115.402 50.2794 115.37C50.2011 115.339 50.1301 115.291 50.0708 115.229L46.9636 111.99L42.5726 118.284C42.4765 118.412 42.3369 118.495 42.1829 118.517C42.029 118.54 41.8728 118.499 41.7472 118.403C41.6215 118.308 41.5362 118.166 41.5092 118.006C41.4821 117.847 41.5154 117.682 41.6021 117.548L46.4063 110.661C46.4573 110.588 46.5229 110.527 46.5987 110.483C46.6744 110.439 46.7584 110.412 46.8449 110.405C46.9315 110.398 47.0184 110.41 47.0999 110.442C47.1813 110.473 47.2553 110.522 47.3167 110.586L50.4503 113.854L54.6324 108.525H51.0953C50.936 108.525 50.7832 108.459 50.6706 108.342C50.558 108.225 50.4947 108.065 50.4947 107.899Z" fill="#4FD18B"/>
<path d="M66.2081 116.526V109.154H67.8807V116.526H66.2081ZM63.3583 113.676V112.004H70.7305V113.676H63.3583ZM80.6608 118.422C79.8689 118.422 79.1657 118.289 78.5514 118.023C77.9406 117.757 77.4612 117.393 77.1132 116.931C76.7687 116.466 76.5983 115.938 76.6018 115.349C76.5983 114.891 76.6977 114.47 76.9001 114.086C77.1025 113.703 77.376 113.383 77.7204 113.128C78.0684 112.868 78.4555 112.703 78.8817 112.632V112.558C78.3206 112.433 77.866 112.148 77.518 111.7C77.1736 111.249 77.0031 110.729 77.0067 110.139C77.0031 109.578 77.1594 109.078 77.4754 108.637C77.7915 108.197 78.2247 107.851 78.7751 107.599C79.3256 107.343 79.9541 107.215 80.6608 107.215C81.3604 107.215 81.9836 107.343 82.5305 107.599C83.0809 107.851 83.5141 108.197 83.8302 108.637C84.1498 109.078 84.3096 109.578 84.3096 110.139C84.3096 110.729 84.1338 111.249 83.7822 111.7C83.4342 112.148 82.985 112.433 82.4346 112.558V112.632C82.8607 112.703 83.2442 112.868 83.5851 113.128C83.9296 113.383 84.203 113.703 84.4055 114.086C84.6114 114.47 84.7144 114.891 84.7144 115.349C84.7144 115.938 84.5404 116.466 84.1924 116.931C83.8444 117.393 83.365 117.757 82.7542 118.023C82.1469 118.289 81.4491 118.422 80.6608 118.422ZM80.6608 116.899C81.0692 116.899 81.4243 116.83 81.7261 116.691C82.028 116.549 82.2623 116.35 82.4292 116.095C82.5961 115.839 82.6814 115.544 82.6849 115.21C82.6814 114.862 82.5908 114.555 82.4133 114.289C82.2393 114.019 81.9996 113.808 81.6942 113.655C81.3923 113.502 81.0479 113.426 80.6608 113.426C80.2702 113.426 79.9221 113.502 79.6167 113.655C79.3113 113.808 79.0699 114.019 78.8923 114.289C78.7183 114.555 78.6331 114.862 78.6366 115.21C78.6331 115.544 78.7148 115.839 78.8817 116.095C79.0486 116.347 79.2829 116.544 79.5848 116.686C79.8902 116.828 80.2488 116.899 80.6608 116.899ZM80.6608 111.929C80.9946 111.929 81.2893 111.862 81.545 111.727C81.8042 111.592 82.0084 111.404 82.1576 111.162C82.3067 110.921 82.3831 110.642 82.3866 110.326C82.3831 110.013 82.3085 109.74 82.1629 109.505C82.0173 109.268 81.8149 109.085 81.5557 108.957C81.2964 108.825 80.9981 108.76 80.6608 108.76C80.3163 108.76 80.0127 108.825 79.7499 108.957C79.4907 109.085 79.2883 109.268 79.1427 109.505C79.0006 109.74 78.9314 110.013 78.9349 110.326C78.9314 110.642 79.0024 110.921 79.148 111.162C79.2971 111.4 79.5013 111.588 79.7606 111.727C80.0233 111.862 80.3234 111.929 80.6608 111.929ZM92.2983 116.228V115.653C92.2983 115.23 92.3871 114.841 92.5646 114.486C92.7457 114.131 93.0085 113.845 93.353 113.628C93.6974 113.412 94.1147 113.303 94.6048 113.303C95.109 113.303 95.5316 113.412 95.8725 113.628C96.2134 113.841 96.4709 114.126 96.6449 114.481C96.8224 114.836 96.9112 115.226 96.9112 115.653V116.228C96.9112 116.65 96.8224 117.039 96.6449 117.394C96.4673 117.749 96.2063 118.035 95.8619 118.252C95.521 118.469 95.1019 118.577 94.6048 118.577C94.1076 118.577 93.6868 118.469 93.3423 118.252C92.9979 118.035 92.7369 117.749 92.5593 117.394C92.3853 117.039 92.2983 116.65 92.2983 116.228ZM93.6886 115.653V116.228C93.6886 116.508 93.756 116.766 93.891 117C94.0259 117.235 94.2638 117.352 94.6048 117.352C94.9492 117.352 95.1854 117.236 95.3132 117.005C95.4446 116.771 95.5103 116.512 95.5103 116.228V115.653C95.5103 115.368 95.4482 115.109 95.3239 114.875C95.1996 114.637 94.9599 114.518 94.6048 114.518C94.271 114.518 94.0348 114.637 93.8963 114.875C93.7578 115.109 93.6886 115.368 93.6886 115.653ZM86.7532 109.985V109.41C86.7532 108.983 86.8438 108.593 87.0249 108.238C87.206 107.883 87.4688 107.599 87.8132 107.385C88.1577 107.169 88.5749 107.061 89.065 107.061C89.5657 107.061 89.9865 107.169 90.3274 107.385C90.6719 107.599 90.9311 107.883 91.1051 108.238C91.2791 108.593 91.3661 108.983 91.3661 109.41V109.985C91.3661 110.411 91.2773 110.802 91.0998 111.157C90.9258 111.508 90.6665 111.791 90.3221 112.004C89.9776 112.217 89.5586 112.323 89.065 112.323C88.5643 112.323 88.1417 112.217 87.7972 112.004C87.4563 111.791 87.1971 111.507 87.0195 111.151C86.842 110.796 86.7532 110.407 86.7532 109.985ZM88.1541 109.41V109.985C88.1541 110.269 88.2198 110.528 88.3512 110.763C88.4862 110.993 88.7241 111.109 89.065 111.109C89.4059 111.109 89.6403 110.993 89.7681 110.763C89.8995 110.528 89.9652 110.269 89.9652 109.985V109.41C89.9652 109.126 89.9031 108.866 89.7788 108.632C89.6545 108.394 89.4165 108.275 89.065 108.275C88.7276 108.275 88.4915 108.394 88.3565 108.632C88.2216 108.87 88.1541 109.129 88.1541 109.41ZM87.3604 118.273L94.8604 107.364H96.1921L88.6921 118.273H87.3604Z" fill="#4FD18B"/>
</svg>
