<svg width="259" height="144" viewBox="0 0 259 144" fill="none" xmlns="http://www.w3.org/2000/svg">
<rect y="0.0683594" width="258.75" height="143.068" rx="5" fill="white"/>
<path d="M30.904 30.0684V20.4844H27.176V18.7884H36.696V20.4844H32.968V30.0684H30.904ZM40.3923 30.2284C39.5603 30.2284 38.8403 30.0577 38.2323 29.7164C37.6243 29.375 37.1496 28.8897 36.8083 28.2604C36.4776 27.631 36.3123 26.8844 36.3123 26.0204C36.3123 25.1564 36.4776 24.415 36.8083 23.7964C37.1496 23.167 37.6243 22.6817 38.2323 22.3404C38.8403 21.999 39.5603 21.8284 40.3923 21.8284C41.2243 21.8284 41.9443 21.999 42.5523 22.3404C43.1709 22.6817 43.6456 23.167 43.9763 23.7964C44.3176 24.415 44.4883 25.1564 44.4883 26.0204C44.4883 26.8844 44.3176 27.631 43.9763 28.2604C43.6456 28.8897 43.1709 29.375 42.5523 29.7164C41.9443 30.0577 41.2243 30.2284 40.3923 30.2284ZM40.3923 28.6924C41.0216 28.6924 41.5229 28.4737 41.8963 28.0364C42.2696 27.5884 42.4563 26.9164 42.4563 26.0204C42.4563 25.1244 42.2696 24.4577 41.8963 24.0204C41.5229 23.583 41.0216 23.3644 40.3923 23.3644C39.7629 23.3644 39.2616 23.583 38.8883 24.0204C38.5149 24.4577 38.3283 25.1244 38.3283 26.0204C38.3283 26.9164 38.5149 27.5884 38.8883 28.0364C39.2616 28.4737 39.7629 28.6924 40.3923 28.6924ZM49.5909 30.2284C48.6309 30.2284 47.9055 29.9777 47.4149 29.4764C46.9242 28.975 46.6789 28.223 46.6789 27.2204V23.4924H45.1269V21.9884H46.6789V19.9244L48.6789 19.4124V21.9884H50.8389V23.4924H48.6789V27.0924C48.6789 27.647 48.7855 28.0364 48.9989 28.2604C49.2122 28.4844 49.5055 28.5964 49.8789 28.5964C50.0815 28.5964 50.2522 28.5804 50.3909 28.5484C50.5402 28.5164 50.6842 28.4737 50.8229 28.4204V30.0044C50.6415 30.079 50.4389 30.1324 50.2149 30.1644C50.0015 30.207 49.7935 30.2284 49.5909 30.2284ZM55.3174 30.2284C54.6134 30.2284 53.9947 30.063 53.4614 29.7324C52.928 29.391 52.512 28.9057 52.2134 28.2764C51.9147 27.647 51.7654 26.895 51.7654 26.0204C51.7654 25.1457 51.9147 24.399 52.2134 23.7804C52.512 23.151 52.928 22.671 53.4614 22.3404C53.9947 21.999 54.6134 21.8284 55.3174 21.8284C56 21.8284 56.5974 21.999 57.1094 22.3404C57.632 22.671 57.9787 23.119 58.1494 23.6844H57.9734L58.1494 21.9884H60.0694C60.0374 22.319 60.0054 22.655 59.9734 22.9964C59.952 23.3377 59.9414 23.6737 59.9414 24.0044V30.0684H57.9574L57.9414 28.4044H58.1334C57.9627 28.959 57.616 29.4017 57.0934 29.7324C56.5707 30.063 55.9787 30.2284 55.3174 30.2284ZM55.8774 28.6924C56.5067 28.6924 57.0134 28.4737 57.3974 28.0364C57.7814 27.5884 57.9734 26.9164 57.9734 26.0204C57.9734 25.1244 57.7814 24.4577 57.3974 24.0204C57.0134 23.583 56.5067 23.3644 55.8774 23.3644C55.248 23.3644 54.7414 23.583 54.3574 24.0204C53.9734 24.4577 53.7814 25.1244 53.7814 26.0204C53.7814 26.9164 53.968 27.5884 54.3414 28.0364C54.7254 28.4737 55.2374 28.6924 55.8774 28.6924ZM62.1193 30.0684V18.2924H64.1193V30.0684H62.1193ZM70.8418 30.0684V18.7884H72.9058V30.0684H70.8418ZM75.2286 30.0684V24.0044C75.2286 23.6737 75.218 23.3377 75.1966 22.9964C75.1753 22.655 75.1433 22.319 75.1006 21.9884H77.0366L77.1966 23.5884H77.0046C77.2606 23.023 77.6393 22.591 78.1406 22.2924C78.642 21.983 79.2233 21.8284 79.8846 21.8284C80.834 21.8284 81.5486 22.095 82.0286 22.6284C82.5086 23.1617 82.7486 23.9937 82.7486 25.1244V30.0684H80.7486V25.2204C80.7486 24.5697 80.6206 24.1057 80.3646 23.8284C80.1193 23.5404 79.746 23.3964 79.2446 23.3964C78.626 23.3964 78.1353 23.5884 77.7726 23.9724C77.41 24.3564 77.2286 24.8684 77.2286 25.5084V30.0684H75.2286ZM88.5813 30.2284C87.7493 30.2284 87.0186 30.0577 86.3893 29.7164C85.7706 29.375 85.2906 28.8897 84.9493 28.2604C84.6079 27.6204 84.4373 26.863 84.4373 25.9884C84.4373 25.1137 84.6079 24.367 84.9493 23.7484C85.3013 23.1297 85.7866 22.655 86.4053 22.3244C87.0239 21.9937 87.7493 21.8284 88.5813 21.8284C89.1146 21.8284 89.6319 21.9137 90.1333 22.0844C90.6453 22.2444 91.0613 22.479 91.3813 22.7884L90.7733 24.1804C90.4853 23.9137 90.1599 23.7164 89.7973 23.5884C89.4453 23.4497 89.0986 23.3804 88.7573 23.3804C88.0426 23.3804 87.4826 23.6044 87.0773 24.0524C86.6826 24.5004 86.4853 25.151 86.4853 26.0044C86.4853 26.8577 86.6826 27.5137 87.0773 27.9724C87.4826 28.431 88.0426 28.6604 88.7573 28.6604C89.0879 28.6604 89.4293 28.5964 89.7813 28.4684C90.1439 28.3404 90.4746 28.143 90.7733 27.8764L91.3813 29.2524C91.0506 29.5617 90.6293 29.8017 90.1173 29.9724C89.6159 30.143 89.1039 30.2284 88.5813 30.2284ZM96.4235 30.2284C95.5915 30.2284 94.8715 30.0577 94.2635 29.7164C93.6555 29.375 93.1808 28.8897 92.8395 28.2604C92.5088 27.631 92.3435 26.8844 92.3435 26.0204C92.3435 25.1564 92.5088 24.415 92.8395 23.7964C93.1808 23.167 93.6555 22.6817 94.2635 22.3404C94.8715 21.999 95.5915 21.8284 96.4235 21.8284C97.2555 21.8284 97.9755 21.999 98.5835 22.3404C99.2022 22.6817 99.6768 23.167 100.008 23.7964C100.349 24.415 100.52 25.1564 100.52 26.0204C100.52 26.8844 100.349 27.631 100.008 28.2604C99.6768 28.8897 99.2022 29.375 98.5835 29.7164C97.9755 30.0577 97.2555 30.2284 96.4235 30.2284ZM96.4235 28.6924C97.0528 28.6924 97.5542 28.4737 97.9275 28.0364C98.3008 27.5884 98.4875 26.9164 98.4875 26.0204C98.4875 25.1244 98.3008 24.4577 97.9275 24.0204C97.5542 23.583 97.0528 23.3644 96.4235 23.3644C95.7942 23.3644 95.2928 23.583 94.9195 24.0204C94.5462 24.4577 94.3595 25.1244 94.3595 26.0204C94.3595 26.9164 94.5462 27.5884 94.9195 28.0364C95.2928 28.4737 95.7942 28.6924 96.4235 28.6924ZM102.244 30.0684V24.0044C102.244 23.6737 102.234 23.3377 102.212 22.9964C102.191 22.655 102.159 22.319 102.116 21.9884H104.052L104.212 23.5884H104.02C104.244 23.0337 104.586 22.6017 105.044 22.2924C105.514 21.983 106.068 21.8284 106.708 21.8284C107.348 21.8284 107.876 21.983 108.292 22.2924C108.719 22.591 109.018 23.0604 109.188 23.7004H108.932C109.156 23.1244 109.524 22.671 110.036 22.3404C110.548 21.999 111.135 21.8284 111.796 21.8284C112.703 21.8284 113.38 22.095 113.828 22.6284C114.276 23.1617 114.5 23.9937 114.5 25.1244V30.0684H112.5V25.2044C112.5 24.5644 112.394 24.1057 112.18 23.8284C111.967 23.5404 111.626 23.3964 111.156 23.3964C110.602 23.3964 110.164 23.5937 109.844 23.9884C109.524 24.3724 109.364 24.895 109.364 25.5564V30.0684H107.364V25.2044C107.364 24.5644 107.258 24.1057 107.044 23.8284C106.831 23.5404 106.49 23.3964 106.02 23.3964C105.466 23.3964 105.028 23.5937 104.708 23.9884C104.399 24.3724 104.244 24.895 104.244 25.5564V30.0684H102.244ZM120.539 30.2284C119.184 30.2284 118.123 29.855 117.355 29.1084C116.587 28.3617 116.203 27.3377 116.203 26.0364C116.203 25.1937 116.368 24.4577 116.699 23.8284C117.03 23.199 117.488 22.7084 118.075 22.3564C118.672 22.0044 119.366 21.8284 120.155 21.8284C120.934 21.8284 121.584 21.9937 122.107 22.3244C122.63 22.655 123.024 23.119 123.291 23.7164C123.568 24.3137 123.707 25.0124 123.707 25.8124V26.3404H117.819V25.2844H122.283L122.011 25.5084C122.011 24.7617 121.851 24.191 121.531 23.7964C121.222 23.4017 120.768 23.2044 120.171 23.2044C119.51 23.2044 118.998 23.439 118.635 23.9084C118.283 24.3777 118.107 25.0337 118.107 25.8764V26.0844C118.107 26.959 118.32 27.615 118.747 28.0524C119.184 28.479 119.798 28.6924 120.587 28.6924C121.046 28.6924 121.472 28.6337 121.867 28.5164C122.272 28.3884 122.656 28.1857 123.019 27.9084L123.611 29.2524C123.227 29.5617 122.768 29.8017 122.235 29.9724C121.702 30.143 121.136 30.2284 120.539 30.2284Z" fill="#A1A0BD"/>
<path d="M34.569 78.6254V53.1344H36.483V78.6254H34.569ZM35.787 76.4504C34.3177 76.4504 33.003 76.1991 31.843 75.6964C30.683 75.1938 29.7743 74.4591 29.117 73.4924C28.4597 72.5258 28.1117 71.3561 28.073 69.9834H32.22C32.2587 70.5828 32.4133 71.1241 32.684 71.6074C32.974 72.0908 33.38 72.4774 33.902 72.7674C34.424 73.0381 35.0427 73.1734 35.758 73.1734C36.3767 73.1734 36.9083 73.0768 37.353 72.8834C37.817 72.6901 38.1747 72.4098 38.426 72.0424C38.6967 71.6751 38.832 71.2304 38.832 70.7084C38.832 70.1284 38.687 69.6451 38.397 69.2584C38.107 68.8524 37.701 68.5141 37.179 68.2434C36.6763 67.9727 36.106 67.7311 35.468 67.5184C34.83 67.2864 34.1533 67.0544 33.438 66.8224C31.8527 66.2811 30.6347 65.5754 29.784 64.7054C28.9527 63.8354 28.537 62.6851 28.537 61.2544C28.537 60.0364 28.827 59.0021 29.407 58.1514C30.0063 57.2814 30.8183 56.6144 31.843 56.1504C32.887 55.6864 34.0857 55.4544 35.439 55.4544C36.8117 55.4544 38.0103 55.6961 39.035 56.1794C40.079 56.6434 40.9007 57.3201 41.5 58.2094C42.0993 59.0987 42.4183 60.1427 42.457 61.3414H38.252C38.252 60.8774 38.1263 60.4521 37.875 60.0654C37.643 59.6594 37.3143 59.3404 36.889 59.1084C36.4637 58.8571 35.9513 58.7314 35.352 58.7314C34.8493 58.7121 34.395 58.7894 33.989 58.9634C33.583 59.1374 33.2543 59.3888 33.003 59.7174C32.771 60.0461 32.655 60.4714 32.655 60.9934C32.655 61.4767 32.771 61.8827 33.003 62.2114C33.235 62.5401 33.5637 62.8204 33.989 63.0524C34.4143 63.2844 34.9073 63.5067 35.468 63.7194C36.048 63.9321 36.686 64.1544 37.382 64.3864C38.3873 64.7344 39.3153 65.1501 40.166 65.6334C41.0167 66.0974 41.6933 66.7064 42.196 67.4604C42.6987 68.2144 42.95 69.2004 42.95 70.4184C42.95 71.5011 42.6697 72.4968 42.109 73.4054C41.5677 74.3141 40.7653 75.0488 39.702 75.6094C38.6387 76.1701 37.3337 76.4504 35.787 76.4504ZM48.1661 76.1024V60.2974L44.7731 61.0804V58.0354L49.8191 55.8024H52.1971V76.1024H48.1661ZM62.8936 76.4504C61.5016 76.4504 60.2353 76.1991 59.0946 75.6964C57.9733 75.1938 57.0743 74.4881 56.3976 73.5794C55.7403 72.6708 55.4116 71.6171 55.4116 70.4184C55.4116 69.5871 55.547 68.8331 55.8176 68.1564C56.1076 67.4797 56.5136 66.8804 57.0356 66.3584C57.5576 65.8364 58.1666 65.4401 58.8626 65.1694C57.9733 64.7634 57.258 64.1834 56.7166 63.4294C56.1753 62.6754 55.9046 61.8247 55.9046 60.8774C55.9046 59.9301 56.1656 59.0407 56.6876 58.2094C57.229 57.3781 58.012 56.7111 59.0366 56.2084C60.0806 55.7057 61.3663 55.4544 62.8936 55.4544C64.421 55.4544 65.7066 55.7057 66.7506 56.2084C67.7946 56.7111 68.568 57.3781 69.0706 58.2094C69.5926 59.0407 69.8536 59.9301 69.8536 60.8774C69.8536 61.8054 69.583 62.6561 69.0416 63.4294C68.5003 64.1834 67.785 64.7634 66.8956 65.1694C67.6303 65.4594 68.249 65.8654 68.7516 66.3874C69.2736 66.8901 69.67 67.4797 69.9406 68.1564C70.2306 68.8331 70.3756 69.5871 70.3756 70.4184C70.3756 71.6171 70.0373 72.6708 69.3606 73.5794C68.7033 74.4881 67.814 75.1938 66.6926 75.6964C65.5713 76.1991 64.305 76.4504 62.8936 76.4504ZM62.8936 73.1734C64.0923 73.1734 65.001 72.8834 65.6196 72.3034C66.2383 71.7234 66.5476 70.9887 66.5476 70.0994C66.5476 69.1134 66.219 68.3401 65.5616 67.7794C64.9236 67.1994 64.0343 66.9094 62.8936 66.9094C61.753 66.9094 60.854 67.1994 60.1966 67.7794C59.5393 68.3401 59.2106 69.1134 59.2106 70.0994C59.2106 70.9887 59.52 71.7234 60.1386 72.3034C60.7766 72.8834 61.695 73.1734 62.8936 73.1734ZM62.8936 64.0384C63.8796 64.0384 64.6433 63.7871 65.1846 63.2844C65.7453 62.7817 66.0256 62.1341 66.0256 61.3414C66.0256 60.4907 65.7453 59.8334 65.1846 59.3694C64.6433 58.8861 63.8796 58.6444 62.8936 58.6444C61.9076 58.6444 61.144 58.8861 60.6026 59.3694C60.0613 59.8334 59.7906 60.5004 59.7906 61.3704C59.7906 62.1437 60.0613 62.7817 60.6026 63.2844C61.144 63.7871 61.9076 64.0384 62.8936 64.0384ZM80.7914 76.4504C79.3027 76.4504 78.017 76.1894 76.9344 75.6674C75.8517 75.1261 75.001 74.4011 74.3824 73.4924C73.783 72.5644 73.435 71.5204 73.3384 70.3604H77.1664C77.321 71.1338 77.727 71.7911 78.3844 72.3324C79.0417 72.8544 79.844 73.1154 80.7914 73.1154C81.4874 73.1154 82.0964 72.9414 82.6184 72.5934C83.1597 72.2454 83.5754 71.7718 83.8654 71.1724C84.1554 70.5538 84.3004 69.8771 84.3004 69.1424C84.3004 68.3497 84.1457 67.6731 83.8364 67.1124C83.5464 66.5324 83.1404 66.0974 82.6184 65.8074C82.0964 65.4981 81.497 65.3434 80.8204 65.3434C80.0084 65.3434 79.293 65.5464 78.6744 65.9524C78.0557 66.3584 77.6304 66.8707 77.3984 67.4894H73.6284L75.3684 55.8024H86.7074V59.2244H78.2684L77.3984 63.6904C77.8237 63.2457 78.394 62.8784 79.1094 62.5884C79.8247 62.2984 80.627 62.1534 81.5164 62.1534C82.6184 62.1534 83.5754 62.3467 84.3874 62.7334C85.1994 63.1007 85.876 63.6131 86.4174 64.2704C86.978 64.9277 87.3937 65.6721 87.6644 66.5034C87.9544 67.3347 88.0994 68.1951 88.0994 69.0844C88.0994 70.1671 87.9157 71.1628 87.5484 72.0714C87.2004 72.9608 86.6977 73.7341 86.0404 74.3914C85.4024 75.0488 84.629 75.5611 83.7204 75.9284C82.831 76.2764 81.8547 76.4504 80.7914 76.4504ZM97.8307 76.4504C96.516 76.4504 95.3077 76.2088 94.2057 75.7254C93.1037 75.2421 92.224 74.5074 91.5667 73.5214C90.9094 72.5354 90.5614 71.2884 90.5227 69.7804H94.3797C94.399 70.4184 94.544 70.9984 94.8147 71.5204C95.0854 72.0231 95.472 72.4291 95.9747 72.7384C96.4967 73.0284 97.1154 73.1734 97.8307 73.1734C98.5267 73.1734 99.1067 73.0381 99.5707 72.7674C100.054 72.4968 100.421 72.1391 100.673 71.6944C100.924 71.2497 101.05 70.7374 101.05 70.1574C101.05 69.4614 100.885 68.8911 100.557 68.4464C100.228 67.9824 99.764 67.6344 99.1647 67.4024C98.5847 67.1511 97.908 67.0254 97.1347 67.0254H95.6267V63.8064H97.1347C98.082 63.8064 98.8747 63.5937 99.5127 63.1684C100.151 62.7238 100.47 62.0664 100.47 61.1964C100.47 60.4617 100.228 59.8721 99.7447 59.4274C99.2807 58.9827 98.633 58.7604 97.8017 58.7604C96.893 58.7604 96.1777 59.0311 95.6557 59.5724C95.153 60.1137 94.8727 60.7807 94.8147 61.5734H91.0157C91.0737 60.2974 91.3927 59.2051 91.9727 58.2964C92.5527 57.3684 93.3357 56.6627 94.3217 56.1794C95.327 55.6961 96.4967 55.4544 97.8307 55.4544C99.2227 55.4544 100.402 55.7057 101.369 56.2084C102.335 56.6917 103.07 57.3491 103.573 58.1804C104.075 58.9924 104.327 59.8914 104.327 60.8774C104.327 61.6507 104.172 62.3467 103.863 62.9654C103.573 63.5647 103.176 64.0674 102.674 64.4734C102.19 64.8794 101.649 65.1791 101.05 65.3724C101.804 65.5078 102.471 65.7978 103.051 66.2424C103.631 66.6871 104.075 67.2574 104.385 67.9534C104.713 68.6301 104.878 69.4131 104.878 70.3024C104.878 71.4044 104.607 72.4291 104.066 73.3764C103.524 74.3044 102.732 75.0488 101.688 75.6094C100.644 76.1701 99.358 76.4504 97.8307 76.4504ZM107.572 76.1024V73.2314C108.79 72.2454 109.979 71.2594 111.139 70.2734C112.299 69.2874 113.343 68.3111 114.271 67.3444C115.199 66.3584 115.924 65.4014 116.446 64.4734C116.987 63.5454 117.258 62.6464 117.258 61.7764C117.258 61.2351 117.161 60.7421 116.968 60.2974C116.774 59.8334 116.475 59.4661 116.069 59.1954C115.663 58.9054 115.121 58.7604 114.445 58.7604C113.787 58.7604 113.227 58.9151 112.763 59.2244C112.299 59.5337 111.951 59.9494 111.719 60.4714C111.487 60.9741 111.371 61.5444 111.371 62.1824H107.601C107.639 60.6937 107.968 59.4467 108.587 58.4414C109.205 57.4361 110.037 56.6917 111.081 56.2084C112.125 55.7057 113.285 55.4544 114.561 55.4544C115.991 55.4544 117.19 55.7251 118.157 56.2664C119.143 56.7884 119.887 57.5038 120.39 58.4124C120.912 59.3211 121.173 60.3651 121.173 61.5444C121.173 62.4337 121.008 63.3037 120.68 64.1544C120.37 65.0051 119.926 65.8364 119.346 66.6484C118.785 67.4411 118.147 68.2047 117.432 68.9394C116.736 69.6741 116.001 70.3798 115.228 71.0564C114.474 71.7138 113.729 72.3324 112.995 72.9124H121.637V76.1024H107.572Z" fill="#142D6F"/>
<path d="M124.984 76.1974C124.516 76.1974 124.129 76.0581 123.825 75.7794C123.534 75.4881 123.388 75.1334 123.388 74.7154C123.388 74.2974 123.534 73.9491 123.825 73.6704C124.129 73.3791 124.516 73.2334 124.984 73.2334C125.453 73.2334 125.833 73.3791 126.124 73.6704C126.416 73.9491 126.561 74.2974 126.561 74.7154C126.561 75.1334 126.416 75.4881 126.124 75.7794C125.833 76.0581 125.453 76.1974 124.984 76.1974ZM133.402 76.3304C132.426 76.3304 131.59 76.1594 130.894 75.8174C130.197 75.4754 129.646 75.0068 129.241 74.4114C128.848 73.8034 128.62 73.1194 128.557 72.3594H131.065C131.153 72.8661 131.413 73.2904 131.844 73.6324C132.274 73.9744 132.8 74.1454 133.421 74.1454C133.877 74.1454 134.276 74.0314 134.618 73.8034C134.96 73.5754 135.226 73.2651 135.416 72.8724C135.606 72.4798 135.701 72.0364 135.701 71.5424C135.701 71.0358 135.606 70.5988 135.416 70.2314C135.226 69.8641 134.96 69.5791 134.618 69.3764C134.276 69.1738 133.883 69.0724 133.44 69.0724C132.908 69.0724 132.445 69.2054 132.053 69.4714C131.66 69.7374 131.381 70.0604 131.217 70.4404H128.747L129.868 62.8024H137.297V65.0444H131.768L131.198 67.9894C131.476 67.6981 131.85 67.4574 132.319 67.2674C132.787 67.0774 133.313 66.9824 133.896 66.9824C134.618 66.9824 135.245 67.1091 135.777 67.3624C136.309 67.6031 136.752 67.9388 137.107 68.3694C137.474 68.8001 137.746 69.2877 137.924 69.8324C138.101 70.3644 138.19 70.9281 138.19 71.5234C138.19 72.2201 138.069 72.8661 137.829 73.4614C137.601 74.0441 137.271 74.5508 136.841 74.9814C136.423 75.4121 135.922 75.7478 135.34 75.9884C134.757 76.2164 134.111 76.3304 133.402 76.3304ZM139.591 76.1024V74.2214C140.389 73.5754 141.168 72.9294 141.928 72.2834C142.688 71.6374 143.372 70.9978 143.98 70.3644C144.6 69.7184 145.082 69.0914 145.424 68.4834C145.778 67.8754 145.956 67.2864 145.956 66.7164C145.956 66.3618 145.892 66.0388 145.766 65.7474C145.639 65.4434 145.436 65.2028 145.158 65.0254C144.892 64.8354 144.537 64.7404 144.094 64.7404C143.663 64.7404 143.296 64.8417 142.992 65.0444C142.688 65.2471 142.46 65.5194 142.308 65.8614C142.156 66.1907 142.08 66.5644 142.08 66.9824H139.61C139.635 66.0071 139.85 65.1901 140.256 64.5314C140.661 63.8727 141.206 63.3851 141.89 63.0684C142.574 62.7391 143.334 62.5744 144.17 62.5744C145.107 62.5744 145.899 62.7518 146.545 63.1064C147.191 63.4484 147.678 63.9171 148.008 64.5124C148.35 65.1077 148.521 65.7917 148.521 66.5644C148.521 67.1471 148.413 67.7171 148.198 68.2744C147.995 68.8317 147.704 69.3764 147.324 69.9084C146.956 70.4277 146.538 70.9281 146.07 71.4094C145.614 71.8908 145.132 72.3531 144.626 72.7964C144.119 73.2271 143.625 73.6324 143.144 74.0124H148.844V76.1024H139.591Z" fill="#A3BDFF"/>
<rect x="27" y="98.1365" width="103" height="32" rx="16" fill="#DCF5E8"/>
<path fill-rule="evenodd" clip-rule="evenodd" d="M57.4947 108.763C57.4947 108.597 57.558 108.437 57.6706 108.32C57.7832 108.202 57.936 108.137 58.0953 108.137H62.8995C63.0587 108.137 63.2115 108.202 63.3241 108.32C63.4367 108.437 63.5 108.597 63.5 108.763V113.771C63.5 113.937 63.4367 114.096 63.3241 114.214C63.2115 114.331 63.0587 114.397 62.8995 114.397C62.7402 114.397 62.5875 114.331 62.4748 114.214C62.3622 114.096 62.2989 113.937 62.2989 113.771V110.516L57.9595 116.046C57.9064 116.114 57.8403 116.169 57.7655 116.208C57.6906 116.248 57.6087 116.27 57.525 116.275C57.4413 116.279 57.3576 116.265 57.2794 116.234C57.2011 116.202 57.1301 116.154 57.0708 116.092L53.9636 112.853L49.5726 119.147C49.4765 119.275 49.3369 119.358 49.1829 119.381C49.029 119.403 48.8728 119.362 48.7472 119.267C48.6215 119.171 48.5362 119.029 48.5092 118.869C48.4821 118.71 48.5154 118.546 48.6021 118.411L53.4063 111.525C53.4573 111.451 53.5229 111.391 53.5987 111.346C53.6744 111.302 53.7584 111.276 53.8449 111.268C53.9315 111.261 54.0184 111.274 54.0999 111.305C54.1813 111.336 54.2553 111.386 54.3167 111.45L57.4503 114.718L61.6324 109.389H58.0953C57.936 109.389 57.7832 109.323 57.6706 109.205C57.558 109.088 57.4947 108.929 57.4947 108.763Z" fill="#4FD18B"/>
<path d="M73.2081 117.389V110.017H74.8807V117.389H73.2081ZM70.3583 114.54V112.867H77.7305V114.54H70.3583ZM88.2201 108.227V119.137H86.2439V110.15H86.18L83.6285 111.78V109.969L86.3398 108.227H88.2201ZM95.4271 108.227V119.137H93.4509V110.15H93.387L90.8355 111.78V109.969L93.5468 108.227H95.4271ZM104.03 117.091V116.516C104.03 116.093 104.119 115.704 104.296 115.349C104.477 114.994 104.74 114.708 105.084 114.492C105.429 114.275 105.846 114.167 106.336 114.167C106.84 114.167 107.263 114.275 107.604 114.492C107.945 114.705 108.202 114.989 108.376 115.344C108.554 115.699 108.643 116.09 108.643 116.516V117.091C108.643 117.514 108.554 117.903 108.376 118.258C108.199 118.613 107.938 118.899 107.593 119.115C107.252 119.332 106.833 119.44 106.336 119.44C105.839 119.44 105.418 119.332 105.074 119.115C104.729 118.899 104.468 118.613 104.291 118.258C104.117 117.903 104.03 117.514 104.03 117.091ZM105.42 116.516V117.091C105.42 117.372 105.487 117.629 105.622 117.863C105.757 118.098 105.995 118.215 106.336 118.215C106.681 118.215 106.917 118.1 107.045 117.869C107.176 117.634 107.242 117.375 107.242 117.091V116.516C107.242 116.232 107.18 115.972 107.055 115.738C106.931 115.5 106.691 115.381 106.336 115.381C106.002 115.381 105.766 115.5 105.628 115.738C105.489 115.972 105.42 116.232 105.42 116.516ZM98.4846 110.848V110.273C98.4846 109.847 98.5752 109.456 98.7563 109.101C98.9374 108.746 99.2002 108.462 99.5447 108.249C99.8891 108.032 100.306 107.924 100.796 107.924C101.297 107.924 101.718 108.032 102.059 108.249C102.403 108.462 102.663 108.746 102.837 109.101C103.011 109.456 103.098 109.847 103.098 110.273V110.848C103.098 111.274 103.009 111.665 102.831 112.02C102.657 112.372 102.398 112.654 102.054 112.867C101.709 113.08 101.29 113.187 100.796 113.187C100.296 113.187 99.8731 113.08 99.5287 112.867C99.1878 112.654 98.9285 112.37 98.751 112.015C98.5734 111.66 98.4846 111.271 98.4846 110.848ZM99.8856 110.273V110.848C99.8856 111.132 99.9513 111.392 100.083 111.626C100.218 111.857 100.456 111.972 100.796 111.972C101.137 111.972 101.372 111.857 101.5 111.626C101.631 111.392 101.697 111.132 101.697 110.848V110.273C101.697 109.989 101.634 109.73 101.51 109.495C101.386 109.257 101.148 109.138 100.796 109.138C100.459 109.138 100.223 109.257 100.088 109.495C99.953 109.733 99.8856 109.992 99.8856 110.273ZM99.0919 119.137L106.592 108.227H107.924L100.424 119.137H99.0919Z" fill="#4FD18B"/>
</svg>
