<svg width="259" height="144" viewBox="0 0 259 144" fill="none" xmlns="http://www.w3.org/2000/svg">
<rect y="0.136719" width="258.75" height="143.068" rx="5" fill="white"/>
<path d="M30.904 30.1367V20.5527H27.176V18.8567H36.696V20.5527H32.968V30.1367H30.904ZM40.3923 30.2967C39.5603 30.2967 38.8403 30.1261 38.2323 29.7847C37.6243 29.4434 37.1496 28.9581 36.8083 28.3287C36.4776 27.6994 36.3123 26.9527 36.3123 26.0887C36.3123 25.2247 36.4776 24.4834 36.8083 23.8647C37.1496 23.2354 37.6243 22.7501 38.2323 22.4087C38.8403 22.0674 39.5603 21.8967 40.3923 21.8967C41.2243 21.8967 41.9443 22.0674 42.5523 22.4087C43.1709 22.7501 43.6456 23.2354 43.9763 23.8647C44.3176 24.4834 44.4883 25.2247 44.4883 26.0887C44.4883 26.9527 44.3176 27.6994 43.9763 28.3287C43.6456 28.9581 43.1709 29.4434 42.5523 29.7847C41.9443 30.1261 41.2243 30.2967 40.3923 30.2967ZM40.3923 28.7607C41.0216 28.7607 41.5229 28.5421 41.8963 28.1047C42.2696 27.6567 42.4563 26.9847 42.4563 26.0887C42.4563 25.1927 42.2696 24.5261 41.8963 24.0887C41.5229 23.6514 41.0216 23.4327 40.3923 23.4327C39.7629 23.4327 39.2616 23.6514 38.8883 24.0887C38.5149 24.5261 38.3283 25.1927 38.3283 26.0887C38.3283 26.9847 38.5149 27.6567 38.8883 28.1047C39.2616 28.5421 39.7629 28.7607 40.3923 28.7607ZM49.5909 30.2967C48.6309 30.2967 47.9055 30.0461 47.4149 29.5447C46.9242 29.0434 46.6789 28.2914 46.6789 27.2887V23.5607H45.1269V22.0567H46.6789V19.9927L48.6789 19.4807V22.0567H50.8389V23.5607H48.6789V27.1607C48.6789 27.7154 48.7855 28.1047 48.9989 28.3287C49.2122 28.5527 49.5055 28.6647 49.8789 28.6647C50.0815 28.6647 50.2522 28.6487 50.3909 28.6167C50.5402 28.5847 50.6842 28.5421 50.8229 28.4887V30.0727C50.6415 30.1474 50.4389 30.2007 50.2149 30.2327C50.0015 30.2754 49.7935 30.2967 49.5909 30.2967ZM55.3174 30.2967C54.6134 30.2967 53.9947 30.1314 53.4614 29.8007C52.928 29.4594 52.512 28.9741 52.2134 28.3447C51.9147 27.7154 51.7654 26.9634 51.7654 26.0887C51.7654 25.2141 51.9147 24.4674 52.2134 23.8487C52.512 23.2194 52.928 22.7394 53.4614 22.4087C53.9947 22.0674 54.6134 21.8967 55.3174 21.8967C56 21.8967 56.5974 22.0674 57.1094 22.4087C57.632 22.7394 57.9787 23.1874 58.1494 23.7527H57.9734L58.1494 22.0567H60.0694C60.0374 22.3874 60.0054 22.7234 59.9734 23.0647C59.952 23.4061 59.9414 23.7421 59.9414 24.0727V30.1367H57.9574L57.9414 28.4727H58.1334C57.9627 29.0274 57.616 29.4701 57.0934 29.8007C56.5707 30.1314 55.9787 30.2967 55.3174 30.2967ZM55.8774 28.7607C56.5067 28.7607 57.0134 28.5421 57.3974 28.1047C57.7814 27.6567 57.9734 26.9847 57.9734 26.0887C57.9734 25.1927 57.7814 24.5261 57.3974 24.0887C57.0134 23.6514 56.5067 23.4327 55.8774 23.4327C55.248 23.4327 54.7414 23.6514 54.3574 24.0887C53.9734 24.5261 53.7814 25.1927 53.7814 26.0887C53.7814 26.9847 53.968 27.6567 54.3414 28.1047C54.7254 28.5421 55.2374 28.7607 55.8774 28.7607ZM62.1193 30.1367V18.3607H64.1193V30.1367H62.1193ZM74.7778 30.2967C73.8711 30.2967 73.0338 30.1847 72.2658 29.9607C71.5084 29.7261 70.8578 29.4061 70.3138 29.0007L70.9538 27.3847C71.3164 27.6407 71.6951 27.8594 72.0898 28.0407C72.4844 28.2114 72.9058 28.3447 73.3538 28.4407C73.8018 28.5261 74.2764 28.5687 74.7778 28.5687C75.6204 28.5687 76.2284 28.4301 76.6018 28.1527C76.9751 27.8754 77.1618 27.5127 77.1618 27.0647C77.1618 26.6701 77.0338 26.3714 76.7778 26.1687C76.5218 25.9554 76.0631 25.7794 75.4018 25.6407L73.5938 25.2727C72.5591 25.0594 71.7858 24.7021 71.2738 24.2007C70.7618 23.6994 70.5058 23.0274 70.5058 22.1847C70.5058 21.4807 70.6924 20.8674 71.0658 20.3447C71.4391 19.8221 71.9618 19.4167 72.6338 19.1287C73.3058 18.8407 74.0898 18.6967 74.9858 18.6967C75.7858 18.6967 76.5271 18.8141 77.2098 19.0487C77.8924 19.2727 78.4631 19.5981 78.9218 20.0247L78.2818 21.5607C77.8231 21.1767 77.3218 20.8941 76.7778 20.7127C76.2338 20.5207 75.6258 20.4247 74.9538 20.4247C74.1964 20.4247 73.6044 20.5741 73.1778 20.8727C72.7618 21.1607 72.5538 21.5607 72.5538 22.0727C72.5538 22.4674 72.6818 22.7821 72.9378 23.0167C73.2044 23.2514 73.6524 23.4327 74.2818 23.5607L76.0738 23.9127C77.1404 24.1261 77.9298 24.4781 78.4418 24.9687C78.9538 25.4487 79.2098 26.0994 79.2098 26.9207C79.2098 27.5927 79.0284 28.1847 78.6658 28.6967C78.3031 29.1981 77.7911 29.5927 77.1298 29.8807C76.4684 30.1581 75.6844 30.2967 74.7778 30.2967ZM84.1143 30.2967C83.4103 30.2967 82.7916 30.1314 82.2582 29.8007C81.7249 29.4594 81.3089 28.9741 81.0103 28.3447C80.7116 27.7154 80.5623 26.9634 80.5623 26.0887C80.5623 25.2141 80.7116 24.4674 81.0103 23.8487C81.3089 23.2194 81.7249 22.7394 82.2582 22.4087C82.7916 22.0674 83.4103 21.8967 84.1143 21.8967C84.7969 21.8967 85.3943 22.0674 85.9063 22.4087C86.4289 22.7394 86.7756 23.1874 86.9463 23.7527H86.7703L86.9463 22.0567H88.8663C88.8343 22.3874 88.8023 22.7234 88.7703 23.0647C88.7489 23.4061 88.7383 23.7421 88.7383 24.0727V30.1367H86.7543L86.7383 28.4727H86.9303C86.7596 29.0274 86.4129 29.4701 85.8903 29.8007C85.3676 30.1314 84.7756 30.2967 84.1143 30.2967ZM84.6743 28.7607C85.3036 28.7607 85.8103 28.5421 86.1943 28.1047C86.5783 27.6567 86.7703 26.9847 86.7703 26.0887C86.7703 25.1927 86.5783 24.5261 86.1943 24.0887C85.8103 23.6514 85.3036 23.4327 84.6743 23.4327C84.0449 23.4327 83.5383 23.6514 83.1543 24.0887C82.7703 24.5261 82.5783 25.1927 82.5783 26.0887C82.5783 26.9847 82.7649 27.6567 83.1383 28.1047C83.5223 28.5421 84.0343 28.7607 84.6743 28.7607ZM93.206 30.1367L89.718 22.0567H91.846L94.374 28.3767H93.878L96.47 22.0567H98.47L94.966 30.1367H93.206ZM103.289 30.2967C101.934 30.2967 100.873 29.9234 100.105 29.1767C99.3369 28.4301 98.9529 27.4061 98.9529 26.1047C98.9529 25.2621 99.1182 24.5261 99.4489 23.8967C99.7795 23.2674 100.238 22.7767 100.825 22.4247C101.422 22.0727 102.116 21.8967 102.905 21.8967C103.684 21.8967 104.334 22.0621 104.857 22.3927C105.38 22.7234 105.774 23.1874 106.041 23.7847C106.318 24.3821 106.457 25.0807 106.457 25.8807V26.4087H100.569V25.3527H105.033L104.761 25.5767C104.761 24.8301 104.601 24.2594 104.281 23.8647C103.972 23.4701 103.518 23.2727 102.921 23.2727C102.26 23.2727 101.748 23.5074 101.385 23.9767C101.033 24.4461 100.857 25.1021 100.857 25.9447V26.1527C100.857 27.0274 101.07 27.6834 101.497 28.1207C101.934 28.5474 102.548 28.7607 103.337 28.7607C103.796 28.7607 104.222 28.7021 104.617 28.5847C105.022 28.4567 105.406 28.2541 105.769 27.9767L106.361 29.3207C105.977 29.6301 105.518 29.8701 104.985 30.0407C104.452 30.2114 103.886 30.2967 103.289 30.2967ZM111.031 30.2967C110.337 30.2967 109.697 30.2167 109.111 30.0567C108.535 29.8861 108.049 29.6514 107.655 29.3527L108.215 28.0087C108.62 28.2861 109.068 28.4994 109.559 28.6487C110.049 28.7981 110.545 28.8727 111.047 28.8727C111.58 28.8727 111.975 28.7821 112.231 28.6007C112.497 28.4194 112.631 28.1741 112.631 27.8647C112.631 27.6194 112.545 27.4274 112.375 27.2887C112.215 27.1394 111.953 27.0274 111.591 26.9527L109.991 26.6487C109.308 26.4994 108.785 26.2434 108.423 25.8807C108.071 25.5181 107.895 25.0434 107.895 24.4567C107.895 23.9554 108.028 23.5127 108.295 23.1287C108.572 22.7447 108.961 22.4461 109.463 22.2327C109.975 22.0087 110.572 21.8967 111.255 21.8967C111.852 21.8967 112.412 21.9767 112.935 22.1367C113.468 22.2967 113.916 22.5367 114.279 22.8567L113.703 24.1527C113.372 23.8861 112.993 23.6781 112.567 23.5287C112.14 23.3794 111.724 23.3047 111.319 23.3047C110.764 23.3047 110.359 23.4061 110.103 23.6087C109.847 23.8007 109.719 24.0514 109.719 24.3607C109.719 24.5954 109.793 24.7927 109.943 24.9527C110.103 25.1021 110.348 25.2141 110.679 25.2887L112.279 25.5927C112.993 25.7314 113.532 25.9767 113.895 26.3287C114.268 26.6701 114.455 27.1394 114.455 27.7367C114.455 28.2701 114.311 28.7287 114.023 29.1127C113.735 29.4967 113.335 29.7901 112.823 29.9927C112.311 30.1954 111.713 30.2967 111.031 30.2967Z" fill="#A1A0BD"/>
<path d="M34.569 78.6938V53.2028H36.483V78.6938H34.569ZM35.787 76.5188C34.3177 76.5188 33.003 76.2674 31.843 75.7648C30.683 75.2621 29.7743 74.5274 29.117 73.5608C28.4597 72.5941 28.1117 71.4244 28.073 70.0518H32.22C32.2587 70.6511 32.4133 71.1924 32.684 71.6758C32.974 72.1591 33.38 72.5458 33.902 72.8358C34.424 73.1064 35.0427 73.2418 35.758 73.2418C36.3767 73.2418 36.9083 73.1451 37.353 72.9518C37.817 72.7584 38.1747 72.4781 38.426 72.1108C38.6967 71.7434 38.832 71.2988 38.832 70.7768C38.832 70.1968 38.687 69.7134 38.397 69.3268C38.107 68.9208 37.701 68.5824 37.179 68.3118C36.6763 68.0411 36.106 67.7994 35.468 67.5868C34.83 67.3548 34.1533 67.1228 33.438 66.8908C31.8527 66.3494 30.6347 65.6438 29.784 64.7738C28.9527 63.9038 28.537 62.7534 28.537 61.3228C28.537 60.1048 28.827 59.0704 29.407 58.2198C30.0063 57.3498 30.8183 56.6828 31.843 56.2188C32.887 55.7548 34.0857 55.5228 35.439 55.5228C36.8117 55.5228 38.0103 55.7644 39.035 56.2478C40.079 56.7118 40.9007 57.3884 41.5 58.2778C42.0993 59.1671 42.4183 60.2111 42.457 61.4098H38.252C38.252 60.9458 38.1263 60.5204 37.875 60.1338C37.643 59.7278 37.3143 59.4088 36.889 59.1768C36.4637 58.9254 35.9513 58.7998 35.352 58.7998C34.8493 58.7804 34.395 58.8578 33.989 59.0318C33.583 59.2058 33.2543 59.4571 33.003 59.7858C32.771 60.1144 32.655 60.5398 32.655 61.0618C32.655 61.5451 32.771 61.9511 33.003 62.2798C33.235 62.6084 33.5637 62.8888 33.989 63.1208C34.4143 63.3528 34.9073 63.5751 35.468 63.7878C36.048 64.0004 36.686 64.2228 37.382 64.4548C38.3873 64.8028 39.3153 65.2184 40.166 65.7018C41.0167 66.1658 41.6933 66.7748 42.196 67.5288C42.6987 68.2828 42.95 69.2688 42.95 70.4868C42.95 71.5694 42.6697 72.5651 42.109 73.4738C41.5677 74.3824 40.7653 75.1171 39.702 75.6778C38.6387 76.2384 37.3337 76.5188 35.787 76.5188ZM48.1661 76.1708V60.3658L44.7731 61.1488V58.1038L49.8191 55.8708H52.1971V76.1708H48.1661ZM62.4586 76.5188C61.144 76.5188 59.9356 76.2771 58.8336 75.7938C57.7316 75.3104 56.852 74.5758 56.1946 73.5898C55.5373 72.6038 55.1893 71.3568 55.1506 69.8488H59.0076C59.027 70.4868 59.172 71.0668 59.4426 71.5888C59.7133 72.0914 60.1 72.4974 60.6026 72.8068C61.1246 73.0968 61.7433 73.2418 62.4586 73.2418C63.1546 73.2418 63.7346 73.1064 64.1986 72.8358C64.682 72.5651 65.0493 72.2074 65.3006 71.7628C65.552 71.3181 65.6776 70.8058 65.6776 70.2258C65.6776 69.5298 65.5133 68.9594 65.1846 68.5148C64.856 68.0508 64.392 67.7028 63.7926 67.4708C63.2126 67.2194 62.536 67.0938 61.7626 67.0938H60.2546V63.8748H61.7626C62.71 63.8748 63.5026 63.6621 64.1406 63.2368C64.7786 62.7921 65.0976 62.1348 65.0976 61.2648C65.0976 60.5301 64.856 59.9404 64.3726 59.4958C63.9086 59.0511 63.261 58.8288 62.4296 58.8288C61.521 58.8288 60.8056 59.0994 60.2836 59.6408C59.781 60.1821 59.5006 60.8491 59.4426 61.6418H55.6436C55.7016 60.3658 56.0206 59.2734 56.6006 58.3648C57.1806 57.4368 57.9636 56.7311 58.9496 56.2478C59.955 55.7644 61.1246 55.5228 62.4586 55.5228C63.8506 55.5228 65.03 55.7741 65.9966 56.2768C66.9633 56.7601 67.698 57.4174 68.2006 58.2488C68.7033 59.0608 68.9546 59.9598 68.9546 60.9458C68.9546 61.7191 68.8 62.4151 68.4906 63.0338C68.2006 63.6331 67.8043 64.1358 67.3016 64.5418C66.8183 64.9478 66.277 65.2474 65.6776 65.4408C66.4316 65.5761 67.0986 65.8661 67.6786 66.3108C68.2586 66.7554 68.7033 67.3258 69.0126 68.0218C69.3413 68.6984 69.5056 69.4814 69.5056 70.3708C69.5056 71.4728 69.235 72.4974 68.6936 73.4448C68.1523 74.3728 67.3596 75.1171 66.3156 75.6778C65.2716 76.2384 63.986 76.5188 62.4586 76.5188ZM73.8558 76.1708L81.4248 59.2058H71.5938V55.8708H85.4558V58.6258L77.8868 76.1708H73.8558Z" fill="#142D6F"/>
<path d="M88.6494 76.2658C88.1807 76.2658 87.7944 76.1264 87.4904 75.8478C87.1991 75.5564 87.0534 75.2018 87.0534 74.7838C87.0534 74.3658 87.1991 74.0174 87.4904 73.7388C87.7944 73.4474 88.1807 73.3018 88.6494 73.3018C89.1181 73.3018 89.4981 73.4474 89.7894 73.7388C90.0807 74.0174 90.2264 74.3658 90.2264 74.7838C90.2264 75.2018 90.0807 75.5564 89.7894 75.8478C89.4981 76.1264 89.1181 76.2658 88.6494 76.2658ZM98.3779 76.1708V73.7578H91.8419V71.7248L98.0359 62.8708H100.943V71.5348H102.672V73.7578H100.943V76.1708H98.3779ZM94.5779 71.5348H98.5489V65.7018L94.5779 71.5348ZM109.007 76.3988C108.145 76.3988 107.354 76.2404 106.632 75.9238C105.922 75.6071 105.352 75.1258 104.922 74.4798C104.491 73.8338 104.263 73.0168 104.238 72.0288H106.746C106.758 72.4468 106.853 72.8268 107.031 73.1688C107.208 73.4981 107.468 73.7641 107.81 73.9668C108.152 74.1568 108.557 74.2518 109.026 74.2518C109.469 74.2518 109.849 74.1631 110.166 73.9858C110.482 73.8084 110.717 73.5741 110.869 73.2828C111.033 72.9914 111.116 72.6558 111.116 72.2758C111.116 71.8324 111.008 71.4651 110.793 71.1738C110.577 70.8698 110.273 70.6418 109.881 70.4898C109.501 70.3251 109.064 70.2428 108.57 70.2428H107.563V68.1338H108.551C109.184 68.1338 109.71 67.9881 110.128 67.6968C110.546 67.4054 110.755 66.9748 110.755 66.4048C110.755 65.9234 110.596 65.5371 110.28 65.2458C109.976 64.9544 109.551 64.8088 109.007 64.8088C108.399 64.8088 107.924 64.9861 107.582 65.3408C107.252 65.6954 107.069 66.1324 107.031 66.6518H104.523C104.561 65.8158 104.77 65.1001 105.15 64.5048C105.53 63.8968 106.049 63.4344 106.708 63.1178C107.379 62.8011 108.145 62.6428 109.007 62.6428C109.931 62.6428 110.71 62.8074 111.344 63.1368C111.977 63.4534 112.458 63.8841 112.788 64.4288C113.117 64.9734 113.282 65.5624 113.282 66.1958C113.282 66.7151 113.18 67.1774 112.978 67.5828C112.788 67.9754 112.528 68.3048 112.199 68.5708C111.882 68.8368 111.527 69.0268 111.135 69.1408C111.629 69.2421 112.059 69.4384 112.427 69.7298C112.807 70.0211 113.098 70.3884 113.301 70.8318C113.516 71.2751 113.624 71.7881 113.624 72.3708C113.624 73.0928 113.446 73.7641 113.092 74.3848C112.737 74.9928 112.218 75.4804 111.534 75.8478C110.85 76.2151 110.007 76.3988 109.007 76.3988Z" fill="#A3BDFF"/>
<rect x="27" y="98.2049" width="92" height="32" rx="16" fill="#F5DCDC"/>
<path fill-rule="evenodd" clip-rule="evenodd" d="M57.4947 119.579C57.4947 119.745 57.558 119.904 57.6706 120.022C57.7832 120.139 57.936 120.205 58.0953 120.205H62.8995C63.0587 120.205 63.2115 120.139 63.3241 120.022C63.4367 119.904 63.5 119.745 63.5 119.579V114.57C63.5 114.404 63.4367 114.245 63.3241 114.128C63.2115 114.01 63.0587 113.944 62.8995 113.944C62.7402 113.944 62.5875 114.01 62.4748 114.128C62.3622 114.245 62.2989 114.404 62.2989 114.57V117.826L57.9595 112.295C57.9064 112.228 57.8403 112.173 57.7655 112.133C57.6906 112.094 57.6087 112.071 57.525 112.067C57.4413 112.063 57.3576 112.076 57.2794 112.108C57.2011 112.139 57.1301 112.187 57.0708 112.249L53.9636 115.488L49.5726 109.194C49.4765 109.067 49.3369 108.983 49.1829 108.961C49.029 108.939 48.8728 108.979 48.7472 109.075C48.6215 109.17 48.5362 109.312 48.5092 109.472C48.4821 109.631 48.5154 109.796 48.6021 109.93L53.4063 116.817C53.4573 116.89 53.5229 116.951 53.5987 116.995C53.6744 117.039 53.7584 117.066 53.8449 117.073C53.9315 117.08 54.0184 117.068 54.0999 117.036C54.1813 117.005 54.2553 116.956 54.3167 116.892L57.4503 113.624L61.6324 118.953H58.0953C57.936 118.953 57.7832 119.019 57.6706 119.136C57.558 119.254 57.4947 119.413 57.4947 119.579Z" fill="#D14F4F"/>
<path d="M74.9499 112.957V114.544H70.0387V112.957H74.9499ZM80.8346 119.354C80.0427 119.354 79.3396 119.221 78.7252 118.955C78.1144 118.688 77.635 118.324 77.287 117.863C76.9426 117.397 76.7721 116.87 76.7757 116.281C76.7721 115.822 76.8715 115.402 77.074 115.018C77.2764 114.635 77.5498 114.315 77.8943 114.059C78.2423 113.8 78.6294 113.635 79.0555 113.564V113.489C78.4944 113.365 78.0399 113.079 77.6919 112.632C77.3474 112.181 77.1769 111.661 77.1805 111.071C77.1769 110.51 77.3332 110.009 77.6492 109.569C77.9653 109.129 78.3985 108.782 78.949 108.53C79.4994 108.274 80.1279 108.147 80.8346 108.147C81.5342 108.147 82.1574 108.274 82.7043 108.53C83.2547 108.782 83.6879 109.129 84.004 109.569C84.3236 110.009 84.4834 110.51 84.4834 111.071C84.4834 111.661 84.3076 112.181 83.9561 112.632C83.608 113.079 83.1588 113.365 82.6084 113.489V113.564C83.0345 113.635 83.4181 113.8 83.759 114.059C84.1034 114.315 84.3769 114.635 84.5793 115.018C84.7852 115.402 84.8882 115.822 84.8882 116.281C84.8882 116.87 84.7142 117.397 84.3662 117.863C84.0182 118.324 83.5388 118.688 82.928 118.955C82.3208 119.221 81.623 119.354 80.8346 119.354ZM80.8346 117.831C81.243 117.831 81.5981 117.761 81.8999 117.623C82.2018 117.481 82.4362 117.282 82.6031 117.026C82.77 116.771 82.8552 116.476 82.8588 116.142C82.8552 115.794 82.7646 115.487 82.5871 115.221C82.4131 114.951 82.1734 114.739 81.868 114.587C81.5661 114.434 81.2217 114.358 80.8346 114.358C80.444 114.358 80.096 114.434 79.7906 114.587C79.4852 114.739 79.2437 114.951 79.0661 115.221C78.8921 115.487 78.8069 115.794 78.8105 116.142C78.8069 116.476 78.8886 116.771 79.0555 117.026C79.2224 117.278 79.4568 117.475 79.7586 117.618C80.064 117.76 80.4227 117.831 80.8346 117.831ZM80.8346 112.861C81.1684 112.861 81.4632 112.793 81.7188 112.658C81.9781 112.523 82.1823 112.335 82.3314 112.094C82.4806 111.852 82.5569 111.574 82.5605 111.257C82.5569 110.945 82.4823 110.672 82.3367 110.437C82.1911 110.199 81.9887 110.016 81.7295 109.888C81.4703 109.757 81.172 109.691 80.8346 109.691C80.4901 109.691 80.1865 109.757 79.9237 109.888C79.6645 110.016 79.4621 110.199 79.3165 110.437C79.1744 110.672 79.1052 110.945 79.1088 111.257C79.1052 111.574 79.1762 111.852 79.3218 112.094C79.471 112.332 79.6752 112.52 79.9344 112.658C80.1972 112.793 80.4972 112.861 80.8346 112.861ZM92.4721 117.159V116.584C92.4721 116.162 92.5609 115.773 92.7385 115.418C92.9196 115.062 93.1824 114.777 93.5268 114.56C93.8713 114.343 94.2885 114.235 94.7786 114.235C95.2828 114.235 95.7054 114.343 96.0463 114.56C96.3873 114.773 96.6447 115.057 96.8187 115.412C96.9963 115.767 97.0851 116.158 97.0851 116.584V117.159C97.0851 117.582 96.9963 117.971 96.8187 118.326C96.6412 118.681 96.3801 118.967 96.0357 119.184C95.6948 119.4 95.2757 119.509 94.7786 119.509C94.2814 119.509 93.8606 119.4 93.5162 119.184C93.1717 118.967 92.9107 118.681 92.7331 118.326C92.5591 117.971 92.4721 117.582 92.4721 117.159ZM93.8624 116.584V117.159C93.8624 117.44 93.9299 117.697 94.0648 117.932C94.1998 118.166 94.4377 118.283 94.7786 118.283C95.123 118.283 95.3592 118.168 95.487 117.937C95.6184 117.703 95.6841 117.444 95.6841 117.159V116.584C95.6841 116.3 95.622 116.041 95.4977 115.806C95.3734 115.569 95.1337 115.45 94.7786 115.45C94.4448 115.45 94.2086 115.569 94.0701 115.806C93.9316 116.041 93.8624 116.3 93.8624 116.584ZM86.927 110.917V110.341C86.927 109.915 87.0176 109.524 87.1987 109.169C87.3798 108.814 87.6426 108.53 87.987 108.317C88.3315 108.1 88.7488 107.992 89.2388 107.992C89.7395 107.992 90.1603 108.1 90.5012 108.317C90.8457 108.53 91.1049 108.814 91.2789 109.169C91.4529 109.524 91.54 109.915 91.54 110.341V110.917C91.54 111.343 91.4512 111.733 91.2736 112.088C91.0996 112.44 90.8404 112.722 90.4959 112.935C90.1515 113.148 89.7324 113.255 89.2388 113.255C88.7381 113.255 88.3155 113.148 87.9711 112.935C87.6301 112.722 87.3709 112.438 87.1934 112.083C87.0158 111.728 86.927 111.339 86.927 110.917ZM88.3279 110.341V110.917C88.3279 111.201 88.3936 111.46 88.525 111.694C88.66 111.925 88.8979 112.04 89.2388 112.04C89.5797 112.04 89.8141 111.925 89.9419 111.694C90.0733 111.46 90.139 111.201 90.139 110.917V110.341C90.139 110.057 90.0769 109.798 89.9526 109.564C89.8283 109.326 89.5904 109.207 89.2388 109.207C88.9015 109.207 88.6653 109.326 88.5304 109.564C88.3954 109.801 88.3279 110.061 88.3279 110.341ZM87.5343 119.205L95.0343 108.296H96.3659L88.8659 119.205H87.5343Z" fill="#D14F4F"/>
</svg>
