<svg width="21" height="22" viewBox="0 0 21 22" fill="none" xmlns="http://www.w3.org/2000/svg">
<path d="M20.2357 5.71774C20.048 5.81496 19.8293 5.83366 19.6278 5.76972C19.4262 5.70579 19.2583 5.56444 19.161 5.37676C18.3996 3.87279 17.2473 2.60163 15.825 1.69685C15.7364 1.64095 15.6596 1.56813 15.5991 1.48256C15.5386 1.39699 15.4956 1.30034 15.4724 1.19813C15.4493 1.09592 15.4465 0.990158 15.4642 0.886873C15.4819 0.783588 15.5198 0.684807 15.5758 0.596169C15.6317 0.507531 15.7045 0.430773 15.79 0.370277C15.8756 0.30978 15.9723 0.266731 16.0745 0.243586C16.1767 0.220441 16.2824 0.217654 16.3857 0.235384C16.489 0.253114 16.5878 0.291014 16.6764 0.34692C18.334 1.40826 19.68 2.89082 20.5767 4.64297C20.6739 4.83073 20.6926 5.0494 20.6287 5.25094C20.5647 5.45247 20.4234 5.62037 20.2357 5.71774ZM1.46328 5.80747C1.6094 5.8074 1.7527 5.7672 1.87753 5.69125C2.00236 5.6153 2.10393 5.50651 2.17115 5.37676C2.93245 3.87279 4.0848 2.60163 5.50709 1.69685C5.68611 1.58395 5.81293 1.40455 5.85968 1.19813C5.90642 0.991714 5.86925 0.775181 5.75634 0.596169C5.64343 0.417157 5.46404 0.290329 5.25762 0.243586C5.0512 0.196842 4.83467 0.234013 4.65566 0.34692C2.99806 1.40826 1.65209 2.89082 0.755411 4.64297C0.692439 4.76453 0.661812 4.90024 0.666479 5.03706C0.671146 5.17388 0.71095 5.30719 0.782059 5.42417C0.853168 5.54115 0.953189 5.63786 1.0725 5.70499C1.1918 5.77212 1.32638 5.80741 1.46328 5.80747ZM20.0174 16.1702C20.1587 16.4126 20.2336 16.6878 20.2345 16.9683C20.2355 17.2488 20.1625 17.5246 20.0229 17.7679C19.8832 18.0112 19.6819 18.2133 19.4392 18.354C19.1965 18.4946 18.921 18.5688 18.6405 18.569H14.5728C14.3897 19.4705 13.9006 20.281 13.1884 20.8632C12.4761 21.4454 11.5845 21.7634 10.6646 21.7634C9.74464 21.7634 8.85301 21.4454 8.14075 20.8632C7.42849 20.281 6.93939 19.4705 6.75633 18.569H2.68859C2.40825 18.5685 2.13301 18.494 1.8906 18.3532C1.64818 18.2125 1.44715 18.0103 1.30775 17.7671C1.16835 17.5238 1.0955 17.2482 1.09655 16.9678C1.0976 16.6875 1.17251 16.4124 1.31373 16.1702C2.21202 14.6199 2.68859 12.4156 2.68859 9.79545C2.68859 7.68009 3.52891 5.65137 5.02469 4.15559C6.52048 2.65981 8.54919 1.81948 10.6646 1.81948C12.7799 1.81948 14.8086 2.65981 16.3044 4.15559C17.8002 5.65137 18.6405 7.68009 18.6405 9.79545C18.6405 12.4146 19.1171 14.6189 20.0174 16.1702ZM12.9198 18.569H8.40935C8.57459 19.035 8.88014 19.4384 9.28398 19.7237C9.68782 20.0089 10.1701 20.1621 10.6646 20.1621C11.159 20.1621 11.6413 20.0089 12.0451 19.7237C12.449 19.4384 12.7545 19.035 12.9198 18.569ZM18.6405 16.9738C17.5797 15.1523 17.0453 12.7376 17.0453 9.79545C17.0453 8.10316 16.3731 6.48019 15.1764 5.28356C13.9798 4.08693 12.3568 3.41468 10.6646 3.41468C8.97227 3.41468 7.34929 4.08693 6.15266 5.28356C4.95604 6.48019 4.28378 8.10316 4.28378 9.79545C4.28378 12.7386 3.7474 15.1533 2.68859 16.9738H18.6405Z" fill="#F6F4EF"/>
</svg>
