<svg width="22" height="20" viewBox="0 0 22 20" fill="none" xmlns="http://www.w3.org/2000/svg">
<path d="M19.1667 -0.00634766H2.5C1.83696 -0.00634766 1.20107 0.257045 0.732233 0.725885C0.263392 1.19473 0 1.83061 0 2.49365V14.1603C0 14.8234 0.263392 15.4592 0.732233 15.9281C1.20107 16.3969 1.83696 16.6603 2.5 16.6603H10V18.327H7.5C7.27899 18.327 7.06702 18.4148 6.91074 18.5711C6.75446 18.7273 6.66667 18.9393 6.66667 19.1603C6.66667 19.3813 6.75446 19.5933 6.91074 19.7496C7.06702 19.9059 7.27899 19.9937 7.5 19.9937H14.1667C14.3877 19.9937 14.5996 19.9059 14.7559 19.7496C14.9122 19.5933 15 19.3813 15 19.1603C15 18.9393 14.9122 18.7273 14.7559 18.5711C14.5996 18.4148 14.3877 18.327 14.1667 18.327H11.6667V16.6603H19.1667C19.8297 16.6603 20.4656 16.3969 20.9344 15.9281C21.4033 15.4592 21.6667 14.8234 21.6667 14.1603V2.49365C21.6667 1.83061 21.4033 1.19473 20.9344 0.725885C20.4656 0.257045 19.8297 -0.00634766 19.1667 -0.00634766ZM2.5 1.66032H19.1667C19.3877 1.66032 19.5996 1.74812 19.7559 1.9044C19.9122 2.06068 20 2.27264 20 2.49365V10.827H1.66667V2.49365C1.66667 2.27264 1.75446 2.06068 1.91074 1.9044C2.06702 1.74812 2.27899 1.66032 2.5 1.66032ZM19.1667 14.9937H2.5C2.27899 14.9937 2.06702 14.9059 1.91074 14.7496C1.75446 14.5933 1.66667 14.3813 1.66667 14.1603V12.4937H20V14.1603C20 14.3813 19.9122 14.5933 19.7559 14.7496C19.5996 14.9059 19.3877 14.9937 19.1667 14.9937Z" fill="#F6F4EF"/>
</svg>
