<svg width="60" height="60" viewBox="0 0 60 60" fill="none" xmlns="http://www.w3.org/2000/svg">
<rect width="60" height="60" rx="5" fill="#A3BDFF"/>
<path d="M45.0909 21.0909H42.5455V19.8182C42.5455 18.8055 42.1432 17.8344 41.4271 17.1183C40.7111 16.4023 39.7399 16 38.7273 16H15.8182C14.8055 16 13.8344 16.4023 13.1183 17.1183C12.4023 17.8344 12 18.8055 12 19.8182V35.0909C12 36.1036 12.4023 37.0747 13.1183 37.7908C13.8344 38.5068 14.8055 38.9091 15.8182 38.9091H33.6364V40.1818C33.6364 41.1945 34.0386 42.1656 34.7547 42.8817C35.4707 43.5977 36.4419 44 37.4545 44H45.0909C46.1036 44 47.0747 43.5977 47.7908 42.8817C48.5068 42.1656 48.9091 41.1945 48.9091 40.1818V24.9091C48.9091 23.8964 48.5068 22.9253 47.7908 22.2092C47.0747 21.4932 46.1036 21.0909 45.0909 21.0909ZM15.8182 36.3636C15.4806 36.3636 15.1569 36.2295 14.9182 35.9909C14.6795 35.7522 14.5455 35.4285 14.5455 35.0909V19.8182C14.5455 19.4806 14.6795 19.1569 14.9182 18.9182C15.1569 18.6795 15.4806 18.5455 15.8182 18.5455H38.7273C39.0648 18.5455 39.3885 18.6795 39.6272 18.9182C39.8659 19.1569 40 19.4806 40 19.8182V21.0909H37.4545C36.4419 21.0909 35.4707 21.4932 34.7547 22.2092C34.0386 22.9253 33.6364 23.8964 33.6364 24.9091V36.3636H15.8182ZM46.3636 40.1818C46.3636 40.5194 46.2296 40.8431 45.9909 41.0818C45.7522 41.3205 45.4285 41.4545 45.0909 41.4545H37.4545C37.117 41.4545 36.7933 41.3205 36.5546 41.0818C36.3159 40.8431 36.1818 40.5194 36.1818 40.1818V24.9091C36.1818 24.5715 36.3159 24.2478 36.5546 24.0091C36.7933 23.7705 37.117 23.6364 37.4545 23.6364H45.0909C45.4285 23.6364 45.7522 23.7705 45.9909 24.0091C46.2296 24.2478 46.3636 24.5715 46.3636 24.9091V40.1818ZM31.0909 42.7273C31.0909 43.0648 30.9568 43.3885 30.7181 43.6272C30.4795 43.8659 30.1557 44 29.8182 44H23.4545C23.117 44 22.7933 43.8659 22.5546 43.6272C22.3159 43.3885 22.1818 43.0648 22.1818 42.7273C22.1818 42.3897 22.3159 42.066 22.5546 41.8273C22.7933 41.5886 23.117 41.4545 23.4545 41.4545H29.8182C30.1557 41.4545 30.4795 41.5886 30.7181 41.8273C30.9568 42.066 31.0909 42.3897 31.0909 42.7273ZM43.8182 27.4545C43.8182 27.7921 43.6841 28.1158 43.4454 28.3545C43.2067 28.5932 42.883 28.7273 42.5455 28.7273H40C39.6625 28.7273 39.3387 28.5932 39.1 28.3545C38.8614 28.1158 38.7273 27.7921 38.7273 27.4545C38.7273 27.117 38.8614 26.7933 39.1 26.5546C39.3387 26.3159 39.6625 26.1818 40 26.1818H42.5455C42.883 26.1818 43.2067 26.3159 43.4454 26.5546C43.6841 26.7933 43.8182 27.117 43.8182 27.4545Z" fill="#142D6F"/>
</svg>
