<svg width="60" height="60" viewBox="0 0 60 60" fill="none" xmlns="http://www.w3.org/2000/svg">
<rect width="60" height="60" rx="5" fill="#A3BDFF"/>
<path d="M30.0019 15C29.6959 15 29.4024 15.1216 29.186 15.338C28.9697 15.5543 28.8481 15.8478 28.8481 16.1538V24.2308C28.8481 24.5368 28.9697 24.8303 29.186 25.0467C29.4024 25.263 29.6959 25.3846 30.0019 25.3846C31.0179 25.3848 32.0054 25.7203 32.8113 26.3389C33.6172 26.9576 34.1964 27.8248 34.4592 28.8062C34.722 29.7876 34.6536 30.8282 34.2647 31.7668C33.8758 32.7054 33.188 33.4894 32.3081 33.9973C31.4282 34.5052 30.4053 34.7085 29.3981 34.5758C28.3908 34.4431 27.4555 33.9818 26.7372 33.2634C26.0188 32.5449 25.5576 31.6096 25.425 30.6023C25.2924 29.595 25.4959 28.5721 26.0039 27.6923C26.0797 27.561 26.1288 27.4162 26.1486 27.2659C26.1684 27.1156 26.1584 26.9629 26.1191 26.8165C26.0799 26.6701 26.0122 26.5329 25.9199 26.4127C25.8276 26.2925 25.7125 26.1916 25.5813 26.1159L18.5861 22.0774C18.4548 22.0016 18.3099 21.9524 18.1597 21.9326C18.0094 21.9129 17.8567 21.9229 17.7103 21.9621C17.5639 22.0014 17.4267 22.0691 17.3065 22.1614C17.1862 22.2536 17.0854 22.3687 17.0096 22.5C15.3587 25.3595 14.6974 28.684 15.1283 31.9576C15.5593 35.2313 17.0583 38.2714 19.3931 40.6062C21.7278 42.9411 24.7677 44.4404 28.0414 44.8716C31.3151 45.3027 34.6395 44.6416 37.4992 42.9908C40.3588 41.3401 42.5939 38.7918 43.8577 35.7414C45.1216 32.6909 45.3436 29.3086 44.4893 26.1191C43.635 22.9296 41.7521 20.1111 39.1328 18.1007C36.5134 16.0903 33.3039 15.0004 30.0019 15ZM18.4765 24.6779L23.5116 27.5856C23.225 28.3583 23.0785 29.1759 23.0789 30C23.0789 30.2207 23.0904 30.4327 23.1106 30.6519L17.4943 32.1635C17.0563 29.6264 17.3988 27.0161 18.4765 24.6779ZM18.0914 34.386L23.7164 32.8803C24.1867 33.9054 24.8998 34.8004 25.794 35.4878C26.6882 36.1752 27.7365 36.6341 28.8481 36.825V42.6389C26.4594 42.4175 24.182 41.5252 22.2787 40.0649C20.3754 38.6046 18.9238 36.636 18.0914 34.386ZM31.1558 42.6389V36.825C32.7683 36.5517 34.232 35.7163 35.2874 34.4669C36.3429 33.2175 36.9219 31.6348 36.9219 29.9993C36.9219 28.3637 36.3429 26.781 35.2874 25.5316C34.232 24.2823 32.7683 23.4469 31.1558 23.1736V17.3596C34.3089 17.6477 37.2406 19.1039 39.3752 21.4425C41.5098 23.781 42.6933 26.833 42.6933 29.9993C42.6933 33.1656 41.5098 36.2175 39.3752 38.5561C37.2406 40.8946 34.3089 42.3508 31.1558 42.6389Z" fill="#142D6F"/>
</svg>
