<svg width="182" height="30" viewBox="0 0 182 30" fill="none" xmlns="http://www.w3.org/2000/svg">
<path d="M29.1677 13.2737C29.9522 12.7047 29.5498 11.4641 28.5806 11.4641H20.3331C19.8994 11.4641 19.5152 11.1847 19.3817 10.7721L16.8427 2.92992C16.5443 2.00811 15.2405 2.00699 14.9405 2.92827L12.3859 10.7725C12.2516 11.1848 11.8668 11.4636 11.4332 11.4628L3.18754 11.4478C2.2182 11.446 1.81358 12.6862 2.59744 13.2564L9.26705 18.1084C9.6174 18.3633 9.76377 18.8148 9.62961 19.2267L7.07622 27.0672C6.77604 27.9889 7.83145 28.7557 8.61535 28.1855L15.2839 23.3343C15.6346 23.0791 16.1098 23.0791 16.4605 23.3343L23.1364 28.1908C23.9195 28.7606 24.9743 27.9956 24.676 27.0742L22.1355 19.2269C22.002 18.8149 22.1491 18.3637 22.4997 18.1094L29.1677 13.2737Z" fill="#142D6F"/>
<path d="M21.7233 21.3938C22.2798 21.2494 22.6001 20.6666 22.4239 20.1194L22.337 19.8496C22.1285 19.202 21.3481 18.9472 20.7975 19.347L20.1712 19.802C19.2774 20.4511 19.9409 21.8566 21.0101 21.579L21.7233 21.3938Z" fill="#142D6F"/>
<path d="M66.7253 13.2737C67.5099 12.7047 67.1074 11.4641 66.1382 11.4641H57.8907C57.4571 11.4641 57.0729 11.1847 56.9393 10.7721L54.4003 2.92992C54.1019 2.00811 52.7981 2.00699 52.4981 2.92827L49.9435 10.7725C49.8092 11.1848 49.4245 11.4636 48.9908 11.4628L40.7452 11.4478C39.7758 11.446 39.3712 12.6862 40.1551 13.2564L46.8247 18.1084C47.175 18.3633 47.3214 18.8148 47.1872 19.2267L44.6338 27.0672C44.3337 27.9889 45.3891 28.7557 46.173 28.1855L52.8415 23.3343C53.1922 23.0791 53.6674 23.0791 54.0181 23.3343L60.694 28.1908C61.4772 28.7606 62.5319 27.9956 62.2336 27.0742L59.6931 19.2269C59.5597 18.8149 59.7067 18.3637 60.0574 18.1094L66.7253 13.2737Z" fill="#142D6F"/>
<path d="M59.281 21.3938C59.8374 21.2494 60.1577 20.6666 59.9815 20.1194L59.8947 19.8496C59.6861 19.202 58.9057 18.9472 58.3552 19.347L57.7288 19.802C56.835 20.4511 57.4985 21.8566 58.5677 21.579L59.281 21.3938Z" fill="#142D6F"/>
<path d="M104.285 13.2737C105.069 12.7047 104.667 11.4641 103.698 11.4641H95.4502C95.0166 11.4641 94.6324 11.1847 94.4989 10.7721L91.9599 2.92992C91.6615 2.00811 90.3577 2.00699 90.0577 2.92827L87.5031 10.7725C87.3688 11.1848 86.984 11.4636 86.5504 11.4628L78.3047 11.4478C77.3354 11.446 76.9308 12.6862 77.7146 13.2564L84.3842 18.1084C84.7346 18.3633 84.881 18.8148 84.7468 19.2267L82.1934 27.0672C81.8932 27.9889 82.9486 28.7557 83.7325 28.1855L90.4011 23.3343C90.7518 23.0791 91.227 23.0791 91.5776 23.3343L98.2535 28.1908C99.0367 28.7606 100.092 27.9956 99.7932 27.0742L97.2526 19.2269C97.1192 18.8149 97.2663 18.3637 97.6169 18.1094L104.285 13.2737Z" fill="#142D6F"/>
<path d="M96.8405 21.3938C97.397 21.2494 97.7173 20.6666 97.5411 20.1194L97.4542 19.8496C97.2457 19.202 96.4652 18.9472 95.9147 19.347L95.2883 19.802C94.3946 20.4511 95.0581 21.8566 96.1273 21.579L96.8405 21.3938Z" fill="#142D6F"/>
<path d="M141.842 13.2737C142.627 12.7047 142.225 11.4641 141.255 11.4641H133.008C132.574 11.4641 132.19 11.1847 132.056 10.7721L129.518 2.92992C129.219 2.00811 127.915 2.00699 127.615 2.92827L125.061 10.7725C124.926 11.1848 124.542 11.4636 124.108 11.4628L115.862 11.4478C114.893 11.446 114.488 12.6862 115.272 13.2564L121.942 18.1084C122.292 18.3633 122.439 18.8148 122.304 19.2267L119.751 27.0672C119.451 27.9889 120.506 28.7557 121.29 28.1855L127.959 23.3343C128.309 23.0791 128.785 23.0791 129.135 23.3343L135.811 28.1908C136.594 28.7606 137.649 27.9956 137.351 27.0742L134.81 19.2269C134.677 18.8149 134.824 18.3637 135.175 18.1094L141.842 13.2737Z" fill="#142D6F"/>
<path d="M134.398 21.3938C134.955 21.2494 135.275 20.6666 135.099 20.1194L135.012 19.8496C134.803 19.202 134.023 18.9472 133.472 19.347L132.846 19.802C131.952 20.4511 132.616 21.8566 133.685 21.579L134.398 21.3938Z" fill="#142D6F"/>
<path d="M179.401 13.2737C180.186 12.7047 179.783 11.4641 178.814 11.4641H170.566C170.133 11.4641 169.749 11.1847 169.615 10.7721L167.076 2.92992C166.778 2.00811 165.474 2.00699 165.174 2.92827L162.619 10.7725C162.485 11.1848 162.1 11.4636 161.667 11.4628L153.421 11.4478C152.452 11.446 152.047 12.6862 152.831 13.2564L159.5 18.1084C159.851 18.3633 159.997 18.8148 159.863 19.2267L157.31 27.0672C157.009 27.9889 158.065 28.7557 158.849 28.1855L165.517 23.3343C165.868 23.0791 166.343 23.0791 166.694 23.3343L173.37 28.1908C174.153 28.7606 175.208 27.9956 174.909 27.0742L172.369 19.2269C172.235 18.8149 172.382 18.3637 172.733 18.1094L179.401 13.2737Z" fill="#142D6F"/>
<path d="M171.957 21.3938C172.513 21.2494 172.834 20.6666 172.657 20.1194L172.57 19.8496C172.362 19.202 171.581 18.9472 171.031 19.347L170.405 19.802C169.511 20.4511 170.174 21.8566 171.243 21.579L171.957 21.3938Z" fill="#142D6F"/>
</svg>
