<svg width="196" height="100" viewBox="0 0 196 100" fill="none" xmlns="http://www.w3.org/2000/svg">
<rect width="196" height="100" rx="10" fill="#F6F4EF"/>
<path d="M98.5 23C83.3127 23 71 35.3127 71 50.5C71 65.6873 83.3127 78 98.5 78C113.687 78 126 65.6873 126 50.5C126 35.3127 113.687 23 98.5 23Z" fill="black"/>
<rect x="92.2422" y="44.2383" width="11.6251" height="11.6251" fill="white"/>
<path fill-rule="evenodd" clip-rule="evenodd" d="M98.0478 37.5678L92.512 33.4395V44.511H81.4404L85.5688 50.0468L81.4404 55.5825H92.512V44.511L103.583 44.511V33.4395L98.0478 37.5678ZM110.527 50.0468L114.655 44.511L103.583 44.511V55.5825H92.512V66.6541L98.0478 62.5257L103.583 66.6541V55.5825H114.655L110.527 50.0468Z" fill="white"/>
</svg>
