<svg width="196" height="100" viewBox="0 0 196 100" fill="none" xmlns="http://www.w3.org/2000/svg">
<rect width="196" height="100" rx="10" fill="#F6F4EF"/>
<path d="M73 25H95.9508V29.9181H73V25ZM73 34.0163H95.9508V38.9343H73V34.0163ZM73 43.0328V47.9507H95.9508V43.0328H73ZM118.082 25H123V47.9508H118.082V25ZM109.065 25H113.983V47.9508H109.065V25ZM100.049 25V47.9507H104.967V25H100.049ZM100.049 70.0819H123V75H100.049V70.0819ZM100.049 61.0655H123V65.9835H100.049V61.0655ZM116.033 52.0492H100.049V56.9672H123V52.0492H116.033ZM73 52.0492H77.9181V75H73V52.0492ZM82.0164 52.0492H86.9344V75H82.0164V52.0492ZM91.0327 52.0492V74.9999H95.9508V52.0492H91.0327Z" fill="#36C5F0"/>
<mask id="mask0_0_2715" style="mask-type:alpha" maskUnits="userSpaceOnUse" x="73" y="51" width="24" height="24">
<rect x="73" y="51.4104" width="23.5849" height="23.5849" fill="#D9D9D9"/>
</mask>
<g mask="url(#mask0_0_2715)">
<path d="M73 24.9944H95.9508V29.9125H73V24.9944ZM73 34.0107H95.9508V38.9287H73V34.0107ZM73 43.0271V47.9451H95.9508V43.0271H73ZM118.082 24.9944H123V47.9452H118.082V24.9944ZM109.065 24.9944H113.983V47.9452H109.065V24.9944ZM100.049 24.9944V47.9451H104.967V24.9944H100.049ZM100.049 70.0763H123V74.9944H100.049V70.0763ZM100.049 61.0599H123V65.9779H100.049V61.0599ZM116.033 52.0436H100.049V56.9615H123V52.0436H116.033ZM73 52.0436H77.9181V74.9944H73V52.0436ZM82.0164 52.0436H86.9344V74.9944H82.0164V52.0436ZM91.0327 52.0436V74.9943H95.9508V52.0436H91.0327Z" fill="#E01E5A"/>
</g>
<mask id="mask1_0_2715" style="mask-type:alpha" maskUnits="userSpaceOnUse" x="73" y="25" width="50" height="50">
<path d="M73 25H95.9508V29.9181H73V25ZM73 34.0163H95.9508V38.9343H73V34.0163ZM73 43.0328V47.9507H95.9508V43.0328H73ZM118.082 25H123V47.9508H118.082V25ZM109.065 25H113.983V47.9508H109.065V25ZM100.049 25V47.9507H104.967V25H100.049ZM100.049 70.0819H123V75H100.049V70.0819ZM100.049 61.0655H123V65.9835H100.049V61.0655ZM116.033 52.0492H100.049V56.9672H123V52.0492H116.033ZM73 52.0492H77.9181V75H73V52.0492ZM82.0164 52.0492H86.9344V75H82.0164V52.0492ZM91.0327 52.0492V74.9999H95.9508V52.0492H91.0327Z" fill="black"/>
</mask>
<g mask="url(#mask1_0_2715)">
<rect x="99.416" y="25" width="23.5849" height="23.5849" fill="#2EB67D"/>
</g>
<mask id="mask2_0_2715" style="mask-type:alpha" maskUnits="userSpaceOnUse" x="73" y="25" width="50" height="50">
<path d="M73 25H95.9508V29.9181H73V25ZM73 34.0163H95.9508V38.9343H73V34.0163ZM73 43.0328V47.9507H95.9508V43.0328H73ZM118.082 25H123V47.9508H118.082V25ZM109.065 25H113.983V47.9508H109.065V25ZM100.049 25V47.9507H104.967V25H100.049ZM100.049 70.0819H123V75H100.049V70.0819ZM100.049 61.0655H123V65.9835H100.049V61.0655ZM116.033 52.0492H100.049V56.9672H123V52.0492H116.033ZM73 52.0492H77.9181V75H73V52.0492ZM82.0164 52.0492H86.9344V75H82.0164V52.0492ZM91.0327 52.0492V74.9999H95.9508V52.0492H91.0327Z" fill="black"/>
</mask>
<g mask="url(#mask2_0_2715)">
<rect x="99.416" y="51.416" width="23.5849" height="23.5849" fill="#ECB22E"/>
</g>
</svg>
