<svg width="196" height="100" viewBox="0 0 196 100" fill="none" xmlns="http://www.w3.org/2000/svg">
<rect width="196" height="100" rx="10" fill="#F6F4EF"/>
<path fill-rule="evenodd" clip-rule="evenodd" d="M100.48 23H96.4162V40.3946L89.6754 24.2666L85.9073 25.7383L92.8228 42.2841L79.7692 29.6656L76.8955 32.4435L89.4068 44.5378L73.1931 37.69L71.566 41.2899L88.722 48.5357H70V52.4643H88.7219L71.566 59.71L73.1931 63.3101L89.4067 56.4623L76.8955 68.5565L79.7692 71.3343L92.8228 58.7159L85.9073 75.2618L89.6754 76.7333L96.4162 60.6054V78H100.48V60.6054L107.221 76.7333L110.989 75.2618L104.074 58.7159L117.127 71.3343L120.001 68.5565L107.49 56.4623L123.704 63.3101L125.33 59.71L108.175 52.4643H126.897V48.5357H108.174L125.33 41.2899L123.704 37.69L107.49 44.5378L120.001 32.4435L117.127 29.6656L104.074 42.284L110.989 25.7383L107.221 24.2666L100.48 40.3946V23Z" fill="#FF4A00"/>
</svg>
