<svg width="196" height="100" viewBox="0 0 196 100" fill="none" xmlns="http://www.w3.org/2000/svg">
<rect width="196" height="100" rx="10" fill="#F6F4EF"/>
<path fill-rule="evenodd" clip-rule="evenodd" d="M113.389 56.6111V44.3889C113.389 35.9512 106.414 29.1111 97.8103 29.1111C89.2064 29.1111 82.2315 35.9512 82.2315 44.3889V56.6111C82.2315 65.0488 89.2064 71.8889 97.8103 71.8889C106.414 71.8889 113.389 65.0488 113.389 56.6111ZM97.8103 23C85.7648 23 76 32.5761 76 44.3889V56.6111C76 68.4239 85.7648 78 97.8103 78C109.856 78 119.621 68.4239 119.621 56.6111V44.3889C119.621 32.5761 109.856 23 97.8103 23Z" fill="#339FF8"/>
<path fill-rule="evenodd" clip-rule="evenodd" d="M100.968 56.6496V44.3504C100.968 42.6522 99.5543 41.2756 97.8104 41.2756C96.0664 41.2756 94.6526 42.6522 94.6526 44.3504V56.6496C94.6526 58.3478 96.0664 59.7244 97.8104 59.7244C99.5543 59.7244 100.968 58.3478 100.968 56.6496ZM97.8104 35.126C92.5785 35.126 88.3372 39.2559 88.3372 44.3504V56.6496C88.3372 61.7441 92.5785 65.874 97.8104 65.874C103.042 65.874 107.284 61.7441 107.284 56.6496V44.3504C107.284 39.2559 103.042 35.126 97.8104 35.126Z" fill="#339FF8"/>
</svg>
