<svg width="196" height="100" viewBox="0 0 196 100" fill="none" xmlns="http://www.w3.org/2000/svg">
<rect width="196" height="100" rx="10" fill="#F6F4EF"/>
<path d="M98 32.84C107.44 32.84 115.16 40.52 115.16 50C115.16 59.48 107.48 67.16 98 67.16C88.52 67.16 80.84 59.48 80.84 50C80.84 40.52 88.52 32.84 98 32.84ZM98 25C84.2 25 73 36.2 73 50C73 63.8 84.2 75 98 75C111.8 75 123 63.8 123 50C123 36.2 111.8 25 98 25Z" fill="black"/>
<path d="M98 25C84.2 25 73 36.2 73 50H98V25Z" fill="black"/>
<path d="M97.999 74.9602C111.799 74.9602 122.999 63.7602 122.999 49.9602H97.999V74.9602Z" fill="black"/>
</svg>
