<svg width="196" height="100" viewBox="0 0 196 100" fill="none" xmlns="http://www.w3.org/2000/svg">
<rect width="196" height="100" rx="10" fill="#F6F4EF"/>
<g clip-path="url(#clip0_0_2746)">
<path d="M68 80L72.2407 64.6008C69.6189 60.0808 68.2436 54.962 68.2579 49.7291C68.2579 33.3318 81.6676 20 98.1289 20C106.123 20 113.63 23.0941 119.261 28.712C124.905 34.3299 128.014 41.8013 128 49.7434C128 66.1407 114.59 79.4724 98.1146 79.4724H98.1003C93.1003 79.4724 88.1862 78.2177 83.8166 75.8508L68 80ZM84.5759 70.4753L85.4785 71.0171C89.2894 73.27 93.659 74.4534 98.1146 74.4677H98.1289C111.811 74.4677 122.957 63.3888 122.957 49.7576C122.957 43.1559 120.378 36.9534 115.693 32.2766C111.009 27.5998 104.762 25.0333 98.1289 25.0333C84.447 25.019 73.3009 36.0979 73.3009 49.7291C73.3009 54.3916 74.6046 58.9401 77.0974 62.8755L77.6848 63.8165L75.1776 72.9278L84.5759 70.4753Z" fill="white"/>
<path d="M69.0459 78.959L73.1433 64.0874C70.6075 59.7385 69.2751 54.7908 69.2751 49.7433C69.2895 33.9163 82.2264 21.0408 98.129 21.0408C105.851 21.0408 113.086 24.0351 118.53 29.4533C123.974 34.8716 126.968 42.0864 126.968 49.7575C126.968 65.5845 114.017 78.46 98.129 78.46H98.1146C93.2866 78.46 88.5445 77.248 84.3324 74.9666L69.0459 78.959Z" fill="url(#paint0_linear_0_2746)"/>
<path d="M68 80L72.2407 64.6008C69.6189 60.0808 68.2436 54.962 68.2579 49.7291C68.2579 33.3318 81.6676 20 98.1289 20C106.123 20 113.63 23.0941 119.261 28.712C124.905 34.3299 128.014 41.8013 128 49.7434C128 66.1407 114.59 79.4724 98.1146 79.4724H98.1003C93.1003 79.4724 88.1862 78.2177 83.8166 75.8508L68 80ZM84.5759 70.4753L85.4785 71.0171C89.2894 73.27 93.659 74.4534 98.1146 74.4677H98.1289C111.811 74.4677 122.957 63.3888 122.957 49.7576C122.957 43.1559 120.378 36.9534 115.693 32.2766C111.009 27.5998 104.762 25.0333 98.1289 25.0333C84.447 25.019 73.3009 36.0979 73.3009 49.7291C73.3009 54.3916 74.6046 58.9401 77.0974 62.8755L77.6848 63.8165L75.1776 72.9278L84.5759 70.4753Z" fill="url(#paint1_linear_0_2746)"/>
</g>
<path fill-rule="evenodd" clip-rule="evenodd" d="M110.398 49.661L98.5659 37.75L86.7344 49.661H98.4082L86.7344 61.4131H110.398L98.7237 49.661H110.398Z" fill="white"/>
<defs>
<linearGradient id="paint0_linear_0_2746" x1="98.0057" y1="78.9562" x2="98.0057" y2="21.0387" gradientUnits="userSpaceOnUse">
<stop stop-color="#20B038"/>
<stop offset="1" stop-color="#60D66A"/>
</linearGradient>
<linearGradient id="paint1_linear_0_2746" x1="98.0058" y1="79.9943" x2="98.0058" y2="20" gradientUnits="userSpaceOnUse">
<stop stop-color="#F9F9F9"/>
<stop offset="1" stop-color="white"/>
</linearGradient>
<clipPath id="clip0_0_2746">
<rect width="60" height="60" fill="white" transform="translate(68 20)"/>
</clipPath>
</defs>
</svg>
