<svg width="196" height="100" viewBox="0 0 196 100" fill="none" xmlns="http://www.w3.org/2000/svg">
<rect width="196" height="100" rx="10" fill="#F6F4EF"/>
<rect x="68" y="20" width="60.8541" height="60" rx="30" fill="#5865F2"/>
<path fill-rule="evenodd" clip-rule="evenodd" d="M112.592 60.5303V59.2318H116V40.9137H112.592V39.6151H115.944C115.609 35.8023 112.369 32.8184 108.43 32.8184H88.5698C84.6313 32.8184 81.3911 35.8023 81.0559 39.6151H84.4078V40.9137H81V59.2318H84.4078V60.5303H81.0559C81.3911 64.3432 84.6313 67.3271 88.5698 67.3271H108.43C112.369 67.3271 115.609 64.3432 115.944 60.5303H112.592ZM98.5419 56.7175C94.8268 56.7175 91.8101 53.7336 91.8101 50.0589C91.8101 46.3842 94.8268 43.4003 98.5419 43.4003C102.257 43.4003 105.274 46.3842 105.274 50.0589C105.274 53.7336 102.229 56.7175 98.5419 56.7175Z" fill="white"/>
</svg>
