<svg width="206" height="38" viewBox="0 0 206 38" fill="none" xmlns="http://www.w3.org/2000/svg">
<path fill-rule="evenodd" clip-rule="evenodd" d="M19.2883 0H0.289062L19.2883 18.9992H0.289062L19.2883 37.9984H38.2875L19.2883 18.9992H38.2875L19.2883 0Z" fill="#142D6F"/>
<path fill-rule="evenodd" clip-rule="evenodd" d="M0.289062 18.9988H19.2883L38.2875 37.998H19.2883L0.289062 18.9988Z" fill="#D0D5E2"/>
<path d="M69.9975 25.8834L69.9588 29.4167C69.9588 29.8233 69.1747 30.388 67.6065 31.1108C64.6637 32.466 61.7725 33.1436 58.9329 33.1436C55.8159 33.1436 53.1118 32.4337 50.8208 31.014C48.3233 29.4651 46.6002 27.2193 45.6515 24.2765C45.1482 22.7018 44.8965 21.0013 44.8965 19.175C44.8965 17.3486 45.1417 15.6997 45.6322 14.2283C46.1227 12.7505 46.8067 11.4727 47.6844 10.3949C48.5685 9.31072 49.614 8.38787 50.8208 7.62635C53.2215 6.10977 56.0837 5.35148 59.4073 5.35148C62.4985 5.35148 65.1832 6.14204 67.4613 7.72316C67.7775 7.96839 67.9356 7.95548 67.9356 7.68443V6.69704C67.9356 6.44536 67.9775 6.27756 68.0614 6.19367C68.1518 6.10332 68.3519 6.05814 68.6616 6.05814C68.9714 6.05814 69.1908 6.10009 69.3199 6.18399C69.4554 6.26788 69.5232 6.4389 69.5232 6.69704L69.3973 14.0347C69.3973 14.2799 69.3457 14.4413 69.2424 14.5187C69.1392 14.5897 68.923 14.6252 68.5939 14.6252C68.2647 14.6252 68.0453 14.5929 67.9356 14.5284C67.8259 14.4574 67.771 14.3187 67.771 14.1122L67.9356 10.8596C67.9356 10.5498 67.3612 9.93672 66.2125 9.02032C64.2248 7.44565 61.9048 6.65832 59.2524 6.65832C57.852 6.65832 56.529 6.97455 55.2834 7.60699C54.0444 8.23944 52.9763 9.10421 52.0793 10.2013C51.1887 11.292 50.482 12.6117 49.9593 14.1606C49.4365 15.7029 49.1752 17.2421 49.1752 18.7781C49.1752 20.314 49.3462 21.7112 49.6882 22.9696C50.0303 24.2281 50.5272 25.3832 51.179 26.4352C51.8308 27.4806 52.5955 28.4003 53.4732 29.1941C55.3383 30.8784 57.5293 31.7206 60.0462 31.7206C62.2726 31.7206 64.0635 31.3108 65.4187 30.4912C66.0447 30.1105 66.3674 29.8168 66.3867 29.6103C66.4642 28.9327 66.5029 27.7807 66.5029 26.1544C66.5029 24.5217 66.4126 23.7053 66.2319 23.7053H62.776C62.4856 23.7053 62.3404 23.4698 62.3404 22.9987C62.3404 22.5211 62.4727 22.2823 62.7373 22.2823L68.0518 22.3985L71.6238 22.2823C71.9142 22.2823 72.0594 22.5211 72.0594 22.9987C72.0594 23.4698 71.9142 23.7053 71.6238 23.7053H70.3944C70.2266 23.7053 70.1169 23.8667 70.0653 24.1893C70.0201 24.5056 69.9975 25.0703 69.9975 25.8834Z" fill="#142D6F"/>
<path d="M73.8317 18.5941C73.6445 18.5941 73.5509 18.5619 73.5509 18.4973C73.5509 18.4328 73.5606 18.3554 73.58 18.265C73.5993 18.1682 73.6219 18.0649 73.6478 17.9552C73.68 17.8455 73.7058 17.739 73.7252 17.6358C73.7639 17.4809 73.9962 17.4035 74.4222 17.4035C76.6293 17.326 77.9523 17.2873 78.3911 17.2873C78.8364 17.2873 79.0784 17.3034 79.1171 17.3357C79.1623 17.3615 79.1849 17.4615 79.1849 17.6358L79.1462 19.9397V20.2107L79.1558 20.3656C79.1558 20.3269 79.2042 20.2107 79.301 20.0171C79.7399 18.9652 80.3175 18.1295 81.0338 17.5099C81.7502 16.8839 82.4181 16.5709 83.0376 16.5709C83.6636 16.5709 84.2283 16.7936 84.7317 17.2389C85.2351 17.6842 85.4868 18.0585 85.4868 18.3618C85.4868 18.6587 85.3028 19.0362 84.935 19.4944C84.5671 19.9526 84.2477 20.1817 83.9766 20.1817C83.7056 20.1817 83.4539 20.1172 83.2216 19.9881C82.9892 19.8526 82.786 19.7074 82.6117 19.5525C82.1471 19.1265 81.7824 18.9136 81.5178 18.9136C80.0916 18.9136 79.3785 21.5692 79.3785 26.8805C79.3785 29.7587 79.4979 31.1979 79.7367 31.1979H82.3503C82.5698 31.1979 82.7117 31.2495 82.7763 31.3528C82.8408 31.4496 82.8731 31.5851 82.8731 31.7593C82.8731 31.9271 82.8699 32.0401 82.8634 32.0982C82.8569 32.1562 82.8376 32.2208 82.8053 32.2918C82.7472 32.4337 82.5956 32.5047 82.3503 32.5047L78.0329 32.4273L74.4996 32.5047C74.2802 32.5047 74.1382 32.4531 74.0737 32.3498C74.0156 32.253 73.9866 32.1143 73.9866 31.9336C73.9866 31.7464 73.9898 31.6238 73.9962 31.5657C74.0027 31.5077 74.0188 31.4463 74.0446 31.3818C74.0898 31.2592 74.2286 31.1979 74.4609 31.1979H76.2033C76.4163 31.1979 76.5228 29.0844 76.5228 24.8573C76.5228 20.6302 76.4163 18.5167 76.2033 18.5167L73.8317 18.5941Z" fill="#142D6F"/>
<path d="M98.0235 23.5117L89.1757 23.3084C89.0983 23.502 89.0596 24.0151 89.0596 24.8476C89.0596 25.6801 89.2209 26.5094 89.5436 27.3354C89.8663 28.1615 90.2922 28.8391 90.8214 29.3683C91.9507 30.4848 93.2544 31.043 94.7322 31.043C96.5328 31.043 98.172 30.2718 99.6498 28.7294C99.8241 28.5552 99.9338 28.468 99.9789 28.468C100.024 28.468 100.163 28.5713 100.395 28.7778C100.634 28.9779 100.753 29.1037 100.753 29.1553C100.753 29.207 100.647 29.3683 100.434 29.6394C100.227 29.9039 99.9112 30.2299 99.4852 30.6171C99.0658 30.9978 98.585 31.3689 98.0429 31.7303C96.7393 32.5951 95.4002 33.0275 94.0256 33.0275C92.6574 33.0275 91.4829 32.8274 90.5019 32.4273C89.521 32.0336 88.7078 31.4818 88.0625 30.7719C87.4236 30.0556 86.9331 29.207 86.5911 28.226C86.2555 27.2386 86.0877 26.1544 86.0877 24.9734C86.0877 23.7925 86.2878 22.6824 86.6879 21.6434C87.088 20.6044 87.6398 19.7074 88.3432 18.9523C89.8727 17.3131 91.841 16.4935 94.2482 16.4935C96.2036 16.4935 97.7137 17.1453 98.7786 18.4489C99.7789 19.6751 100.279 21.1626 100.279 22.9115C100.279 23.3117 99.5272 23.5117 98.0235 23.5117ZM96.4166 22.2242C97.0103 22.2242 97.3072 22.1758 97.3072 22.079C97.3072 20.1817 96.7199 18.8652 95.5454 18.1295C94.9775 17.7745 94.387 17.5971 93.7739 17.5971C93.1672 17.5971 92.5832 17.7455 92.0217 18.0424C91.4667 18.3392 90.9956 18.7167 90.6084 19.175C89.7824 20.1623 89.3306 21.1723 89.2532 22.2049C89.2532 22.334 89.3726 22.3985 89.6113 22.3985L96.4166 22.2242Z" fill="#142D6F"/>
<path d="M114.036 23.5117L105.188 23.3084C105.11 23.502 105.072 24.0151 105.072 24.8476C105.072 25.6801 105.233 26.5094 105.556 27.3354C105.878 28.1615 106.304 28.8391 106.833 29.3683C107.963 30.4848 109.266 31.043 110.744 31.043C112.545 31.043 114.184 30.2718 115.662 28.7294C115.836 28.5552 115.946 28.468 115.991 28.468C116.036 28.468 116.175 28.5713 116.407 28.7778C116.646 28.9779 116.765 29.1037 116.765 29.1553C116.765 29.207 116.659 29.3683 116.446 29.6394C116.239 29.9039 115.923 30.2299 115.497 30.6171C115.078 30.9978 114.597 31.3689 114.055 31.7303C112.751 32.5951 111.412 33.0275 110.038 33.0275C108.669 33.0275 107.495 32.8274 106.514 32.4273C105.533 32.0336 104.72 31.4818 104.074 30.7719C103.436 30.0556 102.945 29.207 102.603 28.226C102.267 27.2386 102.1 26.1544 102.1 24.9734C102.1 23.7925 102.3 22.6824 102.7 21.6434C103.1 20.6044 103.652 19.7074 104.355 18.9523C105.885 17.3131 107.853 16.4935 110.26 16.4935C112.216 16.4935 113.726 17.1453 114.791 18.4489C115.791 19.6751 116.291 21.1626 116.291 22.9115C116.291 23.3117 115.539 23.5117 114.036 23.5117ZM112.429 22.2242C113.022 22.2242 113.319 22.1758 113.319 22.079C113.319 20.1817 112.732 18.8652 111.557 18.1295C110.989 17.7745 110.399 17.5971 109.786 17.5971C109.179 17.5971 108.595 17.7455 108.034 18.0424C107.479 18.3392 107.008 18.7167 106.62 19.175C105.794 20.1623 105.343 21.1723 105.265 22.2049C105.265 22.334 105.385 22.3985 105.623 22.3985L112.429 22.2242Z" fill="#142D6F"/>
<path d="M120.425 18.5457L117.986 18.7103C117.857 18.7103 117.792 18.649 117.792 18.5264C117.792 18.4038 117.847 18.2037 117.957 17.9262C118.067 17.6422 118.147 17.4841 118.199 17.4519C118.257 17.4131 118.392 17.3873 118.605 17.3744C118.818 17.3551 119.512 17.3099 120.687 17.2389C121.868 17.1614 122.574 17.113 122.807 17.0937C123.039 17.0743 123.178 17.0711 123.223 17.084C123.268 17.0905 123.307 17.0937 123.339 17.0937C123.378 17.0872 123.41 17.0937 123.436 17.113C123.462 17.1324 123.484 17.1453 123.504 17.1518C123.523 17.1518 123.536 17.1679 123.542 17.2002C123.555 17.226 123.565 17.2453 123.571 17.2583C123.578 17.2712 123.581 17.297 123.581 17.3357V18.991C123.581 19.1459 123.597 19.2234 123.629 19.2234C123.668 19.2234 123.7 19.2137 123.726 19.1943C123.752 19.175 123.778 19.1556 123.804 19.1362C123.881 19.0781 123.962 19.0233 124.046 18.9717C124.136 18.9136 124.33 18.7845 124.627 18.5845C124.923 18.3844 125.159 18.2295 125.333 18.1198C125.507 18.0101 125.756 17.8713 126.079 17.7035C126.408 17.5358 126.711 17.4067 126.989 17.3163C127.692 17.084 128.386 16.9678 129.07 16.9678C129.76 16.9678 130.367 17.0356 130.89 17.1711C131.419 17.3002 131.867 17.4777 132.235 17.7035C132.61 17.923 132.932 18.2101 133.203 18.5651C133.481 18.9136 133.703 19.2814 133.871 19.6686C134.039 20.0494 134.171 20.4947 134.268 21.0045C134.436 21.8822 134.52 22.9148 134.52 24.1022L134.326 30.8397C134.326 31.0204 134.339 31.1269 134.365 31.1592C134.391 31.185 134.484 31.1979 134.646 31.1979H135.836C136.094 31.1979 136.269 31.2431 136.359 31.3334C136.456 31.4173 136.504 31.5786 136.504 31.8174C136.504 32.0497 136.469 32.2208 136.398 32.3305C136.327 32.4466 136.165 32.5047 135.914 32.5047L132.942 32.4273L129.486 32.5047C129.209 32.5047 129.041 32.466 128.983 32.3886C128.925 32.3111 128.896 32.1401 128.896 31.8755C128.896 31.4238 129.105 31.1979 129.525 31.1979H131.229C131.39 31.1979 131.471 29.833 131.471 27.1031C131.471 24.3668 131.438 22.7599 131.374 22.2823C131.309 21.8048 131.193 21.3466 131.025 20.9077C130.857 20.4689 130.638 20.1043 130.367 19.8139C129.78 19.1814 128.918 18.8652 127.782 18.8652C126.905 18.8652 125.882 19.1653 124.714 19.7654C124.165 20.0494 123.852 20.2462 123.775 20.3559C123.697 20.4592 123.659 20.598 123.659 20.7722L123.62 30.5687C123.62 30.8784 123.639 31.0624 123.678 31.1204C123.717 31.1721 123.83 31.1979 124.017 31.1979H125.527C125.778 31.1979 125.933 31.2463 125.991 31.3431C126.05 31.4334 126.079 31.569 126.079 31.7497C126.079 31.9239 126.075 32.0401 126.069 32.0982C126.062 32.1562 126.046 32.2208 126.021 32.2918C125.962 32.4337 125.811 32.5047 125.566 32.5047L122.235 32.4273L118.625 32.5047C118.373 32.5047 118.228 32.4595 118.189 32.3692C118.138 32.2401 118.112 32.0627 118.112 31.8368C118.112 31.6109 118.141 31.4496 118.199 31.3528C118.263 31.2495 118.405 31.1979 118.625 31.1979H120.406C120.619 31.1979 120.725 29.3683 120.725 25.7092C120.725 22.05 120.709 19.9945 120.677 19.5428C120.651 19.0846 120.632 18.8265 120.619 18.7684C120.606 18.7103 120.593 18.6651 120.58 18.6329C120.548 18.5748 120.496 18.5457 120.425 18.5457Z" fill="#142D6F"/>
<path d="M134.763 10.7047C134.743 10.9499 134.698 11.1048 134.627 11.1693C134.556 11.2274 134.317 11.2565 133.911 11.2565C133.504 11.2565 133.301 11.1113 133.301 10.8209C133.301 10.8015 133.34 10.5046 133.417 9.93026C133.688 8.02647 133.846 6.76803 133.891 6.15495C133.937 5.53541 134.001 5.18046 134.085 5.09011C134.175 4.99976 134.404 4.95459 134.772 4.95459C135.14 4.95459 135.324 5.07398 135.324 5.31276V5.70965C135.324 5.83872 136.712 5.90326 139.487 5.90326H153.639C156.44 5.90326 157.844 5.7871 157.85 5.55477C157.863 5.32244 157.915 5.16433 158.005 5.08043C158.095 4.99654 158.241 4.95459 158.441 4.95459C158.641 4.95459 158.776 4.95782 158.847 4.96427C158.918 4.97072 158.992 4.99008 159.07 5.02235C159.205 5.07398 159.273 5.23532 159.273 5.50637L159.109 10.8596C159.109 11.0467 159.06 11.1597 158.963 11.1984C158.867 11.2371 158.673 11.2565 158.383 11.2565C158.099 11.2565 157.905 11.2177 157.802 11.1403C157.698 11.0629 157.647 10.9177 157.647 10.7047L157.763 7.52955C157.763 7.3424 156.308 7.24882 153.397 7.24882H148.838C148.67 7.24882 148.576 8.21685 148.557 10.1529C148.544 12.0825 148.534 13.1635 148.528 13.3958L148.286 28.6616C148.286 30.3008 148.312 31.1204 148.363 31.1204H151.18C151.406 31.1204 151.555 31.1656 151.626 31.256C151.697 31.3463 151.732 31.5302 151.732 31.8077C151.732 32.0852 151.697 32.2788 151.626 32.3886C151.555 32.4983 151.406 32.5531 151.18 32.5531L146.427 32.4273L141.548 32.5531C141.284 32.5531 141.116 32.5015 141.045 32.3982C140.981 32.3014 140.948 32.0982 140.948 31.7884C140.948 31.4722 140.99 31.2818 141.074 31.2172C141.164 31.1527 141.374 31.1204 141.703 31.1204H144.162C144.317 31.1204 144.44 28.5584 144.53 23.4343C144.627 18.3037 144.675 14.3251 144.675 11.4985C144.675 8.66537 144.598 7.24882 144.443 7.24882H138.809C136.363 7.24882 135.121 7.38112 135.082 7.64571L134.763 10.7047Z" fill="#142D6F"/>
<path d="M168.228 23.5117L159.38 23.3084C159.303 23.502 159.264 24.0151 159.264 24.8476C159.264 25.6801 159.426 26.5094 159.748 27.3354C160.071 28.1615 160.497 28.8391 161.026 29.3683C162.155 30.4848 163.459 31.043 164.937 31.043C166.737 31.043 168.377 30.2718 169.854 28.7294C170.029 28.5552 170.138 28.468 170.184 28.468C170.229 28.468 170.368 28.5713 170.6 28.7778C170.839 28.9779 170.958 29.1037 170.958 29.1553C170.958 29.207 170.852 29.3683 170.639 29.6394C170.432 29.9039 170.116 30.2299 169.69 30.6171C169.27 30.9978 168.79 31.3689 168.248 31.7303C166.944 32.5951 165.605 33.0275 164.23 33.0275C162.862 33.0275 161.688 32.8274 160.707 32.4273C159.726 32.0336 158.912 31.4818 158.267 30.7719C157.628 30.0556 157.138 29.207 156.796 28.226C156.46 27.2386 156.292 26.1544 156.292 24.9734C156.292 23.7925 156.492 22.6824 156.893 21.6434C157.293 20.6044 157.844 19.7074 158.548 18.9523C160.077 17.3131 162.046 16.4935 164.453 16.4935C166.408 16.4935 167.918 17.1453 168.983 18.4489C169.984 19.6751 170.484 21.1626 170.484 22.9115C170.484 23.3117 169.732 23.5117 168.228 23.5117ZM166.621 22.2242C167.215 22.2242 167.512 22.1758 167.512 22.079C167.512 20.1817 166.925 18.8652 165.75 18.1295C165.182 17.7745 164.592 17.5971 163.979 17.5971C163.372 17.5971 162.788 17.7455 162.226 18.0424C161.671 18.3392 161.2 18.7167 160.813 19.175C159.987 20.1623 159.535 21.1723 159.458 22.2049C159.458 22.334 159.577 22.3985 159.816 22.3985L166.621 22.2242Z" fill="#142D6F"/>
<path d="M180.746 16.3677C181.61 16.3677 182.456 16.5451 183.282 16.9001C184.114 17.2486 184.798 17.7294 185.334 18.3424C185.87 18.9555 186.137 19.6073 186.137 20.2979C186.137 20.6528 185.947 20.9787 185.566 21.2756C185.186 21.5724 184.798 21.7209 184.405 21.7209C184.017 21.7209 183.779 21.5918 183.688 21.3337C183.598 21.0755 183.511 20.8109 183.427 20.5399C183.343 20.2624 183.275 20.043 183.224 19.8816C183.179 19.7138 183.111 19.517 183.02 19.2911C182.93 19.0652 182.84 18.8878 182.749 18.7587C182.665 18.6232 182.549 18.478 182.401 18.3231C182.259 18.1682 182.104 18.0488 181.936 17.9649C181.53 17.7778 181.03 17.6842 180.436 17.6842C179.849 17.6842 179.271 17.8165 178.703 18.0811C178.142 18.3392 177.654 18.6877 177.241 19.1265C176.835 19.5654 176.48 20.0688 176.176 20.6367C175.576 21.7596 175.276 22.818 175.276 23.8118C175.276 24.8057 175.354 25.6188 175.509 26.2512C175.663 26.8772 175.902 27.471 176.225 28.0324C176.554 28.5874 176.951 29.0714 177.416 29.4845C178.422 30.388 179.703 30.8397 181.259 30.8397C182.73 30.8397 184.23 30.4848 185.76 29.7749C185.934 29.6974 186.066 29.6587 186.157 29.6587C186.357 29.6587 186.457 29.8039 186.457 30.0943C186.457 30.2815 186.173 30.5751 185.605 30.9752C185.044 31.3689 184.518 31.6884 184.027 31.9336C182.853 32.5273 181.536 32.8242 180.078 32.8242C177.735 32.8242 175.88 32.1433 174.511 30.7816C173.143 29.4135 172.459 27.471 172.459 24.9541C172.459 22.4372 173.295 20.3785 174.966 18.7781C176.644 17.1711 178.571 16.3677 180.746 16.3677Z" fill="#142D6F"/>
<path d="M189.594 7.2101L187.251 7.49083C187.097 7.49083 187.019 7.31336 187.019 6.95841C187.019 6.59701 187.032 6.37759 187.058 6.30015C187.09 6.21626 187.406 6.13236 188.007 6.04846C188.613 5.95811 189.578 5.83227 190.901 5.67093C192.23 5.50959 192.969 5.42892 193.118 5.42892C193.266 5.42892 193.357 5.46442 193.389 5.53541C193.421 5.6064 193.437 5.70965 193.437 5.84518C193.437 5.97425 193.411 6.69059 193.36 7.9942C193.198 12.0793 193.118 14.8672 193.118 16.358C193.118 17.8487 193.124 18.6038 193.137 18.6232C193.15 18.6361 193.376 18.5231 193.815 18.2844C194.254 18.0456 194.983 17.7616 196.002 17.4325C197.029 17.0969 197.897 16.9291 198.606 16.9291C199.316 16.9291 199.923 17.0098 200.426 17.1711C200.936 17.3325 201.365 17.5454 201.714 17.81C202.062 18.0746 202.362 18.4167 202.614 18.8361C202.872 19.2556 203.076 19.6848 203.224 20.1236C203.372 20.5625 203.492 21.082 203.582 21.6821C203.718 22.6308 203.785 23.7957 203.785 25.1767V28.5455C203.785 30.3137 203.827 31.1979 203.911 31.1979H205.257C205.496 31.1979 205.647 31.2463 205.712 31.3431C205.776 31.4399 205.809 31.6045 205.809 31.8368C205.809 32.2821 205.625 32.5047 205.257 32.5047L202.324 32.4273L198.829 32.5047C198.577 32.5047 198.423 32.4563 198.364 32.3595C198.306 32.2692 198.277 32.1046 198.277 31.8658C198.277 31.6206 198.306 31.4496 198.364 31.3528C198.423 31.2495 198.552 31.1979 198.752 31.1979H200.659C200.788 31.1979 200.852 29.8394 200.852 27.1225C200.852 24.3991 200.807 22.7857 200.717 22.2823C200.626 21.7725 200.484 21.3046 200.291 20.8787C200.097 20.4463 199.858 20.0752 199.575 19.7654C198.968 19.1136 198.11 18.7877 197 18.7877C195.896 18.7877 194.789 19.0652 193.679 19.6202C193.305 19.8074 193.118 19.9655 193.118 20.0946C193.15 24.9089 193.166 27.9647 193.166 29.2618C193.166 30.5525 193.218 31.1979 193.321 31.1979H195.141C195.373 31.1979 195.518 31.2463 195.577 31.3431C195.635 31.4334 195.664 31.569 195.664 31.7497C195.664 31.9239 195.66 32.0401 195.654 32.0982C195.648 32.1562 195.628 32.2208 195.596 32.2918C195.538 32.4337 195.386 32.5047 195.141 32.5047L191.733 32.4273L188.249 32.5047C187.907 32.5047 187.723 32.3821 187.697 32.1369C187.69 32.0723 187.687 31.9723 187.687 31.8368C187.687 31.4108 187.887 31.1979 188.287 31.1979H189.991C190.094 31.1979 190.146 29.3167 190.146 25.5543C190.146 17.7326 190.088 12.744 189.972 10.5885C189.855 8.43304 189.785 7.33272 189.759 7.28754C189.733 7.23591 189.678 7.2101 189.594 7.2101Z" fill="#142D6F"/>
</svg>
