<svg width="303" height="38" viewBox="0 0 303 38" fill="none" xmlns="http://www.w3.org/2000/svg">
<path d="M0.444159 0.000865936C5.48306 0.000865936 10.3156 2.00256 13.8786 5.56561C17.4417 9.12864 19.4434 13.9612 19.4434 19.0001C19.4434 24.039 17.4417 28.8715 13.8786 32.4345C10.3156 35.9976 5.48306 37.9993 0.44416 37.9993L0.444159 0.000865936Z" fill="#142D6F" fill-opacity="0.2"/>
<path d="M38.1334 14.5836C35.0347 12.8984 31.3935 12.5132 28.0109 13.5127C24.6282 14.5122 21.7812 16.8145 20.096 19.9132C18.4109 23.0118 18.0257 26.653 19.0252 30.0357C20.0247 33.4183 22.327 36.2654 25.4257 37.9505L38.1334 14.5836Z" fill="#142D6F"/>
<path d="M51.4165 12.0564L55.7145 22.6467C55.9082 23.1113 56.0824 23.3501 56.2373 23.363C56.3793 23.3759 56.5341 23.1952 56.7019 22.8209L61.0581 13.1406C62.4908 9.9655 63.2071 7.67449 63.2071 6.26762C63.2071 5.46739 62.9231 4.81558 62.3552 4.3122C61.8002 3.79592 61 3.46034 59.9545 3.30545C59.5028 3.25382 59.2769 3.07958 59.2769 2.78272C59.2769 2.48585 59.4382 2.33742 59.7609 2.33742C59.9287 2.33742 60.2901 2.35033 60.8451 2.37614L62.878 2.49231C63.7944 2.54394 64.4462 2.56975 64.8334 2.56975C66.0079 2.56975 67.0276 2.49231 67.8924 2.33742C68.2279 2.28579 68.4861 2.25998 68.6668 2.25998C68.8991 2.25998 69.0153 2.42132 69.0153 2.744C69.0153 3.04086 68.8217 3.22801 68.4345 3.30545C67.6859 3.44743 67.0728 3.83464 66.5952 4.46709C66.1306 5.08663 65.4594 6.38379 64.5817 8.35857L61.697 15.038L58.3863 22.3369C57.315 24.7247 56.7342 26.0025 56.6439 26.1703C55.9469 27.603 55.5532 28.4291 55.4629 28.6485C55.2176 29.2293 54.9143 29.5197 54.5529 29.5197C54.3077 29.5197 54.1141 29.3648 53.9721 29.055L53.5268 28.0677L53.0428 26.8867L48.4543 16.4707C47.3314 13.9151 46.3956 11.6241 45.647 9.59765C44.7564 7.22275 44.0466 5.65454 43.5174 4.89302C43.0011 4.1315 42.2912 3.65394 41.3877 3.46034C40.8714 3.35708 40.6133 3.14411 40.6133 2.82144C40.6133 2.47295 40.794 2.2987 41.1554 2.2987C41.2586 2.2987 41.4522 2.31161 41.7362 2.33742C42.3945 2.41487 43.1624 2.45359 44.0401 2.45359L47.2927 2.55039L49.3256 2.45359C50.1903 2.40196 50.7518 2.37614 51.0099 2.37614C51.3713 2.37614 51.552 2.55039 51.552 2.89888C51.552 3.19574 51.281 3.3958 50.7389 3.49906C49.7838 3.66685 49.3062 4.22185 49.3062 5.16407C49.3062 6.32571 50.0096 8.62316 51.4165 12.0564Z" fill="#142D6F"/>
<path d="M73.2367 12.5985C75.2373 12.5985 76.9604 13.3859 78.4059 14.9605C79.6192 16.29 80.2258 17.6194 80.2258 18.9488C80.2258 19.4522 79.8773 19.7039 79.1804 19.7039L78.2898 19.6652H77.8445L73.0043 19.7426L71.0876 19.762L70.4294 19.7426C70.0551 19.7426 69.8163 19.7878 69.713 19.8781C69.5711 20.0072 69.5001 20.246 69.5001 20.5945C69.5001 22.2982 70.0551 23.8083 71.1651 25.1248C72.288 26.4285 73.5787 27.0803 75.0372 27.0803C76.6764 27.0803 77.9865 26.6092 78.9674 25.6669L79.5869 25.0668C79.6902 24.9635 79.7999 24.9119 79.9161 24.9119C80.2 24.9119 80.342 25.0474 80.342 25.3185C80.342 25.6928 79.8451 26.3188 78.8512 27.1964C77.0959 28.7453 75.2114 29.5197 73.1979 29.5197C70.965 29.5197 69.1451 28.7517 67.7383 27.2158C66.3314 25.6799 65.6279 23.6986 65.6279 21.2721C65.6279 18.923 66.3766 16.8901 67.8738 15.1735C69.3839 13.4569 71.1715 12.5985 73.2367 12.5985ZM72.6946 13.5666C71.8169 13.5666 71.0489 13.999 70.3907 14.8637C69.7324 15.7285 69.4033 16.7482 69.4033 17.9227C69.4033 18.297 69.4936 18.5229 69.6743 18.6003C69.8679 18.6778 70.3777 18.7165 71.2038 18.7165C71.6297 18.7165 72.0815 18.7036 72.559 18.6778C73.7207 18.6261 74.3918 18.6003 74.5725 18.6003C75.7084 18.6003 76.2763 18.2518 76.2763 17.5549C76.2763 16.5094 75.9084 15.5865 75.1727 14.7863C74.4499 13.9731 73.6239 13.5666 72.6946 13.5666Z" fill="#142D6F"/>
<path d="M99.5872 20.8268V24.757C99.5872 25.596 99.6324 26.1703 99.7227 26.4801C99.8131 26.777 100.02 27.0609 100.342 27.332C100.807 27.7063 101.401 27.9321 102.123 28.0096C102.524 28.0612 102.724 28.2161 102.724 28.4742C102.724 28.8614 102.265 29.055 101.349 29.055C101.155 29.055 100.878 29.0292 100.517 28.9776L99.2581 28.8227C98.6902 28.7582 98.2449 28.7259 97.9222 28.7259C96.696 28.7259 95.7151 28.7969 94.9794 28.9389C94.6825 28.9905 94.4244 29.0163 94.205 29.0163C93.921 29.0163 93.779 28.8743 93.779 28.5904C93.779 28.3839 93.9275 28.2225 94.2243 28.1064C94.7922 27.9128 95.173 27.6095 95.3666 27.1964C95.5602 26.7834 95.657 26.0864 95.657 25.1055V20.5364C95.657 18.781 95.3021 17.3935 94.5922 16.3739C93.8952 15.3413 92.9401 14.825 91.7268 14.825C90.6426 14.825 89.7649 15.1219 89.0938 15.7156C88.4355 16.3093 88.1064 17.0837 88.1064 18.0389V24.5053C88.1064 25.6928 88.3258 26.564 88.7646 27.119C89.2164 27.6611 89.9715 27.9773 91.0298 28.0677C91.3912 28.1064 91.5719 28.2548 91.5719 28.513C91.5719 28.8743 91.3461 29.055 90.8943 29.055C90.4684 29.055 89.9585 29.0228 89.3648 28.9582C87.9063 28.7775 86.8996 28.6872 86.3446 28.6872C85.596 28.6872 84.7312 28.7517 83.7502 28.8808C83.2856 28.9453 82.9694 28.9776 82.8016 28.9776C82.4789 28.9776 82.3176 28.8421 82.3176 28.571C82.3176 28.3903 82.4273 28.2548 82.6467 28.1645C83.305 27.9192 83.7244 27.6546 83.9051 27.3707C84.0858 27.0738 84.1762 26.5382 84.1762 25.7637L84.1955 25.1248V18.3099L84.1762 17.5549C84.1762 16.6255 84.0794 15.9866 83.8858 15.6382C83.7051 15.2768 83.363 15.0961 82.8597 15.0961H81.9691C81.84 15.0961 81.7432 15.0573 81.6787 14.9799C81.6141 14.9154 81.5819 14.8186 81.5819 14.6895C81.5819 14.4443 81.6787 14.2765 81.8723 14.1861C82.0659 14.0829 82.6338 13.9151 83.576 13.6827C85.1894 13.3084 86.5382 12.747 87.6224 11.9984C87.7127 11.9209 87.7966 11.8822 87.8741 11.8822C88.0289 11.8693 88.1064 11.9919 88.1064 12.25L88.0483 13.2181L88.0289 14.3216L88.1451 15.0573C88.1967 15.2122 88.2806 15.2961 88.3968 15.309C88.5 15.3219 88.7066 15.1477 89.0163 14.7863C90.2038 13.3407 91.772 12.6179 93.721 12.6179C95.8248 12.6179 97.3285 13.2568 98.232 14.5346C99.1355 15.7995 99.5872 17.8969 99.5872 20.8268Z" fill="#142D6F"/>
<path d="M109.443 15.038V24.4859C109.443 25.6347 109.61 26.4349 109.946 26.8867C110.294 27.3384 110.901 27.5643 111.766 27.5643C112.101 27.5643 112.547 27.4804 113.102 27.3126C113.67 27.1448 114.063 26.977 114.283 26.8092C114.425 26.706 114.528 26.6543 114.592 26.6543C114.747 26.6543 114.844 26.7834 114.883 27.0415L114.922 27.2352L114.689 27.5643C113.269 28.8679 111.624 29.5197 109.752 29.5197C108.307 29.5197 107.242 29.1906 106.558 28.5323C105.887 27.8741 105.551 26.8544 105.551 25.4733V15.038H104.37C103.751 15.038 103.441 14.8702 103.441 14.5346C103.441 14.3281 103.602 14.1151 103.925 13.8957C104.48 13.5214 105.274 12.8051 106.306 11.7467C107.339 10.6883 108.029 9.8816 108.378 9.3266C108.778 8.69415 109.075 8.38438 109.268 8.39729C109.372 8.4102 109.43 8.507 109.443 8.6877V13.1794H112.25C112.753 13.1794 113.121 13.0955 113.353 12.9277L113.857 12.5985C113.96 12.5211 114.076 12.4759 114.205 12.463C114.425 12.4501 114.528 12.5534 114.515 12.7728C114.502 12.8889 114.457 13.0309 114.379 13.1987C114.302 13.3536 114.225 13.6376 114.147 14.0506C114.005 14.7088 113.65 15.038 113.082 15.038H109.443Z" fill="#142D6F"/>
<path d="M132.579 12.8502V24.8538C132.579 26.0929 132.682 26.8608 132.889 27.1577C133.096 27.4417 133.651 27.5836 134.554 27.5836L134.999 27.5643C135.154 27.5643 135.27 27.5772 135.348 27.603C135.567 27.6804 135.677 27.8224 135.677 28.0289C135.677 28.4807 135.238 28.7066 134.36 28.7066H133.431C132.902 28.7066 132.489 28.7195 132.192 28.7453C131.405 28.7969 130.488 28.9518 129.443 29.2099C129.314 29.2487 129.198 29.268 129.094 29.268C128.81 29.268 128.668 29.0292 128.668 28.5517C128.668 28.2935 128.681 28.0741 128.707 27.8934C128.733 27.6353 128.746 27.4417 128.746 27.3126C128.746 26.9254 128.662 26.7253 128.494 26.7124C128.43 26.7124 128.326 26.7899 128.184 26.9447L127.487 27.6611C126.3 28.9002 124.874 29.5197 123.209 29.5197C121.298 29.5197 119.859 28.9905 118.891 27.9321C117.923 26.8738 117.439 25.3055 117.439 23.2275C117.439 20.4783 117.491 18.097 117.594 16.0834C117.607 15.7221 117.613 15.4123 117.613 15.1541C117.613 14.2765 117.233 13.8054 116.471 13.7408L115.697 13.6827C115.335 13.6569 115.168 13.4827 115.193 13.16C115.206 12.9148 115.4 12.7534 115.774 12.676C116.161 12.5856 116.897 12.5405 117.981 12.5405C118.988 12.5405 119.885 12.4114 120.672 12.1532C121.021 12.05 121.292 11.9984 121.486 11.9984C121.705 11.9984 121.815 12.1468 121.815 12.4437C121.815 12.7921 121.802 13.1471 121.776 13.5085C121.66 14.8766 121.602 17.2709 121.602 20.6913C121.602 23.3243 121.841 25.0861 122.318 25.9767C122.796 26.8544 123.751 27.2932 125.183 27.2932C126.306 27.2932 127.171 26.9577 127.778 26.2865C128.384 25.6153 128.688 24.6537 128.688 23.4018V16.1803C128.688 15.0832 128.584 14.412 128.378 14.1667C128.184 13.9086 127.623 13.7215 126.694 13.6053C126.293 13.5666 126.093 13.4117 126.093 13.1406C126.093 12.7405 126.481 12.5405 127.255 12.5405C129.501 12.5405 131.056 12.3856 131.921 12.0758C132.089 12.0113 132.224 11.979 132.328 11.979C132.508 11.9661 132.599 12.0952 132.599 12.3662L132.579 12.8502Z" fill="#142D6F"/>
<path d="M142.783 19.2586V24.6989C142.783 26.7382 143.738 27.887 145.648 28.1451C146.049 28.1967 146.249 28.3516 146.249 28.6098C146.249 28.9324 146.1 29.0938 145.803 29.0938C145.661 29.0938 145.481 29.0744 145.261 29.0357C143.97 28.8421 142.641 28.7453 141.273 28.7453C140.55 28.7453 139.898 28.7711 139.317 28.8227L138.117 28.9389C137.898 28.9647 137.672 28.9776 137.439 28.9776C137.078 28.9776 136.897 28.8098 136.897 28.4742C136.897 28.2419 137.059 28.087 137.381 28.0096C138.401 27.7643 138.911 26.8028 138.911 25.1248L138.892 24.3117V17.3806C138.892 16.4513 138.769 15.8382 138.524 15.5414C138.291 15.2316 137.782 15.0444 136.994 14.9799C136.697 14.9541 136.549 14.8186 136.549 14.5733C136.549 14.2894 136.723 14.1216 137.072 14.0699C138.84 13.7989 140.35 13.302 141.602 12.5792L142.357 12.1339C142.46 12.0694 142.557 12.0371 142.648 12.0371C142.841 12.0371 142.938 12.1791 142.938 12.463C142.938 12.5534 142.931 12.7405 142.919 13.0245L142.86 14.1087L142.783 15.309L142.802 15.522C142.854 15.7027 142.951 15.7995 143.093 15.8124C143.222 15.8253 143.506 15.5155 143.945 14.8831C144.293 14.3926 144.829 13.8699 145.552 13.3149C146.287 12.747 146.791 12.463 147.062 12.463C147.501 12.463 148.152 12.7986 149.017 13.4698C149.895 14.1409 150.34 14.6443 150.353 14.9799C150.353 15.0961 150.147 15.5478 149.733 16.3351C149.204 17.329 148.74 17.8259 148.34 17.8259C148.172 17.8259 148.017 17.7614 147.875 17.6323L147.333 17.1483C146.675 16.5416 145.919 16.2383 145.068 16.2383C143.545 16.2383 142.783 17.2451 142.783 19.2586Z" fill="#142D6F"/>
<path d="M158.175 12.5985C160.176 12.5985 161.899 13.3859 163.345 14.9605C164.558 16.29 165.165 17.6194 165.165 18.9488C165.165 19.4522 164.816 19.7039 164.119 19.7039L163.229 19.6652H162.783L157.943 19.7426L156.026 19.762L155.368 19.7426C154.994 19.7426 154.755 19.7878 154.652 19.8781C154.51 20.0072 154.439 20.246 154.439 20.5945C154.439 22.2982 154.994 23.8083 156.104 25.1248C157.227 26.4285 158.518 27.0803 159.976 27.0803C161.615 27.0803 162.925 26.6092 163.906 25.6669L164.526 25.0668C164.629 24.9635 164.739 24.9119 164.855 24.9119C165.139 24.9119 165.281 25.0474 165.281 25.3185C165.281 25.6928 164.784 26.3188 163.79 27.1964C162.035 28.7453 160.15 29.5197 158.137 29.5197C155.904 29.5197 154.084 28.7517 152.677 27.2158C151.27 25.6799 150.567 23.6986 150.567 21.2721C150.567 18.923 151.315 16.8901 152.813 15.1735C154.323 13.4569 156.11 12.5985 158.175 12.5985ZM157.633 13.5666C156.756 13.5666 155.988 13.999 155.329 14.8637C154.671 15.7285 154.342 16.7482 154.342 17.9227C154.342 18.297 154.432 18.5229 154.613 18.6003C154.807 18.6778 155.317 18.7165 156.143 18.7165C156.569 18.7165 157.02 18.7036 157.498 18.6778C158.66 18.6261 159.331 18.6003 159.511 18.6003C160.647 18.6003 161.215 18.2518 161.215 17.5549C161.215 16.5094 160.847 15.5865 160.112 14.7863C159.389 13.9731 158.563 13.5666 157.633 13.5666Z" fill="#142D6F"/>
<path d="M183.365 2.04701C184.578 2.04701 185.766 2.27934 186.928 2.744L188.225 3.28609C188.805 3.51842 189.219 3.63458 189.464 3.63458C189.644 3.63458 189.832 3.58941 190.025 3.49906L190.761 3.13121C190.864 3.07958 190.967 3.05376 191.071 3.05376C191.342 3.05376 191.477 3.26673 191.477 3.69266L191.439 5.26087C191.439 5.50611 191.451 5.73843 191.477 5.95785L191.729 7.85519L191.923 9.61701C191.948 9.77189 191.961 9.90096 191.961 10.0042C191.961 10.5592 191.8 10.8367 191.477 10.8367C191.245 10.8367 191.077 10.5915 190.974 10.101C190.6 8.29403 189.657 6.73228 188.147 5.41576C186.637 4.09924 185.037 3.44098 183.346 3.44098C182.184 3.44098 181.171 3.83464 180.306 4.62197C179.441 5.4093 179.009 6.33861 179.009 7.4099C179.009 8.40374 179.39 9.26206 180.151 9.98486C180.642 10.4495 182.171 11.2046 184.74 12.25C187.799 13.502 189.825 14.7282 190.819 15.9286C191.994 17.3742 192.581 19.1166 192.581 21.1559C192.581 23.4018 191.768 25.3572 190.141 27.0222C188.515 28.6872 186.611 29.5197 184.43 29.5197C183.539 29.5197 182.126 29.2164 180.19 28.6098C179.287 28.3129 178.622 28.1193 178.196 28.0289C177.602 27.9128 177.254 27.8031 177.15 27.6998C177.06 27.5836 176.983 27.2481 176.918 26.6931C176.854 26.0864 176.66 25.2087 176.337 24.06C175.847 22.3047 175.602 21.1817 175.602 20.6913C175.602 20.0717 175.802 19.762 176.202 19.762C176.382 19.762 176.512 19.9168 176.589 20.2266C177.221 22.4466 178.319 24.3117 179.88 25.8218C181.442 27.332 183.062 28.087 184.74 28.087C186.043 28.087 187.205 27.5901 188.225 26.5963C189.257 25.5895 189.774 24.4408 189.774 23.1501C189.774 22.1304 189.502 21.2914 188.96 20.6332C188.431 19.9749 187.508 19.3554 186.192 18.7746L183.249 17.458C180.474 16.219 178.59 15.0509 177.596 13.9538C176.602 12.8438 176.105 11.3724 176.105 9.53957C176.105 7.4099 176.795 5.62872 178.177 4.19604C179.57 2.76336 181.3 2.04701 183.365 2.04701Z" fill="#142D6F"/>
<path d="M211.71 12.8502V24.8538C211.71 26.0929 211.813 26.8608 212.02 27.1577C212.226 27.4417 212.781 27.5836 213.685 27.5836L214.13 27.5643C214.285 27.5643 214.401 27.5772 214.478 27.603C214.698 27.6804 214.808 27.8224 214.808 28.0289C214.808 28.4807 214.369 28.7066 213.491 28.7066H212.562C212.033 28.7066 211.62 28.7195 211.323 28.7453C210.535 28.7969 209.619 28.9518 208.573 29.2099C208.444 29.2487 208.328 29.268 208.225 29.268C207.941 29.268 207.799 29.0292 207.799 28.5517C207.799 28.2935 207.812 28.0741 207.838 27.8934C207.864 27.6353 207.876 27.4417 207.876 27.3126C207.876 26.9254 207.793 26.7253 207.625 26.7124C207.56 26.7124 207.457 26.7899 207.315 26.9447L206.618 27.6611C205.431 28.9002 204.004 29.5197 202.339 29.5197C200.429 29.5197 198.99 28.9905 198.022 27.9321C197.054 26.8738 196.57 25.3055 196.57 23.2275C196.57 20.4783 196.622 18.097 196.725 16.0834C196.738 15.7221 196.744 15.4123 196.744 15.1541C196.744 14.2765 196.363 13.8054 195.602 13.7408L194.827 13.6827C194.466 13.6569 194.298 13.4827 194.324 13.16C194.337 12.9148 194.531 12.7534 194.905 12.676C195.292 12.5856 196.028 12.5405 197.112 12.5405C198.119 12.5405 199.016 12.4114 199.803 12.1532C200.152 12.05 200.423 11.9984 200.616 11.9984C200.836 11.9984 200.945 12.1468 200.945 12.4437C200.945 12.7921 200.932 13.1471 200.907 13.5085C200.79 14.8766 200.732 17.2709 200.732 20.6913C200.732 23.3243 200.971 25.0861 201.449 25.9767C201.926 26.8544 202.881 27.2932 204.314 27.2932C205.437 27.2932 206.302 26.9577 206.908 26.2865C207.515 25.6153 207.818 24.6537 207.818 23.4018V16.1803C207.818 15.0832 207.715 14.412 207.509 14.1667C207.315 13.9086 206.754 13.7215 205.824 13.6053C205.424 13.5666 205.224 13.4117 205.224 13.1406C205.224 12.7405 205.611 12.5405 206.386 12.5405C208.632 12.5405 210.187 12.3856 211.052 12.0758C211.219 12.0113 211.355 11.979 211.458 11.979C211.639 11.9661 211.729 12.0952 211.729 12.3662L211.71 12.8502Z" fill="#142D6F"/>
<path d="M217.751 31.2428V18.0001L217.79 17.187L217.693 16.3351C217.499 15.5994 216.983 15.2122 216.144 15.1735C216.002 15.1735 215.867 15.18 215.738 15.1929L215.563 15.2122C215.305 15.1993 215.176 15.0509 215.176 14.7669C215.176 14.4959 215.305 14.3345 215.563 14.2829L216.473 14.1474C218.125 13.8763 219.371 13.4375 220.21 12.8309C220.842 12.3791 221.217 12.1532 221.333 12.1532C221.514 12.1532 221.617 12.2952 221.643 12.5792L221.662 13.1406V14.6895C221.739 14.9605 221.868 15.1025 222.049 15.1154C222.114 15.1154 222.223 15.0573 222.378 14.9412C223.643 13.9602 224.579 13.3278 225.186 13.0438C225.805 12.7599 226.56 12.6179 227.451 12.6179C229.4 12.6179 230.987 13.2955 232.214 14.6508C233.453 15.9931 234.072 17.7291 234.072 19.8588C234.072 22.9436 233.104 25.4217 231.168 27.2932C229.619 28.7905 227.935 29.5391 226.115 29.5391C224.424 29.5391 223.146 29.3326 222.282 28.9195C222.14 28.855 222.023 28.8227 221.933 28.8227C221.739 28.8227 221.643 29.0615 221.643 29.5391V31.2428C221.643 32.3915 221.843 33.1982 222.243 33.6629C222.656 34.1275 223.417 34.4244 224.527 34.5535C225.018 34.6051 225.263 34.7793 225.263 35.0762C225.263 35.4892 225.057 35.6828 224.644 35.657C224.437 35.6441 224.205 35.6054 223.947 35.5408C222.927 35.2956 222.056 35.173 221.333 35.173C220.868 35.173 220.171 35.2053 219.242 35.2698L217.577 35.4053C217.177 35.4311 216.906 35.444 216.764 35.444C216.273 35.444 216.028 35.2633 216.028 34.9019C216.028 34.6696 216.196 34.4954 216.531 34.3792C217.061 34.1856 217.396 33.9081 217.538 33.5467C217.68 33.1853 217.751 32.4173 217.751 31.2428ZM221.643 17.2257V24.757C221.643 25.596 222.165 26.3833 223.211 27.119C224.269 27.8547 225.405 28.2225 226.618 28.2225C227.896 28.2225 228.916 27.7127 229.677 26.6931C230.439 25.6734 230.82 24.3117 230.82 22.608C230.82 20.5299 230.245 18.7746 229.096 17.3419C227.948 15.8963 226.541 15.1735 224.876 15.1735C223.985 15.1735 223.224 15.3736 222.591 15.7737C221.959 16.1738 221.643 16.6578 221.643 17.2257Z" fill="#142D6F"/>
<path d="M237.984 31.2428V18.0001L238.022 17.187L237.926 16.3351C237.732 15.5994 237.216 15.2122 236.377 15.1735C236.235 15.1735 236.099 15.18 235.97 15.1929L235.796 15.2122C235.538 15.1993 235.409 15.0509 235.409 14.7669C235.409 14.4959 235.538 14.3345 235.796 14.2829L236.706 14.1474C238.358 13.8763 239.604 13.4375 240.443 12.8309C241.075 12.3791 241.449 12.1532 241.565 12.1532C241.746 12.1532 241.849 12.2952 241.875 12.5792L241.895 13.1406V14.6895C241.972 14.9605 242.101 15.1025 242.282 15.1154C242.346 15.1154 242.456 15.0573 242.611 14.9412C243.876 13.9602 244.812 13.3278 245.418 13.0438C246.038 12.7599 246.793 12.6179 247.683 12.6179C249.632 12.6179 251.22 13.2955 252.446 14.6508C253.685 15.9931 254.305 17.7291 254.305 19.8588C254.305 22.9436 253.337 25.4217 251.401 27.2932C249.852 28.7905 248.167 29.5391 246.348 29.5391C244.657 29.5391 243.379 29.3326 242.514 28.9195C242.372 28.855 242.256 28.8227 242.166 28.8227C241.972 28.8227 241.875 29.0615 241.875 29.5391V31.2428C241.875 32.3915 242.075 33.1982 242.475 33.6629C242.888 34.1275 243.65 34.4244 244.76 34.5535C245.25 34.6051 245.496 34.7793 245.496 35.0762C245.496 35.4892 245.289 35.6828 244.876 35.657C244.67 35.6441 244.437 35.6054 244.179 35.5408C243.159 35.2956 242.288 35.173 241.565 35.173C241.101 35.173 240.404 35.2053 239.475 35.2698L237.809 35.4053C237.409 35.4311 237.138 35.444 236.996 35.444C236.506 35.444 236.261 35.2633 236.261 34.9019C236.261 34.6696 236.428 34.4954 236.764 34.3792C237.293 34.1856 237.629 33.9081 237.771 33.5467C237.913 33.1853 237.984 32.4173 237.984 31.2428ZM241.875 17.2257V24.757C241.875 25.596 242.398 26.3833 243.443 27.119C244.502 27.8547 245.638 28.2225 246.851 28.2225C248.129 28.2225 249.148 27.7127 249.91 26.6931C250.671 25.6734 251.052 24.3117 251.052 22.608C251.052 20.5299 250.478 18.7746 249.329 17.3419C248.18 15.8963 246.773 15.1735 245.108 15.1735C244.218 15.1735 243.456 15.3736 242.824 15.7737C242.191 16.1738 241.875 16.6578 241.875 17.2257Z" fill="#142D6F"/>
<path d="M262.05 6.59675V23.7115L262.069 24.3504C262.069 25.6282 262.25 26.5188 262.611 27.0222C262.973 27.5127 263.682 27.8482 264.741 28.0289C265.076 28.0806 265.27 28.1322 265.322 28.1838C265.386 28.2354 265.418 28.3581 265.418 28.5517C265.418 28.8614 265.289 29.0163 265.031 29.0163C264.889 29.0163 264.663 28.997 264.354 28.9582C263.321 28.8163 262.05 28.7453 260.54 28.7453C258.862 28.7453 257.681 28.8098 256.997 28.9389C256.79 28.9776 256.642 28.997 256.551 28.997C256.28 28.997 256.145 28.8356 256.145 28.513C256.145 28.3452 256.306 28.1967 256.629 28.0677C257.61 27.6675 258.1 26.8221 258.1 25.5314L258.139 24.4085L258.158 23.8858V8.26177C258.158 6.59675 258.016 5.46093 257.732 4.8543C257.461 4.24767 256.951 3.94435 256.203 3.94435C255.829 3.94435 255.641 3.77656 255.641 3.44098C255.641 3.24737 255.712 3.1183 255.854 3.05376C255.996 2.97632 256.384 2.87307 257.016 2.744C258.655 2.3955 259.972 1.9244 260.966 1.33067L261.624 0.94346C261.74 0.878924 261.856 0.840203 261.972 0.827296C262.166 0.814389 262.263 0.94346 262.263 1.21451C262.263 1.35649 262.25 1.67916 262.224 2.18254C262.108 3.92499 262.05 5.3964 262.05 6.59675Z" fill="#142D6F"/>
<path d="M270.143 2.89888C270.414 2.89888 270.898 3.33772 271.595 4.2154L272.408 5.26087C272.602 5.50611 272.705 5.73198 272.718 5.93849C272.731 6.24826 272.376 6.83554 271.653 7.70031C270.931 8.56508 270.434 8.99747 270.163 8.99747C269.982 8.99747 269.808 8.92003 269.64 8.76514L268.73 7.66159L267.878 6.69356C267.659 6.42251 267.549 6.20309 267.549 6.0353C267.549 5.77716 267.93 5.18988 268.691 4.27348C269.453 3.35708 269.937 2.89888 270.143 2.89888ZM272.234 13.4698V24.4472C272.234 25.7637 272.428 26.6801 272.815 27.1964C273.215 27.7127 273.951 28.0031 275.022 28.0677C275.448 28.0935 275.661 28.2419 275.661 28.513C275.661 28.8485 275.151 29.0163 274.132 29.0163C274.002 29.0163 273.725 28.997 273.299 28.9582L271.847 28.8034C271.047 28.7259 270.518 28.6872 270.259 28.6872C269.575 28.6872 268.652 28.7775 267.491 28.9582C267.207 29.0099 266.987 29.0357 266.833 29.0357C266.562 29.0357 266.426 28.9131 266.426 28.6678C266.426 28.5 266.51 28.371 266.678 28.2806L267.336 27.9515C267.62 27.8095 267.859 27.4739 268.052 26.9447C268.259 26.4156 268.362 25.8605 268.362 25.2797L268.343 24.4666V17.9033C268.343 16.8966 268.233 16.1996 268.014 15.8124C267.807 15.4252 267.426 15.2316 266.871 15.2316H266.426C266.181 15.2316 266.013 15.18 265.923 15.0767C265.884 15.0251 265.865 14.9347 265.865 14.8056C265.865 14.483 266.258 14.2377 267.046 14.0699C269.007 13.6569 270.55 13.0309 271.673 12.192C271.815 12.1016 271.924 12.0564 272.002 12.0564C272.183 12.0694 272.273 12.192 272.273 12.4243L272.254 12.5985C272.241 12.7147 272.234 13.0051 272.234 13.4698Z" fill="#142D6F"/>
<path d="M283.677 12.5985C285.678 12.5985 287.401 13.3859 288.846 14.9605C290.06 16.29 290.666 17.6194 290.666 18.9488C290.666 19.4522 290.318 19.7039 289.621 19.7039L288.73 19.6652H288.285L283.445 19.7426L281.528 19.762L280.87 19.7426C280.495 19.7426 280.257 19.7878 280.153 19.8781C280.011 20.0072 279.94 20.246 279.94 20.5945C279.94 22.2982 280.495 23.8083 281.605 25.1248C282.728 26.4285 284.019 27.0803 285.478 27.0803C287.117 27.0803 288.427 26.6092 289.408 25.6669L290.027 25.0668C290.131 24.9635 290.24 24.9119 290.356 24.9119C290.64 24.9119 290.782 25.0474 290.782 25.3185C290.782 25.6928 290.285 26.3188 289.292 27.1964C287.536 28.7453 285.652 29.5197 283.638 29.5197C281.405 29.5197 279.586 28.7517 278.179 27.2158C276.772 25.6799 276.068 23.6986 276.068 21.2721C276.068 18.923 276.817 16.8901 278.314 15.1735C279.824 13.4569 281.612 12.5985 283.677 12.5985ZM283.135 13.5666C282.257 13.5666 281.489 13.999 280.831 14.8637C280.173 15.7285 279.844 16.7482 279.844 17.9227C279.844 18.297 279.934 18.5229 280.115 18.6003C280.308 18.6778 280.818 18.7165 281.644 18.7165C282.07 18.7165 282.522 18.7036 282.999 18.6778C284.161 18.6261 284.832 18.6003 285.013 18.6003C286.149 18.6003 286.717 18.2518 286.717 17.5549C286.717 16.5094 286.349 15.5865 285.613 14.7863C284.89 13.9731 284.064 13.5666 283.135 13.5666Z" fill="#142D6F"/>
<path d="M298.334 12.6179C299.212 12.6179 300.173 12.7663 301.219 13.0632C301.748 13.2181 302.032 13.4698 302.07 13.8183L302.109 14.6701L302.206 15.8898L302.245 16.5481C302.27 16.6385 302.283 16.7159 302.283 16.7804C302.283 17.0257 302.148 17.1483 301.877 17.1483C301.67 17.1483 301.335 16.7223 300.87 15.8705C299.954 14.2184 298.798 13.3923 297.405 13.3923C296.708 13.3923 296.107 13.6117 295.604 14.0506C295.101 14.4894 294.849 15.0057 294.849 15.5994C294.849 16.6836 295.604 17.5419 297.114 18.1744L298.45 18.7165C299.586 19.1941 300.36 19.5684 300.773 19.8394C301.186 20.0975 301.58 20.4718 301.954 20.9623C302.587 21.8013 302.903 22.8338 302.903 24.06C302.903 25.583 302.393 26.8738 301.373 27.9321C300.354 28.9905 299.108 29.5197 297.637 29.5197C296.837 29.5197 295.862 29.3842 294.713 29.1131L293.378 28.784L292.506 28.6485C292.222 28.5968 292.08 28.4161 292.08 28.1064C292.08 28.0031 292.087 27.8418 292.1 27.6224C292.126 27.4029 292.138 27.1513 292.138 26.8673L292.08 24.757L292.061 23.8083C292.061 23.5115 292.087 23.3308 292.138 23.2662C292.203 23.1888 292.358 23.1501 292.603 23.1501C292.81 23.1501 292.952 23.3243 293.029 23.6728C293.184 24.4859 293.61 25.4604 294.307 26.5963C295.146 27.9386 296.249 28.6098 297.617 28.6098C298.392 28.6098 299.037 28.371 299.554 27.8934C300.07 27.4029 300.328 26.7899 300.328 26.0542C300.328 25.241 300.076 24.5957 299.573 24.1181C299.082 23.6405 298.14 23.1243 296.746 22.5692C295.081 21.9239 293.926 21.2398 293.281 20.517C292.635 19.7813 292.313 18.7939 292.313 17.5549C292.313 16.0447 292.855 14.8444 293.939 13.9538C295.023 13.0632 296.488 12.6179 298.334 12.6179Z" fill="#142D6F"/>
</svg>
