<svg width="218" height="38" viewBox="0 0 218 38" fill="none" xmlns="http://www.w3.org/2000/svg">
<path fill-rule="evenodd" clip-rule="evenodd" d="M19.6469 0C20.0575 0 20.3903 0.340249 20.3903 0.759968V8.10789C20.3903 8.94319 21.517 9.16706 21.8232 8.39257L24.5157 1.5797C24.6696 1.19054 25.1029 1.00253 25.4837 1.15976L26.5669 1.60713C26.9475 1.76436 27.1316 2.20729 26.9777 2.59645L24.107 9.8596C23.8035 10.6272 24.7492 11.2671 25.322 10.6817L30.7406 5.14249C31.0311 4.84571 31.5017 4.84571 31.792 5.14249L32.6182 5.98695C32.9085 6.28374 32.9085 6.76491 32.6182 7.0617L27.7521 12.0359C27.1713 12.6297 27.8228 13.6059 28.5755 13.2697L34.8814 10.4533C35.2578 10.2852 35.6961 10.4608 35.8604 10.8454L36.3282 11.9398C36.4925 12.3244 36.3207 12.7724 35.9446 12.9404L28.6781 16.1857C27.9399 16.5154 28.1701 17.6421 28.9757 17.6421H36.9055C37.316 17.6421 37.6489 17.9824 37.6489 18.4021V19.5963C37.6489 20.016 37.316 20.3563 36.9055 20.3563H28.9759C28.1701 20.3563 27.94 21.483 28.6781 21.8126L35.9446 25.058C36.3207 25.226 36.4925 25.674 36.3282 26.0585L35.8604 27.1529C35.6961 27.5376 35.2578 27.7132 34.8814 27.545L28.5755 24.7288C27.8228 24.3925 27.1713 25.3687 27.7521 25.9626L32.6182 30.9366C32.9085 31.2335 32.9085 31.7146 32.6182 32.0114L31.792 32.8559C31.5017 33.1527 31.0311 33.1527 30.7406 32.8559L25.322 27.3167C24.7492 26.7313 23.8035 27.3712 24.107 28.1388L26.9777 35.402C27.1316 35.7911 26.9475 36.2339 26.5669 36.3913L25.4837 36.8387C25.1029 36.9958 24.6696 36.8079 24.5157 36.4186L21.8232 29.6059C21.517 28.8313 20.3903 29.0553 20.3903 29.8905V37.2384C20.3903 37.6581 20.0575 37.9984 19.6469 37.9984H18.4786C18.068 37.9984 17.7351 37.6581 17.7351 37.2384V29.8905C17.7351 29.0553 16.6085 28.8313 16.3024 29.6059L13.6096 36.4186C13.4558 36.8079 13.0225 36.9958 12.6418 36.8387L11.5586 36.3913C11.1779 36.2339 10.994 35.7911 11.1478 35.402L14.0185 28.1388C14.3219 27.3712 13.3762 26.7313 12.8035 27.3167L7.38476 32.8559C7.09443 33.1527 6.6237 33.1527 6.33338 32.8559L5.50728 32.0114C5.21695 31.7146 5.21695 31.2335 5.50728 30.9366L10.3733 25.9624C10.9542 25.3687 10.3028 24.3925 9.54996 24.7288L3.24395 27.545C2.86771 27.7132 2.42943 27.5376 2.26504 27.1529L1.79731 26.0585C1.63292 25.674 1.80467 25.226 2.18092 25.058L9.44731 21.8126C10.1855 21.483 9.95523 20.3563 9.14965 20.3563H1.22001C0.809415 20.3563 0.476562 20.016 0.476562 19.5963V18.4021C0.476562 17.9824 0.809415 17.6421 1.22001 17.6421H9.14969C9.95525 17.6421 10.1855 16.5154 9.44735 16.1857L2.18092 12.9404C1.80467 12.7724 1.63292 12.3244 1.7973 11.9398L2.26504 10.8454C2.42943 10.4608 2.86769 10.2852 3.24395 10.4533L9.54996 13.2697C10.3028 13.6059 10.9542 12.6297 10.3733 12.0359L5.50728 7.06172C5.21695 6.76493 5.21695 6.28374 5.50728 5.98695L6.33336 5.14251C6.6237 4.84573 7.09443 4.84573 7.38476 5.14251L12.8035 10.6817C13.3762 11.2671 14.3219 10.6272 14.0185 9.85962L11.1478 2.59645C10.994 2.20729 11.1779 1.76436 11.5586 1.60713L12.6418 1.15976C13.0225 1.00253 13.4558 1.19054 13.6096 1.5797L16.3024 8.39257C16.6085 9.16706 17.7351 8.94319 17.7351 8.10789V0.759968C17.7351 0.340249 18.068 0 18.4786 0H19.6469ZM19.0627 27.1417C23.4619 27.1417 27.0282 23.4961 27.0282 18.9992C27.0282 14.5022 23.4619 10.8567 19.0627 10.8567C14.6635 10.8567 11.0972 14.5022 11.0972 18.9992C11.0972 23.4961 14.6635 27.1417 19.0627 27.1417Z" fill="#142D6F"/>
<path d="M48.1875 21.6689L48.1488 17.4289H54.1699C55.7059 17.4289 56.8417 17.1449 57.5774 16.577C58.3131 15.9962 58.6809 15.1637 58.6809 14.0795C58.6809 12.8404 58.3195 11.9499 57.5968 11.4078C56.874 10.8657 55.7317 10.5946 54.1699 10.5946H50.2978V33.8661H44.1992V5.67702H54.1699C57.487 5.67702 60.0814 6.30947 61.9529 7.57436C63.8244 8.83925 64.7602 10.7882 64.7602 13.4213C64.7602 14.57 64.4956 15.6477 63.9664 16.6545C63.4501 17.6483 62.6241 18.455 61.4882 19.0746C60.3524 19.6941 58.8746 20.0232 57.0547 20.0619L55.3509 21.6689H48.1875ZM46.5225 33.8661L48.8845 28.9678H55.0992C56.5577 28.9678 57.6226 28.6387 58.2937 27.9804C58.9649 27.3093 59.3005 26.4768 59.3005 25.4829C59.3005 24.6956 59.165 24.018 58.8939 23.4501C58.6229 22.8821 58.1969 22.4433 57.6161 22.1335C57.0482 21.8238 56.2931 21.6689 55.3509 21.6689H49.6976L49.7364 17.4289H56.7255L58.1388 19.1133C59.8813 19.0746 61.2817 19.365 62.3401 19.9845C63.3985 20.5911 64.1664 21.3914 64.644 22.3852C65.1216 23.3791 65.3604 24.431 65.3604 25.541C65.3604 28.2902 64.4762 30.3682 62.708 31.7751C60.9397 33.1691 58.4034 33.8661 55.0992 33.8661H46.5225Z" fill="#142D6F"/>
<path d="M75.4279 33.8661H69.5616V4.12817H75.4279V33.8661Z" fill="#142D6F"/>
<path d="M92.2135 12.9179H98.0604V33.8661H92.5814L92.2135 28.8129V12.9179ZM94.5561 24.4374C94.5561 26.3219 94.2657 28.0062 93.6849 29.4906C93.117 30.962 92.2522 32.1236 91.0906 32.9755C89.9419 33.8273 88.4898 34.2533 86.7345 34.2533C84.6693 34.2533 82.9914 33.6531 81.7007 32.4527C80.4229 31.2395 79.784 29.2453 79.784 26.4703V12.9179H85.6309V26.509C85.6309 27.2189 85.7471 27.7997 85.9794 28.2515C86.2246 28.6903 86.5602 29.013 86.9861 29.2195C87.425 29.4131 87.9219 29.5099 88.4769 29.5099C89.5998 29.5099 90.4775 29.2905 91.1099 28.8517C91.7553 28.4128 92.2071 27.8126 92.4652 27.0511C92.7362 26.2896 92.8718 25.4313 92.8718 24.4762L94.5561 24.4374Z" fill="#142D6F"/>
<path d="M111.961 34.2533C109.754 34.2533 107.863 33.7951 106.289 32.8787C104.727 31.9623 103.527 30.7361 102.688 29.2001C101.862 27.6642 101.449 25.9669 101.449 24.1083V23.3532C101.449 21.2623 101.842 19.4037 102.63 17.7774C103.43 16.1382 104.566 14.8539 106.037 13.9246C107.508 12.9953 109.264 12.5307 111.303 12.5307C113.329 12.5307 115.033 12.9566 116.414 13.8085C117.795 14.6603 118.841 15.8607 119.551 17.4095C120.261 18.9455 120.616 20.7525 120.616 22.8305V25.3087H103.907V21.3785H114.865V20.9138C114.865 20.191 114.736 19.5521 114.478 18.9971C114.22 18.4421 113.826 18.0097 113.297 17.7C112.781 17.3902 112.103 17.2353 111.264 17.2353C110.309 17.2353 109.541 17.5063 108.96 18.0484C108.38 18.5905 107.954 19.3198 107.683 20.2362C107.424 21.1526 107.295 22.1916 107.295 23.3532V24.1083C107.295 25.1796 107.495 26.1218 107.896 26.935C108.296 27.7481 108.87 28.387 109.619 28.8517C110.367 29.3034 111.271 29.5293 112.329 29.5293C113.323 29.5293 114.252 29.3486 115.117 28.9872C115.982 28.6129 116.718 28.0321 117.324 27.2447L120.151 30.4779C119.493 31.4202 118.473 32.2849 117.092 33.0723C115.724 33.8596 114.014 34.2533 111.961 34.2533Z" fill="#142D6F"/>
<path d="M136.356 5.67702H139.608L140.479 8.98768L134.555 33.8661H131.032L130.799 30.1295L136.356 5.67702ZM132.851 30.1875L132.29 33.8661H128.398L122.203 5.67702H128.263L132.851 30.1875ZM149.579 5.67702H155.619L149.443 33.8661H145.533L145.049 30.0907L149.579 5.67702ZM147.101 30.2456L146.81 33.8661H143.287L137.324 8.96832L138.272 5.67702H141.486L147.101 30.2456Z" fill="#142D6F"/>
<path d="M168.727 19.9071C168.727 18.9648 168.494 18.2162 168.03 17.6612C167.565 17.1062 166.823 16.8287 165.803 16.8287C165.222 16.8287 164.719 16.9255 164.293 17.1191C163.867 17.3127 163.544 17.5902 163.325 17.9516C163.106 18.3001 162.996 18.7325 162.996 19.2488H157.149C157.149 18.0097 157.517 16.8868 158.253 15.8801C158.988 14.8604 160.027 14.0473 161.37 13.4406C162.712 12.834 164.293 12.5307 166.113 12.5307C167.739 12.5307 169.191 12.8082 170.469 13.3632C171.747 13.9053 172.754 14.7249 173.489 15.822C174.225 16.9191 174.593 18.2937 174.593 19.9458V28.6968C174.593 29.9359 174.664 30.9168 174.806 31.6396C174.961 32.3624 175.174 32.9948 175.445 33.5369V33.8661H169.559C169.275 33.2723 169.062 32.5302 168.92 31.6396C168.791 30.749 168.727 29.8455 168.727 28.9291V19.9071ZM169.52 24.4181H166.539C165.119 24.4181 164.093 24.7278 163.461 25.3474C162.828 25.954 162.512 26.6897 162.512 27.5545C162.512 28.2128 162.744 28.7549 163.209 29.1808C163.673 29.6067 164.299 29.8197 165.087 29.8197C165.9 29.8197 166.597 29.6648 167.178 29.355C167.771 29.0324 168.223 28.6516 168.533 28.2128C168.856 27.761 169.011 27.348 168.998 26.9737L170.508 29.4906C170.301 30.0068 170.024 30.5425 169.675 31.0975C169.34 31.6525 168.907 32.1688 168.378 32.6463C167.849 33.1239 167.204 33.5111 166.442 33.808C165.693 34.1048 164.809 34.2533 163.79 34.2533C162.473 34.2533 161.273 33.9887 160.189 33.4595C159.104 32.9174 158.246 32.1752 157.614 31.233C156.981 30.2779 156.665 29.1872 156.665 27.9611C156.665 25.7669 157.478 24.0696 159.104 22.8692C160.731 21.656 163.151 21.0493 166.365 21.0493H169.482L169.52 24.4181Z" fill="#142D6F"/>
<path d="M190.101 12.9179H196.219L189.21 33.8661H185.512L185.628 29.5486L190.101 12.9179ZM187.158 29.568L187.255 33.8661H183.557L176.529 12.9179H182.686L187.158 29.568Z" fill="#142D6F"/>
<path d="M208.377 34.2533C206.17 34.2533 204.279 33.7951 202.704 32.8787C201.143 31.9623 199.942 30.7361 199.103 29.2001C198.277 27.6642 197.864 25.9669 197.864 24.1083V23.3532C197.864 21.2623 198.258 19.4037 199.045 17.7774C199.846 16.1382 200.981 14.8539 202.453 13.9246C203.924 12.9953 205.68 12.5307 207.719 12.5307C209.745 12.5307 211.449 12.9566 212.83 13.8085C214.211 14.6603 215.257 15.8607 215.966 17.4095C216.676 18.9455 217.031 20.7525 217.031 22.8305V25.3087H200.323V21.3785H211.281V20.9138C211.281 20.191 211.152 19.5521 210.894 18.9971C210.636 18.4421 210.242 18.0097 209.713 17.7C209.197 17.3902 208.519 17.2353 207.68 17.2353C206.725 17.2353 205.957 17.5063 205.376 18.0484C204.795 18.5905 204.369 19.3198 204.098 20.2362C203.84 21.1526 203.711 22.1916 203.711 23.3532V24.1083C203.711 25.1796 203.911 26.1218 204.311 26.935C204.711 27.7481 205.286 28.387 206.034 28.8517C206.783 29.3034 207.687 29.5293 208.745 29.5293C209.739 29.5293 210.668 29.3486 211.533 28.9872C212.398 28.6129 213.133 28.0321 213.74 27.2447L216.567 30.4779C215.908 31.4202 214.889 32.2849 213.508 33.0723C212.139 33.8596 210.429 34.2533 208.377 34.2533Z" fill="#142D6F"/>
</svg>
