<svg width="182" height="38" viewBox="0 0 182 38" fill="none" xmlns="http://www.w3.org/2000/svg">
<path fill-rule="evenodd" clip-rule="evenodd" d="M31.9798 18.9992L18.6506 32.6246L5.32142 18.9992L18.6506 5.37379L31.9798 18.9992ZM18.6506 0L37.2368 18.9992L18.6506 37.9984L0.0644531 18.9992L18.6506 0Z" fill="#142D6F"/>
<path fill-rule="evenodd" clip-rule="evenodd" d="M22.6868 18.9992L18.6506 14.8734L14.6145 18.9992L18.6506 23.125L22.6868 18.9992ZM18.6506 9.49959L9.35754 18.9992L18.6506 28.4988L27.9437 18.9992L18.6506 9.49959Z" fill="#142D6F"/>
<path d="M8.73828 18.9994L18.6509 28.499L28.5635 18.9994L18.6509 9.49976L8.73828 18.9994Z" fill="#D0D5E2"/>
<path d="M18.65 26.3804L11.6803 19.4107L18.65 12.4411L25.6197 19.4107L18.65 26.3804Z" stroke="#142D6F" stroke-opacity="0.2" stroke-width="3.57784"/>
<path d="M57.386 7.73637C54.9805 6.81119 52.7072 6.3486 50.5661 6.3486C48.4514 6.3486 46.7993 6.79797 45.6098 7.69672C44.4203 8.59546 43.8255 9.83785 43.8255 11.4239C43.8255 13.3535 44.83 14.847 46.839 15.9044C47.7377 16.3537 48.7157 16.7767 49.7731 17.1732C50.8569 17.5433 51.9407 17.9662 53.0244 18.442C54.1082 18.9178 55.0995 19.4597 55.9982 20.0677C56.897 20.6757 57.6239 21.5215 58.179 22.6053C58.7341 23.6627 59.0117 25.024 59.0117 26.6893C59.0117 28.3282 58.5491 29.7292 57.6239 30.8923C56.6987 32.0553 55.5753 32.8484 54.2536 33.2713C52.9584 33.6678 51.4384 33.8661 49.6938 33.8661C46.4425 33.8661 43.6669 33.0598 41.3672 31.4474L41.5654 31.1302C42.4378 31.8174 43.5612 32.3858 44.9357 32.8351C46.3367 33.2581 47.7641 33.4695 49.218 33.4695C51.3591 33.4695 53.183 32.9805 54.6898 32.0025C56.2229 30.998 56.9895 29.5309 56.9895 27.6013C56.9895 25.4866 55.985 23.8345 53.976 22.645C53.0773 22.1163 52.086 21.6273 51.0023 21.1779C49.9449 20.7285 48.8744 20.2659 47.7906 19.7901C46.7068 19.2879 45.7155 18.7328 44.8168 18.1248C42.8078 16.8031 41.8033 14.9263 41.8033 12.4944C41.8033 10.5648 42.451 9.00519 43.7462 7.81567C45.0415 6.59972 46.9843 5.99175 49.5748 5.99175C52.1918 5.99175 54.8484 6.44112 57.5446 7.33986L57.386 7.73637Z" fill="#142D6F"/>
<path d="M59.7907 14.3184V14.0012H60.6234V10.0361H63.3989V14.0012H69.4655V14.3184H63.3989V28.7511C63.3989 30.4693 63.584 31.7117 63.954 32.4783C64.3505 33.2449 65.1568 33.6282 66.3727 33.6282C67.6151 33.6282 68.8707 33.377 70.1395 32.8748L70.2585 33.192C68.9368 33.6942 67.4168 33.9454 65.6987 33.9454C64.0069 33.9454 62.7381 33.6017 61.8922 32.9144C61.0463 32.2007 60.6234 30.7997 60.6234 28.7115V14.3184H59.7907Z" fill="#142D6F"/>
<path d="M72.745 24.1517C72.745 27.4295 73.3133 29.8349 74.45 31.3681C75.613 32.9012 77.133 33.6678 79.0098 33.6678C81.6531 33.6678 84.0057 33.2713 86.0676 32.4783L86.1865 32.7558C84.0718 33.5753 81.6796 33.985 79.0098 33.985C76.3664 33.985 74.2121 33.192 72.5467 31.606C70.8814 30.02 70.0488 27.5748 70.0488 24.2706C70.0488 20.9664 70.9211 18.4024 72.6657 16.5784C74.4103 14.7545 76.6307 13.8425 79.327 13.8425C81.4945 13.8425 83.3185 14.4902 84.7987 15.7854C86.279 17.0807 87.0192 18.9971 87.0192 21.5347C87.0192 21.6669 87.0192 21.7991 87.0192 21.9313H72.8639C72.7846 22.645 72.745 23.3851 72.745 24.1517ZM84.3229 21.614C84.2965 19.0764 83.8075 17.1996 82.8559 15.9837C81.9043 14.7677 80.6751 14.1598 79.1684 14.1598C77.6616 14.1598 76.3135 14.8206 75.124 16.1423C73.9609 17.464 73.2208 19.2879 72.9036 21.614H84.3229Z" fill="#142D6F"/>
<path d="M92.8884 33.8264C90.5622 33.8264 89.0951 33.2184 88.4872 32.0025C88.355 31.7381 88.2889 31.5002 88.2889 31.2888V4.12817H91.0644V31.0112C91.0644 31.7778 91.2098 32.3726 91.5006 32.7955C91.8178 33.192 92.135 33.4035 92.4522 33.4299L92.8884 33.5092H94.1175V33.8264H92.8884Z" fill="#142D6F"/>
<path d="M100.16 33.8264C97.834 33.8264 96.367 33.2184 95.759 32.0025C95.6268 31.7381 95.5608 31.5002 95.5608 31.2888V4.12817H98.3363V31.0112C98.3363 31.7778 98.4817 32.3726 98.7724 32.7955C99.0896 33.192 99.4069 33.4035 99.7241 33.4299L100.16 33.5092H101.389V33.8264H100.16Z" fill="#142D6F"/>
<path d="M117.998 33.8264C116.2 33.8264 114.971 33.4828 114.31 32.7955C113.702 32.214 113.398 31.7117 113.398 31.2888V30.4561C112.103 32.8087 110.028 33.985 107.173 33.985C103.842 33.985 101.952 32.4783 101.503 29.4648C101.45 29.1476 101.424 28.8304 101.424 28.5132C101.424 28.1696 101.477 27.7995 101.582 27.403C101.688 27.0065 101.992 26.5704 102.494 26.0946C103.499 25.1429 105.706 24.5614 109.116 24.3499C109.962 24.2706 110.742 24.231 111.455 24.231C112.169 24.231 112.817 24.2574 113.398 24.3103V17.7283C113.345 17.7019 113.345 17.5829 113.398 17.3714C113.451 17.1335 113.398 16.8428 113.24 16.4991C113.107 16.1291 112.922 15.7722 112.685 15.4286C112.447 15.0849 112.024 14.7942 111.416 14.5563C110.808 14.2919 110.015 14.1598 109.037 14.1598C108.059 14.1598 106.909 14.3448 105.587 14.7149C104.292 15.0585 103.34 15.4021 102.732 15.7458L102.574 15.4682C104.926 14.3844 107.318 13.8425 109.75 13.8425C112.473 13.8425 114.271 14.3316 115.143 15.3096C115.83 16.0762 116.174 16.8824 116.174 17.7283V31.0112C116.174 31.7778 116.319 32.3726 116.61 32.7955C116.927 33.192 117.244 33.4035 117.562 33.4299L117.998 33.5092H119.227V33.8264H117.998ZM107.807 33.6678C109.208 33.6678 110.464 33.192 111.574 32.2404C112.711 31.2623 113.319 30.3239 113.398 29.4252V24.6275C112.685 24.5746 111.958 24.5482 111.217 24.5482C110.504 24.5482 109.79 24.5878 109.076 24.6671C107.067 24.905 105.759 25.3544 105.151 26.0153C104.543 26.6761 104.239 27.5881 104.239 28.7511C104.239 28.9626 104.252 29.2005 104.279 29.4648C104.517 32.2668 105.693 33.6678 107.807 33.6678Z" fill="#142D6F"/>
<path d="M126.999 15.7061V14.8735C125.81 15.3493 124.726 16.3141 123.748 17.7679C122.77 19.1954 122.254 20.5435 122.202 21.8123V33.8264H119.426V14.0012H122.202V20.3056C122.624 18.7724 123.431 17.3318 124.62 15.9837C125.81 14.6091 127.158 13.8954 128.665 13.8425H128.823C129.352 13.8425 129.788 14.0276 130.132 14.3977C130.502 14.7413 130.687 15.1774 130.687 15.7061C130.687 16.2348 130.502 16.671 130.132 17.0146C129.788 17.3582 129.352 17.53 128.823 17.53C128.295 17.53 127.858 17.3582 127.515 17.0146C127.171 16.671 126.999 16.2348 126.999 15.7061Z" fill="#142D6F"/>
<path d="M132.882 6.38825C135.949 6.17678 138.645 6.07105 140.971 6.07105C147.527 6.07105 150.804 8.38399 150.804 13.0099C150.804 15.151 150.249 17.0278 149.139 18.6403C148.558 19.5126 147.659 20.2131 146.443 20.7417C145.227 21.244 143.76 21.4951 142.042 21.4951H136.173V33.8264H132.882V6.38825ZM141.011 6.46755C139.478 6.46755 137.865 6.56007 136.173 6.74511V21.0986H142.042C145.769 20.94 147.632 18.2702 147.632 13.0892C147.632 10.9745 147.077 9.34882 145.967 8.21218C144.857 7.04909 143.205 6.46755 141.011 6.46755Z" fill="#142D6F"/>
<path d="M159.587 15.7061V14.8735C158.398 15.3493 157.314 16.3141 156.336 17.7679C155.358 19.1954 154.842 20.5435 154.789 21.8123V33.8264H152.014V14.0012H154.789V20.3056C155.212 18.7724 156.018 17.3318 157.208 15.9837C158.398 14.6091 159.746 13.8954 161.252 13.8425H161.411C161.94 13.8425 162.376 14.0276 162.719 14.3977C163.089 14.7413 163.275 15.1774 163.275 15.7061C163.275 16.2348 163.089 16.671 162.719 17.0146C162.376 17.3582 161.94 17.53 161.411 17.53C160.882 17.53 160.446 17.3582 160.102 17.0146C159.759 16.671 159.587 16.2348 159.587 15.7061Z" fill="#142D6F"/>
<path d="M172.09 33.985C169.315 33.985 167.055 33.192 165.31 31.606C163.565 30.02 162.693 27.5748 162.693 24.2706C162.693 20.9664 163.592 18.4024 165.389 16.5784C167.213 14.7545 169.513 13.8425 172.289 13.8425C175.09 13.8425 177.364 14.6356 179.108 16.2216C180.853 17.8076 181.725 20.2527 181.725 23.5569C181.725 26.8611 180.813 29.4252 178.989 31.2491C177.192 33.073 174.892 33.985 172.09 33.985ZM172.368 14.1598C170.359 14.1598 168.694 15.0585 167.372 16.856C166.05 18.627 165.389 21.1118 165.389 24.3103C165.389 27.4823 165.997 29.8349 167.213 31.3681C168.429 32.9012 170.042 33.6678 172.051 33.6678C174.06 33.6678 175.725 32.7823 177.047 31.0112C178.368 29.2137 179.029 26.729 179.029 23.5569C179.029 20.3584 178.421 17.9926 177.205 16.4595C175.989 14.9263 174.377 14.1598 172.368 14.1598Z" fill="#142D6F"/>
</svg>
