<svg width="204" height="38" viewBox="0 0 204 38" fill="none" xmlns="http://www.w3.org/2000/svg">
<path fill-rule="evenodd" clip-rule="evenodd" d="M0.527344 9.30961H5.75212H5.84712V9.30853C8.05924 9.25805 9.83695 7.44902 9.83695 5.22478V0H10.9769V5.31978C10.9769 7.5233 12.7632 9.30961 14.9667 9.30961C17.1703 9.30961 18.9566 7.5233 18.9566 5.31978V0H20.0965V5.31978C20.0965 7.5233 21.8828 9.30961 24.0864 9.30961C26.2899 9.30961 28.0762 7.5233 28.0762 5.31978V0H29.4061V5.31978C29.4061 7.5233 31.1924 9.30961 33.396 9.30961H38.5257V10.4496H33.206C31.0024 10.4496 29.2161 12.2359 29.2161 14.4394C29.2161 16.6429 31.0024 18.4292 33.206 18.4292H38.5257V19.5692H33.206C31.0024 19.5692 29.2161 21.3555 29.2161 23.559C29.2161 25.7625 31.0024 27.5488 33.206 27.5488H38.5257V28.6888H33.396C31.1924 28.6888 29.4061 30.4751 29.4061 32.6786V32.8686V37.9984H28.0762V32.6786C28.0762 30.4751 26.2899 28.6888 24.0864 28.6888C21.8828 28.6888 20.0965 30.4751 20.0965 32.6786V37.9984H18.9566V32.6786C18.9566 30.4751 17.1703 28.6888 14.9667 28.6888C12.7632 28.6888 10.9769 30.4751 10.9769 32.6786V37.9984H9.83695V32.7736C9.83695 30.5494 8.05924 28.7403 5.84712 28.6899V28.6888H5.75212H0.527344V27.5488H5.84712C8.05065 27.5488 9.83695 25.7625 9.83695 23.559C9.83695 21.3555 8.05065 19.5692 5.84712 19.5692H0.527344V18.4292H5.84712C8.05065 18.4292 9.83695 16.6429 9.83695 14.4394C9.83695 12.2359 8.05065 10.4496 5.84712 10.4496H0.527344V9.30961ZM14.9667 18.4292C17.1703 18.4292 18.9566 16.6429 18.9566 14.4394C18.9566 12.2359 17.1703 10.4496 14.9667 10.4496C12.7632 10.4496 10.9769 12.2359 10.9769 14.4394C10.9769 16.6429 12.7632 18.4292 14.9667 18.4292ZM24.0864 18.4292C26.2899 18.4292 28.0762 16.6429 28.0762 14.4394C28.0762 12.2359 26.2899 10.4496 24.0864 10.4496C21.8828 10.4496 20.0965 12.2359 20.0965 14.4394C20.0965 16.6429 21.8828 18.4292 24.0864 18.4292ZM18.9566 23.559C18.9566 25.7625 17.1703 27.5488 14.9667 27.5488C12.7632 27.5488 10.9769 25.7625 10.9769 23.559C10.9769 21.3555 12.7632 19.5692 14.9667 19.5692C17.1703 19.5692 18.9566 21.3555 18.9566 23.559ZM24.0864 27.5488C26.2899 27.5488 28.0762 25.7625 28.0762 23.559C28.0762 21.3555 26.2899 19.5692 24.0864 19.5692C21.8828 19.5692 20.0965 21.3555 20.0965 23.559C20.0965 25.7625 21.8828 27.5488 24.0864 27.5488Z" fill="#142D6F"/>
<path d="M54.3934 30.1678C51.75 30.1678 49.4371 29.7316 47.4545 28.8593C45.4985 27.9606 43.886 26.6653 42.6172 24.9736L46.3047 21.9205C47.4413 23.2157 48.6705 24.1938 49.9922 24.8546C51.3139 25.5155 52.8735 25.8459 54.6709 25.8459C56.2305 25.8459 57.5126 25.5023 58.517 24.815C59.5215 24.1013 60.0238 23.1629 60.0238 21.9998C60.0238 21.5768 59.9445 21.1936 59.7859 20.8499C59.6273 20.5063 59.3497 20.1759 58.9532 19.8587C58.5567 19.5415 58.028 19.2243 57.3672 18.907C56.7063 18.5634 55.8869 18.1933 54.9088 17.7968C53.8515 17.3739 52.8867 16.9245 52.0144 16.4487C51.142 15.9729 50.3887 15.4442 49.7543 14.8627C49.1199 14.2812 48.6308 13.6203 48.2872 12.8802C47.9436 12.14 47.7718 11.2942 47.7718 10.3425C47.7718 9.04729 48.0493 7.85777 48.6044 6.77399C49.1595 5.69021 49.9129 4.77825 50.8645 4.03811C51.8425 3.27153 52.9792 2.67677 54.2744 2.25383C55.5697 1.8309 56.9575 1.61943 58.4377 1.61943C60.7639 1.61943 62.7596 2.00271 64.425 2.76929C66.0903 3.50943 67.4913 4.51391 68.6279 5.78273L65.218 9.11337C64.1606 8.08246 63.0636 7.30267 61.927 6.77399C60.8168 6.21889 59.5347 5.94133 58.0809 5.94133C57.2614 5.94133 56.5345 6.04707 55.9001 6.25853C55.2657 6.47 54.7238 6.74756 54.2744 7.0912C53.8515 7.4084 53.5211 7.79169 53.2832 8.24106C53.0453 8.664 52.9263 9.11337 52.9263 9.58918C52.9263 10.0386 53.0188 10.4351 53.2039 10.7787C53.3889 11.1223 53.6929 11.4528 54.1158 11.77C54.5388 12.0872 55.0939 12.4176 55.7812 12.7612C56.4684 13.0784 57.3143 13.4353 58.3188 13.8318C59.3761 14.2547 60.3277 14.7041 61.1736 15.1799C62.0459 15.6293 62.7729 16.1579 63.3544 16.7659C63.9624 17.3475 64.425 18.0083 64.7422 18.7484C65.0594 19.4886 65.218 20.3345 65.218 21.2861C65.218 22.6342 64.9272 23.8634 64.3457 24.9736C63.7641 26.0574 62.9843 26.9958 62.0063 27.7888C61.0282 28.5553 59.8784 29.1501 58.5567 29.573C57.235 29.9695 55.8472 30.1678 54.3934 30.1678Z" fill="#142D6F"/>
<path d="M78.8466 26.1234C79.7982 26.1234 80.7234 25.8988 81.6221 25.4494C82.5473 25 83.3535 24.392 84.0408 23.6255C84.7545 22.8589 85.3228 21.9734 85.7458 20.9689C86.1687 19.9644 86.3802 18.907 86.3802 17.7968C86.3802 16.2372 85.8912 14.9684 84.9131 13.9904C83.9351 13.0123 82.653 12.5233 81.067 12.5233C80.089 12.5233 79.1638 12.748 78.2915 13.1974C77.4192 13.6203 76.6526 14.2151 75.9918 14.9816C75.3309 15.7218 74.8022 16.6073 74.4057 17.6382C74.0357 18.6691 73.8506 19.7661 73.8506 20.9292C73.8506 22.5152 74.3 23.7841 75.1988 24.7357C76.1239 25.6609 77.3399 26.1234 78.8466 26.1234ZM83.7236 26.9561C82.7984 27.9341 81.794 28.7272 80.7102 29.3351C79.6264 29.9167 78.3972 30.2074 77.0227 30.2074C75.8596 30.2074 74.7758 30.0092 73.7713 29.6127C72.7933 29.1897 71.9342 28.595 71.1941 27.8284C70.4539 27.0354 69.8724 26.097 69.4494 25.0132C69.0529 23.903 68.8547 22.6474 68.8547 21.2464C68.8547 19.3961 69.1719 17.6911 69.8063 16.1315C70.4671 14.5455 71.3394 13.1842 72.4232 12.0475C73.507 10.9109 74.7494 10.0253 76.1504 9.39093C77.5513 8.73008 79.0052 8.39966 80.5119 8.39966C82.3623 8.39966 83.8426 8.79617 84.9528 9.58918C86.063 10.3558 86.9353 11.3338 87.5697 12.5233L88.561 8.83582H93.3587L85.6665 37.7014H80.8688L83.7236 26.9561Z" fill="#142D6F"/>
<path d="M101.089 30.2074C99.1332 30.2074 97.5736 29.6523 96.4105 28.5421C95.2739 27.4055 94.7056 25.8723 94.7056 23.9427C94.7056 23.3876 94.7716 22.7928 94.9038 22.1584C95.036 21.4975 95.1814 20.8631 95.34 20.2552L98.3931 8.83582H103.191L100.058 20.4534C99.9791 20.7706 99.913 21.1275 99.8601 21.524C99.8073 21.9205 99.7808 22.2641 99.7808 22.5549C99.7808 23.6122 100.085 24.4317 100.693 25.0132C101.327 25.5683 102.226 25.8459 103.389 25.8459C104.737 25.8459 105.927 25.3701 106.958 24.4185C107.988 23.4404 108.715 22.1716 109.138 20.612L112.31 8.83582H117.108L111.517 29.7713H106.72L107.433 27.0751C106.587 27.9209 105.649 28.6611 104.618 29.2955C103.614 29.9035 102.437 30.2074 101.089 30.2074Z" fill="#142D6F"/>
<path d="M125.283 26.6786C126.023 26.6786 126.736 26.5464 127.424 26.282C128.111 26.0177 128.732 25.6609 129.287 25.2115C129.869 24.7357 130.358 24.207 130.754 23.6255C131.177 23.0175 131.468 22.3963 131.627 21.7619L131.865 20.8499C131.204 20.6385 130.477 20.4534 129.684 20.2948C128.891 20.1362 128.032 20.0569 127.107 20.0569C125.494 20.0569 124.225 20.4138 123.3 21.1275C122.401 21.8148 121.952 22.7135 121.952 23.8237C121.952 24.7489 122.243 25.4626 122.824 25.9648C123.432 26.4406 124.252 26.6786 125.283 26.6786ZM123.419 30.2074C122.52 30.2074 121.674 30.0621 120.881 29.7713C120.115 29.507 119.441 29.1369 118.859 28.6611C118.304 28.1588 117.855 27.5509 117.511 26.8372C117.194 26.1234 117.035 25.3304 117.035 24.4581C117.035 23.2422 117.26 22.1716 117.709 21.2464C118.185 20.2948 118.833 19.5018 119.652 18.8674C120.498 18.233 121.489 17.7572 122.626 17.44C123.763 17.0963 125.005 16.9245 126.353 16.9245C127.516 16.9245 128.613 17.017 129.644 17.2021C130.702 17.3871 131.693 17.6382 132.618 17.9554L132.737 17.5193C132.816 17.2021 132.869 16.9245 132.896 16.6866C132.948 16.4487 132.975 16.1712 132.975 15.854C132.975 14.9288 132.618 14.1886 131.904 13.6335C131.191 13.052 130.027 12.7612 128.415 12.7612C127.358 12.7612 126.34 12.867 125.362 13.0784C124.41 13.2899 123.512 13.5674 122.666 13.9111L121.873 9.94603C122.956 9.49666 124.12 9.15302 125.362 8.91512C126.604 8.65078 127.939 8.51862 129.367 8.51862C132.142 8.51862 134.23 9.08694 135.631 10.2236C137.059 11.3602 137.773 12.9595 137.773 15.0213C137.773 15.5235 137.733 16.0126 137.654 16.4884C137.574 16.9642 137.469 17.4664 137.336 17.9951L134.204 29.7713H129.486L130.199 27.0354C129.274 28.0135 128.27 28.7932 127.186 29.3748C126.102 29.9299 124.846 30.2074 123.419 30.2074Z" fill="#142D6F"/>
<path d="M147.448 30.2471C145.862 30.2471 144.223 29.9431 142.531 29.3351C140.866 28.7007 139.425 27.7491 138.209 26.4803L141.064 23.5462C142.174 24.6564 143.311 25.4229 144.474 25.8459C145.637 26.2688 146.747 26.4803 147.804 26.4803C148.756 26.4803 149.549 26.2556 150.183 25.8062C150.844 25.3569 151.175 24.7489 151.175 23.9823C151.175 23.4536 150.924 23.0043 150.421 22.6342C149.946 22.2377 149.179 21.8148 148.122 21.3654C147.249 21.0217 146.443 20.6649 145.703 20.2948C144.963 19.9247 144.328 19.515 143.8 19.0657C143.271 18.5898 142.848 18.0612 142.531 17.4796C142.24 16.8717 142.095 16.1712 142.095 15.3782C142.095 14.4001 142.28 13.4881 142.65 12.6423C143.046 11.7964 143.601 11.0695 144.315 10.4615C145.029 9.82708 145.888 9.33806 146.892 8.99442C147.897 8.62435 149.034 8.43931 150.302 8.43931C151.968 8.43931 153.501 8.7433 154.902 9.35127C156.329 9.93282 157.479 10.6069 158.351 11.3735L155.695 14.4662C153.765 12.933 151.849 12.1665 149.946 12.1665C148.915 12.1665 148.122 12.3911 147.567 12.8405C147.011 13.2899 146.734 13.8582 146.734 14.5455C146.734 15.0742 146.985 15.5368 147.487 15.9333C148.016 16.3298 148.875 16.7791 150.064 17.2814C150.857 17.625 151.598 17.9819 152.285 18.3519C152.999 18.722 153.607 19.1317 154.109 19.5811C154.638 20.0305 155.047 20.5459 155.338 21.1275C155.655 21.709 155.814 22.3831 155.814 23.1497C155.814 24.2334 155.602 25.2115 155.179 26.0838C154.756 26.9561 154.162 27.7095 153.395 28.3439C152.655 28.9518 151.769 29.4277 150.739 29.7713C149.734 30.0885 148.637 30.2471 147.448 30.2471Z" fill="#142D6F"/>
<path d="M165.728 0.826416H170.526L167.671 11.5321C168.517 10.6862 169.442 9.95925 170.447 9.35127C171.478 8.71687 172.667 8.39966 174.015 8.39966C175.971 8.39966 177.518 8.96799 178.654 10.1046C179.817 11.2149 180.399 12.7348 180.399 14.6644C180.399 15.2196 180.333 15.8275 180.201 16.4884C180.069 17.1228 179.923 17.744 179.765 18.3519L176.751 29.7713H171.953L175.046 18.1537C175.152 17.8101 175.231 17.4532 175.284 17.0831C175.337 16.6866 175.363 16.343 175.363 16.0522C175.363 14.9949 175.046 14.1886 174.412 13.6335C173.777 13.052 172.879 12.7612 171.716 12.7612C170.367 12.7612 169.178 13.2502 168.147 14.2283C167.116 15.1799 166.389 16.4355 165.966 17.9951L162.794 29.7713H157.996L165.728 0.826416Z" fill="#142D6F"/>
<path d="M199.2 17.7572C199.332 17.4135 199.398 16.9377 199.398 16.3298C199.398 15.246 199.068 14.3076 198.407 13.5146C197.746 12.7216 196.689 12.3251 195.235 12.3251C193.596 12.3251 192.168 12.8405 190.953 13.8714C189.737 14.8759 188.864 16.1712 188.336 17.7572H199.2ZM187.82 21.0482C187.847 22.6342 188.309 23.9162 189.208 24.8943C190.133 25.8459 191.481 26.3217 193.252 26.3217C194.257 26.3217 195.169 26.1631 195.988 25.8459C196.834 25.5023 197.706 24.9868 198.605 24.2995L200.905 27.3526C199.9 28.1721 198.75 28.8593 197.455 29.4144C196.16 29.9695 194.6 30.2471 192.776 30.2471C191.323 30.2471 190.001 30.0356 188.811 29.6127C187.648 29.1897 186.657 28.5818 185.838 27.7888C185.018 26.9958 184.384 26.0309 183.934 24.8943C183.485 23.7576 183.26 22.4888 183.26 21.0878C183.26 19.5547 183.551 18.0347 184.133 16.528C184.741 14.9949 185.586 13.6335 186.67 12.444C187.78 11.2281 189.089 10.25 190.596 9.50988C192.102 8.76973 193.768 8.39966 195.592 8.39966C196.94 8.39966 198.129 8.61113 199.16 9.03407C200.191 9.45701 201.063 10.0386 201.777 10.7787C202.491 11.4924 203.033 12.3515 203.403 13.356C203.773 14.334 203.958 15.3914 203.958 16.528C203.958 17.2682 203.879 18.0215 203.72 18.7881C203.561 19.5282 203.337 20.2816 203.046 21.0482H187.82Z" fill="#142D6F"/>
</svg>
