<svg width="172" height="38" viewBox="0 0 172 38" fill="none" xmlns="http://www.w3.org/2000/svg">
<path fill-rule="evenodd" clip-rule="evenodd" d="M8.61203 30.0215C10.0932 34.6485 14.4295 37.9984 19.5481 37.9984C24.6783 37.9984 29.0226 34.6335 30.4942 29.9903C35.1374 28.5186 38.5023 24.1744 38.5023 19.0442C38.5023 13.9255 35.1524 9.58927 30.5254 8.1081C29.0848 3.41332 24.7151 0 19.5481 0C14.3928 0 10.031 3.39809 8.5806 8.07667C3.90202 9.52709 0.503906 13.8888 0.503906 19.0442C0.503906 24.2112 3.91724 28.5809 8.61203 30.0215ZM20.727 20.2231C20.3414 20.2746 19.9479 20.3012 19.5481 20.3012C19.1167 20.3012 18.6924 20.2702 18.2775 20.2104C18.2271 19.8288 18.2011 19.4396 18.2011 19.0442C18.2011 18.6171 18.2314 18.1971 18.2901 17.7862C18.701 17.7275 19.121 17.6972 19.5481 17.6972C19.9435 17.6972 20.3327 17.7232 20.7143 17.7736C20.7741 18.1885 20.8051 18.6127 20.8051 19.0442C20.8051 19.444 20.7785 19.8375 20.727 20.2231ZM19.8925 22.9561C19.7781 22.9594 19.6633 22.9611 19.5481 22.9611C19.4022 22.9611 19.2569 22.9584 19.1122 22.953C19.232 23.1948 19.3625 23.4304 19.5031 23.659C19.6431 23.4313 19.7731 23.1968 19.8925 22.9561ZM21.2992 25.7568C22.0175 24.7618 22.5803 23.647 22.952 22.4481C24.1509 22.0764 25.2657 21.5136 26.2608 20.7953C27.5752 22.3357 28.3688 24.3341 28.3688 26.5178C28.3688 26.945 28.3385 27.365 28.2798 27.7759C27.8689 27.8345 27.4489 27.8649 27.0218 27.8649C24.838 27.8649 22.8396 27.0713 21.2992 25.7568ZM17.7071 25.7568C16.9824 24.7531 16.4161 23.6275 16.0445 22.4167C14.8835 22.045 13.803 21.4936 12.8355 20.7953C11.521 22.3357 10.7275 24.3341 10.7275 26.5178C10.7275 26.9493 10.7585 27.3736 10.8183 27.7885C11.1999 27.8389 11.5891 27.8649 11.9845 27.8649C14.1682 27.8649 16.1666 27.0713 17.7071 25.7568ZM11.6861 30.521C11.7852 30.5235 11.8847 30.5248 11.9845 30.5248C14.8601 30.5248 17.4888 29.4675 19.5031 27.7205C21.5174 29.4675 24.1461 30.5248 27.0218 30.5248C27.1522 30.5248 27.2822 30.5226 27.4116 30.5183C25.9532 33.3792 22.9795 35.3385 19.5481 35.3385C16.1179 35.3385 13.1449 33.3804 11.6861 30.521ZM8.07571 26.9537C8.07031 26.8091 8.06759 26.6638 8.06759 26.5178C8.06759 23.6422 9.12486 21.0135 10.8719 18.9992C9.12486 16.9849 8.06759 14.3562 8.06759 11.4806C8.06759 11.3654 8.06929 11.2506 8.07266 11.1362C5.16367 12.578 3.16379 15.5775 3.16379 19.0442C3.16379 22.5121 5.16507 25.5126 8.07571 26.9537ZM10.8056 10.3016C10.7541 10.6873 10.7275 11.0808 10.7275 11.4806C10.7275 13.6643 11.521 15.6627 12.8355 17.2031C13.8116 16.4985 14.9029 15.9435 16.0757 15.5718C16.4474 14.399 17.0024 13.3077 17.7071 12.3316C16.1666 11.0171 14.1682 10.2236 11.9845 10.2236C11.5847 10.2236 11.1912 10.2501 10.8056 10.3016ZM19.5031 14.4294C19.3803 14.6291 19.2652 14.834 19.1583 15.0438C19.2877 15.0395 19.4177 15.0373 19.5481 15.0373C19.6479 15.0373 19.7474 15.0386 19.8465 15.0411C19.74 14.8323 19.6254 14.6282 19.5031 14.4294ZM21.2992 12.3316C21.9976 13.299 22.5489 14.3796 22.9206 15.5406C24.1314 15.9121 25.257 16.4785 26.2608 17.2031C27.5752 15.6627 28.3688 13.6643 28.3688 11.4806C28.3688 11.0852 28.3428 10.696 28.2924 10.3144C27.8775 10.2545 27.4532 10.2236 27.0218 10.2236C24.838 10.2236 22.8396 11.0171 21.2992 12.3316ZM23.4569 18.6083C23.6987 18.7281 23.9343 18.8586 24.1629 18.9992C23.9352 19.1392 23.7007 19.2692 23.46 19.3886C23.4633 19.2742 23.465 19.1594 23.465 19.0442C23.465 18.8983 23.4623 18.753 23.4569 18.6083ZM19.5031 10.368C21.5174 8.62094 24.1461 7.56366 27.0218 7.56366C27.1677 7.56366 27.313 7.56639 27.4577 7.57179C26.0165 4.66115 23.016 2.65989 19.5481 2.65989C16.0815 2.65989 13.0819 4.65975 11.6402 7.56873C11.7545 7.56536 11.8693 7.56366 11.9845 7.56366C14.8601 7.56366 17.4888 8.62094 19.5031 10.368ZM15.5412 19.0442C15.5412 19.144 15.5425 19.2435 15.545 19.3426C15.3362 19.2361 15.1322 19.1215 14.9334 18.9992C15.133 18.8764 15.3379 18.7613 15.5477 18.6544C15.5434 18.7838 15.5412 18.9138 15.5412 19.0442ZM31.0287 11.4806C31.0287 11.3808 31.0274 11.2813 31.0249 11.1822C33.8843 12.641 35.8424 15.6139 35.8424 19.0442C35.8424 22.4756 33.8831 25.4493 31.0222 26.9077C31.0265 26.7783 31.0287 26.6483 31.0287 26.5178C31.0287 23.6422 29.9714 21.0135 28.2244 18.9992C29.9714 16.9849 31.0287 14.3562 31.0287 11.4806Z" fill="#142D6F"/>
<path d="M29.278 11.5647C29.278 16.9638 24.9013 21.3405 19.5022 21.3405C14.1032 21.3405 9.72642 16.9638 9.72642 11.5647C9.72642 6.1657 14.1032 1.78892 19.5022 1.78892C24.9013 1.78892 29.278 6.1657 29.278 11.5647Z" stroke="#D0D5E2" stroke-width="3.57784"/>
<path d="M29.278 26.4344C29.278 31.8334 24.9013 36.2102 19.5022 36.2102C14.1032 36.2102 9.72642 31.8334 9.72642 26.4344C9.72642 21.0353 14.1032 16.6586 19.5022 16.6586C24.9013 16.6586 29.278 21.0353 29.278 26.4344Z" stroke="#D0D5E2" stroke-width="3.57784"/>
<path d="M42.6328 34.0726V4.12817H47.4239V13.8102H57.0727V4.12817H61.8638V34.0726H57.0727V18.202H47.4239V34.0726H42.6328Z" fill="#142D6F"/>
<path d="M76.748 34.6049C74.7961 34.6049 73.0105 34.1391 71.3913 33.2075C69.7721 32.2537 68.4856 30.9783 67.5318 29.3813C66.578 27.7842 66.1011 26.0209 66.1011 24.0911C66.1011 22.1392 66.578 20.3758 67.5318 18.8009C68.4856 17.2039 69.7721 15.9396 71.3913 15.008C73.0105 14.0542 74.7961 13.5773 76.748 13.5773C78.7221 13.5773 80.5077 14.0542 82.1047 15.008C83.7239 15.9396 85.0104 17.2039 85.9642 18.8009C86.918 20.3758 87.3949 22.1392 87.3949 24.0911C87.3949 26.0209 86.918 27.7842 85.9642 29.3813C85.0104 30.9783 83.7239 32.2537 82.1047 33.2075C80.5077 34.1391 78.7221 34.6049 76.748 34.6049ZM76.748 30.3129C77.9014 30.3129 78.9328 30.0356 79.8423 29.4811C80.7739 28.9044 81.5169 28.1502 82.0714 27.2186C82.626 26.287 82.9032 25.2445 82.9032 24.0911C82.9032 22.9377 82.626 21.8952 82.0714 20.9636C81.5169 20.032 80.7739 19.2889 79.8423 18.7344C78.9107 18.1577 77.8792 17.8693 76.748 17.8693C75.6168 17.8693 74.5853 18.1577 73.6537 18.7344C72.7221 19.2889 71.9791 20.032 71.4246 20.9636C70.8922 21.8952 70.626 22.9377 70.626 24.0911C70.626 25.2445 70.8922 26.287 71.4246 27.2186C71.9791 28.1502 72.7111 28.9044 73.6205 29.4811C74.5521 30.0356 75.5946 30.3129 76.748 30.3129Z" fill="#142D6F"/>
<path d="M90.6237 34.0726V14.1096H94.8824V17.6364C95.5922 16.483 96.5017 15.5736 97.6107 14.9082C98.7198 14.2427 100.04 13.91 101.57 13.91L102.635 18.2686C102.213 18.1355 101.736 18.069 101.204 18.069C99.4296 18.069 97.9989 18.6346 96.912 19.7658C95.8473 20.897 95.315 22.5162 95.315 24.6234V34.0726H90.6237Z" fill="#142D6F"/>
<path d="M104.858 34.0726V14.1096H109.549V34.0726H104.858ZM107.22 10.849C106.466 10.849 105.823 10.5829 105.291 10.0505C104.758 9.51816 104.492 8.87491 104.492 8.12076C104.492 7.32224 104.758 6.6679 105.291 6.15774C105.823 5.62539 106.466 5.35922 107.22 5.35922C108.019 5.35922 108.673 5.62539 109.183 6.15774C109.716 6.69008 109.982 7.34442 109.982 8.12076C109.982 8.87491 109.716 9.51816 109.183 10.0505C108.651 10.5829 107.997 10.849 107.22 10.849Z" fill="#142D6F"/>
<path d="M112.356 34.0726L121.14 18.1022H112.988V14.1096H127.927L119.177 30.08H127.362V34.0726H112.356Z" fill="#142D6F"/>
<path d="M139.495 34.6049C137.543 34.6049 135.757 34.1391 134.138 33.2075C132.519 32.2537 131.232 30.9783 130.278 29.3813C129.325 27.7842 128.848 26.0209 128.848 24.0911C128.848 22.1392 129.325 20.3758 130.278 18.8009C131.232 17.2039 132.519 15.9396 134.138 15.008C135.757 14.0542 137.543 13.5773 139.495 13.5773C141.469 13.5773 143.254 14.0542 144.851 15.008C146.471 15.9396 147.757 17.2039 148.711 18.8009C149.665 20.3758 150.141 22.1392 150.141 24.0911C150.141 26.0209 149.665 27.7842 148.711 29.3813C147.757 30.9783 146.471 32.2537 144.851 33.2075C143.254 34.1391 141.469 34.6049 139.495 34.6049ZM139.495 30.3129C140.648 30.3129 141.679 30.0356 142.589 29.4811C143.52 28.9044 144.264 28.1502 144.818 27.2186C145.373 26.287 145.65 25.2445 145.65 24.0911C145.65 22.9377 145.373 21.8952 144.818 20.9636C144.264 20.032 143.52 19.2889 142.589 18.7344C141.657 18.1577 140.626 17.8693 139.495 17.8693C138.363 17.8693 137.332 18.1577 136.4 18.7344C135.469 19.2889 134.726 20.032 134.171 20.9636C133.639 21.8952 133.373 22.9377 133.373 24.0911C133.373 25.2445 133.639 26.287 134.171 27.2186C134.726 28.1502 135.458 28.9044 136.367 29.4811C137.299 30.0356 138.341 30.3129 139.495 30.3129Z" fill="#142D6F"/>
<path d="M153.37 34.0726V14.1096H157.629V16.8046C158.361 15.7621 159.27 14.9636 160.357 14.4091C161.466 13.8546 162.664 13.5773 163.951 13.5773C165.37 13.5773 166.69 13.9211 167.91 14.6087C169.13 15.2963 170.117 16.2945 170.871 17.6032C171.625 18.9118 172.002 20.4978 172.002 22.361V34.0726H167.311V22.9931C167.311 21.6401 166.912 20.4534 166.113 19.4331C165.315 18.3906 164.172 17.8693 162.686 17.8693C161.489 17.8693 160.413 18.2908 159.459 19.1336C158.527 19.9765 158.062 21.2297 158.062 22.8933V34.0726H153.37Z" fill="#142D6F"/>
</svg>
