<svg width="156" height="30" viewBox="0 0 156 30" fill="none" xmlns="http://www.w3.org/2000/svg">
<circle cx="15" cy="15" r="15" fill="#A3BDFF"/>
<path d="M15 27C15.7826 27 16.424 26.4245 16.5326 25.61C17.6087 18.3557 18.5978 17.3457 25.5762 16.553C26.3804 16.4552 27 15.782 27 15.0001C27 14.2072 26.3913 13.5557 25.587 13.4362C18.6522 12.4697 17.7935 11.6226 16.5326 4.37925C16.3913 3.57561 15.7717 3 15 3C14.2066 3 13.576 3.57561 13.4457 4.39005C12.3913 11.6335 11.4022 12.6435 4.43477 13.4362C3.60868 13.5449 3 14.1964 3 15.0001C3 15.782 3.58695 16.4335 4.41304 16.553C11.3586 17.5412 12.2065 18.3774 13.4457 25.6209C13.6087 26.4353 14.2391 27 15 27Z" fill="#142D6F"/>
<path d="M49.5761 3.45652V4.1087C48.837 4.13044 48.2717 4.21739 47.8804 4.36957C47.5109 4.5 47.2609 4.76087 47.1304 5.15218C47 5.52174 46.9348 6.1087 46.9348 6.91304V23.7391C46.9348 24.3261 46.9783 24.7717 47.0652 25.0761C47.1522 25.3587 47.3152 25.5543 47.5543 25.663C47.7935 25.75 48.1413 25.7935 48.5978 25.7935H49.6739C50.2391 25.7935 50.8478 25.5761 51.5 25.1413C52.1522 24.7065 52.7826 24.1087 53.3913 23.3478C54.0217 22.587 54.5652 21.7283 55.0217 20.7717C55.4783 19.7935 55.8043 18.7826 56 17.7391H56.75C56.6848 18.5217 56.6522 19.5217 56.6522 20.7391C56.6522 21.3043 56.663 22.1304 56.6848 23.2174C56.7065 24.2826 56.7717 25.3913 56.8804 26.5435C55.7717 26.5 54.5217 26.4783 53.1304 26.4783C51.7391 26.4565 50.5 26.4457 49.413 26.4457C48.8261 26.4457 48.0761 26.4457 47.163 26.4457C46.2717 26.4457 45.2935 26.4565 44.2283 26.4783C43.1848 26.4783 42.1196 26.4891 41.0326 26.5109C39.9674 26.5109 38.9565 26.5217 38 26.5435V25.8913C38.6739 25.8478 39.1739 25.7609 39.5 25.6304C39.8261 25.5 40.0435 25.2391 40.1522 24.8478C40.2609 24.4565 40.3152 23.8696 40.3152 23.087V6.91304C40.3152 6.1087 40.2609 5.52174 40.1522 5.15218C40.0435 4.76087 39.8152 4.5 39.4674 4.36957C39.1413 4.21739 38.6522 4.13044 38 4.1087V3.45652C38.6304 3.47826 39.4565 3.5 40.4783 3.52174C41.5217 3.54348 42.6304 3.55435 43.8043 3.55435C44.8913 3.55435 45.9565 3.54348 47 3.52174C48.0435 3.5 48.9022 3.47826 49.5761 3.45652Z" fill="#F6F4EF"/>
<path d="M71.6786 3C74.1351 3 76.2873 3.46739 78.1351 4.40218C79.9829 5.33696 81.4177 6.68478 82.4395 8.44565C83.4612 10.1848 83.9721 12.3043 83.9721 14.8043C83.9721 17.2391 83.4503 19.3696 82.4068 21.1957C81.3634 23.0217 79.9068 24.4457 78.0373 25.4674C76.1895 26.4891 74.059 27 71.646 27C69.1895 27 67.0373 26.5326 65.1895 25.5978C63.3416 24.663 61.9068 23.3152 60.8851 21.5543C59.8634 19.7935 59.3525 17.6739 59.3525 15.1957C59.3525 12.7609 59.8742 10.6304 60.9177 8.80435C61.9829 6.97826 63.4395 5.55435 65.2873 4.53261C67.1351 3.51087 69.2655 3 71.6786 3ZM71.5481 3.58696C70.4612 3.58696 69.5155 4.07609 68.7112 5.05435C67.9068 6.03261 67.2873 7.38044 66.8525 9.09783C66.4177 10.8152 66.2003 12.8043 66.2003 15.0652C66.2003 17.3696 66.4503 19.3804 66.9503 21.0978C67.4503 22.7935 68.1242 24.1087 68.9721 25.0435C69.8199 25.9565 70.7547 26.413 71.7764 26.413C72.8634 26.413 73.809 25.9239 74.6134 24.9457C75.4177 23.9674 76.0373 22.6196 76.4721 20.9022C76.9068 19.163 77.1242 17.1739 77.1242 14.9348C77.1242 12.6087 76.8742 10.5978 76.3742 8.90217C75.8742 7.20652 75.2003 5.90218 74.3525 4.98913C73.5047 4.05435 72.5699 3.58696 71.5481 3.58696Z" fill="#F6F4EF"/>
<path d="M108.662 3.45652V4.1087C108.01 4.23913 107.51 4.46739 107.162 4.79348C106.836 5.11957 106.619 5.63044 106.51 6.32609C106.401 7 106.347 7.95652 106.347 9.19565V26.5435C106.021 26.5 105.662 26.4783 105.271 26.4783C104.901 26.4783 104.499 26.5 104.065 26.5435L89.6189 10.7609V20.1522C89.6189 21.6087 89.6732 22.7283 89.7819 23.5109C89.9124 24.2717 90.2058 24.8261 90.6624 25.1739C91.1406 25.5 91.8906 25.7391 92.9124 25.8913V26.5435C92.4776 26.5 91.9124 26.4783 91.2167 26.4783C90.5211 26.4565 89.8689 26.4457 89.2602 26.4457C88.7819 26.4457 88.2928 26.4565 87.7928 26.4783C87.2928 26.4783 86.8798 26.5 86.5537 26.5435V25.8913C87.2276 25.7391 87.7276 25.5109 88.0537 25.2065C88.3798 24.8804 88.5971 24.3696 88.7058 23.6739C88.8145 22.9783 88.8689 22.0217 88.8689 20.8043V6.91304C88.8689 6.1087 88.8145 5.52174 88.7058 5.15218C88.5971 4.76087 88.3689 4.5 88.0211 4.36957C87.695 4.21739 87.2058 4.13044 86.5537 4.1087V3.45652C86.8798 3.47826 87.2928 3.5 87.7928 3.52174C88.2928 3.54348 88.7819 3.55435 89.2602 3.55435C89.8037 3.55435 90.3363 3.54348 90.858 3.52174C91.3798 3.5 91.8471 3.47826 92.2602 3.45652L105.597 17.5435V9.84783C105.597 8.3913 105.532 7.28261 105.401 6.52174C105.293 5.73913 105.01 5.17391 104.554 4.82609C104.097 4.47826 103.347 4.23913 102.304 4.1087V3.45652C102.738 3.47826 103.304 3.5 103.999 3.52174C104.695 3.54348 105.347 3.55435 105.956 3.55435C106.456 3.55435 106.945 3.54348 107.423 3.52174C107.923 3.5 108.336 3.47826 108.662 3.45652Z" fill="#F6F4EF"/>
<path d="M130.877 3.42391V4.07609C130.377 4.31522 129.845 4.77174 129.279 5.44565C128.714 6.09783 128.095 7.08696 127.421 8.41304L121.551 20.0543H119.366L111.736 5.93478C111.366 5.23913 111.019 4.76087 110.692 4.5C110.366 4.23913 110.084 4.1087 109.845 4.1087V3.42391C110.519 3.48913 111.214 3.54348 111.932 3.58696C112.671 3.6087 113.475 3.61957 114.345 3.61957C115.453 3.61957 116.649 3.59783 117.932 3.55435C119.236 3.51087 120.432 3.46739 121.519 3.42391V4.1087C120.975 4.1087 120.475 4.13044 120.019 4.17391C119.562 4.21739 119.236 4.32609 119.04 4.5C118.845 4.65217 118.845 4.93478 119.04 5.34783L123.964 14.8043L122.432 16.8261L125.171 11.3478C126.084 9.54348 126.584 8.11957 126.671 7.07609C126.779 6.03261 126.595 5.28261 126.116 4.82609C125.638 4.34783 124.964 4.09783 124.095 4.07609V3.42391C124.921 3.44565 125.649 3.46739 126.279 3.48913C126.932 3.51087 127.627 3.52174 128.366 3.52174C128.801 3.52174 129.247 3.51087 129.703 3.48913C130.16 3.46739 130.551 3.44565 130.877 3.42391ZM124.388 13.7283V23.087C124.388 23.8696 124.442 24.4565 124.551 24.8478C124.682 25.2391 124.91 25.5 125.236 25.6304C125.562 25.7609 126.051 25.8478 126.703 25.8913V26.5435C126.073 26.5 125.236 26.4783 124.192 26.4783C123.149 26.4565 122.116 26.4457 121.095 26.4457C119.986 26.4457 118.91 26.4565 117.866 26.4783C116.845 26.4783 116.04 26.5 115.453 26.5435V25.8913C116.127 25.8478 116.627 25.7609 116.953 25.6304C117.279 25.5 117.497 25.2391 117.605 24.8478C117.714 24.4565 117.769 23.8696 117.769 23.087V16.4022L121.323 18.4239L124.388 13.7283Z" fill="#F6F4EF"/>
<path d="M143.647 3C146.104 3 148.256 3.46739 150.104 4.40218C151.951 5.33696 153.386 6.68478 154.408 8.44565C155.43 10.1848 155.94 12.3043 155.94 14.8043C155.94 17.2391 155.419 19.3696 154.375 21.1957C153.332 23.0217 151.875 24.4457 150.006 25.4674C148.158 26.4891 146.027 27 143.614 27C141.158 27 139.006 26.5326 137.158 25.5978C135.31 24.663 133.875 23.3152 132.854 21.5543C131.832 19.7935 131.321 17.6739 131.321 15.1957C131.321 12.7609 131.843 10.6304 132.886 8.80435C133.951 6.97826 135.408 5.55435 137.256 4.53261C139.104 3.51087 141.234 3 143.647 3ZM143.517 3.58696C142.43 3.58696 141.484 4.07609 140.68 5.05435C139.875 6.03261 139.256 7.38044 138.821 9.09783C138.386 10.8152 138.169 12.8043 138.169 15.0652C138.169 17.3696 138.419 19.3804 138.919 21.0978C139.419 22.7935 140.093 24.1087 140.94 25.0435C141.788 25.9565 142.723 26.413 143.745 26.413C144.832 26.413 145.777 25.9239 146.582 24.9457C147.386 23.9674 148.006 22.6196 148.44 20.9022C148.875 19.163 149.093 17.1739 149.093 14.9348C149.093 12.6087 148.843 10.5978 148.343 8.90217C147.843 7.20652 147.169 5.90218 146.321 4.98913C145.473 4.05435 144.538 3.58696 143.517 3.58696Z" fill="#F6F4EF"/>
</svg>
