<svg width="645" height="250" viewBox="0 0 645 250" fill="none" xmlns="http://www.w3.org/2000/svg">
<path d="M118.785 245.856V202.003H0V165.055L90.4696 4.14363H165.055V161.602H196.823V202.003H165.055V245.856H118.785ZM49.7238 161.602H121.892V32.4586H120.511L49.7238 161.602Z" fill="url(#paint0_linear_0_6372)"/>
<path d="M322.178 250C299.848 250 280.626 244.705 264.512 234.116C248.398 223.527 235.967 208.909 227.219 190.262C218.701 171.386 214.443 149.632 214.443 125C214.443 100.368 218.701 78.7293 227.219 60.0829C235.967 41.2063 248.283 26.4733 264.167 15.884C280.281 5.29466 299.618 0 322.178 0C344.507 0 363.614 5.29466 379.498 15.884C395.612 26.4733 407.928 41.2063 416.446 60.0829C425.193 78.7293 429.567 100.368 429.567 125C429.567 149.632 425.193 171.386 416.446 190.262C407.928 208.909 395.612 223.527 379.498 234.116C363.614 244.705 344.507 250 322.178 250ZM322.178 208.218C333.918 208.218 344.277 204.88 353.255 198.204C362.463 191.298 369.484 181.63 374.318 169.199C379.383 156.768 381.915 142.035 381.915 125C381.915 107.735 379.383 93.0018 374.318 80.8011C369.484 68.3702 362.463 58.8168 353.255 52.1409C344.277 45.465 333.918 42.1271 322.178 42.1271C310.437 42.1271 299.963 45.465 290.755 52.1409C281.777 58.8168 274.756 68.3702 269.691 80.8011C264.627 93.0018 262.095 107.735 262.095 125C262.095 142.035 264.627 156.768 269.691 169.199C274.756 181.63 281.777 191.298 290.755 198.204C299.963 204.88 310.437 208.218 322.178 208.218Z" fill="url(#paint1_linear_0_6372)"/>
<path d="M566.055 245.856V202.003H447.27V165.055L537.74 4.14363H612.326V161.602H644.094V202.003H612.326V245.856H566.055ZM496.994 161.602H569.162V32.4586H567.781L496.994 161.602Z" fill="url(#paint2_linear_0_6372)"/>
<defs>
<linearGradient id="paint0_linear_0_6372" x1="322.047" y1="0" x2="322.047" y2="250" gradientUnits="userSpaceOnUse">
<stop offset="0.145" stop-color="#142D6F"/>
<stop offset="1" stop-color="#F6F4EF"/>
</linearGradient>
<linearGradient id="paint1_linear_0_6372" x1="322.047" y1="0" x2="322.047" y2="250" gradientUnits="userSpaceOnUse">
<stop offset="0.145" stop-color="#142D6F"/>
<stop offset="1" stop-color="#F6F4EF"/>
</linearGradient>
<linearGradient id="paint2_linear_0_6372" x1="322.047" y1="0" x2="322.047" y2="250" gradientUnits="userSpaceOnUse">
<stop offset="0.145" stop-color="#142D6F"/>
<stop offset="1" stop-color="#F6F4EF"/>
</linearGradient>
</defs>
</svg>
