<svg width="21" height="22" viewBox="0 0 21 22" fill="none" xmlns="http://www.w3.org/2000/svg">
<path d="M20.2357 5.72408C20.048 5.82131 19.8293 5.84001 19.6278 5.77607C19.4262 5.71213 19.2583 5.57079 19.161 5.38311C18.3996 3.87913 17.2473 2.60797 15.825 1.7032C15.7364 1.64729 15.6596 1.57448 15.5991 1.48891C15.5386 1.40334 15.4956 1.30669 15.4724 1.20448C15.4493 1.10227 15.4465 0.996506 15.4642 0.893221C15.4819 0.789936 15.5198 0.691155 15.5758 0.602517C15.6317 0.513879 15.7045 0.437121 15.79 0.376624C15.8756 0.316128 15.9723 0.273078 16.0745 0.249933C16.1767 0.226788 16.2824 0.224001 16.3857 0.241732C16.489 0.259462 16.5878 0.297362 16.6764 0.353268C18.334 1.41461 19.68 2.89717 20.5767 4.64932C20.6739 4.83708 20.6926 5.05575 20.6287 5.25728C20.5647 5.45882 20.4234 5.62672 20.2357 5.72408ZM1.46328 5.81381C1.6094 5.81375 1.7527 5.77355 1.87753 5.6976C2.00236 5.62164 2.10393 5.51286 2.17115 5.38311C2.93245 3.87913 4.0848 2.60797 5.50709 1.7032C5.68611 1.59029 5.81293 1.4109 5.85968 1.20448C5.90642 0.998061 5.86925 0.781529 5.75634 0.602517C5.64343 0.423505 5.46404 0.296677 5.25762 0.249933C5.0512 0.20319 4.83467 0.240361 4.65566 0.353268C2.99806 1.41461 1.65209 2.89717 0.755411 4.64932C0.692439 4.77088 0.661812 4.90659 0.666479 5.04341C0.671146 5.18022 0.71095 5.31354 0.782059 5.43052C0.853168 5.5475 0.953189 5.6442 1.0725 5.71133C1.1918 5.77846 1.32638 5.81376 1.46328 5.81381ZM20.0174 16.1766C20.1587 16.4189 20.2336 16.6942 20.2345 16.9747C20.2355 17.2552 20.1625 17.531 20.0229 17.7743C19.8832 18.0175 19.6819 18.2197 19.4392 18.3603C19.1965 18.501 18.921 18.5752 18.6405 18.5754H14.5728C14.3897 19.4769 13.9006 20.2874 13.1884 20.8695C12.4761 21.4517 11.5845 21.7697 10.6646 21.7697C9.74464 21.7697 8.85301 21.4517 8.14075 20.8695C7.42849 20.2874 6.93939 19.4769 6.75633 18.5754H2.68859C2.40825 18.5748 2.13301 18.5004 1.8906 18.3596C1.64818 18.2188 1.44715 18.0166 1.30775 17.7734C1.16835 17.5302 1.0955 17.2545 1.09655 16.9742C1.0976 16.6939 1.17251 16.4188 1.31373 16.1766C2.21202 14.6263 2.68859 12.4219 2.68859 9.8018C2.68859 7.68644 3.52891 5.65772 5.02469 4.16194C6.52048 2.66615 8.54919 1.82583 10.6646 1.82583C12.7799 1.82583 14.8086 2.66615 16.3044 4.16194C17.8002 5.65772 18.6405 7.68644 18.6405 9.8018C18.6405 12.4209 19.1171 14.6253 20.0174 16.1766ZM12.9198 18.5754H8.40935C8.57459 19.0414 8.88014 19.4447 9.28398 19.73C9.68782 20.0153 10.1701 20.1685 10.6646 20.1685C11.159 20.1685 11.6413 20.0153 12.0451 19.73C12.449 19.4447 12.7545 19.0414 12.9198 18.5754ZM18.6405 16.9802C17.5797 15.1587 17.0453 12.7439 17.0453 9.8018C17.0453 8.10951 16.3731 6.48654 15.1764 5.28991C13.9798 4.09328 12.3568 3.42102 10.6646 3.42102C8.97227 3.42102 7.34929 4.09328 6.15266 5.28991C4.95604 6.48654 4.28378 8.10951 4.28378 9.8018C4.28378 12.7449 3.7474 15.1597 2.68859 16.9802H18.6405Z" fill="#142D6F"/>
</svg>
