<svg width="189" height="61" viewBox="0 0 189 61" fill="none" xmlns="http://www.w3.org/2000/svg">
<rect width="188.728" height="60.9122" rx="3" fill="black"/>
<path d="M73.3187 44.4375L71.5938 40.0052H64.5596L62.8795 44.4375H60.5273L66.8446 28.5663H69.376L75.6933 44.4375H73.3187ZM68.0543 30.8496L65.3437 37.9681H70.8097L68.0543 30.8496ZM79.6893 48.6907H77.6059V33.6701H79.6445V35.349C79.9581 34.7819 80.4286 34.3193 81.0558 33.9611C81.6831 33.603 82.4148 33.4239 83.2512 33.4239C84.8043 33.4239 86.014 33.9537 86.8802 35.0132C87.7614 36.0728 88.2019 37.4159 88.2019 39.0426C88.2019 40.6842 87.7464 42.0423 86.8354 43.1168C85.9394 44.1913 84.7222 44.7285 83.184 44.7285C82.3924 44.7285 81.6905 44.5643 81.0782 44.236C80.4659 43.9077 80.0029 43.4898 79.6893 42.9824V48.6907ZM86.0514 39.0426C86.0514 37.9532 85.7602 37.0578 85.1777 36.3564C84.6102 35.64 83.8411 35.2819 82.8703 35.2819C81.9145 35.2819 81.1379 35.64 80.5406 36.3564C79.9581 37.0578 79.6669 37.9532 79.6669 39.0426C79.6669 40.1619 79.9581 41.0797 80.5406 41.796C81.1379 42.4974 81.9145 42.8481 82.8703 42.8481C83.8261 42.8481 84.5953 42.4974 85.1777 41.796C85.7602 41.0797 86.0514 40.1619 86.0514 39.0426ZM92.9685 48.6907H90.8851V33.6701H92.9237V35.349C93.2373 34.7819 93.7077 34.3193 94.335 33.9611C94.9622 33.603 95.694 33.4239 96.5303 33.4239C98.0835 33.4239 99.2932 33.9537 100.159 35.0132C101.041 36.0728 101.481 37.4159 101.481 39.0426C101.481 40.6842 101.026 42.0423 100.115 43.1168C99.2185 44.1913 98.0014 44.7285 96.4631 44.7285C95.6716 44.7285 94.9697 44.5643 94.3574 44.236C93.7451 43.9077 93.2821 43.4898 92.9685 42.9824V48.6907ZM99.3305 39.0426C99.3305 37.9532 99.0393 37.0578 98.4569 36.3564C97.8894 35.64 97.1203 35.2819 96.1495 35.2819C95.1937 35.2819 94.4171 35.64 93.8197 36.3564C93.2373 37.0578 92.9461 37.9532 92.9461 39.0426C92.9461 40.1619 93.2373 41.0797 93.8197 41.796C94.4171 42.4974 95.1937 42.8481 96.1495 42.8481C97.1053 42.8481 97.8744 42.4974 98.4569 41.796C99.0393 41.0797 99.3305 40.1619 99.3305 39.0426ZM120.115 32.1703L118.143 32.8642C118.039 32.1778 117.703 31.5584 117.135 31.0063C116.568 30.4392 115.784 30.1556 114.783 30.1556C113.902 30.1556 113.17 30.4093 112.588 30.9167C112.005 31.4241 111.714 32.0509 111.714 32.7971C111.714 33.3791 111.885 33.8716 112.229 34.2745C112.588 34.6775 113.096 34.9535 113.753 35.1028L116.127 35.6177C117.441 35.9012 118.457 36.4384 119.174 37.2294C119.891 38.0054 120.249 38.9531 120.249 40.0723C120.249 41.3558 119.741 42.4601 118.726 43.3854C117.71 44.3106 116.389 44.7733 114.761 44.7733C112.984 44.7733 111.587 44.3106 110.571 43.3854C109.57 42.4452 108.988 41.3334 108.824 40.05L110.929 39.3784C111.019 40.3335 111.392 41.1394 112.05 41.796C112.707 42.4527 113.603 42.781 114.738 42.781C115.784 42.781 116.59 42.5422 117.158 42.0646C117.725 41.5871 118.009 40.9827 118.009 40.2514C118.009 39.6545 117.807 39.1396 117.404 38.7068C117.001 38.2591 116.411 37.9532 115.634 37.789L113.372 37.2966C112.191 37.0429 111.251 36.5429 110.549 35.7967C109.847 35.0506 109.496 34.1029 109.496 32.9538C109.496 31.7002 110.004 30.6033 111.019 29.6631C112.05 28.708 113.29 28.2305 114.738 28.2305C116.366 28.2305 117.613 28.6259 118.479 29.4169C119.346 30.2078 119.891 31.1256 120.115 32.1703ZM125.648 30.2675V33.6701H127.978V35.5729H125.648V41.1692C125.648 41.6766 125.76 42.0497 125.984 42.2885C126.223 42.5273 126.611 42.6467 127.149 42.6467C127.462 42.6467 127.739 42.6168 127.978 42.5571V44.348C127.619 44.4823 127.141 44.5494 126.544 44.5494C125.618 44.5494 124.886 44.2808 124.349 43.7435C123.811 43.2063 123.542 42.4527 123.542 41.4826V35.5729H121.481V33.6701H122.064C122.616 33.6701 123.027 33.5209 123.296 33.2224C123.579 32.909 123.721 32.5061 123.721 32.0136V30.2675H125.648ZM132.896 41.8856C133.554 42.5571 134.353 42.8929 135.293 42.8929C136.234 42.8929 137.026 42.5571 137.668 41.8856C138.325 41.1991 138.654 40.2514 138.654 39.0426C138.654 37.8487 138.325 36.916 137.668 36.2444C137.026 35.558 136.234 35.2147 135.293 35.2147C134.353 35.2147 133.554 35.558 132.896 36.2444C132.254 36.916 131.933 37.8487 131.933 39.0426C131.933 40.2514 132.254 41.1991 132.896 41.8856ZM131.328 34.9685C132.374 33.8791 133.695 33.3343 135.293 33.3343C136.891 33.3343 138.206 33.8791 139.236 34.9685C140.282 36.043 140.804 37.401 140.804 39.0426C140.804 40.6991 140.289 42.0721 139.259 43.1615C138.228 44.236 136.906 44.7733 135.293 44.7733C133.681 44.7733 132.359 44.236 131.328 43.1615C130.298 42.0721 129.783 40.6991 129.783 39.0426C129.783 37.401 130.298 36.043 131.328 34.9685ZM149.48 33.5582V35.7967C149.166 35.752 148.86 35.7296 148.562 35.7296C146.59 35.7296 145.605 36.8339 145.605 39.0426V44.4375H143.499V33.6701H145.56V35.5505C146.217 34.1775 147.292 33.491 148.786 33.491C149.025 33.491 149.256 33.5134 149.48 33.5582ZM152.981 37.9457H158.873C158.843 37.1399 158.574 36.4832 158.066 35.9758C157.559 35.4535 156.842 35.1923 155.916 35.1923C155.079 35.1923 154.392 35.4684 153.855 36.0206C153.317 36.5578 153.026 37.1996 152.981 37.9457ZM159.186 40.7439L161.001 41.3707C160.687 42.3706 160.105 43.1914 159.254 43.8331C158.402 44.4599 157.372 44.7733 156.162 44.7733C154.654 44.7733 153.369 44.2584 152.309 43.2287C151.264 42.184 150.741 40.7812 150.741 39.0202C150.741 37.3786 151.249 36.0206 152.264 34.9461C153.28 33.8716 154.49 33.3343 155.893 33.3343C157.521 33.3343 158.791 33.8492 159.702 34.8789C160.613 35.8937 161.068 37.2592 161.068 38.9755C161.068 39.2441 161.053 39.4679 161.023 39.647H152.914C152.929 40.6021 153.242 41.3856 153.855 41.9975C154.482 42.6094 155.251 42.9153 156.162 42.9153C157.7 42.9153 158.709 42.1915 159.186 40.7439Z" fill="white"/>
<path opacity="0.6" d="M62.1738 18.8286V14.9656H63.1211C64.111 14.9656 64.9303 15.5881 64.9303 16.9014C64.9303 18.2146 64.1025 18.8286 63.1125 18.8286H62.1738ZM63.1552 19.9202C64.8791 19.9202 66.1506 18.8116 66.1506 16.9014C66.1506 14.9911 64.8876 13.874 63.1637 13.874H60.9961V19.9202H63.1552ZM69.1003 16.8928C69.1003 15.5284 70.0561 14.8803 70.9863 14.8803C71.925 14.8803 72.8808 15.5284 72.8808 16.8928C72.8808 18.2573 71.925 18.9054 70.9863 18.9054C70.0561 18.9054 69.1003 18.2573 69.1003 16.8928ZM67.8799 16.9014C67.8799 18.8457 69.3478 20.0481 70.9863 20.0481C72.6333 20.0481 74.1012 18.8457 74.1012 16.9014C74.1012 14.9485 72.6333 13.7461 70.9863 13.7461C69.3478 13.7461 67.8799 14.9485 67.8799 16.9014ZM81.664 18.0526L80.3156 13.874H79.0952L77.7554 18.0356L76.646 13.874H75.4L77.0812 19.9202H78.3101L79.6926 15.6137L81.0751 19.9202H82.2869L83.9596 13.874H82.7563L81.664 18.0526ZM90.9859 19.9202V13.874H89.8083V17.8735L87.2907 13.874H85.8229V19.9202H87.0006V15.6307L89.7485 19.9202H90.9859ZM97.3063 19.9202V18.7945H94.6096V13.874H93.4319V19.9202H97.3063ZM99.9358 16.8928C99.9358 15.5284 100.892 14.8803 101.822 14.8803C102.761 14.8803 103.716 15.5284 103.716 16.8928C103.716 18.2573 102.761 18.9054 101.822 18.9054C100.892 18.9054 99.9358 18.2573 99.9358 16.8928ZM98.7155 16.9014C98.7155 18.8457 100.183 20.0481 101.822 20.0481C103.469 20.0481 104.937 18.8457 104.937 16.9014C104.937 14.9485 103.469 13.7461 101.822 13.7461C100.183 13.7461 98.7155 14.9485 98.7155 16.9014ZM110.838 19.9202H112.118L109.814 13.874H108.448L106.127 19.9202H107.373L107.876 18.5387H110.334L110.838 19.9202ZM109.105 15.1788L109.942 17.4642H108.269L109.105 15.1788ZM115.136 18.8286V14.9656H116.083C117.073 14.9656 117.892 15.5881 117.892 16.9014C117.892 18.2146 117.064 18.8286 116.074 18.8286H115.136ZM116.117 19.9202C117.841 19.9202 119.112 18.8116 119.112 16.9014C119.112 14.9911 117.849 13.874 116.126 13.874H113.958V19.9202H116.117ZM125.238 16.8928C125.238 15.5284 126.193 14.8803 127.124 14.8803C128.062 14.8803 129.018 15.5284 129.018 16.8928C129.018 18.2573 128.062 18.9054 127.124 18.9054C126.193 18.9054 125.238 18.2573 125.238 16.8928ZM124.017 16.9014C124.017 18.8457 125.485 20.0481 127.124 20.0481C128.771 20.0481 130.239 18.8457 130.239 16.9014C130.239 14.9485 128.771 13.7461 127.124 13.7461C125.485 13.7461 124.017 14.9485 124.017 16.9014ZM137.489 19.9202V13.874H136.312V17.8735L133.794 13.874H132.326V19.9202H133.504V15.6307L136.252 19.9202H137.489ZM147.566 14.9911V13.874H142.556V14.9911H144.468V19.9202H145.654V14.9911H147.566ZM154.462 19.9202V13.874H153.276V16.3044H150.639V13.874H149.461V19.9202H150.639V17.413H153.276V19.9202H154.462ZM160.701 19.9202V18.8116H158.089V17.413H160.453V16.3641H158.089V14.9826H160.701V13.874H156.911V19.9202H160.701Z" fill="white"/>
<path d="M46.3047 38.0601C45.6119 39.5931 45.2812 40.2773 44.3892 41.6317C43.1465 43.5232 41.393 45.879 39.2201 45.8989C37.29 45.9169 36.794 44.6437 34.1738 44.6591C31.5536 44.6744 31.0076 45.9216 29.0774 45.9036C26.9045 45.8843 25.2445 43.757 24.0003 41.8642C20.5227 36.5743 20.1594 30.3671 22.3042 27.0673C23.8284 24.7207 26.2339 23.3497 28.4947 23.3497C30.7969 23.3497 32.2443 24.6108 34.1485 24.6108C35.9952 24.6108 37.12 23.3477 39.7822 23.3477C41.7944 23.3477 43.9265 24.4423 45.446 26.3337C40.4676 29.0592 41.277 36.1606 46.3047 38.0601Z" fill="white"/>
<path d="M38.0399 20.0367C39.0072 18.7962 39.7406 17.0461 39.4739 15.2559C37.8938 15.3638 36.047 16.3685 34.9683 17.6776C33.9889 18.8656 33.1801 20.6277 33.4948 22.3405C35.2183 22.3946 37.0031 21.3652 38.0399 20.0367Z" fill="white"/>
</svg>
