<svg width="60" height="60" viewBox="0 0 60 60" fill="none" xmlns="http://www.w3.org/2000/svg">
<rect width="60" height="60" rx="5" fill="#A3BDFF"/>
<path d="M45.5 18H15.5C14.837 18 14.2011 18.2634 13.7322 18.7322C13.2634 19.2011 13 19.837 13 20.5V40.5C13 41.163 13.2634 41.7989 13.7322 42.2678C14.2011 42.7366 14.837 43 15.5 43H45.5C46.163 43 46.7989 42.7366 47.2678 42.2678C47.7366 41.7989 48 41.163 48 40.5V20.5C48 19.837 47.7366 19.2011 47.2678 18.7322C46.7989 18.2634 46.163 18 45.5 18ZM45.5 20.5V24.25H15.5V20.5H45.5ZM45.5 40.5H15.5V26.75H45.5V40.5ZM43 36.75C43 37.0815 42.8683 37.3995 42.6339 37.6339C42.3995 37.8683 42.0815 38 41.75 38H36.75C36.4185 38 36.1005 37.8683 35.8661 37.6339C35.6317 37.3995 35.5 37.0815 35.5 36.75C35.5 36.4185 35.6317 36.1005 35.8661 35.8661C36.1005 35.6317 36.4185 35.5 36.75 35.5H41.75C42.0815 35.5 42.3995 35.6317 42.6339 35.8661C42.8683 36.1005 43 36.4185 43 36.75ZM33 36.75C33 37.0815 32.8683 37.3995 32.6339 37.6339C32.3995 37.8683 32.0815 38 31.75 38H29.25C28.9185 38 28.6005 37.8683 28.3661 37.6339C28.1317 37.3995 28 37.0815 28 36.75C28 36.4185 28.1317 36.1005 28.3661 35.8661C28.6005 35.6317 28.9185 35.5 29.25 35.5H31.75C32.0815 35.5 32.3995 35.6317 32.6339 35.8661C32.8683 36.1005 33 36.4185 33 36.75Z" fill="#142D6F"/>
</svg>
