<svg width="60" height="60" viewBox="0 0 60 60" fill="none" xmlns="http://www.w3.org/2000/svg">
<rect width="60" height="60" rx="5" fill="#A3BDFF"/>
<path d="M23.2158 30.0382C23.2235 32.8708 22.569 35.666 21.3044 38.2007C21.244 38.3321 21.1579 38.45 21.0511 38.5475C20.9443 38.645 20.819 38.72 20.6826 38.7682C20.5463 38.8163 20.4016 38.8366 20.2573 38.8278C20.1129 38.819 19.9718 38.7812 19.8423 38.7169C19.7129 38.6525 19.5976 38.5627 19.5035 38.453C19.4093 38.3432 19.3382 38.2157 19.2942 38.0779C19.2503 37.9401 19.2345 37.7949 19.2478 37.6509C19.2611 37.5069 19.3031 37.367 19.3714 37.2396C20.4864 35.0032 21.0633 32.5371 21.056 30.0382C21.0535 28.581 21.3799 27.142 22.011 25.8285C22.642 24.515 23.5614 23.3609 24.7006 22.4522C24.9241 22.2732 25.2097 22.1903 25.4943 22.2218C25.779 22.2534 26.0395 22.3967 26.2185 22.6202C26.3975 22.8438 26.4803 23.1293 26.4488 23.414C26.4173 23.6986 26.274 23.9591 26.0504 24.1381C25.1642 24.8447 24.4489 25.7423 23.9581 26.7639C23.4673 27.7855 23.2135 28.9048 23.2158 30.0382ZM30.7748 28.9584C30.4884 28.9584 30.2137 29.0721 30.0112 29.2747C29.8087 29.4772 29.6949 29.7518 29.6949 30.0382C29.6947 34.2454 28.6265 38.3836 26.5903 42.0652C26.4514 42.3158 26.4178 42.6113 26.4968 42.8867C26.5757 43.1622 26.7609 43.3949 27.0115 43.5338C27.2621 43.6727 27.5576 43.7064 27.833 43.6274C28.1084 43.5484 28.3412 43.3633 28.4801 43.1127C30.6933 39.1103 31.8544 34.6117 31.8547 30.0382C31.8547 29.7518 31.7409 29.4772 31.5384 29.2747C31.3359 29.0721 31.0612 28.9584 30.7748 28.9584ZM30.7748 24.6389C29.3428 24.6389 27.9695 25.2078 26.9569 26.2203C25.9443 27.2329 25.3755 28.6062 25.3755 30.0382C25.3755 30.3246 25.4893 30.5993 25.6918 30.8018C25.8943 31.0043 26.169 31.1181 26.4554 31.1181C26.7418 31.1181 27.0164 31.0043 27.2189 30.8018C27.4214 30.5993 27.5352 30.3246 27.5352 30.0382C27.5352 29.179 27.8765 28.355 28.4841 27.7475C29.0916 27.14 29.9156 26.7986 30.7748 26.7986C31.634 26.7986 32.458 27.14 33.0655 27.7475C33.6731 28.355 34.0144 29.179 34.0144 30.0382C34.0256 34.332 33.0798 38.5743 31.2459 42.4567C31.1854 42.5853 31.1508 42.7245 31.144 42.8665C31.1373 43.0085 31.1586 43.1504 31.2068 43.2842C31.2549 43.4179 31.3289 43.5408 31.4246 43.646C31.5202 43.7511 31.6356 43.8364 31.7642 43.8969C31.8928 43.9575 32.0321 43.9921 32.1741 43.9988C32.3161 44.0055 32.458 43.9842 32.5917 43.9361C32.7255 43.8879 32.8484 43.8139 32.9536 43.7183C33.0587 43.6226 33.144 43.5072 33.2045 43.3786C35.173 39.2076 36.1875 34.6504 36.1741 30.0382C36.1741 28.6062 35.6053 27.2329 34.5927 26.2203C33.5801 25.2078 32.2068 24.6389 30.7748 24.6389ZM30.7748 16C27.0528 16.0039 23.4845 17.4842 20.8526 20.116C18.2208 22.7479 16.7405 26.3163 16.7366 30.0382C16.7386 31.3867 16.5103 32.7256 16.0617 33.9973C15.9663 34.2674 15.9821 34.5643 16.1056 34.8228C16.2291 35.0813 16.4503 35.2801 16.7204 35.3755C16.9905 35.4709 17.2874 35.4551 17.5459 35.3315C17.8044 35.208 18.0032 34.9869 18.0986 34.7167C18.6283 33.2139 18.8981 31.6317 18.8963 30.0382C18.8963 26.8879 20.1478 23.8665 22.3754 21.6389C24.6031 19.4112 27.6244 18.1597 30.7748 18.1597C33.9252 18.1597 36.9465 19.4112 39.1742 21.6389C41.4018 23.8665 42.6533 26.8879 42.6533 30.0382C42.6539 32.5055 42.4147 34.967 41.9393 37.3881C41.9118 37.5272 41.9119 37.6704 41.9398 37.8095C41.9676 37.9486 42.0226 38.0808 42.1016 38.1986C42.1806 38.3165 42.282 38.4176 42.4 38.4962C42.5181 38.5748 42.6505 38.6294 42.7896 38.6569C42.8586 38.6702 42.9286 38.677 42.9989 38.6771C43.2488 38.6769 43.4908 38.59 43.6838 38.4312C43.8768 38.2724 44.0087 38.0517 44.0571 37.8065C44.56 35.2477 44.8132 32.646 44.813 30.0382C44.8088 26.3164 43.3284 22.7482 40.6966 20.1164C38.0649 17.4847 34.4967 16.0043 30.7748 16ZM26.2394 33.3008C25.9593 33.2451 25.6686 33.3025 25.4308 33.4606C25.193 33.6187 25.0275 33.8646 24.9705 34.1444C24.5324 36.301 23.7479 38.3723 22.6475 40.278C22.5043 40.5261 22.4655 40.8209 22.5397 41.0976C22.6138 41.3743 22.7949 41.6102 23.043 41.7534C23.2911 41.8966 23.5859 41.9354 23.8626 41.8612C24.1393 41.787 24.3752 41.606 24.5183 41.3579C25.7344 39.2505 26.6005 36.9598 27.083 34.575C27.1114 34.4359 27.1121 34.2926 27.085 34.1533C27.058 34.014 27.0037 33.8813 26.9254 33.763C26.847 33.6446 26.7461 33.5429 26.6284 33.4636C26.5107 33.3843 26.3785 33.329 26.2394 33.3008ZM30.7748 20.3195C30.3687 20.3195 29.963 20.3448 29.56 20.395C29.2811 20.4369 29.0297 20.5862 28.8594 20.811C28.6892 21.0357 28.6136 21.3182 28.6489 21.598C28.6841 21.8777 28.8274 22.1326 29.0481 22.3081C29.2688 22.4836 29.5494 22.5659 29.8299 22.5372C30.8938 22.4049 31.9735 22.5001 32.9978 22.8165C34.0221 23.1328 34.9675 23.6631 35.7715 24.3722C36.5754 25.0814 37.2196 25.9532 37.6613 26.93C38.1031 27.9068 38.3323 28.9662 38.3339 30.0382C38.3335 31.4371 38.247 32.8345 38.0747 34.2227C38.0557 34.3639 38.0649 34.5074 38.1017 34.645C38.1384 34.7826 38.2021 34.9116 38.2889 35.0245C38.3757 35.1374 38.484 35.2321 38.6076 35.303C38.7311 35.3738 38.8675 35.4196 39.0088 35.4375C39.0536 35.4429 39.0986 35.4456 39.1438 35.4456C39.4064 35.4451 39.6598 35.3488 39.8566 35.1749C40.0533 35.001 40.18 34.7613 40.2128 34.5008C40.3949 33.023 40.4851 31.5353 40.4828 30.0463C40.4821 27.4701 39.4597 24.9993 37.6397 23.1759C35.8198 21.3524 33.351 20.3252 30.7748 20.3195ZM38.5944 37.631C38.457 37.5955 38.314 37.5874 38.1734 37.6072C38.0329 37.627 37.8977 37.6743 37.7755 37.7463C37.6532 37.8184 37.5464 37.9139 37.4611 38.0273C37.3758 38.1407 37.3137 38.2698 37.2783 38.4072C37.0812 39.1752 36.8531 39.946 36.6034 40.7019C36.512 40.9727 36.5317 41.2687 36.6582 41.5251C36.7848 41.7814 37.0077 41.9771 37.2783 42.0693C37.3891 42.107 37.5054 42.1261 37.6225 42.126C37.8488 42.1258 38.0692 42.0546 38.2528 41.9223C38.4364 41.7901 38.5738 41.6035 38.6457 41.389C38.9156 40.5899 39.1573 39.7692 39.3678 38.9525C39.404 38.8151 39.4128 38.672 39.3935 38.5312C39.3743 38.3904 39.3275 38.2548 39.2557 38.1322C39.184 38.0096 39.0888 37.9023 38.9755 37.8165C38.8623 37.7308 38.7332 37.6682 38.5957 37.6324L38.5944 37.631Z" fill="#142D6F"/>
</svg>
