<svg width="60" height="60" viewBox="0 0 60 60" fill="none" xmlns="http://www.w3.org/2000/svg">
<rect width="60" height="60" rx="5" fill="#A3BDFF"/>
<path d="M38 24.7595V24C38 20.58 32.8414 18 26 18C19.1586 18 14 20.58 14 24V29.4545C14 32.3032 17.5795 34.5668 22.7273 35.2445V36C22.7273 39.42 27.8859 42 34.7273 42C41.5686 42 46.7273 39.42 46.7273 36V30.5455C46.7273 27.7227 43.2609 25.4564 38 24.7595ZM44.5455 30.5455C44.5455 32.3482 40.3468 34.3636 34.7273 34.3636C34.2186 34.3636 33.7141 34.3459 33.2164 34.3132C36.1577 33.2414 38 31.5 38 29.4545V26.9645C42.0732 27.5714 44.5455 29.2186 44.5455 30.5455ZM22.7273 33.0341V29.79C23.8124 29.9314 24.9057 30.0015 26 30C27.0943 30.0015 28.1876 29.9314 29.2727 29.79V33.0341C28.1892 33.1942 27.0953 33.2739 26 33.2727C24.9047 33.2739 23.8108 33.1942 22.7273 33.0341ZM35.8182 27.5359V29.4545C35.8182 30.5986 34.1259 31.8273 31.4545 32.5732V29.3864C33.215 28.9595 34.7055 28.3241 35.8182 27.5359ZM26 20.1818C31.6195 20.1818 35.8182 22.1973 35.8182 24C35.8182 25.8027 31.6195 27.8182 26 27.8182C20.3805 27.8182 16.1818 25.8027 16.1818 24C16.1818 22.1973 20.3805 20.1818 26 20.1818ZM16.1818 29.4545V27.5359C17.2945 28.3241 18.785 28.9595 20.5455 29.3864V32.5732C17.8741 31.8273 16.1818 30.5986 16.1818 29.4545ZM24.9091 36V35.4314C25.2677 35.445 25.6305 35.4545 26 35.4545C26.5291 35.4545 27.0459 35.4368 27.5532 35.4068C28.1167 35.6086 28.6907 35.7797 29.2727 35.9195V39.1186C26.6014 38.3727 24.9091 37.1441 24.9091 36ZM31.4545 39.5795V36.3273C32.5393 36.4731 33.6327 36.546 34.7273 36.5455C35.8216 36.547 36.9148 36.4769 38 36.3355V39.5795C35.8298 39.8977 33.6248 39.8977 31.4545 39.5795ZM40.1818 39.1186V35.9318C41.9423 35.505 43.4327 34.8695 44.5455 34.0814V36C44.5455 37.1441 42.8532 38.3727 40.1818 39.1186Z" fill="#142D6F"/>
</svg>
