<svg width="60" height="60" viewBox="0 0 60 60" fill="none" xmlns="http://www.w3.org/2000/svg">
<rect width="60" height="60" rx="5" fill="#A3BDFF"/>
<path d="M45.4545 16H22.5455C21.8704 16 21.2229 16.2682 20.7455 16.7455C20.2682 17.2229 20 17.8704 20 18.5455V41.4545C20 42.1296 20.2682 42.7771 20.7455 43.2545C21.2229 43.7318 21.8704 44 22.5455 44H45.4545C46.1296 44 46.7771 43.7318 47.2545 43.2545C47.7318 42.7771 48 42.1296 48 41.4545V18.5455C48 17.8704 47.7318 17.2229 47.2545 16.7455C46.7771 16.2682 46.1296 16 45.4545 16ZM35.2727 28.7273H45.4545V31.2727H35.2727V28.7273ZM35.2727 26.1818V23.6364H45.4545V26.1818H35.2727ZM35.2727 33.8182H45.4545V36.3636H35.2727V33.8182ZM45.4545 21.0909H35.2727V18.5455H45.4545V21.0909ZM22.5455 18.5455H32.7273V41.4545H22.5455V18.5455ZM45.4545 41.4545H35.2727V38.9091H45.4545V41.4545Z" fill="#142D6F"/>
</svg>
