<svg width="60" height="60" viewBox="0 0 60 60" fill="none" xmlns="http://www.w3.org/2000/svg">
<rect width="60" height="60" rx="5" fill="#A3BDFF"/>
<path d="M45.5898 33.0713C45.1557 32.7372 44.6503 32.5078 44.1131 32.4008C43.5759 32.2938 43.0213 32.3122 42.4923 32.4544L36.3906 33.8573C36.5326 33.2576 36.537 32.6336 36.4034 32.032C36.2699 31.4304 36.002 30.8668 35.6197 30.3834C35.2374 29.9001 34.7506 29.5096 34.1959 29.2411C33.6412 28.9727 33.0329 28.8333 32.4167 28.8333H25.1163C24.5032 28.8318 23.8959 28.9518 23.3294 29.1863C22.7629 29.4208 22.2486 29.7653 21.816 30.1998L18.5173 33.5H14.3333C13.7145 33.5 13.121 33.7458 12.6834 34.1834C12.2458 34.621 12 35.2145 12 35.8333V41.6667C12 42.2855 12.2458 42.879 12.6834 43.3166C13.121 43.7542 13.7145 44 14.3333 44H29.5C29.5954 44 29.6904 43.9883 29.7829 43.965L39.1162 41.6317C39.1757 41.6175 39.2338 41.598 39.2898 41.5733L44.9583 39.1613L45.0225 39.1321C45.5673 38.8599 46.0338 38.4534 46.3781 37.9511C46.7224 37.4487 46.9331 36.867 46.9905 36.2607C47.0478 35.6544 46.9498 35.0434 46.7058 34.4854C46.4618 33.9275 46.0797 33.4408 45.5956 33.0713H45.5898ZM14.3333 35.8333H17.8333V41.6667H14.3333V35.8333ZM44.0002 37.0306L38.4585 39.3902L29.3542 41.6667H20.1667V35.1494L23.4669 31.8506C23.6828 31.633 23.9397 31.4605 24.2229 31.3431C24.5061 31.2257 24.8097 31.1657 25.1163 31.1667H32.4167C32.8808 31.1667 33.3259 31.351 33.6541 31.6792C33.9823 32.0074 34.1667 32.4525 34.1667 32.9167C34.1667 33.3808 33.9823 33.8259 33.6541 34.1541C33.3259 34.4823 32.8808 34.6667 32.4167 34.6667H28.3333C28.0239 34.6667 27.7272 34.7896 27.5084 35.0084C27.2896 35.2272 27.1667 35.5239 27.1667 35.8333C27.1667 36.1428 27.2896 36.4395 27.5084 36.6583C27.7272 36.8771 28.0239 37 28.3333 37H33C33.0878 36.9998 33.1753 36.99 33.261 36.9708L43.0319 34.7235L43.0771 34.7119C43.3754 34.6291 43.6937 34.6595 43.9709 34.7973C44.2481 34.9351 44.4645 35.1706 44.5785 35.4583C44.6926 35.7461 44.6961 36.0659 44.5886 36.3562C44.481 36.6464 44.2699 36.8867 43.9958 37.0306H44.0002ZM35.9167 26.5C36.2049 26.5003 36.4927 26.4769 36.7771 26.43C37.097 27.3802 37.6822 28.2189 38.4637 28.847C39.2451 29.475 40.1901 29.8662 41.1868 29.9743C42.1835 30.0824 43.1904 29.9028 44.0883 29.4567C44.9862 29.0107 45.7376 28.3169 46.2537 27.4574C46.7698 26.5979 47.0289 25.6085 47.0006 24.6064C46.9722 23.6042 46.6575 22.6311 46.0936 21.8021C45.5297 20.9732 44.7403 20.323 43.8186 19.9285C42.8969 19.5339 41.8815 19.4116 40.8925 19.5758C40.5845 18.6604 40.0299 17.8476 39.2897 17.227C38.5496 16.6064 37.6526 16.202 36.6974 16.0584C35.7422 15.9147 34.766 16.0374 33.876 16.4128C32.986 16.7882 32.2169 17.4019 31.6532 18.1863C31.0896 18.9707 30.7532 19.8953 30.6812 20.8585C30.6092 21.8218 30.8043 22.7862 31.245 23.6457C31.6858 24.5051 32.3551 25.2264 33.1793 25.73C34.0036 26.2336 34.9508 26.5 35.9167 26.5ZM44.6667 24.75C44.6667 25.3269 44.4956 25.8908 44.1751 26.3704C43.8546 26.8501 43.3991 27.2239 42.8662 27.4447C42.3332 27.6654 41.7468 27.7232 41.181 27.6106C40.6152 27.4981 40.0955 27.2203 39.6876 26.8124C39.2797 26.4045 39.0019 25.8848 38.8894 25.319C38.7768 24.7532 38.8346 24.1668 39.0554 23.6338C39.2761 23.1009 39.6499 22.6454 40.1296 22.3249C40.6092 22.0044 41.1731 21.8333 41.75 21.8333C42.5235 21.8333 43.2654 22.1406 43.8124 22.6876C44.3594 23.2346 44.6667 23.9765 44.6667 24.75ZM35.9167 18.3333C36.5529 18.3337 37.1717 18.542 37.6785 18.9267C38.1853 19.3114 38.5525 19.8512 38.724 20.464C38.1264 20.8844 37.6232 21.4249 37.2466 22.0509C36.8699 22.677 36.628 23.3747 36.5365 24.0996C36.3328 24.1436 36.125 24.1661 35.9167 24.1667C35.1431 24.1667 34.4013 23.8594 33.8543 23.3124C33.3073 22.7654 33 22.0236 33 21.25C33 20.4765 33.3073 19.7346 33.8543 19.1876C34.4013 18.6406 35.1431 18.3333 35.9167 18.3333Z" fill="#142D6F"/>
</svg>
