<svg width="60" height="60" viewBox="0 0 60 60" fill="none" xmlns="http://www.w3.org/2000/svg">
<rect width="60" height="60" rx="5" fill="#A3BDFF"/>
<path d="M15.3334 29.6662H18.8335V38.9998H16.5001C16.1907 38.9998 15.8939 39.1227 15.6751 39.3415C15.4563 39.5603 15.3334 39.8571 15.3334 40.1665C15.3334 40.4759 15.4563 40.7727 15.6751 40.9915C15.8939 41.2103 16.1907 41.3332 16.5001 41.3332H44.5008C44.8102 41.3332 45.107 41.2103 45.3258 40.9915C45.5446 40.7727 45.6675 40.4759 45.6675 40.1665C45.6675 39.8571 45.5446 39.5603 45.3258 39.3415C45.107 39.1227 44.8102 38.9998 44.5008 38.9998H42.1674V29.6662H45.6675C45.9214 29.666 46.1682 29.5829 46.3706 29.4297C46.573 29.2765 46.7199 29.0614 46.789 28.8172C46.8581 28.5729 46.8456 28.3128 46.7535 28.0762C46.6614 27.8397 46.4947 27.6396 46.2786 27.5064L31.1115 18.1728C30.9277 18.0598 30.7162 18 30.5005 18C30.2847 18 30.0732 18.0598 29.8894 18.1728L14.7223 27.5064C14.5062 27.6396 14.3395 27.8397 14.2474 28.0762C14.1553 28.3128 14.1428 28.5729 14.2119 28.8172C14.281 29.0614 14.4279 29.2765 14.6303 29.4297C14.8327 29.5829 15.0795 29.666 15.3334 29.6662ZM21.1669 29.6662H25.8337V38.9998H21.1669V29.6662ZM32.8338 29.6662V38.9998H28.1671V29.6662H32.8338ZM39.834 38.9998H35.1672V29.6662H39.834V38.9998ZM30.5005 20.5354L41.5462 27.3328H19.4547L30.5005 20.5354ZM48.0009 44.8333C48.0009 45.1427 47.878 45.4395 47.6592 45.6583C47.4404 45.8771 47.1436 46 46.8342 46H14.1667C13.8573 46 13.5605 45.8771 13.3417 45.6583C13.1229 45.4395 13 45.1427 13 44.8333C13 44.5239 13.1229 44.2271 13.3417 44.0083C13.5605 43.7895 13.8573 43.6666 14.1667 43.6666H46.8342C47.1436 43.6666 47.4404 43.7895 47.6592 44.0083C47.878 44.2271 48.0009 44.5239 48.0009 44.8333Z" fill="#142D6F"/>
</svg>
