<svg width="60" height="60" viewBox="0 0 60 60" fill="none" xmlns="http://www.w3.org/2000/svg">
<rect width="60" height="60" rx="5" fill="#A3BDFF"/>
<path d="M38.6923 23.7033V19.0769C38.6923 18.5261 38.4735 17.9978 38.084 17.6083C37.6945 17.2188 37.1662 17 36.6154 17H22.0769C21.5261 17 20.9978 17.2188 20.6083 17.6083C20.2188 17.9978 20 18.5261 20 19.0769V23.75C20.0007 24.0723 20.0761 24.3901 20.2202 24.6784C20.3644 24.9666 20.5733 25.2176 20.8308 25.4115L27.6158 30.5L20.8308 35.5885C20.5733 35.7824 20.3644 36.0334 20.2202 36.3216C20.0761 36.6099 20.0007 36.9277 20 37.25V41.9231C20 42.4739 20.2188 43.0022 20.6083 43.3917C20.9978 43.7812 21.5261 44 22.0769 44H36.6154C37.1662 44 37.6945 43.7812 38.084 43.3917C38.4735 43.0022 38.6923 42.4739 38.6923 41.9231V37.2967C38.6915 36.9759 38.6167 36.6595 38.4737 36.3722C38.3307 36.085 38.1235 35.8345 37.868 35.6404L31.0687 30.5L37.868 25.3596C38.1237 25.1657 38.3311 24.9153 38.4741 24.628C38.6171 24.3406 38.6918 24.0242 38.6923 23.7033ZM35.8664 36.7308H22.7688L29.3462 31.7981L35.8664 36.7308ZM22.0769 41.9231V38.8077H36.6154V41.9231H22.0769ZM36.6154 23.7033L29.3462 29.2019L22.0769 23.75V19.0769H36.6154V23.7033Z" fill="#142D6F"/>
</svg>
