<svg width="60" height="60" viewBox="0 0 60 60" fill="none" xmlns="http://www.w3.org/2000/svg">
<rect width="60" height="60" rx="5" fill="#A3BDFF"/>
<path d="M30.3333 23.8889C29.1247 23.8889 27.9431 24.2473 26.9382 24.9188C25.9332 25.5903 25.1499 26.5447 24.6874 27.6614C24.2249 28.778 24.1038 30.0068 24.3396 31.1922C24.5754 32.3777 25.1575 33.4666 26.0121 34.3212C26.8668 35.1759 27.9557 35.7579 29.1411 35.9937C30.3266 36.2295 31.5553 36.1085 32.672 35.6459C33.7886 35.1834 34.743 34.4001 35.4145 33.3952C36.086 32.3902 36.4444 31.2087 36.4444 30C36.4444 28.3792 35.8006 26.8248 34.6545 25.6788C33.5085 24.5327 31.9541 23.8889 30.3333 23.8889ZM30.3333 33.6667C29.6081 33.6667 28.8992 33.4516 28.2962 33.0487C27.6933 32.6458 27.2233 32.0732 26.9458 31.4032C26.6683 30.7332 26.5956 29.9959 26.7371 29.2847C26.8786 28.5734 27.2278 27.9201 27.7406 27.4073C28.2534 26.8945 28.9067 26.5453 29.618 26.4038C30.3293 26.2623 31.0665 26.3349 31.7365 26.6124C32.4065 26.89 32.9792 27.3599 33.3821 27.9629C33.785 28.5659 34 29.2748 34 30C34 30.9725 33.6137 31.9051 32.9261 32.5927C32.2384 33.2804 31.3058 33.6667 30.3333 33.6667ZM47.4444 19H13.2222C12.8981 19 12.5872 19.1288 12.358 19.358C12.1288 19.5872 12 19.8981 12 20.2222V39.7778C12 40.1019 12.1288 40.4128 12.358 40.642C12.5872 40.8712 12.8981 41 13.2222 41H47.4444C47.7686 41 48.0795 40.8712 48.3087 40.642C48.5379 40.4128 48.6667 40.1019 48.6667 39.7778V20.2222C48.6667 19.8981 48.5379 19.5872 48.3087 19.358C48.0795 19.1288 47.7686 19 47.4444 19ZM40.3632 38.5556H20.3035C19.8931 37.1677 19.1421 35.9046 18.1187 34.8813C17.0954 33.8579 15.8323 33.1069 14.4444 32.6965V27.3035C15.8323 26.8931 17.0954 26.1421 18.1187 25.1187C19.1421 24.0954 19.8931 22.8323 20.3035 21.4444H40.3632C40.7735 22.8323 41.5246 24.0954 42.5479 25.1187C43.5713 26.1421 44.8344 26.8931 46.2222 27.3035V32.6965C44.8344 33.1069 43.5713 33.8579 42.5479 34.8813C41.5246 35.9046 40.7735 37.1677 40.3632 38.5556ZM46.2222 24.7093C44.7562 24.0789 43.5877 22.9104 42.9574 21.4444H46.2222V24.7093ZM17.7093 21.4444C17.0789 22.9104 15.9104 24.0789 14.4444 24.7093V21.4444H17.7093ZM14.4444 35.2907C15.9104 35.9211 17.0789 37.0896 17.7093 38.5556H14.4444V35.2907ZM42.9574 38.5556C43.5877 37.0896 44.7562 35.9211 46.2222 35.2907V38.5556H42.9574Z" fill="#142D6F"/>
</svg>
