<svg width="60" height="60" viewBox="0 0 60 60" fill="none" xmlns="http://www.w3.org/2000/svg">
<rect width="60" height="60" rx="5" fill="#A3BDFF"/>
<path d="M29.0018 16C28.7162 16 28.4423 16.1135 28.2403 16.3154C28.0383 16.5174 27.9249 16.7913 27.9249 17.0769V24.6154C27.9249 24.901 28.0383 25.1749 28.2403 25.3769C28.4423 25.5788 28.7162 25.6923 29.0018 25.6923C29.95 25.6925 30.8717 26.0056 31.6239 26.583C32.376 27.1604 32.9167 27.9698 33.1619 28.8858C33.4072 29.8017 33.3434 30.773 32.9804 31.649C32.6174 32.525 31.9755 33.2568 31.1543 33.7308C30.333 34.2048 29.3783 34.3946 28.4382 34.2708C27.4981 34.1469 26.6251 33.7164 25.9547 33.0458C25.2842 32.3753 24.8537 31.5023 24.73 30.5621C24.6062 29.622 24.7962 28.6673 25.2703 27.8461C25.341 27.7236 25.3869 27.5884 25.4054 27.4482C25.4238 27.3079 25.4145 27.1654 25.3779 27.0288C25.3412 26.8921 25.2781 26.764 25.1919 26.6518C25.1058 26.5396 24.9984 26.4455 24.8758 26.3748L18.347 22.6056C18.2245 22.5348 18.0893 22.4889 17.949 22.4705C17.8088 22.452 17.6663 22.4613 17.5296 22.498C17.393 22.5346 17.2649 22.5978 17.1527 22.6839C17.0405 22.7701 16.9464 22.8775 16.8757 23C15.3348 25.6689 14.7176 28.7717 15.1198 31.8271C15.522 34.8826 16.9211 37.7199 19.1002 39.8992C21.2793 42.0784 24.1166 43.4777 27.172 43.8801C30.2274 44.2825 33.3302 43.6655 35.9992 42.1248C38.6682 40.5841 40.7543 38.2057 41.9339 35.3586C43.1135 32.5115 43.3207 29.3547 42.5233 26.3778C41.726 23.401 39.9687 20.7704 37.5239 18.894C35.0792 17.0177 32.0836 16.0004 29.0018 16ZM18.2447 25.0327L22.9441 27.7465C22.6767 28.4677 22.5399 29.2308 22.5403 30C22.5403 30.206 22.551 30.4038 22.5699 30.6085L17.328 32.0192C16.9192 29.6513 17.2389 27.215 18.2447 25.0327ZM17.8853 34.0936L23.1353 32.6883C23.5742 33.6451 24.2398 34.4804 25.0744 35.1219C25.909 35.7635 26.8874 36.1919 27.9249 36.37V41.7963C25.6954 41.5897 23.5698 40.7568 21.7934 39.3939C20.017 38.031 18.6622 36.1936 17.8853 34.0936ZM30.0787 41.7963V36.37C31.5838 36.1149 32.9499 35.3352 33.9349 34.1691C34.92 33.003 35.4604 31.5258 35.4604 29.9993C35.4604 28.4728 34.92 26.9956 33.9349 25.8295C32.9499 24.6634 31.5838 23.8837 30.0787 23.6286V18.2023C33.0217 18.4712 35.7579 19.8303 37.7502 22.013C39.7425 24.1956 40.8471 27.0441 40.8471 29.9993C40.8471 32.9545 39.7425 35.803 37.7502 37.9857C35.7579 40.1683 33.0217 41.5275 30.0787 41.7963Z" fill="#142D6F"/>
</svg>
