<svg width="61" height="48" viewBox="0 0 61 48" fill="none" xmlns="http://www.w3.org/2000/svg">
<path d="M21.075 47.78C16.8717 47.78 13.275 46.805 10.285 44.855C7.295 42.8617 4.97667 40.11 3.33 36.6C1.72667 33.0467 0.925 28.93 0.925 24.25C0.925 19.6133 1.72667 15.5183 3.33 11.965C4.97667 8.41166 7.295 5.66 10.285 3.71C13.275 1.71667 16.8717 0.719999 21.075 0.719999C25.2783 0.719999 28.875 1.71667 31.865 3.71C34.855 5.66 37.1517 8.41166 38.755 11.965C40.4017 15.5183 41.225 19.6133 41.225 24.25C41.225 28.93 40.4017 33.0467 38.755 36.6C37.1517 40.11 34.855 42.8617 31.865 44.855C28.875 46.805 25.2783 47.78 21.075 47.78ZM21.075 40.305C24.4983 40.305 27.2933 38.875 29.46 36.015C31.6267 33.155 32.71 29.2333 32.71 24.25C32.71 19.2667 31.6267 15.345 29.46 12.485C27.2933 9.625 24.4983 8.195 21.075 8.195C17.6083 8.195 14.7917 9.625 12.625 12.485C10.5017 15.345 9.44 19.2667 9.44 24.25C9.44 29.2333 10.5017 33.155 12.625 36.015C14.7917 38.875 17.6083 40.305 21.075 40.305ZM51.5075 47V10.99L44.0325 12.745V6.375L55.0175 1.5H60.1525V47H51.5075Z" fill="url(#paint0_linear_0_774)"/>
<defs>
<linearGradient id="paint0_linear_0_774" x1="31.5" y1="-10" x2="31.5" y2="60" gradientUnits="userSpaceOnUse">
<stop stop-color="#A3BDFF"/>
<stop offset="1" stop-color="#142D6F"/>
</linearGradient>
</defs>
</svg>
