<svg width="77" height="48" viewBox="0 0 77 48" fill="none" xmlns="http://www.w3.org/2000/svg">
<path d="M21.075 47.78C16.8717 47.78 13.275 46.805 10.285 44.855C7.295 42.8617 4.97667 40.11 3.33 36.6C1.72667 33.0467 0.925 28.93 0.925 24.25C0.925 19.6133 1.72667 15.5183 3.33 11.965C4.97667 8.41166 7.295 5.66 10.285 3.71C13.275 1.71667 16.8717 0.719999 21.075 0.719999C25.2783 0.719999 28.875 1.71667 31.865 3.71C34.855 5.66 37.1517 8.41166 38.755 11.965C40.4017 15.5183 41.225 19.6133 41.225 24.25C41.225 28.93 40.4017 33.0467 38.755 36.6C37.1517 40.11 34.855 42.8617 31.865 44.855C28.875 46.805 25.2783 47.78 21.075 47.78ZM21.075 40.305C24.4983 40.305 27.2933 38.875 29.46 36.015C31.6267 33.155 32.71 29.2333 32.71 24.25C32.71 19.2667 31.6267 15.345 29.46 12.485C27.2933 9.625 24.4983 8.195 21.075 8.195C17.6083 8.195 14.7917 9.625 12.625 12.485C10.5017 15.345 9.44 19.2667 9.44 24.25C9.44 29.2333 10.5017 33.155 12.625 36.015C14.7917 38.875 17.6083 40.305 21.075 40.305ZM45.1451 47V40.955C47.9184 38.6583 50.6051 36.3833 53.2051 34.13C55.8484 31.8767 58.1884 29.645 60.2251 27.435C62.3051 25.225 63.9517 23.08 65.1651 21C66.4217 18.8767 67.0501 16.8183 67.0501 14.825C67.0501 12.9617 66.5301 11.315 65.4901 9.885C64.4934 8.455 62.8251 7.74 60.4851 7.74C58.1017 7.74 56.3034 8.52 55.0901 10.08C53.8767 11.64 53.2701 13.525 53.2701 15.735H45.2101C45.2967 12.3983 46.0334 9.625 47.4201 7.415C48.8067 5.16167 50.6484 3.49333 52.9451 2.41C55.2417 1.28333 57.8201 0.719999 60.6801 0.719999C65.3167 0.719999 68.9134 1.99833 71.4701 4.555C74.0701 7.06833 75.3701 10.34 75.3701 14.37C75.3701 16.8833 74.7851 19.3317 73.6151 21.715C72.4884 24.0983 70.9934 26.395 69.1301 28.605C67.2667 30.815 65.2517 32.895 63.0851 34.845C60.9184 36.7517 58.8167 38.5283 56.7801 40.175H76.4751V47H45.1451Z" fill="url(#paint0_linear_0_781)"/>
<defs>
<linearGradient id="paint0_linear_0_781" x1="38.5" y1="-10" x2="38.5" y2="60" gradientUnits="userSpaceOnUse">
<stop stop-color="#A3BDFF"/>
<stop offset="1" stop-color="#142D6F"/>
</linearGradient>
</defs>
</svg>
