<svg width="78" height="48" viewBox="0 0 78 48" fill="none" xmlns="http://www.w3.org/2000/svg">
<path d="M21.075 47.78C16.8717 47.78 13.275 46.805 10.285 44.855C7.295 42.8617 4.97667 40.11 3.33 36.6C1.72667 33.0467 0.925 28.93 0.925 24.25C0.925 19.6133 1.72667 15.5183 3.33 11.965C4.97667 8.41166 7.295 5.66 10.285 3.71C13.275 1.71667 16.8717 0.719999 21.075 0.719999C25.2783 0.719999 28.875 1.71667 31.865 3.71C34.855 5.66 37.1517 8.41166 38.755 11.965C40.4017 15.5183 41.225 19.6133 41.225 24.25C41.225 28.93 40.4017 33.0467 38.755 36.6C37.1517 40.11 34.855 42.8617 31.865 44.855C28.875 46.805 25.2783 47.78 21.075 47.78ZM21.075 40.305C24.4983 40.305 27.2933 38.875 29.46 36.015C31.6267 33.155 32.71 29.2333 32.71 24.25C32.71 19.2667 31.6267 15.345 29.46 12.485C27.2933 9.625 24.4983 8.195 21.075 8.195C17.6083 8.195 14.7917 9.625 12.625 12.485C10.5017 15.345 9.44 19.2667 9.44 24.25C9.44 29.2333 10.5017 33.155 12.625 36.015C14.7917 38.875 17.6083 40.305 21.075 40.305ZM61.4525 47.78C58.4625 47.78 55.7541 47.26 53.3275 46.22C50.9008 45.1367 48.9508 43.49 47.4775 41.28C46.0041 39.07 45.2241 36.2967 45.1375 32.96H53.3275C53.3708 35.17 54.0858 37.0333 55.4725 38.55C56.9025 40.0233 58.8958 40.76 61.4525 40.76C63.8791 40.76 65.7425 40.0883 67.0425 38.745C68.3425 37.4017 68.9925 35.7117 68.9925 33.675C68.9925 31.2917 68.1258 29.4933 66.3925 28.28C64.7025 27.0233 62.5141 26.395 59.8275 26.395H56.4475V19.57H59.8925C62.1025 19.57 63.9441 19.05 65.4175 18.01C66.8908 16.97 67.6275 15.4317 67.6275 13.395C67.6275 11.705 67.0641 10.3617 65.9375 9.365C64.8541 8.325 63.3375 7.805 61.3875 7.805C59.2641 7.805 57.5958 8.43333 56.3825 9.69C55.2125 10.9467 54.5625 12.485 54.4325 14.305H46.3075C46.4808 10.1017 47.9325 6.78667 50.6625 4.36C53.4358 1.93333 57.0108 0.719999 61.3875 0.719999C64.5075 0.719999 67.1291 1.28333 69.2525 2.41C71.4191 3.49333 73.0441 4.945 74.1275 6.765C75.2541 8.585 75.8175 10.6 75.8175 12.81C75.8175 15.3667 75.1025 17.5333 73.6725 19.31C72.2858 21.0433 70.5525 22.2133 68.4725 22.82C71.0291 23.34 73.1091 24.5967 74.7125 26.59C76.3158 28.54 77.1175 31.01 77.1175 34C77.1175 36.5133 76.5108 38.81 75.2975 40.89C74.0841 42.97 72.3075 44.6383 69.9675 45.895C67.6708 47.1517 64.8325 47.78 61.4525 47.78Z" fill="url(#paint0_linear_0_788)"/>
<defs>
<linearGradient id="paint0_linear_0_788" x1="39.5" y1="-10" x2="39.5" y2="60" gradientUnits="userSpaceOnUse">
<stop stop-color="#A3BDFF"/>
<stop offset="1" stop-color="#142D6F"/>
</linearGradient>
</defs>
</svg>
