<svg width="24" height="24" viewBox="0 0 24 24" fill="none" xmlns="http://www.w3.org/2000/svg">
<rect width="24" height="24" rx="12" fill="#A3BDFF"/>
<path d="M17 12C17 12.1105 16.9561 12.2165 16.878 12.2946C16.7998 12.3728 16.6938 12.4167 16.5833 12.4167H12.4167V16.5833C12.4167 16.6938 12.3728 16.7998 12.2946 16.878C12.2165 16.9561 12.1105 17 12 17C11.8895 17 11.7835 16.9561 11.7054 16.878C11.6272 16.7998 11.5833 16.6938 11.5833 16.5833V12.4167H7.41667C7.30616 12.4167 7.20018 12.3728 7.12204 12.2946C7.0439 12.2165 7 12.1105 7 12C7 11.8895 7.0439 11.7835 7.12204 11.7054C7.20018 11.6272 7.30616 11.5833 7.41667 11.5833H11.5833V7.41667C11.5833 7.30616 11.6272 7.20018 11.7054 7.12204C11.7835 7.0439 11.8895 7 12 7C12.1105 7 12.2165 7.0439 12.2946 7.12204C12.3728 7.20018 12.4167 7.30616 12.4167 7.41667V11.5833H16.5833C16.6938 11.5833 16.7998 11.6272 16.878 11.7054C16.9561 11.7835 17 11.8895 17 12Z" fill="#142D6F" stroke="#142D6F"/>
</svg>
