<svg width="189" height="57" viewBox="0 0 189 57" fill="none" xmlns="http://www.w3.org/2000/svg">
<rect x="0.728516" width="187.761" height="56.7" rx="3" fill="black"/>
<path d="M73.9573 41.3636H72.3094L72.1217 39.2799C71.7601 39.9328 71.1691 40.4954 70.3486 40.9677C69.5282 41.44 68.5408 41.6762 67.3866 41.6762C66.1211 41.6762 64.953 41.3914 63.8822 40.8218C62.8114 40.2384 61.9284 39.3493 61.2331 38.1547C60.5516 36.96 60.2109 35.5639 60.2109 33.9663C60.2109 32.3688 60.5725 30.9727 61.2956 29.778C62.0188 28.5833 62.9227 27.7012 64.0074 27.1317C65.106 26.5621 66.281 26.2773 67.5326 26.2773C69.1179 26.2773 70.4947 26.6871 71.6628 27.5068C72.8448 28.3125 73.6514 29.3891 74.0825 30.7365L72.226 31.5284C71.8922 30.4587 71.3082 29.6322 70.4738 29.0487C69.6533 28.4514 68.6729 28.1527 67.5326 28.1527C66.1003 28.1527 64.8696 28.6598 63.8405 29.6738C62.8114 30.6879 62.2969 32.1188 62.2969 33.9663C62.2969 35.8278 62.7975 37.2725 63.7988 38.3005C64.8139 39.3146 66.0307 39.8216 67.4492 39.8216C68.2279 39.8216 68.9163 39.6966 69.5143 39.4466C70.1261 39.1965 70.599 38.8701 70.9327 38.4672C71.2804 38.0505 71.5376 37.6337 71.7045 37.217C71.8853 36.8002 71.9896 36.3835 72.0174 35.9667H66.886V34.133H73.9573V41.3636ZM78.9562 38.9882C79.5681 39.6133 80.3121 39.9258 81.1882 39.9258C82.0643 39.9258 82.8013 39.6133 83.3993 38.9882C84.0112 38.3491 84.3171 37.467 84.3171 36.3418C84.3171 35.2305 84.0112 34.3623 83.3993 33.7371C82.8013 33.0981 82.0643 32.7786 81.1882 32.7786C80.3121 32.7786 79.5681 33.0981 78.9562 33.7371C78.3583 34.3623 78.0593 35.2305 78.0593 36.3418C78.0593 37.467 78.3583 38.3491 78.9562 38.9882ZM77.4961 32.5494C78.4695 31.5353 79.7002 31.0283 81.1882 31.0283C82.6762 31.0283 83.8999 31.5353 84.8595 32.5494C85.8329 33.5496 86.3196 34.8137 86.3196 36.3418C86.3196 37.8838 85.8399 39.1618 84.8803 40.1759C83.9208 41.1761 82.6901 41.6762 81.1882 41.6762C79.6863 41.6762 78.4556 41.1761 77.4961 40.1759C76.5366 39.1618 76.0568 37.8838 76.0568 36.3418C76.0568 34.8137 76.5366 33.5496 77.4961 32.5494ZM90.8934 38.9882C91.5053 39.6133 92.2493 39.9258 93.1254 39.9258C94.0015 39.9258 94.7385 39.6133 95.3365 38.9882C95.9484 38.3491 96.2543 37.467 96.2543 36.3418C96.2543 35.2305 95.9484 34.3623 95.3365 33.7371C94.7385 33.0981 94.0015 32.7786 93.1254 32.7786C92.2493 32.7786 91.5053 33.0981 90.8934 33.7371C90.2955 34.3623 89.9965 35.2305 89.9965 36.3418C89.9965 37.467 90.2955 38.3491 90.8934 38.9882ZM89.4333 32.5494C90.4067 31.5353 91.6374 31.0283 93.1254 31.0283C94.6134 31.0283 95.8371 31.5353 96.7966 32.5494C97.7701 33.5496 98.2568 34.8137 98.2568 36.3418C98.2568 37.8838 97.7771 39.1618 96.8175 40.1759C95.858 41.1761 94.6273 41.6762 93.1254 41.6762C91.6235 41.6762 90.3928 41.1761 89.4333 40.1759C88.4737 39.1618 87.994 37.8838 87.994 36.3418C87.994 34.8137 88.4737 33.5496 89.4333 32.5494ZM100.035 41.9054L101.934 41.4678C102.003 42.1763 102.288 42.7597 102.789 43.2181C103.29 43.6905 103.915 43.9266 104.666 43.9266C106.71 43.9266 107.733 42.8431 107.733 40.676V39.2382C107.482 39.7244 107.086 40.1203 106.544 40.4259C106.015 40.7315 105.389 40.8844 104.666 40.8844C103.331 40.8844 102.226 40.4329 101.35 39.5299C100.487 38.6131 100.056 37.4462 100.056 36.0292C100.056 34.654 100.487 33.501 101.35 32.5702C102.212 31.6256 103.317 31.1533 104.666 31.1533C106.196 31.1533 107.225 31.6812 107.753 32.7369V31.3408H109.694V40.6135C109.694 41.2803 109.603 41.8984 109.422 42.468C109.256 43.0514 108.984 43.5863 108.609 44.0725C108.233 44.5587 107.705 44.9407 107.023 45.2185C106.356 45.4964 105.57 45.6353 104.666 45.6353C103.429 45.6353 102.379 45.281 101.516 44.5726C100.654 43.878 100.161 42.9889 100.035 41.9054ZM104.958 39.2382C105.807 39.2382 106.495 38.9465 107.023 38.363C107.552 37.7657 107.816 36.9878 107.816 36.0292C107.816 35.0707 107.552 34.2997 107.023 33.7163C106.495 33.119 105.807 32.8203 104.958 32.8203C104.096 32.8203 103.394 33.112 102.851 33.6955C102.323 34.2789 102.059 35.0568 102.059 36.0292C102.059 37.0155 102.316 37.8004 102.831 38.3839C103.359 38.9534 104.068 39.2382 104.958 39.2382ZM114.785 41.3636H112.824V26.2773H114.785V41.3636ZM119.393 35.3208H124.879C124.851 34.5706 124.601 33.9594 124.128 33.4871C123.655 33.0009 122.988 32.7578 122.126 32.7578C121.347 32.7578 120.707 33.0148 120.207 33.5288C119.706 34.0289 119.435 34.6262 119.393 35.3208ZM125.171 37.9254L126.861 38.5089C126.569 39.4396 126.027 40.2037 125.234 40.801C124.441 41.3845 123.482 41.6762 122.355 41.6762C120.951 41.6762 119.755 41.1969 118.767 40.2384C117.794 39.266 117.307 37.9602 117.307 36.321C117.307 34.7929 117.78 33.5288 118.726 32.5286C119.671 31.5284 120.798 31.0283 122.105 31.0283C123.621 31.0283 124.803 31.5075 125.651 32.4661C126.499 33.4107 126.923 34.6818 126.923 36.2793C126.923 36.5293 126.91 36.7377 126.882 36.9044H119.331C119.345 37.7935 119.637 38.5228 120.207 39.0923C120.791 39.6619 121.507 39.9467 122.355 39.9467C123.788 39.9467 124.726 39.2729 125.171 37.9254ZM136.894 33.4871H139.856C140.732 33.4871 141.428 33.2648 141.942 32.8203C142.457 32.3619 142.714 31.7506 142.714 30.9866C142.714 30.2087 142.457 29.5905 141.942 29.1321C141.428 28.6598 140.732 28.4236 139.856 28.4236H136.894V33.4871ZM140.232 35.3208H136.894V41.3636H134.85V26.5899H140.232C141.581 26.5899 142.679 27.0067 143.528 27.8401C144.376 28.6736 144.8 29.7155 144.8 30.9658C144.8 32.2299 144.376 33.2718 143.528 34.0914C142.679 34.911 141.581 35.3208 140.232 35.3208ZM148.845 41.3636H146.884V26.2773H148.845V41.3636ZM151.555 38.6756C151.555 37.8143 151.833 37.1267 152.389 36.6127C152.945 36.0848 153.682 35.7584 154.6 35.6333L157.312 35.2374C157.826 35.168 158.084 34.9179 158.084 34.4873C158.084 33.9594 157.903 33.5288 157.541 33.1954C157.18 32.862 156.637 32.6953 155.914 32.6953C155.247 32.6953 154.718 32.8828 154.329 33.2579C153.939 33.6191 153.71 34.1053 153.64 34.7165L151.763 34.2789C151.86 33.3204 152.299 32.5425 153.077 31.9451C153.856 31.3339 154.788 31.0283 155.872 31.0283C157.291 31.0283 158.341 31.3756 159.022 32.0701C159.704 32.7508 160.044 33.626 160.044 34.6956V39.7175C160.044 40.3148 160.086 40.8635 160.169 41.3636H158.25C158.181 40.9469 158.146 40.4954 158.146 40.0092C157.868 40.4537 157.458 40.8427 156.915 41.1761C156.387 41.5095 155.719 41.6762 154.913 41.6762C153.926 41.6762 153.119 41.3845 152.493 40.801C151.867 40.2037 151.555 39.4952 151.555 38.6756ZM155.184 40.03C156.06 40.03 156.762 39.7939 157.291 39.3216C157.819 38.8492 158.084 38.0991 158.084 37.0711V36.6127L155.017 37.0711C154.572 37.1406 154.218 37.3003 153.953 37.5504C153.689 37.8004 153.557 38.1408 153.557 38.5714C153.557 38.9604 153.703 39.3007 153.995 39.5924C154.301 39.8842 154.697 40.03 155.184 40.03ZM165.399 45.5519H163.251L165.754 40.2592L161.436 31.3408H163.689L166.818 38.2588L169.821 31.3408H171.928L165.399 45.5519Z" fill="white"/>
<path opacity="0.6" d="M66.0096 18.5421V15.6129H63.1966V16.5655H64.9766C64.913 16.9624 64.5077 17.6609 63.4667 17.6609C62.5211 17.6609 61.6867 17.0021 61.6867 15.732C61.6867 14.3984 62.6085 13.8189 63.4588 13.8189C64.3726 13.8189 64.8415 14.3984 64.9845 14.8985L66.0334 14.5254C65.7553 13.6602 64.9368 12.7949 63.4588 12.7949C61.9331 12.7949 60.5742 13.9142 60.5742 15.732C60.5742 17.5498 61.8695 18.6611 63.3873 18.6611C64.2375 18.6611 64.7938 18.2801 65.0481 17.8991L65.1196 18.5421H66.0096ZM72.1343 18.5421V17.5101H69.7027V16.2083H71.9039V15.2319H69.7027V13.9459H72.1343V12.914H68.6061V18.5421H72.1343ZM78.9623 13.9539V12.914H74.2978V13.9539H76.0778V18.5421H77.1823V13.9539H78.9623ZM85.79 18.5421V12.914H84.6775V18.5421H85.79ZM92.7135 13.9539V12.914H88.0489V13.9539H89.8289V18.5421H90.9335V13.9539H92.7135ZM99.2312 15.7241C99.2312 14.454 100.121 13.8507 100.987 13.8507C101.861 13.8507 102.751 14.454 102.751 15.7241C102.751 16.9942 101.861 17.5974 100.987 17.5974C100.121 17.5974 99.2312 16.9942 99.2312 15.7241ZM98.0948 15.732C98.0948 17.5419 99.4616 18.6611 100.987 18.6611C102.521 18.6611 103.888 17.5419 103.888 15.732C103.888 13.9142 102.521 12.7949 100.987 12.7949C99.4616 12.7949 98.0948 13.9142 98.0948 15.732ZM111.137 18.5421V12.914H110.04V16.6369L107.695 12.914H106.329V18.5421H107.425V14.5492L109.984 18.5421H111.137Z" fill="white"/>
<path d="M47.0638 26.4522L42.4327 23.7773L37.6914 28.5186L42.4323 33.2595L47.0796 30.5758C47.8042 30.1355 48.2367 29.3663 48.2367 28.5186C48.2367 27.6708 47.8039 26.9017 47.0638 26.4522Z" fill="#FFCE00"/>
<path d="M37.6928 28.5189L24.7786 15.5117C24.3294 15.9609 24.0566 16.5704 24.0566 17.2441V39.754C24.0566 40.4277 24.3294 41.0372 24.7786 41.4867L37.6928 28.5189Z" fill="url(#paint0_linear_0_2522)"/>
<path d="M37.6915 28.5196L42.4328 23.7784L42.4403 23.7709L36.0876 20.1132L27.7134 15.1915C26.9593 14.7262 26.0449 14.7102 25.2747 15.1433C25.0983 15.2554 24.9377 15.3679 24.7773 15.5121L37.6915 28.5196Z" fill="#00F076"/>
<path d="M24.7773 41.487C24.9377 41.6313 25.0983 41.7438 25.2747 41.8559C25.6596 42.0644 26.0609 42.1769 26.4619 42.1769C26.895 42.1769 27.312 42.0487 27.6973 41.8241L36.0873 36.9259L42.44 33.2683L42.4324 33.2608L37.6915 28.5195L24.7773 41.487Z" fill="#F63448"/>
<defs>
<linearGradient id="paint0_linear_0_2522" x1="18.2851" y1="34.9929" x2="31.2724" y2="22.0052" gradientUnits="userSpaceOnUse">
<stop stop-color="#00E2FF"/>
<stop offset="1" stop-color="#00C5FF"/>
</linearGradient>
</defs>
</svg>
