<svg width="80" height="80" viewBox="0 0 80 80" fill="none" xmlns="http://www.w3.org/2000/svg">
<path d="M40 0C32.0888 0 24.3552 2.34596 17.7772 6.74121C11.1992 11.1365 6.07234 17.3836 3.04484 24.6927C0.0173314 32.0017 -0.774802 40.0444 0.768607 47.8036C2.31202 55.5628 6.12164 62.6902 11.7157 68.2843C17.3098 73.8784 24.4372 77.688 32.1964 79.2314C39.9556 80.7748 47.9983 79.9827 55.3073 76.9552C62.6164 73.9277 68.8635 68.8008 73.2588 62.2228C77.654 55.6448 80 47.9112 80 40C79.9888 29.3948 75.7709 19.2271 68.2719 11.7281C60.7729 4.22907 50.6052 0.0111993 40 0ZM40 73.8461C33.3059 73.8461 26.7621 71.8611 21.1961 68.142C15.6301 64.423 11.292 59.1369 8.73025 52.9524C6.16851 46.7678 5.49825 39.9624 6.80421 33.3969C8.11017 26.8314 11.3337 20.8006 16.0672 16.0672C20.8006 11.3337 26.8314 8.11015 33.397 6.80419C39.9625 5.49823 46.7678 6.16849 52.9524 8.73023C59.1369 11.292 64.423 15.6301 68.1421 21.1961C71.8611 26.762 73.8462 33.3059 73.8462 40C73.836 48.9734 70.2668 57.5764 63.9216 63.9216C57.5764 70.2668 48.9734 73.836 40 73.8461ZM58.5539 37.3923L33.9385 22.0077C33.4728 21.7167 32.9378 21.5555 32.3889 21.5411C31.8399 21.5266 31.2971 21.6593 30.8168 21.9253C30.3364 22.1914 29.936 22.5812 29.6572 23.0542C29.3783 23.5272 29.2311 24.0663 29.2308 24.6154V55.3846C29.2311 55.9337 29.3783 56.4728 29.6572 56.9458C29.936 57.4188 30.3364 57.8086 30.8168 58.0746C31.2971 58.3407 31.8399 58.4734 32.3889 58.4589C32.9378 58.4444 33.4728 58.2833 33.9385 57.9923L58.5539 42.6077C58.9957 42.3309 59.36 41.9465 59.6125 41.4903C59.8651 41.0342 59.9976 40.5214 59.9976 40C59.9976 39.4786 59.8651 38.9658 59.6125 38.5097C59.36 38.0535 58.9957 37.669 58.5539 37.3923ZM35.3846 49.8346V30.1654L51.1192 40L35.3846 49.8346Z" fill="#F6F4EF"/>
</svg>
