<svg width="22" height="20" viewBox="0 0 22 20" fill="none" xmlns="http://www.w3.org/2000/svg">
<path d="M19.1667 0H2.5C1.83696 0 1.20107 0.263392 0.732233 0.732233C0.263392 1.20107 0 1.83696 0 2.5V14.1667C0 14.8297 0.263392 15.4656 0.732233 15.9344C1.20107 16.4033 1.83696 16.6667 2.5 16.6667H10V18.3333H7.5C7.27899 18.3333 7.06702 18.4211 6.91074 18.5774C6.75446 18.7337 6.66667 18.9457 6.66667 19.1667C6.66667 19.3877 6.75446 19.5996 6.91074 19.7559C7.06702 19.9122 7.27899 20 7.5 20H14.1667C14.3877 20 14.5996 19.9122 14.7559 19.7559C14.9122 19.5996 15 19.3877 15 19.1667C15 18.9457 14.9122 18.7337 14.7559 18.5774C14.5996 18.4211 14.3877 18.3333 14.1667 18.3333H11.6667V16.6667H19.1667C19.8297 16.6667 20.4656 16.4033 20.9344 15.9344C21.4033 15.4656 21.6667 14.8297 21.6667 14.1667V2.5C21.6667 1.83696 21.4033 1.20107 20.9344 0.732233C20.4656 0.263392 19.8297 0 19.1667 0ZM2.5 1.66667H19.1667C19.3877 1.66667 19.5996 1.75446 19.7559 1.91074C19.9122 2.06702 20 2.27899 20 2.5V10.8333H1.66667V2.5C1.66667 2.27899 1.75446 2.06702 1.91074 1.91074C2.06702 1.75446 2.27899 1.66667 2.5 1.66667ZM19.1667 15H2.5C2.27899 15 2.06702 14.9122 1.91074 14.7559C1.75446 14.5996 1.66667 14.3877 1.66667 14.1667V12.5H20V14.1667C20 14.3877 19.9122 14.5996 19.7559 14.7559C19.5996 14.9122 19.3877 15 19.1667 15Z" fill="#142D6F"/>
</svg>
