<svg width="32" height="24" viewBox="0 0 32 24" fill="none" xmlns="http://www.w3.org/2000/svg">
<path d="M30 0H1.2C0.88174 0 0.576515 0.126428 0.351472 0.351472C0.126428 0.576516 0 0.88174 0 1.2V21.6C0 22.2365 0.252856 22.847 0.702944 23.2971C1.15303 23.7471 1.76348 24 2.4 24H28.8C29.4365 24 30.047 23.7471 30.4971 23.2971C30.9471 22.847 31.2 22.2365 31.2 21.6V1.2C31.2 0.88174 31.0736 0.576516 30.8485 0.351472C30.6235 0.126428 30.3183 0 30 0ZM15.6 12.7725L4.2855 2.4H26.9145L15.6 12.7725ZM11.2065 12L2.4 20.0715V3.9285L11.2065 12ZM12.9825 13.6275L14.7825 15.285C15.0039 15.4882 15.2935 15.601 15.594 15.601C15.8945 15.601 16.1841 15.4882 16.4055 15.285L18.2055 13.6275L26.9055 21.6H4.2855L12.9825 13.6275ZM19.9935 12L28.8 3.927V20.073L19.9935 12Z" fill="#142D6F"/>
</svg>
