<svg width="25" height="31" viewBox="0 0 25 31" fill="none" xmlns="http://www.w3.org/2000/svg">
<path d="M22.1429 28.7857H15.2979C16.4478 27.759 17.5321 26.6613 18.5446 25.4989C22.3435 21.1298 24.3571 16.5241 24.3571 12.1786C24.3571 8.94861 23.074 5.85095 20.7901 3.56702C18.5062 1.2831 15.4085 0 12.1786 0C8.94861 0 5.85095 1.2831 3.56702 3.56702C1.2831 5.85095 0 8.94861 0 12.1786C0 16.5241 2.00808 21.1298 5.8125 25.4989C6.825 26.6613 7.90935 27.759 9.0592 28.7857H2.21429C1.92065 28.7857 1.63905 28.9024 1.43142 29.11C1.22379 29.3176 1.10714 29.5992 1.10714 29.8929C1.10714 30.1865 1.22379 30.4681 1.43142 30.6757C1.63905 30.8834 1.92065 31 2.21429 31H22.1429C22.4365 31 22.7181 30.8834 22.9257 30.6757C23.1334 30.4681 23.25 30.1865 23.25 29.8929C23.25 29.5992 23.1334 29.3176 22.9257 29.11C22.7181 28.9024 22.4365 28.7857 22.1429 28.7857ZM2.21429 12.1786C2.21429 9.53588 3.26409 7.00142 5.13276 5.13276C7.00142 3.26409 9.53588 2.21429 12.1786 2.21429C14.8213 2.21429 17.3557 3.26409 19.2244 5.13276C21.0931 7.00142 22.1429 9.53588 22.1429 12.1786C22.1429 20.0988 14.4662 26.7098 12.1786 28.5089C9.89094 26.7098 2.21429 20.0988 2.21429 12.1786ZM17.7143 12.1786C17.7143 11.0837 17.3896 10.0134 16.7814 9.10309C16.1731 8.19275 15.3085 7.48322 14.297 7.06424C13.2855 6.64525 12.1724 6.53563 11.0986 6.74922C10.0248 6.96282 9.03841 7.49005 8.26423 8.26423C7.49005 9.03841 6.96282 10.0248 6.74922 11.0986C6.53563 12.1724 6.64525 13.2855 7.06424 14.297C7.48322 15.3085 8.19275 16.1731 9.10309 16.7813C10.0134 17.3896 11.0837 17.7143 12.1786 17.7143C13.6467 17.7143 15.0548 17.1311 16.0929 16.0929C17.1311 15.0548 17.7143 13.6467 17.7143 12.1786ZM8.85714 12.1786C8.85714 11.5217 9.05194 10.8795 9.41691 10.3333C9.78187 9.78708 10.3006 9.36136 10.9075 9.10997C11.5144 8.85858 12.1823 8.7928 12.8266 8.92096C13.4708 9.04912 14.0627 9.36546 14.5272 9.82997C14.9917 10.2945 15.308 10.8863 15.4362 11.5306C15.5643 12.1749 15.4986 12.8427 15.2472 13.4496C14.9958 14.0565 14.5701 14.5753 14.0239 14.9402C13.4777 15.3052 12.8355 15.5 12.1786 15.5C11.2977 15.5 10.4529 15.1501 9.82997 14.5272C9.20708 13.9043 8.85714 13.0595 8.85714 12.1786Z" fill="#142D6F"/>
</svg>
