<svg width="30" height="30" viewBox="0 0 30 30" fill="none" xmlns="http://www.w3.org/2000/svg">
<path d="M28.5558 20.1689L21.4892 17.0024L21.4697 16.9934C21.1029 16.8365 20.7027 16.7735 20.3054 16.8102C19.908 16.8468 19.5261 16.982 19.1942 17.2034C19.1551 17.2292 19.1176 17.2572 19.0817 17.2874L15.4307 20.3999C13.1176 19.2764 10.7296 16.9064 9.60611 14.6233L12.7231 10.9168C12.7531 10.8793 12.7816 10.8418 12.8086 10.8013C13.0253 10.4703 13.1567 10.0908 13.1913 9.69665C13.2258 9.30252 13.1624 8.90597 13.0066 8.54228V8.52428L9.83111 1.44571C9.62522 0.970603 9.27119 0.574825 8.82188 0.317457C8.37257 0.0600899 7.85207 -0.0450626 7.33808 0.0176966C5.30552 0.285159 3.43982 1.28336 2.08943 2.82587C0.739051 4.36837 -0.00366143 6.34969 1.35731e-05 8.39978C1.35731e-05 20.3099 9.69011 30 21.6002 30C23.6503 30.0037 25.6316 29.2609 27.1741 27.9106C28.7166 26.5602 29.7148 24.6945 29.9823 22.6619C30.0452 22.1481 29.9402 21.6277 29.6832 21.1784C29.4261 20.7292 29.0306 20.375 28.5558 20.1689ZM21.6002 27.6C16.5097 27.5944 11.6293 25.5697 8.02978 21.9702C4.43025 18.3707 2.4056 13.4903 2.40004 8.39978C2.39439 6.935 2.92212 5.51824 3.88466 4.4141C4.84719 3.30995 6.17873 2.59392 7.63059 2.39972C7.63 2.4057 7.63 2.41173 7.63059 2.41772L10.7806 9.46779L7.68009 13.1788C7.64862 13.215 7.62003 13.2537 7.59459 13.2943C7.36886 13.6407 7.23644 14.0395 7.21016 14.4521C7.18388 14.8647 7.26463 15.2771 7.44459 15.6493C8.8036 18.4289 11.6041 21.2084 14.4137 22.5659C14.7886 22.7442 15.2034 22.8221 15.6175 22.7922C16.0316 22.7622 16.4308 22.6253 16.7762 22.3949C16.8147 22.369 16.8517 22.3409 16.8872 22.3109L20.5337 19.1999L27.5838 22.3574C27.5838 22.3574 27.5958 22.3574 27.6003 22.3574C27.4084 23.8113 26.6935 25.1455 25.5891 26.1105C24.4848 27.0754 23.0667 27.6049 21.6002 27.6Z" fill="#142D6F"/>
</svg>
