<svg width="12" height="35" viewBox="0 0 12 35" fill="none" xmlns="http://www.w3.org/2000/svg">
<path d="M5.99174 34.5724C4.53862 34.5724 3.29099 34.0587 2.24885 33.0312C1.22138 31.9891 0.707653 30.7415 0.707653 29.2884C0.707653 27.8499 1.22138 26.617 2.24885 25.5895C3.29099 24.562 4.53862 24.0483 5.99174 24.0483C7.40084 24.0483 8.63379 24.562 9.69061 25.5895C10.7474 26.617 11.2758 27.8499 11.2758 29.2884C11.2758 30.2571 11.0263 31.1451 10.5273 31.9524C10.0429 32.745 9.40439 33.3835 8.61177 33.8679C7.81916 34.3376 6.94582 34.5724 5.99174 34.5724ZM5.99174 10.8821C4.53862 10.8821 3.29099 10.3684 2.24885 9.34091C1.22138 8.31345 0.707653 7.06581 0.707653 5.59801C0.707653 4.15956 1.22138 2.93395 2.24885 1.92117C3.29099 0.893701 4.53862 0.379969 5.99174 0.379969C7.40084 0.379969 8.63379 0.893701 9.69061 1.92117C10.7474 2.93395 11.2758 4.15956 11.2758 5.59801C11.2758 6.58144 11.0263 7.4768 10.5273 8.28409C10.0429 9.0767 9.40439 9.70786 8.61177 10.1776C7.81916 10.6473 6.94582 10.8821 5.99174 10.8821Z" fill="#142D6F"/>
</svg>
