<svg width="302" height="247" viewBox="0 0 302 247" fill="none" xmlns="http://www.w3.org/2000/svg">
<g filter="url(#filter0_d_0_3785)">
<rect x="20" y="10" width="266" height="217.189" rx="9.71761" fill="white" shape-rendering="crispEdges"/>
<rect x="31.8779" y="206.884" width="17.9776" height="6.31644" rx="3.15822" fill="#A3BDFF"/>
<path d="M56.7083 213.042V207.6H58.7451C59.1856 207.6 59.551 207.675 59.8412 207.825C60.1315 207.976 60.3466 208.178 60.4865 208.432C60.6264 208.686 60.6964 208.976 60.6964 209.302C60.6964 209.603 60.629 209.88 60.4943 210.134C60.3595 210.388 60.147 210.596 59.8568 210.756C59.5666 210.912 59.196 210.989 58.7451 210.989H57.7578V213.042H56.7083ZM57.7578 210.142H58.6829C59.0198 210.142 59.2608 210.067 59.4059 209.917C59.5562 209.761 59.6313 209.556 59.6313 209.302C59.6313 209.033 59.5562 208.826 59.4059 208.68C59.2608 208.53 59.0198 208.455 58.6829 208.455H57.7578V210.142ZM62.9887 213.135C62.5948 213.135 62.245 213.052 61.9392 212.886C61.6386 212.715 61.4028 212.479 61.2318 212.179C61.0659 211.873 60.983 211.521 60.983 211.122C60.983 210.712 61.0659 210.352 61.2318 210.041C61.4028 209.725 61.6386 209.479 61.9392 209.302C62.2398 209.121 62.5896 209.03 62.9887 209.03C63.3774 209.03 63.7169 209.116 64.0071 209.287C64.2974 209.458 64.5228 209.689 64.6835 209.979C64.8441 210.269 64.9245 210.598 64.9245 210.966C64.9245 211.018 64.9245 211.077 64.9245 211.145C64.9245 211.207 64.9193 211.272 64.9089 211.339H61.7293V210.702H63.8672C63.8516 210.448 63.7609 210.248 63.5951 210.103C63.4344 209.958 63.2323 209.885 62.9887 209.885C62.8125 209.885 62.6492 209.927 62.4989 210.01C62.3486 210.088 62.2294 210.209 62.1413 210.375C62.0584 210.541 62.017 210.751 62.017 211.005V211.23C62.017 211.443 62.0558 211.629 62.1336 211.79C62.2165 211.946 62.3305 212.067 62.4756 212.156C62.6207 212.238 62.7892 212.28 62.9809 212.28C63.1727 212.28 63.3308 212.238 63.4552 212.156C63.5847 212.073 63.6806 211.966 63.7428 211.837H64.8156C64.7431 212.08 64.6213 212.301 64.4502 212.498C64.2792 212.695 64.0693 212.85 63.8205 212.964C63.5718 213.078 63.2945 213.135 62.9887 213.135ZM65.6285 213.042V209.124H66.5614L66.6625 209.847C66.7557 209.676 66.8724 209.53 67.0123 209.411C67.1574 209.292 67.3207 209.199 67.5021 209.131C67.6886 209.064 67.8934 209.03 68.1162 209.03V210.142H67.7586C67.6031 210.142 67.458 210.16 67.3233 210.196C67.1937 210.233 67.0797 210.292 66.9812 210.375C66.8827 210.453 66.8076 210.562 66.7557 210.702C66.7039 210.842 66.678 211.018 66.678 211.23V213.042H65.6285ZM70.2555 213.135C69.8979 213.135 69.5869 213.078 69.3226 212.964C69.0583 212.85 68.851 212.692 68.7007 212.49C68.5504 212.288 68.4649 212.06 68.4441 211.806H69.4858C69.5118 211.904 69.5558 211.995 69.618 212.078C69.6802 212.156 69.7631 212.218 69.8668 212.264C69.9704 212.311 70.0948 212.334 70.2399 212.334C70.3799 212.334 70.4939 212.316 70.582 212.28C70.6701 212.238 70.7349 212.184 70.7763 212.117C70.823 212.049 70.8463 211.979 70.8463 211.907C70.8463 211.798 70.8152 211.715 70.753 211.658C70.6908 211.596 70.6001 211.547 70.4809 211.51C70.3617 211.474 70.2166 211.438 70.0456 211.401C69.859 211.365 69.675 211.321 69.4936 211.269C69.3174 211.212 69.1593 211.142 69.0194 211.059C68.8795 210.976 68.768 210.87 68.6851 210.741C68.6022 210.611 68.5607 210.45 68.5607 210.259C68.5607 210.025 68.6229 209.818 68.7473 209.637C68.8717 209.45 69.0531 209.302 69.2915 209.194C69.5299 209.085 69.8175 209.03 70.1544 209.03C70.626 209.03 70.9992 209.137 71.2739 209.349C71.5486 209.562 71.7118 209.854 71.7637 210.228H70.7763C70.7452 210.108 70.6753 210.015 70.5664 209.948C70.4628 209.875 70.3229 209.839 70.1466 209.839C69.9601 209.839 69.8175 209.873 69.7191 209.94C69.6206 210.007 69.5714 210.095 69.5714 210.204C69.5714 210.277 69.6025 210.342 69.6647 210.399C69.732 210.456 69.8253 210.505 69.9445 210.546C70.0637 210.583 70.2088 210.619 70.3799 210.655C70.6805 210.717 70.9448 210.79 71.1728 210.873C71.4009 210.951 71.5797 211.065 71.7092 211.215C71.8388 211.36 71.9036 211.572 71.9036 211.852C71.9036 212.101 71.8362 212.324 71.7015 212.521C71.5667 212.713 71.3749 212.863 71.1262 212.972C70.8826 213.081 70.5924 213.135 70.2555 213.135ZM74.4863 213.135C74.1132 213.135 73.7763 213.05 73.4757 212.878C73.1803 212.702 72.9445 212.461 72.7683 212.156C72.5972 211.845 72.5117 211.49 72.5117 211.09C72.5117 210.681 72.5972 210.323 72.7683 210.018C72.9445 209.707 73.1829 209.466 73.4835 209.295C73.7841 209.118 74.121 209.03 74.4941 209.03C74.8725 209.03 75.2093 209.118 75.5048 209.295C75.8053 209.466 76.0412 209.707 76.2122 210.018C76.3884 210.323 76.4765 210.678 76.4765 211.083C76.4765 211.487 76.3884 211.845 76.2122 212.156C76.0412 212.461 75.8053 212.702 75.5048 212.878C75.2042 213.05 74.8647 213.135 74.4863 213.135ZM74.4863 212.225C74.6626 212.225 74.818 212.184 74.9528 212.101C75.0927 212.018 75.2016 211.891 75.2793 211.72C75.3622 211.549 75.4037 211.337 75.4037 211.083C75.4037 210.829 75.3622 210.619 75.2793 210.453C75.2016 210.282 75.0927 210.155 74.9528 210.072C74.818 209.984 74.6651 209.94 74.4941 209.94C74.3283 209.94 74.1754 209.984 74.0354 210.072C73.8955 210.155 73.7841 210.282 73.7012 210.453C73.6234 210.619 73.5846 210.829 73.5846 211.083C73.5846 211.337 73.6234 211.549 73.7012 211.72C73.7841 211.891 73.8929 212.018 74.0277 212.101C74.1676 212.184 74.3205 212.225 74.4863 212.225ZM77.2256 213.042V209.124H78.1507L78.2284 209.761C78.3476 209.543 78.5161 209.367 78.7337 209.232C78.9566 209.098 79.2209 209.03 79.5267 209.03C79.8532 209.03 80.1279 209.098 80.3507 209.232C80.5736 209.367 80.742 209.564 80.8561 209.823C80.9753 210.082 81.0349 210.401 81.0349 210.779V213.042H79.9931V210.881C79.9931 210.57 79.9258 210.331 79.791 210.165C79.6614 209.999 79.4593 209.917 79.1846 209.917C79.0084 209.917 78.8503 209.958 78.7104 210.041C78.5757 210.124 78.4694 210.243 78.3917 210.399C78.3139 210.549 78.2751 210.733 78.2751 210.951V213.042H77.2256ZM83.1897 213.135C82.8632 213.135 82.5937 213.083 82.3812 212.98C82.1687 212.871 82.0107 212.728 81.907 212.552C81.8085 212.371 81.7593 212.171 81.7593 211.953C81.7593 211.715 81.8189 211.505 81.9381 211.324C82.0625 211.142 82.2465 211 82.4901 210.896C82.7388 210.792 83.0498 210.741 83.423 210.741H84.3947C84.3947 210.549 84.3688 210.391 84.317 210.266C84.2652 210.137 84.1848 210.041 84.076 209.979C83.9671 209.917 83.822 209.885 83.6406 209.885C83.4437 209.885 83.2753 209.93 83.1353 210.018C83.0006 210.101 82.9176 210.23 82.8865 210.406H81.8681C81.8941 210.126 81.9848 209.885 82.1402 209.683C82.3009 209.476 82.5108 209.315 82.7699 209.201C83.0343 209.087 83.3271 209.03 83.6484 209.03C84.0164 209.03 84.3351 209.093 84.6046 209.217C84.8741 209.341 85.0814 209.52 85.2265 209.753C85.3717 209.987 85.4442 210.274 85.4442 210.616V213.042H84.558L84.4414 212.443C84.3844 212.547 84.317 212.64 84.2392 212.723C84.1615 212.806 84.0708 212.878 83.9671 212.941C83.8635 213.003 83.7469 213.05 83.6173 213.081C83.4877 213.117 83.3452 213.135 83.1897 213.135ZM83.4385 212.327C83.5733 212.327 83.6925 212.303 83.7961 212.257C83.905 212.205 83.9982 212.137 84.076 212.054C84.1537 211.966 84.2133 211.868 84.2548 211.759C84.3014 211.645 84.3325 211.523 84.3481 211.394V211.386H83.5473C83.3867 211.386 83.2545 211.407 83.1509 211.448C83.0524 211.484 82.9798 211.539 82.9332 211.611C82.8865 211.684 82.8632 211.767 82.8632 211.86C82.8632 211.964 82.8865 212.049 82.9332 212.117C82.9798 212.184 83.0472 212.236 83.1353 212.272C83.2234 212.308 83.3245 212.327 83.4385 212.327ZM86.2678 213.042V207.444H87.3173V213.042H86.2678Z" fill="#938FA3"/>
<rect x="98.8613" y="206.884" width="17.9776" height="6.31644" rx="3.15822" fill="#4C49ED"/>
<path d="M125.565 213.135C125.171 213.135 124.819 213.068 124.508 212.933C124.202 212.798 123.959 212.601 123.777 212.342C123.601 212.083 123.51 211.769 123.505 211.401H124.617C124.622 211.562 124.663 211.707 124.741 211.837C124.819 211.966 124.925 212.07 125.06 212.148C125.2 212.22 125.366 212.257 125.557 212.257C125.723 212.257 125.866 212.231 125.985 212.179C126.109 212.122 126.205 212.044 126.273 211.946C126.34 211.847 126.374 211.731 126.374 211.596C126.374 211.44 126.335 211.311 126.257 211.207C126.185 211.103 126.081 211.015 125.946 210.943C125.817 210.87 125.664 210.805 125.487 210.748C125.316 210.686 125.135 210.621 124.943 210.554C124.513 210.414 124.184 210.228 123.956 209.994C123.733 209.761 123.622 209.453 123.622 209.069C123.622 208.743 123.699 208.463 123.855 208.23C124.016 207.996 124.236 207.818 124.516 207.693C124.796 207.569 125.114 207.507 125.472 207.507C125.84 207.507 126.161 207.571 126.436 207.701C126.716 207.825 126.936 208.007 127.097 208.245C127.263 208.484 127.348 208.763 127.353 209.085H126.234C126.229 208.966 126.192 208.854 126.125 208.75C126.063 208.642 125.975 208.556 125.861 208.494C125.747 208.427 125.612 208.393 125.456 208.393C125.322 208.388 125.197 208.408 125.083 208.455C124.974 208.502 124.886 208.572 124.819 208.665C124.757 208.753 124.726 208.864 124.726 208.999C124.726 209.129 124.757 209.238 124.819 209.326C124.886 209.414 124.977 209.492 125.091 209.559C125.205 209.621 125.34 209.681 125.495 209.738C125.651 209.79 125.819 209.844 126.001 209.901C126.27 209.994 126.519 210.106 126.747 210.235C126.975 210.36 127.156 210.523 127.291 210.725C127.426 210.927 127.493 211.194 127.493 211.526C127.493 211.811 127.418 212.075 127.268 212.319C127.117 212.562 126.9 212.759 126.615 212.91C126.335 213.06 125.985 213.135 125.565 213.135ZM128.205 213.042V207.444H129.254V209.707C129.384 209.499 129.555 209.336 129.767 209.217C129.985 209.093 130.236 209.03 130.521 209.03C130.848 209.03 131.123 209.1 131.345 209.24C131.568 209.375 131.737 209.572 131.851 209.831C131.965 210.09 132.022 210.412 132.022 210.795V213.042H130.98V210.888C130.98 210.577 130.915 210.339 130.786 210.173C130.656 210.002 130.451 209.917 130.172 209.917C130 209.917 129.845 209.958 129.705 210.041C129.565 210.124 129.454 210.246 129.371 210.406C129.293 210.562 129.254 210.748 129.254 210.966V213.042H128.205ZM134.705 213.135C134.332 213.135 133.995 213.05 133.694 212.878C133.399 212.702 133.163 212.461 132.987 212.156C132.816 211.845 132.73 211.49 132.73 211.09C132.73 210.681 132.816 210.323 132.987 210.018C133.163 209.707 133.402 209.466 133.702 209.295C134.003 209.118 134.34 209.03 134.713 209.03C135.091 209.03 135.428 209.118 135.723 209.295C136.024 209.466 136.26 209.707 136.431 210.018C136.607 210.323 136.695 210.678 136.695 211.083C136.695 211.487 136.607 211.845 136.431 212.156C136.26 212.461 136.024 212.702 135.723 212.878C135.423 213.05 135.083 213.135 134.705 213.135ZM134.705 212.225C134.881 212.225 135.037 212.184 135.172 212.101C135.311 212.018 135.42 211.891 135.498 211.72C135.581 211.549 135.622 211.337 135.622 211.083C135.622 210.829 135.581 210.619 135.498 210.453C135.42 210.282 135.311 210.155 135.172 210.072C135.037 209.984 134.884 209.94 134.713 209.94C134.547 209.94 134.394 209.984 134.254 210.072C134.114 210.155 134.003 210.282 133.92 210.453C133.842 210.619 133.803 210.829 133.803 211.083C133.803 211.337 133.842 211.549 133.92 211.72C134.003 211.891 134.112 212.018 134.246 212.101C134.386 212.184 134.539 212.225 134.705 212.225ZM137.444 214.752V209.124H138.377L138.494 209.668C138.577 209.554 138.675 209.45 138.789 209.357C138.903 209.258 139.038 209.181 139.193 209.124C139.354 209.061 139.541 209.03 139.753 209.03C140.121 209.03 140.445 209.121 140.725 209.302C141.005 209.484 141.225 209.73 141.386 210.041C141.552 210.347 141.635 210.697 141.635 211.09C141.635 211.484 141.552 211.837 141.386 212.148C141.22 212.454 140.997 212.695 140.717 212.871C140.437 213.047 140.119 213.135 139.761 213.135C139.471 213.135 139.219 213.083 139.007 212.98C138.8 212.871 138.629 212.723 138.494 212.536V214.752H137.444ZM139.512 212.218C139.72 212.218 139.901 212.171 140.056 212.078C140.217 211.984 140.341 211.852 140.43 211.681C140.518 211.51 140.562 211.313 140.562 211.09C140.562 210.868 140.518 210.671 140.43 210.5C140.341 210.323 140.217 210.189 140.056 210.095C139.901 209.997 139.72 209.948 139.512 209.948C139.31 209.948 139.129 209.997 138.968 210.095C138.813 210.189 138.688 210.321 138.595 210.492C138.507 210.663 138.463 210.86 138.463 211.083C138.463 211.306 138.507 211.505 138.595 211.681C138.688 211.852 138.813 211.984 138.968 212.078C139.129 212.171 139.31 212.218 139.512 212.218ZM142.383 214.752V209.124H143.316L143.432 209.668C143.515 209.554 143.614 209.45 143.728 209.357C143.842 209.258 143.977 209.181 144.132 209.124C144.293 209.061 144.479 209.03 144.692 209.03C145.06 209.03 145.384 209.121 145.664 209.302C145.943 209.484 146.164 209.73 146.324 210.041C146.49 210.347 146.573 210.697 146.573 211.09C146.573 211.484 146.49 211.837 146.324 212.148C146.159 212.454 145.936 212.695 145.656 212.871C145.376 213.047 145.057 213.135 144.7 213.135C144.409 213.135 144.158 213.083 143.946 212.98C143.738 212.871 143.567 212.723 143.432 212.536V214.752H142.383ZM144.451 212.218C144.658 212.218 144.84 212.171 144.995 212.078C145.156 211.984 145.28 211.852 145.368 211.681C145.456 211.51 145.5 211.313 145.5 211.09C145.5 210.868 145.456 210.671 145.368 210.5C145.28 210.323 145.156 210.189 144.995 210.095C144.84 209.997 144.658 209.948 144.451 209.948C144.249 209.948 144.067 209.997 143.907 210.095C143.751 210.189 143.627 210.321 143.534 210.492C143.445 210.663 143.401 210.86 143.401 211.083C143.401 211.306 143.445 211.505 143.534 211.681C143.627 211.852 143.751 211.984 143.907 212.078C144.067 212.171 144.249 212.218 144.451 212.218ZM147.345 213.042V209.124H148.394V213.042H147.345ZM147.874 208.587C147.687 208.587 147.532 208.533 147.407 208.424C147.288 208.31 147.228 208.167 147.228 207.996C147.228 207.825 147.288 207.685 147.407 207.577C147.532 207.463 147.687 207.406 147.874 207.406C148.065 207.406 148.221 207.463 148.34 207.577C148.464 207.685 148.527 207.825 148.527 207.996C148.527 208.167 148.464 208.31 148.34 208.424C148.221 208.533 148.065 208.587 147.874 208.587ZM149.299 213.042V209.124H150.225L150.302 209.761C150.422 209.543 150.59 209.367 150.808 209.232C151.03 209.098 151.295 209.03 151.601 209.03C151.927 209.03 152.202 209.098 152.425 209.232C152.648 209.367 152.816 209.564 152.93 209.823C153.049 210.082 153.109 210.401 153.109 210.779V213.042H152.067V210.881C152.067 210.57 152 210.331 151.865 210.165C151.735 209.999 151.533 209.917 151.259 209.917C151.082 209.917 150.924 209.958 150.784 210.041C150.65 210.124 150.543 210.243 150.466 210.399C150.388 210.549 150.349 210.733 150.349 210.951V213.042H149.299ZM155.629 214.845C155.256 214.845 154.929 214.799 154.649 214.705C154.37 214.617 154.152 214.48 153.996 214.293C153.846 214.112 153.771 213.887 153.771 213.617C153.771 213.436 153.818 213.265 153.911 213.104C154.004 212.943 154.139 212.798 154.315 212.669C154.497 212.534 154.722 212.42 154.992 212.327L155.388 212.84C155.15 212.917 154.976 213.013 154.867 213.127C154.764 213.246 154.712 213.373 154.712 213.508C154.712 213.627 154.751 213.728 154.828 213.811C154.911 213.894 155.02 213.954 155.155 213.99C155.295 214.032 155.45 214.052 155.621 214.052C155.787 214.052 155.93 214.032 156.049 213.99C156.173 213.949 156.269 213.887 156.336 213.804C156.409 213.726 156.445 213.633 156.445 213.524C156.445 213.384 156.396 213.27 156.298 213.182C156.199 213.094 156.002 213.039 155.707 213.018C155.442 212.998 155.207 212.969 154.999 212.933C154.797 212.891 154.618 212.845 154.463 212.793C154.307 212.736 154.175 212.674 154.066 212.606C153.963 212.539 153.877 212.472 153.81 212.404V212.225L154.642 211.331L155.396 211.572L154.416 212.536L154.712 212.023C154.769 212.054 154.823 212.086 154.875 212.117C154.932 212.143 155.002 212.168 155.085 212.194C155.168 212.215 155.277 212.236 155.411 212.257C155.546 212.277 155.717 212.295 155.924 212.311C156.267 212.342 156.546 212.407 156.764 212.505C156.987 212.604 157.15 212.736 157.254 212.902C157.357 213.062 157.409 213.262 157.409 213.5C157.409 213.734 157.345 213.951 157.215 214.153C157.091 214.361 156.896 214.527 156.632 214.651C156.368 214.781 156.033 214.845 155.629 214.845ZM155.629 211.883C155.303 211.883 155.02 211.821 154.782 211.697C154.548 211.567 154.367 211.396 154.237 211.184C154.113 210.966 154.051 210.725 154.051 210.461C154.051 210.196 154.113 209.958 154.237 209.746C154.367 209.528 154.548 209.354 154.782 209.225C155.02 209.095 155.303 209.03 155.629 209.03C155.961 209.03 156.243 209.095 156.476 209.225C156.715 209.354 156.896 209.528 157.021 209.746C157.145 209.958 157.207 210.196 157.207 210.461C157.207 210.725 157.145 210.966 157.021 211.184C156.896 211.396 156.715 211.567 156.476 211.697C156.243 211.821 155.961 211.883 155.629 211.883ZM155.629 211.083C155.831 211.083 155.994 211.031 156.119 210.927C156.243 210.824 156.305 210.671 156.305 210.469C156.305 210.266 156.243 210.114 156.119 210.01C155.994 209.901 155.831 209.847 155.629 209.847C155.432 209.847 155.269 209.901 155.139 210.01C155.015 210.114 154.953 210.266 154.953 210.469C154.953 210.671 155.015 210.824 155.139 210.927C155.269 211.031 155.432 211.083 155.629 211.083ZM156.282 209.87L156.111 209.124H157.72V209.746L156.282 209.87Z" fill="#938FA3"/>
<rect x="168.845" y="206.884" width="17.9776" height="6.31644" rx="3.15822" fill="#142D6F" fill-opacity="0.5"/>
<path d="M193.675 213.042V207.6H195.712C196.152 207.6 196.518 207.675 196.808 207.825C197.098 207.976 197.313 208.178 197.453 208.432C197.593 208.686 197.663 208.976 197.663 209.302C197.663 209.603 197.596 209.88 197.461 210.134C197.326 210.388 197.114 210.596 196.824 210.756C196.533 210.912 196.163 210.989 195.712 210.989H194.725V213.042H193.675ZM194.725 210.142H195.65C195.987 210.142 196.228 210.067 196.373 209.917C196.523 209.761 196.598 209.556 196.598 209.302C196.598 209.033 196.523 208.826 196.373 208.68C196.228 208.53 195.987 208.455 195.65 208.455H194.725V210.142ZM198.272 213.042V207.444H199.321V209.707C199.451 209.499 199.622 209.336 199.834 209.217C200.052 209.093 200.303 209.03 200.588 209.03C200.915 209.03 201.189 209.1 201.412 209.24C201.635 209.375 201.804 209.572 201.918 209.831C202.032 210.09 202.089 210.412 202.089 210.795V213.042H201.047V210.888C201.047 210.577 200.982 210.339 200.853 210.173C200.723 210.002 200.518 209.917 200.238 209.917C200.067 209.917 199.912 209.958 199.772 210.041C199.632 210.124 199.521 210.246 199.438 210.406C199.36 210.562 199.321 210.748 199.321 210.966V213.042H198.272ZM204.772 213.135C204.399 213.135 204.062 213.05 203.761 212.878C203.466 212.702 203.23 212.461 203.054 212.156C202.883 211.845 202.797 211.49 202.797 211.09C202.797 210.681 202.883 210.323 203.054 210.018C203.23 209.707 203.469 209.466 203.769 209.295C204.07 209.118 204.407 209.03 204.78 209.03C205.158 209.03 205.495 209.118 205.79 209.295C206.091 209.466 206.327 209.707 206.498 210.018C206.674 210.323 206.762 210.678 206.762 211.083C206.762 211.487 206.674 211.845 206.498 212.156C206.327 212.461 206.091 212.702 205.79 212.878C205.49 213.05 205.15 213.135 204.772 213.135ZM204.772 212.225C204.948 212.225 205.104 212.184 205.238 212.101C205.378 212.018 205.487 211.891 205.565 211.72C205.648 211.549 205.689 211.337 205.689 211.083C205.689 210.829 205.648 210.619 205.565 210.453C205.487 210.282 205.378 210.155 205.238 210.072C205.104 209.984 204.951 209.94 204.78 209.94C204.614 209.94 204.461 209.984 204.321 210.072C204.181 210.155 204.07 210.282 203.987 210.453C203.909 210.619 203.87 210.829 203.87 211.083C203.87 211.337 203.909 211.549 203.987 211.72C204.07 211.891 204.179 212.018 204.313 212.101C204.453 212.184 204.606 212.225 204.772 212.225ZM207.511 213.042V209.124H208.436L208.514 209.761C208.633 209.543 208.802 209.367 209.019 209.232C209.242 209.098 209.507 209.03 209.812 209.03C210.139 209.03 210.414 209.098 210.636 209.232C210.859 209.367 211.028 209.564 211.142 209.823C211.261 210.082 211.32 210.401 211.32 210.779V213.042H210.279V210.881C210.279 210.57 210.211 210.331 210.077 210.165C209.947 209.999 209.745 209.917 209.47 209.917C209.294 209.917 209.136 209.958 208.996 210.041C208.861 210.124 208.755 210.243 208.677 210.399C208.6 210.549 208.561 210.733 208.561 210.951V213.042H207.511ZM214.035 213.135C213.641 213.135 213.291 213.052 212.986 212.886C212.685 212.715 212.449 212.479 212.278 212.179C212.112 211.873 212.029 211.521 212.029 211.122C212.029 210.712 212.112 210.352 212.278 210.041C212.449 209.725 212.685 209.479 212.986 209.302C213.286 209.121 213.636 209.03 214.035 209.03C214.424 209.03 214.763 209.116 215.054 209.287C215.344 209.458 215.569 209.689 215.73 209.979C215.891 210.269 215.971 210.598 215.971 210.966C215.971 211.018 215.971 211.077 215.971 211.145C215.971 211.207 215.966 211.272 215.955 211.339H212.776V210.702H214.914C214.898 210.448 214.807 210.248 214.641 210.103C214.481 209.958 214.279 209.885 214.035 209.885C213.859 209.885 213.696 209.927 213.545 210.01C213.395 210.088 213.276 210.209 213.188 210.375C213.105 210.541 213.063 210.751 213.063 211.005V211.23C213.063 211.443 213.102 211.629 213.18 211.79C213.263 211.946 213.377 212.067 213.522 212.156C213.667 212.238 213.836 212.28 214.027 212.28C214.219 212.28 214.377 212.238 214.502 212.156C214.631 212.073 214.727 211.966 214.789 211.837H215.862C215.789 212.08 215.668 212.301 215.497 212.498C215.326 212.695 215.116 212.85 214.867 212.964C214.618 213.078 214.341 213.135 214.035 213.135Z" fill="#938FA3"/>
<rect x="227.828" y="206.884" width="17.9776" height="6.31644" rx="3.15822" fill="#142D6F"/>
<path d="M255.17 213.135C254.641 213.135 254.174 213.016 253.77 212.777C253.366 212.539 253.05 212.21 252.822 211.79C252.594 211.365 252.48 210.875 252.48 210.321C252.48 209.766 252.594 209.279 252.822 208.859C253.05 208.434 253.366 208.103 253.77 207.864C254.174 207.626 254.641 207.507 255.17 207.507C255.703 207.507 256.172 207.626 256.577 207.864C256.981 208.103 257.294 208.434 257.517 208.859C257.745 209.279 257.859 209.766 257.859 210.321C257.859 210.875 257.745 211.365 257.517 211.79C257.294 212.21 256.981 212.539 256.577 212.777C256.172 213.016 255.703 213.135 255.17 213.135ZM255.17 212.194C255.501 212.194 255.786 212.119 256.025 211.969C256.268 211.813 256.457 211.596 256.592 211.316C256.727 211.036 256.794 210.704 256.794 210.321C256.794 209.932 256.727 209.6 256.592 209.326C256.457 209.046 256.268 208.831 256.025 208.68C255.786 208.53 255.501 208.455 255.17 208.455C254.843 208.455 254.558 208.53 254.314 208.68C254.071 208.831 253.882 209.046 253.747 209.326C253.612 209.6 253.545 209.932 253.545 210.321C253.545 210.704 253.612 211.036 253.747 211.316C253.882 211.596 254.071 211.813 254.314 211.969C254.558 212.119 254.843 212.194 255.17 212.194ZM260.341 213.042C260.066 213.042 259.825 213 259.618 212.917C259.416 212.829 259.257 212.687 259.143 212.49C259.029 212.288 258.972 212.013 258.972 211.666V210.002H258.304V209.124H258.972L259.089 208.059H260.022V209.124H261.056V210.002H260.022V211.681C260.022 211.857 260.061 211.979 260.139 212.047C260.216 212.114 260.348 212.148 260.535 212.148H261.048V213.042H260.341ZM261.784 213.042V207.444H262.833V209.707C262.963 209.499 263.134 209.336 263.346 209.217C263.564 209.093 263.815 209.03 264.1 209.03C264.427 209.03 264.702 209.1 264.924 209.24C265.147 209.375 265.316 209.572 265.43 209.831C265.544 210.09 265.601 210.412 265.601 210.795V213.042H264.559V210.888C264.559 210.577 264.494 210.339 264.365 210.173C264.235 210.002 264.03 209.917 263.751 209.917C263.579 209.917 263.424 209.958 263.284 210.041C263.144 210.124 263.033 210.246 262.95 210.406C262.872 210.562 262.833 210.748 262.833 210.966V213.042H261.784ZM268.315 213.135C267.921 213.135 267.571 213.052 267.266 212.886C266.965 212.715 266.729 212.479 266.558 212.179C266.392 211.873 266.309 211.521 266.309 211.122C266.309 210.712 266.392 210.352 266.558 210.041C266.729 209.725 266.965 209.479 267.266 209.302C267.566 209.121 267.916 209.03 268.315 209.03C268.704 209.03 269.043 209.116 269.334 209.287C269.624 209.458 269.849 209.689 270.01 209.979C270.171 210.269 270.251 210.598 270.251 210.966C270.251 211.018 270.251 211.077 270.251 211.145C270.251 211.207 270.246 211.272 270.235 211.339H267.056V210.702H269.194C269.178 210.448 269.087 210.248 268.922 210.103C268.761 209.958 268.559 209.885 268.315 209.885C268.139 209.885 267.976 209.927 267.825 210.01C267.675 210.088 267.556 210.209 267.468 210.375C267.385 210.541 267.343 210.751 267.343 211.005V211.23C267.343 211.443 267.382 211.629 267.46 211.79C267.543 211.946 267.657 212.067 267.802 212.156C267.947 212.238 268.116 212.28 268.307 212.28C268.499 212.28 268.657 212.238 268.782 212.156C268.911 212.073 269.007 211.966 269.069 211.837H270.142C270.07 212.08 269.948 212.301 269.777 212.498C269.606 212.695 269.396 212.85 269.147 212.964C268.898 213.078 268.621 213.135 268.315 213.135ZM270.955 213.042V209.124H271.888L271.989 209.847C272.082 209.676 272.199 209.53 272.339 209.411C272.484 209.292 272.647 209.199 272.829 209.131C273.015 209.064 273.22 209.03 273.443 209.03V210.142H273.085C272.93 210.142 272.784 210.16 272.65 210.196C272.52 210.233 272.406 210.292 272.308 210.375C272.209 210.453 272.134 210.562 272.082 210.702C272.03 210.842 272.004 211.018 272.004 211.23V213.042H270.955Z" fill="#938FA3"/>
<path d="M153 184.108C136.137 184.108 119.953 177.467 107.95 165.622C95.9476 153.778 89.0927 137.683 88.8691 120.822L101.695 120.652C101.874 134.141 107.358 147.017 116.96 156.492C126.562 165.968 139.51 171.281 153 171.281V184.108Z" fill="#142D6F"/>
<path d="M120.987 64.5254C130.709 58.9126 141.735 55.9546 152.961 55.9478C164.186 55.941 175.216 58.8857 184.944 64.4867C194.673 70.0877 202.757 78.148 208.388 87.8593C214.018 97.5706 216.996 108.592 217.023 119.817L204.218 119.848C204.197 110.868 201.814 102.051 197.31 94.2818C192.806 86.5127 186.338 80.0645 178.555 75.5837C170.773 71.1029 161.949 68.7471 152.968 68.7526C143.988 68.758 135.167 71.1245 127.39 75.6146L120.987 64.5254Z" fill="#4C49ED"/>
<path d="M217.132 120.646C216.956 137.43 210.207 153.476 198.334 165.34C186.46 177.204 170.409 183.941 153.625 184.105L153.5 171.278C166.927 171.147 179.768 165.758 189.267 156.267C198.765 146.775 204.165 133.938 204.306 120.511L217.132 120.646Z" fill="#8996B7"/>
<path d="M88.9756 119.972C88.9756 108.84 91.8778 97.901 97.3959 88.2335C102.914 78.5661 110.857 70.5043 120.442 64.8438L126.954 75.8693C119.286 80.3978 112.931 86.8472 108.517 94.5812C104.102 102.315 101.78 111.066 101.78 119.972H88.9756Z" fill="#A3BDFF"/>
<path d="M124.833 125.954V106.077H126.107V125.954H124.833ZM127.9 112.832C127.849 112.262 127.618 111.82 127.209 111.504C126.805 111.183 126.228 111.023 125.478 111.023C124.981 111.023 124.567 111.087 124.235 111.217C123.904 111.346 123.656 111.525 123.49 111.752C123.324 111.975 123.239 112.231 123.234 112.521C123.223 112.759 123.27 112.969 123.374 113.15C123.482 113.331 123.638 113.492 123.839 113.631C124.047 113.766 124.295 113.885 124.585 113.989C124.875 114.092 125.201 114.183 125.563 114.26L126.93 114.571C127.717 114.742 128.41 114.969 129.011 115.254C129.616 115.539 130.123 115.878 130.532 116.271C130.947 116.665 131.26 117.118 131.472 117.63C131.684 118.143 131.793 118.717 131.798 119.354C131.793 120.358 131.539 121.22 131.037 121.939C130.535 122.659 129.813 123.21 128.871 123.593C127.934 123.976 126.803 124.168 125.478 124.168C124.147 124.168 122.988 123.968 121.999 123.57C121.011 123.171 120.242 122.566 119.693 121.753C119.145 120.94 118.862 119.913 118.847 118.67H122.527C122.558 119.183 122.696 119.61 122.939 119.952C123.182 120.293 123.516 120.552 123.94 120.728C124.37 120.904 124.867 120.992 125.431 120.992C125.949 120.992 126.389 120.922 126.751 120.782C127.119 120.643 127.401 120.449 127.597 120.2C127.794 119.952 127.895 119.667 127.9 119.346C127.895 119.046 127.802 118.79 127.621 118.577C127.44 118.36 127.16 118.174 126.782 118.018C126.409 117.858 125.933 117.71 125.354 117.576L123.692 117.187C122.315 116.872 121.231 116.362 120.439 115.658C119.647 114.949 119.253 113.991 119.258 112.785C119.253 111.802 119.517 110.94 120.05 110.199C120.584 109.459 121.321 108.882 122.263 108.468C123.205 108.054 124.279 107.847 125.486 107.847C126.717 107.847 127.786 108.057 128.692 108.476C129.603 108.89 130.31 109.472 130.812 110.223C131.314 110.973 131.57 111.843 131.581 112.832H127.9ZM145.758 108.064V123.966H141.923V111.651H141.83L138.274 113.825V110.502L142.195 108.064H145.758ZM155.322 124.183C154.111 124.183 153.037 123.976 152.1 123.562C151.168 123.143 150.433 122.566 149.895 121.831C149.357 121.096 149.082 120.249 149.072 119.292H152.939C152.954 119.638 153.065 119.946 153.272 120.216C153.48 120.48 153.762 120.687 154.119 120.837C154.476 120.987 154.882 121.062 155.338 121.062C155.793 121.062 156.194 120.982 156.541 120.821C156.893 120.656 157.168 120.43 157.364 120.146C157.561 119.856 157.657 119.525 157.652 119.152C157.657 118.779 157.551 118.448 157.333 118.158C157.116 117.868 156.808 117.643 156.409 117.483C156.016 117.322 155.55 117.242 155.012 117.242H153.467V114.509H155.012C155.483 114.509 155.897 114.431 156.254 114.276C156.616 114.121 156.898 113.903 157.1 113.624C157.302 113.339 157.401 113.013 157.395 112.645C157.401 112.288 157.315 111.975 157.139 111.706C156.968 111.431 156.728 111.219 156.417 111.069C156.112 110.919 155.757 110.844 155.353 110.844C154.929 110.844 154.543 110.919 154.196 111.069C153.855 111.219 153.583 111.431 153.381 111.706C153.179 111.98 153.073 112.298 153.063 112.661H149.39C149.401 111.714 149.665 110.88 150.182 110.161C150.7 109.436 151.404 108.869 152.294 108.46C153.19 108.051 154.209 107.847 155.353 107.847C156.492 107.847 157.494 108.046 158.358 108.445C159.223 108.843 159.896 109.387 160.377 110.075C160.858 110.759 161.099 111.532 161.099 112.397C161.104 113.292 160.812 114.03 160.222 114.61C159.637 115.189 158.884 115.547 157.962 115.681V115.805C159.194 115.95 160.123 116.349 160.75 117.001C161.381 117.653 161.694 118.469 161.689 119.447C161.689 120.368 161.417 121.186 160.874 121.9C160.335 122.61 159.585 123.169 158.622 123.578C157.665 123.981 156.565 124.183 155.322 124.183ZM170.069 124.183C168.832 124.183 167.727 123.987 166.753 123.593C165.785 123.195 165.025 122.656 164.471 121.978C163.922 121.295 163.648 120.524 163.648 119.664C163.648 119.007 163.806 118.404 164.121 117.855C164.437 117.307 164.864 116.851 165.402 116.489C165.946 116.121 166.552 115.886 167.219 115.782V115.658C166.345 115.497 165.628 115.091 165.069 114.439C164.515 113.787 164.238 113.023 164.238 112.148C164.238 111.32 164.489 110.583 164.991 109.936C165.498 109.288 166.189 108.779 167.064 108.406C167.944 108.033 168.946 107.847 170.069 107.847C171.192 107.847 172.191 108.033 173.066 108.406C173.946 108.779 174.637 109.288 175.139 109.936C175.646 110.583 175.9 111.32 175.9 112.148C175.9 113.028 175.618 113.794 175.054 114.447C174.495 115.094 173.783 115.497 172.918 115.658V115.782C173.581 115.886 174.181 116.121 174.72 116.489C175.263 116.851 175.693 117.307 176.009 117.855C176.33 118.404 176.49 119.007 176.49 119.664C176.49 120.524 176.213 121.295 175.659 121.978C175.105 122.656 174.344 123.195 173.376 123.593C172.414 123.987 171.311 124.183 170.069 124.183ZM170.069 121.458C170.54 121.458 170.954 121.37 171.311 121.194C171.668 121.013 171.948 120.762 172.15 120.441C172.357 120.12 172.46 119.758 172.46 119.354C172.46 118.94 172.357 118.572 172.15 118.251C171.943 117.93 171.658 117.679 171.296 117.498C170.938 117.312 170.53 117.219 170.069 117.219C169.613 117.219 169.204 117.312 168.842 117.498C168.48 117.679 168.195 117.93 167.988 118.251C167.781 118.572 167.677 118.94 167.677 119.354C167.677 119.758 167.778 120.12 167.98 120.441C168.187 120.757 168.469 121.005 168.827 121.186C169.189 121.367 169.603 121.458 170.069 121.458ZM170.069 114.509C170.473 114.509 170.83 114.426 171.14 114.26C171.456 114.095 171.702 113.864 171.878 113.569C172.059 113.274 172.15 112.94 172.15 112.568C172.15 112.195 172.059 111.866 171.878 111.582C171.702 111.297 171.459 111.074 171.148 110.914C170.838 110.748 170.478 110.665 170.069 110.665C169.665 110.665 169.305 110.748 168.99 110.914C168.674 111.074 168.428 111.297 168.252 111.582C168.076 111.866 167.988 112.195 167.988 112.568C167.988 112.94 168.076 113.274 168.252 113.569C168.433 113.859 168.682 114.089 168.997 114.26C169.313 114.426 169.67 114.509 170.069 114.509ZM178.87 124.061C178.634 124.061 178.432 123.978 178.264 123.812C178.098 123.646 178.016 123.445 178.018 123.209C178.016 122.977 178.098 122.779 178.264 122.615C178.432 122.449 178.634 122.366 178.87 122.366C179.093 122.366 179.29 122.449 179.46 122.615C179.633 122.779 179.72 122.977 179.723 123.209C179.72 123.366 179.679 123.509 179.598 123.638C179.519 123.767 179.416 123.87 179.287 123.946C179.16 124.023 179.021 124.061 178.87 124.061ZM183.257 124.13C182.671 124.13 182.166 123.991 181.742 123.713C181.318 123.434 180.991 123.033 180.762 122.51C180.532 121.986 180.419 121.355 180.421 120.619C180.423 119.882 180.538 119.257 180.765 118.743C180.995 118.228 181.32 117.835 181.742 117.567C182.166 117.296 182.671 117.16 183.257 117.16C183.842 117.16 184.347 117.296 184.771 117.567C185.197 117.835 185.525 118.228 185.755 118.743C185.984 119.259 186.098 119.884 186.096 120.619C186.096 121.357 185.981 121.989 185.751 122.514C185.522 123.038 185.195 123.439 184.771 123.717C184.349 123.992 183.845 124.13 183.257 124.13ZM183.257 122.802C183.606 122.802 183.889 122.624 184.106 122.268C184.322 121.909 184.429 121.36 184.427 120.619C184.427 120.133 184.378 119.734 184.279 119.419C184.181 119.102 184.045 118.866 183.87 118.711C183.695 118.556 183.49 118.478 183.257 118.478C182.909 118.478 182.628 118.654 182.414 119.006C182.2 119.355 182.092 119.893 182.09 120.619C182.087 121.11 182.134 121.518 182.231 121.841C182.329 122.165 182.467 122.406 182.644 122.566C182.821 122.723 183.025 122.802 183.257 122.802ZM189.802 124.13C189.216 124.13 188.711 123.991 188.287 123.713C187.863 123.434 187.536 123.033 187.307 122.51C187.078 121.986 186.964 121.355 186.966 120.619C186.968 119.882 187.083 119.257 187.31 118.743C187.54 118.228 187.865 117.835 188.287 117.567C188.711 117.296 189.216 117.16 189.802 117.16C190.388 117.16 190.892 117.296 191.316 117.567C191.743 117.835 192.07 118.228 192.3 118.743C192.529 119.259 192.643 119.884 192.641 120.619C192.641 121.357 192.526 121.989 192.297 122.514C192.067 123.038 191.74 123.439 191.316 123.717C190.895 123.992 190.39 124.13 189.802 124.13ZM189.802 122.802C190.151 122.802 190.434 122.624 190.651 122.268C190.867 121.909 190.974 121.36 190.972 120.619C190.972 120.133 190.923 119.734 190.825 119.419C190.726 119.102 190.59 118.866 190.415 118.711C190.24 118.556 190.036 118.478 189.802 118.478C189.454 118.478 189.173 118.654 188.959 119.006C188.745 119.355 188.637 119.893 188.635 120.619C188.633 121.11 188.68 121.518 188.776 121.841C188.874 122.165 189.012 122.406 189.189 122.566C189.366 122.723 189.57 122.802 189.802 122.802Z" fill="#142D6F"/>
<path opacity="0.5" d="M117.734 138.071C117.285 138.071 116.894 137.989 116.562 137.826C116.23 137.663 115.973 137.435 115.792 137.144C115.612 136.852 115.521 136.514 115.521 136.129H116.291C116.291 136.368 116.346 136.59 116.457 136.794C116.568 136.992 116.728 137.152 116.938 137.275C117.154 137.392 117.419 137.45 117.734 137.45C118.008 137.45 118.241 137.406 118.434 137.319C118.632 137.225 118.781 137.1 118.88 136.943C118.985 136.785 119.037 136.607 119.037 136.409C119.037 136.187 118.988 136.004 118.889 135.858C118.795 135.706 118.664 135.584 118.495 135.491C118.326 135.392 118.131 135.304 117.909 135.228C117.687 135.153 117.448 135.074 117.192 134.992C116.679 134.829 116.306 134.625 116.072 134.38C115.845 134.129 115.731 133.809 115.731 133.418C115.731 133.086 115.807 132.794 115.959 132.543C116.116 132.293 116.338 132.097 116.623 131.957C116.915 131.812 117.259 131.739 117.655 131.739C118.046 131.739 118.384 131.812 118.67 131.957C118.961 132.103 119.189 132.304 119.352 132.561C119.515 132.812 119.597 133.103 119.597 133.435H118.827C118.827 133.266 118.784 133.1 118.696 132.937C118.609 132.774 118.475 132.64 118.294 132.535C118.119 132.424 117.897 132.368 117.629 132.368C117.408 132.363 117.209 132.401 117.034 132.482C116.865 132.558 116.731 132.669 116.632 132.815C116.539 132.96 116.492 133.138 116.492 133.348C116.492 133.546 116.533 133.707 116.615 133.829C116.702 133.951 116.824 134.056 116.982 134.144C117.145 134.226 117.335 134.301 117.55 134.371C117.766 134.441 118.005 134.52 118.268 134.607C118.565 134.707 118.827 134.829 119.055 134.975C119.288 135.115 119.469 135.295 119.597 135.517C119.731 135.739 119.798 136.021 119.798 136.365C119.798 136.657 119.719 136.934 119.562 137.196C119.41 137.453 119.183 137.663 118.88 137.826C118.577 137.989 118.195 138.071 117.734 138.071ZM120.9 137.966V131.844H122.867C123.357 131.844 123.759 131.925 124.074 132.089C124.389 132.252 124.622 132.473 124.774 132.753C124.926 133.027 125.001 133.339 125.001 133.689C125.001 134.033 124.926 134.345 124.774 134.625C124.622 134.905 124.389 135.126 124.074 135.29C123.765 135.453 123.363 135.534 122.867 135.534H121.634V137.966H120.9ZM121.634 134.914H122.859C123.372 134.914 123.73 134.803 123.934 134.581C124.144 134.354 124.249 134.056 124.249 133.689C124.249 133.304 124.144 133.004 123.934 132.788C123.73 132.567 123.372 132.456 122.859 132.456H121.634V134.914ZM126.007 137.966V131.844H129.794V132.447H126.742V134.581H129.532V135.176H126.742V137.362H129.794V137.966H126.007ZM130.986 137.966V131.844H131.721L134.983 136.759V131.844H135.718V137.966H134.983L131.721 133.051V137.966H130.986ZM137.067 137.966V131.844H138.642C139.353 131.844 139.939 131.969 140.4 132.22C140.866 132.465 141.21 132.817 141.432 133.278C141.659 133.733 141.773 134.281 141.773 134.922C141.773 135.552 141.659 136.094 141.432 136.549C141.21 137.004 140.866 137.354 140.4 137.598C139.939 137.843 139.353 137.966 138.642 137.966H137.067ZM137.802 137.354H138.624C139.213 137.354 139.682 137.257 140.032 137.065C140.382 136.867 140.633 136.587 140.784 136.225C140.936 135.858 141.012 135.424 141.012 134.922C141.012 134.409 140.936 133.969 140.784 133.602C140.633 133.234 140.382 132.952 140.032 132.753C139.682 132.555 139.213 132.456 138.624 132.456H137.802V137.354ZM146.649 137.966V132.447H144.822V131.844H149.212V132.447H147.384V137.966H146.649ZM154.07 137.966V131.844H154.805V137.966H154.07ZM150.161 137.966V131.844H150.895V137.966H150.161ZM150.755 135.15V134.546H154.254V135.15H150.755ZM156.148 137.966V131.844H156.882V137.966H156.148ZM160.191 138.071C159.742 138.071 159.351 137.989 159.019 137.826C158.686 137.663 158.43 137.435 158.249 137.144C158.068 136.852 157.978 136.514 157.978 136.129H158.748C158.748 136.368 158.803 136.59 158.914 136.794C159.025 136.992 159.185 137.152 159.395 137.275C159.611 137.392 159.876 137.45 160.191 137.45C160.465 137.45 160.698 137.406 160.89 137.319C161.089 137.225 161.237 137.1 161.336 136.943C161.441 136.785 161.494 136.607 161.494 136.409C161.494 136.187 161.444 136.004 161.345 135.858C161.252 135.706 161.121 135.584 160.952 135.491C160.783 135.392 160.587 135.304 160.366 135.228C160.144 135.153 159.905 135.074 159.648 134.992C159.135 134.829 158.762 134.625 158.529 134.38C158.302 134.129 158.188 133.809 158.188 133.418C158.188 133.086 158.264 132.794 158.415 132.543C158.573 132.293 158.794 132.097 159.08 131.957C159.372 131.812 159.716 131.739 160.112 131.739C160.503 131.739 160.841 131.812 161.127 131.957C161.418 132.103 161.645 132.304 161.809 132.561C161.972 132.812 162.054 133.103 162.054 133.435H161.284C161.284 133.266 161.24 133.1 161.153 132.937C161.065 132.774 160.931 132.64 160.75 132.535C160.576 132.424 160.354 132.368 160.086 132.368C159.864 132.363 159.666 132.401 159.491 132.482C159.322 132.558 159.188 132.669 159.089 132.815C158.995 132.96 158.949 133.138 158.949 133.348C158.949 133.546 158.99 133.707 159.071 133.829C159.159 133.951 159.281 134.056 159.439 134.144C159.602 134.226 159.791 134.301 160.007 134.371C160.223 134.441 160.462 134.52 160.724 134.607C161.022 134.707 161.284 134.829 161.511 134.975C161.745 135.115 161.925 135.295 162.054 135.517C162.188 135.739 162.255 136.021 162.255 136.365C162.255 136.657 162.176 136.934 162.019 137.196C161.867 137.453 161.64 137.663 161.336 137.826C161.033 137.989 160.651 138.071 160.191 138.071ZM165.705 137.966V131.844H166.562L168.643 136.155L170.708 131.844H171.573V137.966H170.839V133.164L168.915 137.161H168.364L166.44 133.199V137.966H165.705ZM175.511 138.071C174.951 138.071 174.458 137.94 174.033 137.677C173.607 137.409 173.275 137.039 173.036 136.566C172.797 136.088 172.677 135.534 172.677 134.905C172.677 134.281 172.797 133.733 173.036 133.261C173.275 132.782 173.607 132.409 174.033 132.141C174.458 131.873 174.951 131.739 175.511 131.739C176.082 131.739 176.581 131.873 177.006 132.141C177.432 132.409 177.761 132.782 177.995 133.261C178.228 133.733 178.344 134.281 178.344 134.905C178.344 135.534 178.228 136.088 177.995 136.566C177.761 137.039 177.432 137.409 177.006 137.677C176.581 137.94 176.082 138.071 175.511 138.071ZM175.511 137.424C175.93 137.424 176.295 137.324 176.604 137.126C176.919 136.922 177.161 136.634 177.33 136.26C177.505 135.881 177.592 135.43 177.592 134.905C177.592 134.38 177.505 133.931 177.33 133.558C177.161 133.179 176.919 132.89 176.604 132.692C176.295 132.494 175.93 132.395 175.511 132.395C175.097 132.395 174.732 132.494 174.417 132.692C174.108 132.89 173.866 133.179 173.692 133.558C173.517 133.931 173.429 134.38 173.429 134.905C173.429 135.43 173.517 135.881 173.692 136.26C173.866 136.634 174.108 136.922 174.417 137.126C174.732 137.324 175.097 137.424 175.511 137.424ZM179.447 137.966V131.844H180.182L183.444 136.759V131.844H184.179V137.966H183.444L180.182 133.051V137.966H179.447ZM186.954 137.966V132.447H185.126V131.844H189.516V132.447H187.688V137.966H186.954ZM194.374 137.966V131.844H195.109V137.966H194.374ZM190.465 137.966V131.844H191.2V137.966H190.465ZM191.06 135.15V134.546H194.558V135.15H191.06Z" fill="#142D6F"/>
</g>
<defs>
<filter id="filter0_d_0_3785" x="-4" y="0" width="306" height="257.189" filterUnits="userSpaceOnUse" color-interpolation-filters="sRGB">
<feFlood flood-opacity="0" result="BackgroundImageFix"/>
<feColorMatrix in="SourceAlpha" type="matrix" values="0 0 0 0 0 0 0 0 0 0 0 0 0 0 0 0 0 0 127 0" result="hardAlpha"/>
<feOffset dx="-4" dy="10"/>
<feGaussianBlur stdDeviation="10"/>
<feComposite in2="hardAlpha" operator="out"/>
<feColorMatrix type="matrix" values="0 0 0 0 0.0784314 0 0 0 0 0.176471 0 0 0 0 0.435294 0 0 0 0.1 0"/>
<feBlend mode="normal" in2="BackgroundImageFix" result="effect1_dropShadow_0_3785"/>
<feBlend mode="normal" in="SourceGraphic" in2="effect1_dropShadow_0_3785" result="shape"/>
</filter>
</defs>
</svg>
