<svg width="285" height="161" viewBox="0 0 285 161" fill="none" xmlns="http://www.w3.org/2000/svg">
<rect width="284.099" height="160.35" rx="17.4294" fill="#142D6F"/>
<mask id="mask0_0_3806" style="mask-type:alpha" maskUnits="userSpaceOnUse" x="0" y="-1" width="285" height="162">
<rect y="-0.000244141" width="284.099" height="160.35" rx="17.4294" fill="#ED713C"/>
</mask>
<g mask="url(#mask0_0_3806)">
<ellipse opacity="0.1" cx="22.097" cy="185.621" rx="144.755" ry="98.476" fill="black"/>
<ellipse opacity="0.08" cx="262.002" cy="-25.2725" rx="144.755" ry="98.476" fill="black"/>
</g>
<path d="M221.032 135.138C221.032 137.517 222.044 139.372 224.106 139.372C226.18 139.372 227.169 137.517 227.169 135.138C227.169 133.906 226.912 132.918 226.388 132.173C225.875 131.429 225.119 131.051 224.106 131.051C223.094 131.051 222.337 131.429 221.813 132.186C221.288 132.93 221.032 133.918 221.032 135.138ZM225.827 135.15C225.827 137.054 225.29 138.188 224.106 138.188C222.923 138.188 222.374 137.054 222.374 135.15C222.374 133.21 222.947 132.234 224.106 132.234C225.253 132.234 225.827 133.21 225.827 135.15ZM234.595 133.845C234.632 132.259 233.278 131.027 231.753 131.051C230.215 131.051 228.898 132.259 228.898 133.833C228.898 135.358 230.154 136.529 231.533 136.529C231.667 136.529 231.777 136.517 231.887 136.492L229.947 139.238H231.484L233.485 136.395C233.766 136.004 233.973 135.699 234.107 135.48C234.241 135.248 234.363 135.004 234.449 134.736C234.546 134.455 234.595 134.162 234.595 133.845ZM233.314 133.833C233.314 134.284 233.168 134.662 232.863 134.967C232.558 135.272 232.192 135.431 231.753 135.431C231.301 135.431 230.923 135.285 230.618 134.98C230.313 134.675 230.166 134.284 230.166 133.833C230.166 133.381 230.313 133.003 230.618 132.698C230.923 132.393 231.301 132.234 231.753 132.234C232.192 132.234 232.558 132.393 232.863 132.698C233.168 133.003 233.314 133.381 233.314 133.833ZM234.159 140.714H235.587L241.968 129.721H240.54L234.159 140.714ZM244.909 138.115L246.324 136.614C246.885 136.017 247.312 135.504 247.593 135.053C247.886 134.601 248.032 134.101 248.032 133.552C248.032 132.137 246.897 131.051 245.36 131.051C243.713 131.051 242.652 132.308 242.652 133.625C242.652 133.869 242.676 134.101 242.737 134.321H244.042C244.006 134.077 243.981 133.869 243.981 133.698C243.981 132.869 244.531 132.234 245.348 132.234C246.165 132.234 246.69 132.832 246.69 133.65C246.69 134.333 246.3 134.919 245.409 135.858L242.542 138.945V139.238H248.313V138.115H244.909ZM255.621 136.639C255.621 135.016 254.315 134.126 252.875 134.126C252.509 134.126 252.168 134.162 251.851 134.235V132.344H255.169V131.185H250.582V135.236H252.436C253.62 135.236 254.291 135.748 254.291 136.663C254.291 137.59 253.583 138.188 252.619 138.188C251.753 138.188 251.155 137.737 250.667 136.993L249.764 137.639C250.313 138.676 251.326 139.372 252.656 139.372C254.254 139.372 255.621 138.262 255.621 136.639Z" fill="white"/>
<path opacity="0.9" d="M33.2789 136.639C33.2789 135.016 31.9735 134.126 30.5338 134.126C30.1678 134.126 29.8262 134.162 29.509 134.235V132.344H32.8275V131.185H28.2401V135.236H30.0946C31.278 135.236 31.9491 135.748 31.9491 136.663C31.9491 137.59 31.2414 138.188 30.2776 138.188C29.4113 138.188 28.8135 137.737 28.3255 136.993L27.4227 137.639C27.9717 138.676 28.9843 139.372 30.3142 139.372C31.9125 139.372 33.2789 138.262 33.2789 136.639ZM37.2357 138.115L38.6509 136.614C39.2122 136.017 39.6392 135.504 39.9198 135.053C40.2126 134.601 40.359 134.101 40.359 133.552C40.359 132.137 39.2244 131.051 37.6871 131.051C36.04 131.051 34.9786 132.308 34.9786 133.625C34.9786 133.869 35.003 134.101 35.064 134.321H36.3694C36.3328 134.077 36.3084 133.869 36.3084 133.698C36.3084 132.869 36.8575 132.234 37.6749 132.234C38.4923 132.234 39.017 132.832 39.017 133.65C39.017 134.333 38.6265 134.919 37.7359 135.858L34.8688 138.945V139.238H40.6396V138.115H37.2357ZM48.2037 137.139C48.2037 136.114 47.5205 135.443 46.4591 135.053C47.3497 134.577 47.8255 133.955 47.8255 133.113C47.8255 132.466 47.5815 131.954 47.1057 131.6C46.6299 131.234 46.0198 131.051 45.2878 131.051C44.5436 131.051 43.9335 131.234 43.4455 131.6C42.9697 131.954 42.7257 132.466 42.7257 133.113C42.7257 133.979 43.2137 134.577 44.0921 135.053C43.0185 135.443 42.3475 136.114 42.3475 137.139C42.3475 138.493 43.5553 139.372 45.2878 139.372C47.0081 139.372 48.2037 138.493 48.2037 137.139ZM43.9579 133.162C43.9579 132.515 44.507 132.112 45.2878 132.112C46.0564 132.112 46.5933 132.515 46.5933 133.162C46.5933 133.759 46.1906 134.077 45.2756 134.467C44.3606 134.065 43.9579 133.747 43.9579 133.162ZM46.8983 137.09C46.8983 137.822 46.3248 138.298 45.2878 138.298C44.2508 138.298 43.6529 137.822 43.6529 137.09C43.6529 136.37 44.202 135.992 45.2756 135.614C46.3492 136.004 46.8983 136.358 46.8983 137.09ZM52.2021 138.115L53.6174 136.614C54.1786 136.017 54.6056 135.504 54.8863 135.053C55.1791 134.601 55.3255 134.101 55.3255 133.552C55.3255 132.137 54.1908 131.051 52.6536 131.051C51.0065 131.051 49.945 132.308 49.945 133.625C49.945 133.869 49.9694 134.101 50.0304 134.321H51.3359C51.2993 134.077 51.2749 133.869 51.2749 133.698C51.2749 132.869 51.8239 132.234 52.6414 132.234C53.4588 132.234 53.9834 132.832 53.9834 133.65C53.9834 134.333 53.593 134.919 52.7024 135.858L49.8352 138.945V139.238H55.6061V138.115H52.2021ZM66.574 136.651C66.574 135.956 66.3666 135.394 65.9518 134.967C65.537 134.54 65.0367 134.272 64.4389 134.174L66.391 131.539V131.185H61.3766V132.369H64.3779L62.499 134.894V135.248H63.3897C64.5731 135.248 65.2441 135.748 65.2441 136.663C65.2441 137.578 64.5609 138.188 63.5971 138.188C62.7674 138.188 62.194 137.737 61.706 136.993L60.8031 137.627C61.34 138.664 62.3282 139.372 63.6337 139.372C65.2197 139.372 66.574 138.286 66.574 136.651ZM74.2443 136.724H73.1462V134.248H71.853V136.724H69.4495L71.731 131.185H70.4011L67.8268 137.481V137.834H71.853V139.238H73.1462V137.834H74.2443V136.724ZM81.1161 136.639C81.1161 135.016 79.8107 134.126 78.371 134.126C78.005 134.126 77.6634 134.162 77.3461 134.235V132.344H80.6647V131.185H76.0773V135.236H77.9318C79.1152 135.236 79.7863 135.748 79.7863 136.663C79.7863 137.59 79.0786 138.188 78.1148 138.188C77.2485 138.188 76.6507 137.737 76.1627 136.993L75.2598 137.639C75.8089 138.676 76.8215 139.372 78.1514 139.372C79.7497 139.372 81.1161 138.262 81.1161 136.639ZM88.3914 136.59C88.3914 135.065 87.147 133.894 85.7439 133.894C85.6097 133.894 85.4999 133.906 85.3901 133.93L87.33 131.185H85.8049L83.7918 134.028C83.5112 134.431 83.3038 134.736 83.1696 134.955C83.0354 135.175 82.9256 135.419 82.8279 135.699C82.7425 135.968 82.6937 136.261 82.6937 136.578C82.6571 138.164 84.0114 139.396 85.5365 139.372C87.0737 139.372 88.3914 138.164 88.3914 136.59ZM87.1103 136.59C87.1103 137.041 86.9517 137.432 86.6467 137.737C86.3417 138.042 85.9757 138.188 85.5365 138.188C85.0851 138.188 84.719 138.042 84.414 137.737C84.109 137.432 83.9626 137.041 83.9626 136.59C83.9626 136.139 84.109 135.76 84.414 135.455C84.719 135.15 85.0851 134.992 85.5365 134.992C85.9757 134.992 86.3417 135.15 86.6467 135.455C86.9517 135.76 87.1103 136.139 87.1103 136.59ZM93.6543 131.185V132.344H97.4365L93.8861 139.238H95.2892L99.1812 131.539V131.185H93.6543ZM106.015 137.139C106.015 136.114 105.332 135.443 104.27 135.053C105.161 134.577 105.637 133.955 105.637 133.113C105.637 132.466 105.393 131.954 104.917 131.6C104.441 131.234 103.831 131.051 103.099 131.051C102.355 131.051 101.745 131.234 101.257 131.6C100.781 131.954 100.537 132.466 100.537 133.113C100.537 133.979 101.025 134.577 101.904 135.053C100.83 135.443 100.159 136.114 100.159 137.139C100.159 138.493 101.367 139.372 103.099 139.372C104.819 139.372 106.015 138.493 106.015 137.139ZM101.769 133.162C101.769 132.515 102.318 132.112 103.099 132.112C103.868 132.112 104.405 132.515 104.405 133.162C104.405 133.759 104.002 134.077 103.087 134.467C102.172 134.065 101.769 133.747 101.769 133.162ZM104.71 137.09C104.71 137.822 104.136 138.298 103.099 138.298C102.062 138.298 101.464 137.822 101.464 137.09C101.464 136.37 102.013 135.992 103.087 135.614C104.161 136.004 104.71 136.358 104.71 137.09ZM113.332 133.845C113.369 132.259 112.014 131.027 110.489 131.051C108.952 131.051 107.634 132.259 107.634 133.833C107.634 135.358 108.891 136.529 110.27 136.529C110.404 136.529 110.514 136.517 110.624 136.492L108.684 139.238H110.221L112.222 136.395C112.502 136.004 112.71 135.699 112.844 135.48C112.978 135.248 113.1 135.004 113.186 134.736C113.283 134.455 113.332 134.162 113.332 133.845ZM112.051 133.833C112.051 134.284 111.905 134.662 111.6 134.967C111.295 135.272 110.929 135.431 110.489 135.431C110.038 135.431 109.66 135.285 109.355 134.98C109.05 134.675 108.903 134.284 108.903 133.833C108.903 133.381 109.05 133.003 109.355 132.698C109.66 132.393 110.038 132.234 110.489 132.234C110.929 132.234 111.295 132.393 111.6 132.698C111.905 133.003 112.051 133.381 112.051 133.833ZM115.045 135.138C115.045 137.517 116.057 139.372 118.119 139.372C120.193 139.372 121.182 137.517 121.182 135.138C121.182 133.906 120.925 132.918 120.401 132.173C119.888 131.429 119.132 131.051 118.119 131.051C117.107 131.051 116.35 131.429 115.826 132.186C115.301 132.93 115.045 133.918 115.045 135.138ZM119.84 135.15C119.84 137.054 119.303 138.188 118.119 138.188C116.936 138.188 116.387 137.054 116.387 135.15C116.387 133.21 116.96 132.234 118.119 132.234C119.266 132.234 119.84 133.21 119.84 135.15ZM129.304 131.185L126.51 132.1L126.827 133.235L128.462 132.71V139.238H129.755V131.185H129.304ZM134.335 138.115L135.75 136.614C136.311 136.017 136.738 135.504 137.019 135.053C137.312 134.601 137.458 134.101 137.458 133.552C137.458 132.137 136.323 131.051 134.786 131.051C133.139 131.051 132.078 132.308 132.078 133.625C132.078 133.869 132.102 134.101 132.163 134.321H133.468C133.432 134.077 133.407 133.869 133.407 133.698C133.407 132.869 133.956 132.234 134.774 132.234C135.591 132.234 136.116 132.832 136.116 133.65C136.116 134.333 135.726 134.919 134.835 135.858L131.968 138.945V139.238H137.739V138.115H134.335ZM145.303 137.139C145.303 136.114 144.62 135.443 143.558 135.053C144.449 134.577 144.925 133.955 144.925 133.113C144.925 132.466 144.681 131.954 144.205 131.6C143.729 131.234 143.119 131.051 142.387 131.051C141.643 131.051 141.033 131.234 140.545 131.6C140.069 131.954 139.825 132.466 139.825 133.113C139.825 133.979 140.313 134.577 141.191 135.053C140.118 135.443 139.446 136.114 139.446 137.139C139.446 138.493 140.654 139.372 142.387 139.372C144.107 139.372 145.303 138.493 145.303 137.139ZM141.057 133.162C141.057 132.515 141.606 132.112 142.387 132.112C143.155 132.112 143.692 132.515 143.692 133.162C143.692 133.759 143.29 134.077 142.375 134.467C141.46 134.065 141.057 133.747 141.057 133.162ZM143.997 137.09C143.997 137.822 143.424 138.298 142.387 138.298C141.35 138.298 140.752 137.822 140.752 137.09C140.752 136.37 141.301 135.992 142.375 135.614C143.448 136.004 143.997 136.358 143.997 137.09ZM152.62 133.845C152.656 132.259 151.302 131.027 149.777 131.051C148.24 131.051 146.922 132.259 146.922 133.833C146.922 135.358 148.179 136.529 149.557 136.529C149.692 136.529 149.801 136.517 149.911 136.492L147.971 139.238H149.509L151.509 136.395C151.79 136.004 151.997 135.699 152.132 135.48C152.266 135.248 152.388 135.004 152.473 134.736C152.571 134.455 152.62 134.162 152.62 133.845ZM151.339 133.833C151.339 134.284 151.192 134.662 150.887 134.967C150.582 135.272 150.216 135.431 149.777 135.431C149.326 135.431 148.947 135.285 148.642 134.98C148.337 134.675 148.191 134.284 148.191 133.833C148.191 133.381 148.337 133.003 148.642 132.698C148.947 132.393 149.326 132.234 149.777 132.234C150.216 132.234 150.582 132.393 150.887 132.698C151.192 133.003 151.339 133.381 151.339 133.833Z" fill="white"/>
<path d="M231.262 24.3804H242.235V43.4329H231.262V24.3804Z" fill="#FF5F00"/>
<path d="M223.842 53.0214V51.0017C223.842 50.2274 223.354 49.7226 222.518 49.7226C222.1 49.7226 221.647 49.8572 221.333 50.2948C221.09 49.9245 220.741 49.7226 220.219 49.7226C219.87 49.7226 219.522 49.8235 219.243 50.1938V49.7899H218.512V53.0214H219.243V51.2373C219.243 50.6652 219.557 50.3957 220.045 50.3957C220.532 50.3957 220.776 50.6987 220.776 51.2373V53.0214H221.508V51.2373C221.508 50.6652 221.856 50.3957 222.309 50.3957C222.797 50.3957 223.041 50.6987 223.041 51.2373V53.0214H223.842ZM234.676 49.7899H233.492V48.8137H232.76V49.7899H232.098V50.4293H232.76V51.9106C232.76 52.6512 233.074 53.0887 233.91 53.0887C234.223 53.0887 234.572 52.9878 234.816 52.8531L234.606 52.2471C234.397 52.3818 234.154 52.4155 233.979 52.4155C233.631 52.4155 233.492 52.2136 233.492 51.8768V50.4293H234.676V49.7899ZM240.877 49.7224C240.459 49.7224 240.181 49.9245 240.006 50.1938V49.7899H239.275V53.0214H240.006V51.2037C240.006 50.6652 240.25 50.3622 240.703 50.3622C240.842 50.3622 241.017 50.3959 241.156 50.4295L241.365 49.7563C241.226 49.7226 241.017 49.7226 240.877 49.7226V49.7224ZM231.506 50.0592C231.158 49.8235 230.67 49.7226 230.147 49.7226C229.311 49.7226 228.754 50.1265 228.754 50.766C228.754 51.3047 229.172 51.6076 229.904 51.7086L230.252 51.7424C230.635 51.8095 230.844 51.9106 230.844 52.0789C230.844 52.3145 230.565 52.4828 230.078 52.4828C229.59 52.4828 229.207 52.3145 228.963 52.1463L228.614 52.6848C228.998 52.954 229.52 53.0887 230.043 53.0887C231.018 53.0887 231.576 52.6512 231.576 52.0452C231.576 51.4729 231.123 51.1699 230.426 51.069L230.078 51.0353C229.764 51.0016 229.52 50.9344 229.52 50.7325C229.52 50.4968 229.764 50.3622 230.147 50.3622C230.565 50.3622 230.983 50.5304 231.192 50.6314L231.506 50.0592ZM250.945 49.7226C250.527 49.7226 250.248 49.9245 250.074 50.1938V49.7899H249.343V53.0214H250.074V51.2037C250.074 50.6652 250.318 50.3622 250.771 50.3622C250.91 50.3622 251.085 50.3959 251.224 50.4295L251.433 49.7563C251.294 49.7226 251.085 49.7226 250.945 49.7226ZM241.609 51.4056C241.609 52.3818 242.305 53.0887 243.385 53.0887C243.873 53.0887 244.221 52.9878 244.57 52.7185L244.221 52.1463C243.943 52.3482 243.664 52.4491 243.351 52.4491C242.758 52.4491 242.34 52.0452 242.34 51.4056C242.34 50.7998 242.758 50.3957 243.351 50.3622C243.664 50.3622 243.943 50.4631 244.221 50.6652L244.57 50.0929C244.221 49.8235 243.873 49.7226 243.385 49.7226C242.305 49.7226 241.609 50.4295 241.609 51.4056ZM248.367 51.4056V49.7899H247.636V50.1938C247.392 49.8909 247.043 49.7226 246.59 49.7226C245.65 49.7226 244.918 50.4295 244.918 51.4056C244.918 52.3818 245.65 53.0887 246.59 53.0887C247.078 53.0887 247.427 52.9205 247.636 52.6175V53.0214H248.367V51.4056ZM245.685 51.4056C245.685 50.8334 246.068 50.3622 246.695 50.3622C247.287 50.3622 247.705 50.7998 247.705 51.4056C247.705 51.9779 247.287 52.4491 246.695 52.4491C246.068 52.4154 245.685 51.9779 245.685 51.4056ZM236.941 49.7226C235.965 49.7226 235.268 50.3957 235.268 51.4056C235.268 52.4155 235.965 53.0887 236.975 53.0887C237.463 53.0887 237.951 52.954 238.334 52.6512L237.986 52.1463C237.707 52.3482 237.359 52.4828 237.01 52.4828C236.557 52.4828 236.104 52.2809 236 51.7085H238.473V51.4394C238.508 50.3957 237.881 49.7226 236.94 49.7226H236.941ZM236.941 50.3284C237.393 50.3284 237.707 50.5978 237.777 51.1028H236.035C236.104 50.6652 236.418 50.3284 236.941 50.3284ZM255.091 51.4056V48.5107H254.359V50.1938C254.115 49.8909 253.767 49.7226 253.314 49.7226C252.373 49.7226 251.642 50.4295 251.642 51.4056C251.642 52.3818 252.373 53.0887 253.314 53.0887C253.802 53.0887 254.15 52.9205 254.359 52.6175V53.0214H255.091V51.4056ZM252.408 51.4056C252.408 50.8334 252.791 50.3622 253.419 50.3622C254.011 50.3622 254.429 50.7998 254.429 51.4056C254.429 51.9779 254.011 52.4491 253.419 52.4491C252.791 52.4154 252.408 51.9779 252.408 51.4056ZM227.953 51.4056V49.7899H227.221V50.1938C226.977 49.8909 226.629 49.7226 226.176 49.7226C225.235 49.7226 224.504 50.4295 224.504 51.4056C224.504 52.3818 225.235 53.0887 226.176 53.0887C226.664 53.0887 227.012 52.9205 227.221 52.6175V53.0214H227.953V51.4056ZM225.235 51.4056C225.235 50.8334 225.618 50.3622 226.245 50.3622C226.838 50.3622 227.256 50.7998 227.256 51.4056C227.256 51.9779 226.838 52.4491 226.245 52.4491C225.618 52.4154 225.235 51.9779 225.235 51.4056Z" fill="white"/>
<path d="M231.959 33.9063C231.959 30.0353 233.84 26.6017 236.731 24.38C234.606 22.7642 231.924 21.7881 228.998 21.7881C222.065 21.7881 216.456 27.2075 216.456 33.9063C216.456 40.6049 222.065 46.0245 228.997 46.0245C231.924 46.0245 234.606 45.0484 236.731 43.4325C233.84 41.2445 231.959 37.7773 231.959 33.9063Z" fill="#EB001B"/>
<path d="M257.041 33.9063C257.041 40.6049 251.432 46.0245 244.499 46.0245C241.573 46.0245 238.891 45.0484 236.766 43.4325C239.692 41.2109 241.538 37.7773 241.538 33.9063C241.538 30.0353 239.657 26.6017 236.766 24.38C238.891 22.7642 241.573 21.7881 244.499 21.7881C251.432 21.7881 257.041 27.2413 257.041 33.9063H257.041Z" fill="#F79E1B"/>
<path d="M34.7674 67.732C37.1831 67.366 38.8424 65.8531 38.8424 63.6082C38.8424 61.6561 37.5735 60.3385 35.2066 59.4356L33.4009 58.7524C32.0589 58.1668 31.4488 57.7031 31.4488 56.7515C31.4488 55.6534 32.4493 55.1166 33.6937 55.1166C34.9626 55.1166 35.8655 55.6778 36.7195 56.9223L38.4764 55.6046C37.6223 54.0918 36.3779 53.1889 34.7674 52.8961V50.0412H32.4005V52.9449C30.3264 53.3597 28.8867 54.7994 28.8867 56.7759C28.8867 58.5572 30.058 59.9236 32.4249 60.8509L34.1086 61.5097C35.597 62.1685 36.2803 62.681 36.2803 63.657C36.2803 64.8283 35.2066 65.5359 33.7181 65.5359C32.0833 65.5359 30.7656 64.7063 29.7164 63.0714L27.9351 64.389C28.9111 66.1459 30.4484 67.3172 32.4005 67.6832V70.6357H34.7674V67.732ZM52.6073 63.1202C52.6073 59.8748 49.9964 58.0936 47.117 58.0936C46.385 58.0936 45.7018 58.1668 45.0673 58.3132V54.531H51.7045V52.2129H42.5296V60.3141H46.2386C48.6055 60.3141 49.9476 61.3389 49.9476 63.169C49.9476 65.0235 48.5323 66.2191 46.6046 66.2191C44.8721 66.2191 43.6765 65.3163 42.7004 63.8278L40.8948 65.1211C41.9928 67.1952 44.0181 68.586 46.6778 68.586C49.8744 68.586 52.6073 66.3655 52.6073 63.1202ZM55.6719 72.661H57.746L58.8929 65.7311H55.9159L55.6719 72.661ZM61.2722 52.2129V54.531H68.8365L61.7358 68.3176H64.5419L72.3259 52.9205V52.2129H61.2722ZM85.3487 63.1202C85.3487 59.8748 82.7377 58.0936 79.8584 58.0936C79.1264 58.0936 78.4431 58.1668 77.8087 58.3132V54.531H84.4458V52.2129H75.271V60.3141H78.98C81.3469 60.3141 82.6889 61.3389 82.6889 63.169C82.6889 65.0235 81.2737 66.2191 79.346 66.2191C77.6135 66.2191 76.4178 65.3163 75.4418 63.8278L73.6361 65.1211C74.7342 67.1952 76.7595 68.586 79.4192 68.586C82.6157 68.586 85.3487 66.3655 85.3487 63.1202ZM88.0229 60.1188C88.0229 64.8771 90.0482 68.586 94.172 68.586C98.3201 68.586 100.297 64.8771 100.297 60.1188C100.297 57.6543 99.7842 55.6778 98.735 54.1894C97.7101 52.7009 96.1973 51.9445 94.172 51.9445C92.1467 51.9445 90.6338 52.7009 89.5845 54.2138C88.5353 55.7022 88.0229 57.6787 88.0229 60.1188ZM97.6125 60.1432C97.6125 63.9498 96.5389 66.2191 94.172 66.2191C91.805 66.2191 90.707 63.9498 90.707 60.1432C90.707 56.2635 91.8538 54.3114 94.172 54.3114C96.4657 54.3114 97.6125 56.2635 97.6125 60.1432ZM103.426 72.661H105.5L106.647 65.7311H103.67L103.426 72.661ZM114.242 66.0727L117.073 63.0714C118.195 61.8757 119.049 60.8509 119.61 59.948C120.196 59.0452 120.489 58.0447 120.489 56.9467C120.489 54.1162 118.219 51.9445 115.145 51.9445C111.851 51.9445 109.728 54.4578 109.728 57.0931C109.728 57.5811 109.777 58.0447 109.899 58.484H112.51C112.436 57.9959 112.388 57.5811 112.388 57.2395C112.388 55.5802 113.486 54.3114 115.121 54.3114C116.755 54.3114 117.805 55.507 117.805 57.1419C117.805 58.5084 117.024 59.6796 115.243 61.5585L109.508 67.732V68.3176H121.05V66.0727H114.242ZM123.838 60.1188C123.838 64.8771 125.864 68.586 129.987 68.586C134.135 68.586 136.112 64.8771 136.112 60.1188C136.112 57.6543 135.6 55.6778 134.55 54.1894C133.525 52.7009 132.013 51.9445 129.987 51.9445C127.962 51.9445 126.449 52.7009 125.4 54.2138C124.351 55.7022 123.838 57.6787 123.838 60.1188ZM133.428 60.1432C133.428 63.9498 132.354 66.2191 129.987 66.2191C127.62 66.2191 126.522 63.9498 126.522 60.1432C126.522 56.2635 127.669 54.3114 129.987 54.3114C132.281 54.3114 133.428 56.2635 133.428 60.1432Z" fill="white"/>
<path opacity="0.54" d="M27.5813 34.1203C27.5325 36.4262 29.5212 38.3173 31.8149 38.2807C33.3155 38.2807 34.5844 37.5609 35.2676 36.4262L34.2916 35.7064C33.7181 36.597 32.8885 37.0972 31.8271 37.0972C30.18 37.0972 28.9233 35.8284 28.9233 34.1203C28.9233 32.4122 30.18 31.1434 31.8271 31.1434C32.8885 31.1434 33.7181 31.6436 34.2916 32.5342L35.2676 31.8144C34.5722 30.6797 33.2911 29.9599 31.8149 29.9599C29.5212 29.9233 27.5325 31.8144 27.5813 34.1203ZM36.6682 35.6332C36.6682 37.2436 37.7907 38.2807 39.2913 38.2807C40.7554 38.2807 41.8901 37.2436 41.8901 35.6332V32.156H40.609V35.7308C40.609 36.5604 40.0356 37.0972 39.2913 37.0972C38.5105 37.0972 37.9371 36.5604 37.9371 35.7308V32.156H36.6682V35.6332ZM47.1157 32.156C46.9693 32.1194 46.8107 32.095 46.6277 32.095C45.9445 32.095 45.31 32.4 44.883 32.9368V32.156H43.6873V38.1465H44.9684V34.9499C44.9684 33.8885 45.7126 33.2907 46.7253 33.2907H47.1157V32.156ZM51.6909 32.156C51.5445 32.1194 51.3859 32.095 51.2029 32.095C50.5197 32.095 49.8852 32.4 49.4582 32.9368V32.156H48.2626V38.1465H49.5436V34.9499C49.5436 33.8885 50.2879 33.2907 51.3005 33.2907H51.6909V32.156ZM58.1113 35.5722C58.1723 35.2916 58.2089 35.0231 58.2089 34.7669C58.2089 33.2053 57.0254 32.0218 55.4394 32.0218C53.7435 31.9852 52.3038 33.4371 52.3404 35.1573C52.3404 36.9264 53.7313 38.2807 55.5614 38.2807C56.4764 38.2807 57.2694 37.9635 57.9527 37.3168L57.3426 36.4384C56.8058 36.9142 56.2202 37.146 55.598 37.146C54.5731 37.146 53.8045 36.5482 53.6459 35.5722H58.1113ZM53.6703 34.5717C53.8655 33.6811 54.5487 33.1077 55.3906 33.1077C56.2324 33.1077 56.9156 33.6567 56.9278 34.5717H53.6703ZM64.9108 34.4009C64.9108 32.9734 64.069 32.0218 62.6659 32.0218C61.9217 32.0218 61.3238 32.2658 60.8724 32.7416V32.156H59.6768V38.1465H60.9578V34.5717C60.9578 33.7543 61.5312 33.1809 62.3243 33.1809C63.1051 33.1809 63.6297 33.7421 63.6297 34.5717V38.1465H64.9108V34.4009ZM70.257 37.0606C69.9032 37.0972 69.647 37.1216 69.464 37.1216C68.6832 37.1216 68.2805 36.8532 68.2805 36.0846V33.2663H70.0618V32.156H68.2805V30.5821H66.9873V32.156H66.0112V33.2663H66.9873V36.1944C66.9873 37.5975 67.8169 38.2807 69.1956 38.2807C69.5006 38.2807 69.8544 38.2319 70.257 38.1465V37.0606ZM81.1242 35.804C81.1242 34.8157 80.563 34.0593 79.6235 33.7543C80.0628 33.3761 80.2946 32.8636 80.2946 32.2414C80.2946 30.997 79.3307 30.0941 77.8789 30.0941H75.0605V38.1465H78.5133C80.0872 38.1465 81.1242 37.1582 81.1242 35.804ZM77.7569 31.2288C78.5499 31.2288 79.0013 31.6314 79.0013 32.3024C79.0013 32.9734 78.5499 33.4005 77.7569 33.4005H76.3294V31.2288H77.7569ZM79.8188 35.7674C79.8188 36.536 79.2941 37.0118 78.4035 37.0118H76.3294V34.5107H78.4035C79.2941 34.5107 79.8188 34.9987 79.8188 35.7674ZM87.2753 34.5229C87.2753 32.9124 86.2993 32.0218 84.823 32.0218C83.7859 32.0218 82.8953 32.4366 82.2975 33.3029L83.0417 34.0593C83.5419 33.4615 84.03 33.1687 84.701 33.1687C85.5184 33.1687 85.982 33.6201 85.982 34.4497V34.8401H84.2862C82.9319 34.8401 82.0779 35.5112 82.0779 36.5482C82.0779 37.5853 82.9075 38.2807 84.1642 38.2807C84.9816 38.2807 85.6404 38.0001 86.0796 37.4755V38.1465H87.2753V34.5229ZM85.982 35.8772C85.982 36.6946 85.2988 37.2924 84.4326 37.2924C83.8103 37.2924 83.3833 36.9996 83.3833 36.4994C83.3833 36.0114 83.7615 35.7674 84.4448 35.7674H85.982V35.8772ZM89.0582 38.1465H90.3393V28.9961H89.0582V38.1465ZM96.95 34.5229C96.95 32.9124 95.9739 32.0218 94.4977 32.0218C93.4606 32.0218 92.57 32.4366 91.9721 33.3029L92.7164 34.0593C93.2166 33.4615 93.7046 33.1687 94.3756 33.1687C95.1931 33.1687 95.6567 33.6201 95.6567 34.4497V34.8401H93.9608C92.6066 34.8401 91.7525 35.5112 91.7525 36.5482C91.7525 37.5853 92.5822 38.2807 93.8388 38.2807C94.6563 38.2807 95.3151 38.0001 95.7543 37.4755V38.1465H96.95V34.5229ZM95.6567 35.8772C95.6567 36.6946 94.9735 37.2924 94.1072 37.2924C93.485 37.2924 93.058 36.9996 93.058 36.4994C93.058 36.0114 93.4362 35.7674 94.1194 35.7674H95.6567V35.8772ZM103.967 34.4009C103.967 32.9734 103.125 32.0218 101.722 32.0218C100.978 32.0218 100.38 32.2658 99.9285 32.7416V32.156H98.7329V38.1465H100.014V34.5717C100.014 33.7543 100.587 33.1809 101.38 33.1809C102.161 33.1809 102.686 33.7421 102.686 34.5717V38.1465H103.967V34.4009ZM105.372 35.1451C105.372 36.8898 106.775 38.2807 108.545 38.2807C109.63 38.2807 110.533 37.7561 111.07 36.8898L110.167 36.1944C109.728 36.7922 109.191 37.0972 108.557 37.0972C107.483 37.0972 106.678 36.2432 106.678 35.1451C106.678 34.0593 107.483 33.2053 108.557 33.2053C109.203 33.2053 109.74 33.5103 110.167 34.1203L111.07 33.4127C110.545 32.5464 109.655 32.0218 108.545 32.0218C106.824 31.9974 105.336 33.4249 105.372 35.1451ZM117.756 35.5722C117.817 35.2916 117.853 35.0231 117.853 34.7669C117.853 33.2053 116.67 32.0218 115.084 32.0218C113.388 31.9852 111.948 33.4371 111.985 35.1573C111.985 36.9264 113.376 38.2807 115.206 38.2807C116.121 38.2807 116.914 37.9635 117.597 37.3168L116.987 36.4384C116.45 36.9142 115.865 37.146 115.243 37.146C114.218 37.146 113.449 36.5482 113.29 35.5722H117.756ZM113.315 34.5717C113.51 33.6811 114.193 33.1077 115.035 33.1077C115.877 33.1077 116.56 33.6567 116.572 34.5717H113.315Z" fill="white"/>
</svg>
