<svg width="266" height="105" viewBox="0 0 266 105" fill="none" xmlns="http://www.w3.org/2000/svg">
<rect x="0.000976562" width="265.999" height="104.031" rx="16.5129" fill="white"/>
<rect x="19.8887" y="33.8474" width="37.2896" height="37.154" rx="8.25645" fill="#A3BDFF"/>
<path d="M81.528 72.0884V54.6707H82.8359V72.0884H81.528ZM82.3603 70.6023C81.3563 70.6023 80.458 70.4306 79.6654 70.0871C78.886 69.7436 78.2651 69.2416 77.8027 68.5811C77.3536 67.9206 77.1224 67.1214 77.1092 66.1834H79.9428C79.956 66.593 80.0617 66.9628 80.2598 67.2931C80.458 67.6234 80.7288 67.8876 81.0723 68.0857C81.429 68.2707 81.8517 68.3631 82.3405 68.3631C82.7632 68.3631 83.1265 68.2971 83.4303 68.165C83.7474 68.0197 83.9918 67.8215 84.1635 67.5705C84.3352 67.3195 84.4211 67.0223 84.4211 66.6788C84.4211 66.2693 84.322 65.9324 84.1239 65.6682C83.9389 65.404 83.6747 65.1795 83.3312 64.9945C82.9878 64.8096 82.5915 64.6444 82.1423 64.4991C81.7064 64.3406 81.244 64.1821 80.7552 64.0236C79.672 63.6669 78.8397 63.1913 78.2585 62.5968C77.6904 62.0024 77.4064 61.2164 77.4064 60.2388C77.4064 59.4065 77.6046 58.6932 78.0009 58.0987C78.4104 57.5043 78.9718 57.0485 79.6852 56.7315C80.3986 56.4144 81.211 56.2559 82.1225 56.2559C83.0604 56.2559 83.8795 56.421 84.5796 56.7513C85.293 57.0683 85.8544 57.5307 86.2639 58.1384C86.6867 58.746 86.9046 59.4594 86.9178 60.2784H84.0644C84.0512 59.9746 83.9587 59.6906 83.787 59.4264C83.6285 59.1489 83.4039 58.931 83.1133 58.7725C82.8226 58.6007 82.4792 58.5149 82.0829 58.5149C81.7394 58.5016 81.4224 58.5545 81.1317 58.6734C80.8543 58.7923 80.6297 58.9706 80.458 59.2084C80.2995 59.433 80.2202 59.717 80.2202 60.0605C80.2202 60.3907 80.2995 60.6681 80.458 60.8927C80.6297 61.1173 80.8609 61.3154 81.1515 61.4872C81.4422 61.6457 81.7856 61.7976 82.1819 61.9429C82.5783 62.075 83.0076 62.2137 83.47 62.3591C84.1569 62.5968 84.791 62.8809 85.3722 63.2111C85.9535 63.5282 86.4159 63.9443 86.7593 64.4595C87.1028 64.9747 87.2745 65.655 87.2745 66.5005C87.2745 67.2271 87.083 67.9008 86.6999 68.5217C86.3168 69.1425 85.7619 69.6445 85.0354 70.0276C84.322 70.4107 83.4303 70.6023 82.3603 70.6023ZM94.7363 70.6023C93.6927 70.6023 92.8076 70.4107 92.081 70.0276C91.3677 69.6313 90.793 69.1161 90.3571 68.482C89.9211 67.8347 89.6041 67.1148 89.4059 66.3221C89.221 65.5163 89.1285 64.7039 89.1285 63.8848C89.1285 62.326 89.3465 60.9786 89.7824 59.8425C90.2184 58.7064 90.8458 57.8279 91.6649 57.207C92.4971 56.5729 93.4945 56.2559 94.657 56.2559C95.6214 56.2559 96.4404 56.4474 97.1141 56.8305C97.7879 57.2004 98.3097 57.6958 98.6796 58.3167C99.0494 58.9244 99.2674 59.5783 99.3335 60.2784H96.8367C96.731 59.6972 96.4866 59.248 96.1036 58.931C95.7205 58.6139 95.2251 58.4554 94.6174 58.4554C94.0626 58.4554 93.5738 58.6271 93.151 58.9706C92.7283 59.3141 92.3981 59.8293 92.1603 60.5162C91.9225 61.2032 91.7838 62.0684 91.7441 63.112C91.7441 63.1253 91.7441 63.1451 91.7441 63.1715C91.7441 63.1847 91.7441 63.2045 91.7441 63.2309C91.9555 62.8743 92.2329 62.5572 92.5764 62.2798C92.9331 62.0024 93.336 61.7844 93.7851 61.6259C94.2343 61.4674 94.7033 61.3881 95.192 61.3881C95.9714 61.3881 96.6914 61.573 97.3519 61.9429C98.0257 62.3128 98.5673 62.8346 98.9768 63.5083C99.3863 64.1821 99.5911 64.9813 99.5911 65.906C99.5911 66.7383 99.3863 67.5177 98.9768 68.2442C98.5673 68.9576 97.9992 69.5323 97.2727 69.9682C96.5461 70.3909 95.7006 70.6023 94.7363 70.6023ZM94.5778 68.3037C95.0533 68.3037 95.4761 68.2046 95.8459 68.0065C96.2158 67.8083 96.5065 67.5375 96.7178 67.194C96.9292 66.8373 97.0349 66.4344 97.0349 65.9853C97.0349 65.5097 96.9292 65.1002 96.7178 64.7567C96.5065 64.4133 96.2092 64.1424 95.8261 63.9443C95.4562 63.7461 95.0335 63.6471 94.5579 63.6471C94.0956 63.6471 93.6729 63.7527 93.2898 63.9641C92.9199 64.1623 92.6226 64.4397 92.3981 64.7964C92.1867 65.1398 92.081 65.5295 92.081 65.9655C92.081 66.4278 92.1867 66.8373 92.3981 67.194C92.6226 67.5375 92.9199 67.8083 93.2898 68.0065C93.6729 68.2046 94.1022 68.3037 94.5778 68.3037ZM106.621 70.6023C105.723 70.6023 104.897 70.4372 104.144 70.1069C103.391 69.7766 102.79 69.2747 102.341 68.6009C101.892 67.9272 101.654 67.0751 101.628 66.0447H104.263C104.277 66.4807 104.376 66.877 104.561 67.2337C104.746 67.5771 105.01 67.8545 105.353 68.0659C105.71 68.2641 106.139 68.3631 106.641 68.3631C107.104 68.3631 107.493 68.2707 107.81 68.0857C108.141 67.9008 108.392 67.6564 108.563 67.3526C108.735 67.0487 108.821 66.6986 108.821 66.3023C108.821 65.84 108.709 65.4569 108.484 65.153C108.259 64.836 107.942 64.5982 107.533 64.4397C107.137 64.2679 106.674 64.1821 106.146 64.1821H105.115V61.9826H106.146C106.793 61.9826 107.335 61.8306 107.771 61.5268C108.22 61.223 108.444 60.7738 108.444 60.1794C108.444 59.6774 108.279 59.2744 107.949 58.9706C107.632 58.6668 107.189 58.5149 106.621 58.5149C105.987 58.5149 105.492 58.6998 105.135 59.0697C104.792 59.4396 104.6 59.8953 104.561 60.437H101.945C101.985 59.5651 102.203 58.8187 102.599 58.1978C102.995 57.5637 103.537 57.0815 104.224 56.7513C104.911 56.421 105.71 56.2559 106.621 56.2559C107.586 56.2559 108.398 56.4276 109.059 56.7711C109.719 57.1013 110.221 57.5505 110.565 58.1185C110.908 58.6866 111.08 59.3009 111.08 59.9614C111.08 60.503 110.974 60.9852 110.763 61.4079C110.565 61.8174 110.294 62.1609 109.95 62.4383C109.62 62.7157 109.244 62.9139 108.821 63.0328C109.349 63.1385 109.805 63.3432 110.188 63.6471C110.584 63.9509 110.888 64.334 111.1 64.7964C111.324 65.2587 111.437 65.7937 111.437 66.4014C111.437 67.1544 111.252 67.8545 110.882 68.5018C110.512 69.1359 109.97 69.6445 109.257 70.0276C108.543 70.4107 107.665 70.6023 106.621 70.6023ZM113.589 70.3645V68.4028C114.421 67.729 115.233 67.0553 116.026 66.3816C116.819 65.7079 117.532 65.0407 118.166 64.3802C118.8 63.7065 119.302 63.0526 119.672 62.4185C120.042 61.7844 120.227 61.1701 120.227 60.5757C120.227 60.2058 120.161 59.8689 120.029 59.5651C119.897 59.248 119.685 58.997 119.395 58.8121C119.117 58.6139 118.747 58.5149 118.285 58.5149C117.836 58.5149 117.453 58.6205 117.136 58.8319C116.819 59.0433 116.581 59.3273 116.422 59.684C116.264 60.0274 116.185 60.4171 116.185 60.8531H113.589C113.628 59.8359 113.86 58.9838 114.282 58.2969C114.705 57.6099 115.273 57.1013 115.986 56.7711C116.7 56.4276 117.492 56.2559 118.364 56.2559C119.342 56.2559 120.167 56.4408 120.841 56.8107C121.515 57.1674 122.023 57.6562 122.367 58.2771C122.724 58.898 122.902 59.6113 122.902 60.4171C122.902 61.0248 122.79 61.6193 122.565 62.2005C122.341 62.7818 122.037 63.3498 121.654 63.9047C121.27 64.4463 120.835 64.9681 120.346 65.4701C119.857 65.9721 119.348 66.4542 118.82 66.9166C118.305 67.3658 117.796 67.7885 117.294 68.1848H123.219V70.3645H113.589ZM126.453 70.4636C125.964 70.4636 125.562 70.3183 125.245 70.0276C124.941 69.7238 124.789 69.3539 124.789 68.918C124.789 68.482 124.941 68.1187 125.245 67.8281C125.562 67.5243 125.964 67.3724 126.453 67.3724C126.942 67.3724 127.338 67.5243 127.642 67.8281C127.946 68.1187 128.098 68.482 128.098 68.918C128.098 69.3539 127.946 69.7238 127.642 70.0276C127.338 70.3183 126.942 70.4636 126.453 70.4636ZM135.152 70.6023C133.871 70.6023 132.767 70.2985 131.843 69.6908C130.931 69.0831 130.231 68.2442 129.742 67.1742C129.254 66.091 129.009 64.8426 129.009 63.4291C129.009 62.0156 129.254 60.7738 129.742 59.7038C130.231 58.6205 130.931 57.7751 131.843 57.1674C132.767 56.5597 133.871 56.2559 135.152 56.2559C136.42 56.2559 137.51 56.5597 138.421 57.1674C139.333 57.7751 140.033 58.6205 140.522 59.7038C141.024 60.7738 141.275 62.0156 141.275 63.4291C141.275 64.8426 141.024 66.091 140.522 67.1742C140.033 68.2442 139.333 69.0831 138.421 69.6908C137.51 70.2985 136.42 70.6023 135.152 70.6023ZM135.152 68.2046C135.826 68.2046 136.414 68.0131 136.916 67.63C137.431 67.2337 137.827 66.6788 138.104 65.9655C138.395 65.2521 138.54 64.4067 138.54 63.4291C138.54 62.4383 138.395 61.5929 138.104 60.8927C137.827 60.1794 137.431 59.6311 136.916 59.248C136.414 58.8649 135.826 58.6734 135.152 58.6734C134.478 58.6734 133.884 58.8649 133.369 59.248C132.853 59.6311 132.45 60.1794 132.16 60.8927C131.882 61.5929 131.744 62.4383 131.744 63.4291C131.744 64.4067 131.882 65.2521 132.16 65.9655C132.45 66.6788 132.853 67.2337 133.369 67.63C133.884 68.0131 134.478 68.2046 135.152 68.2046ZM149.201 70.6023C147.919 70.6023 146.816 70.2985 145.892 69.6908C144.98 69.0831 144.28 68.2442 143.791 67.1742C143.302 66.091 143.058 64.8426 143.058 63.4291C143.058 62.0156 143.302 60.7738 143.791 59.7038C144.28 58.6205 144.98 57.7751 145.892 57.1674C146.816 56.5597 147.919 56.2559 149.201 56.2559C150.469 56.2559 151.559 56.5597 152.47 57.1674C153.382 57.7751 154.082 58.6205 154.571 59.7038C155.073 60.7738 155.324 62.0156 155.324 63.4291C155.324 64.8426 155.073 66.091 154.571 67.1742C154.082 68.2442 153.382 69.0831 152.47 69.6908C151.559 70.2985 150.469 70.6023 149.201 70.6023ZM149.201 68.2046C149.875 68.2046 150.462 68.0131 150.964 67.63C151.48 67.2337 151.876 66.6788 152.153 65.9655C152.444 65.2521 152.589 64.4067 152.589 63.4291C152.589 62.4383 152.444 61.5929 152.153 60.8927C151.876 60.1794 151.48 59.6311 150.964 59.248C150.462 58.8649 149.875 58.6734 149.201 58.6734C148.527 58.6734 147.933 58.8649 147.417 59.248C146.902 59.6311 146.499 60.1794 146.209 60.8927C145.931 61.5929 145.793 62.4383 145.793 63.4291C145.793 64.4067 145.931 65.2521 146.209 65.9655C146.499 66.6788 146.902 67.2337 147.417 67.63C147.933 68.0131 148.527 68.2046 149.201 68.2046ZM163.25 70.6023C161.968 70.6023 160.865 70.2985 159.94 69.6908C159.029 69.0831 158.329 68.2442 157.84 67.1742C157.351 66.091 157.107 64.8426 157.107 63.4291C157.107 62.0156 157.351 60.7738 157.84 59.7038C158.329 58.6205 159.029 57.7751 159.94 57.1674C160.865 56.5597 161.968 56.2559 163.25 56.2559C164.518 56.2559 165.608 56.5597 166.519 57.1674C167.431 57.7751 168.131 58.6205 168.62 59.7038C169.122 60.7738 169.373 62.0156 169.373 63.4291C169.373 64.8426 169.122 66.091 168.62 67.1742C168.131 68.2442 167.431 69.0831 166.519 69.6908C165.608 70.2985 164.518 70.6023 163.25 70.6023ZM163.25 68.2046C163.923 68.2046 164.511 68.0131 165.013 67.63C165.528 67.2337 165.925 66.6788 166.202 65.9655C166.493 65.2521 166.638 64.4067 166.638 63.4291C166.638 62.4383 166.493 61.5929 166.202 60.8927C165.925 60.1794 165.528 59.6311 165.013 59.248C164.511 58.8649 163.923 58.6734 163.25 58.6734C162.576 58.6734 161.981 58.8649 161.466 59.248C160.951 59.6311 160.548 60.1794 160.258 60.8927C159.98 61.5929 159.841 62.4383 159.841 63.4291C159.841 64.4067 159.98 65.2521 160.258 65.9655C160.548 66.6788 160.951 67.2337 161.466 67.63C161.981 68.0131 162.576 68.2046 163.25 68.2046Z" fill="#142D6F"/>
<path d="M80.6628 44.5464H79.6852V35.9465H76.5015V35.0614H83.8464V35.9465H80.6628V44.5464ZM86.9176 44.6785C86.4421 44.6785 86.0017 44.5904 85.5966 44.4143C85.1915 44.2381 84.8392 43.9872 84.5398 43.6613C84.2492 43.3354 84.0202 42.9523 83.8528 42.512C83.6943 42.0717 83.6151 41.5873 83.6151 41.0589C83.6151 40.5393 83.6943 40.0593 83.8528 39.6189C84.0202 39.1786 84.2492 38.7999 84.5398 38.4829C84.8392 38.157 85.1915 37.906 85.5966 37.7299C86.0017 37.5537 86.4421 37.4657 86.9176 37.4657C87.402 37.4657 87.8468 37.5537 88.2519 37.7299C88.657 37.906 89.0049 38.157 89.2955 38.4829C89.5949 38.7999 89.8239 39.1786 89.9824 39.6189C90.1498 40.0593 90.2334 40.5393 90.2334 41.0589C90.2334 41.5873 90.1498 42.0717 89.9824 42.512C89.8239 42.9523 89.5949 43.3354 89.2955 43.6613C89.0049 43.9872 88.657 44.2381 88.2519 44.4143C87.8468 44.5904 87.402 44.6785 86.9176 44.6785ZM86.9176 43.8859C87.3756 43.8859 87.7807 43.7714 88.133 43.5424C88.4941 43.3046 88.7759 42.9744 88.9784 42.5516C89.1898 42.1289 89.2955 41.6313 89.2955 41.0589C89.2955 40.4864 89.1898 39.9932 88.9784 39.5793C88.7759 39.1654 88.4941 38.8439 88.133 38.615C87.7807 38.386 87.3756 38.2715 86.9176 38.2715C86.4685 38.2715 86.0634 38.386 85.7023 38.615C85.35 38.8439 85.0682 39.1654 84.8568 39.5793C84.6543 39.9932 84.553 40.4864 84.553 41.0589C84.553 41.6313 84.6543 42.1289 84.8568 42.5516C85.0682 42.9744 85.35 43.3046 85.7023 43.5424C86.0634 43.7714 86.4685 43.8859 86.9176 43.8859ZM95.1798 43.6613V44.4803C95.0036 44.5596 94.8363 44.6124 94.6778 44.6389C94.5192 44.6653 94.3519 44.6785 94.1758 44.6785C93.7971 44.6785 93.4536 44.608 93.1454 44.4671C92.8371 44.3262 92.5905 44.1016 92.4056 43.7934C92.2295 43.4852 92.1414 43.08 92.1414 42.578V38.364H90.5033V37.5846H92.1414V35.5237H93.0661V37.5846H95.2458V38.364H93.0661V42.3799C93.0661 42.9259 93.185 43.3046 93.4228 43.516C93.6694 43.7273 93.982 43.833 94.3607 43.833C94.5104 43.833 94.6469 43.8198 94.7702 43.7934C94.9023 43.767 95.0389 43.7229 95.1798 43.6613ZM100.924 44.5464V43.2782C100.722 43.7097 100.418 44.0532 100.013 44.3086C99.6074 44.5552 99.1319 44.6785 98.5859 44.6785C97.8637 44.6785 97.2868 44.4935 96.8553 44.1237C96.4238 43.745 96.208 43.243 96.208 42.6177C96.208 41.9396 96.4766 41.4288 97.0138 41.0853C97.551 40.733 98.3481 40.5569 99.4049 40.5569C99.6163 40.5569 99.8232 40.5613 100.026 40.5701C100.228 40.5789 100.497 40.6009 100.832 40.6361V40.0417C100.832 39.4604 100.682 39.0069 100.382 38.681C100.092 38.3552 99.6823 38.1922 99.1539 38.1922C98.5903 38.1922 98.1411 38.3596 97.8064 38.6942C97.4718 39.0201 97.3 39.4648 97.2912 40.0285H96.4458C96.4546 39.5089 96.5735 39.0597 96.8025 38.681C97.0314 38.2935 97.3441 37.9941 97.7404 37.7827C98.1455 37.5625 98.6123 37.4524 99.1407 37.4524C99.9597 37.4524 100.594 37.677 101.043 38.1262C101.492 38.5753 101.717 39.205 101.717 40.0152V44.5464H100.924ZM97.0931 42.5913C97.0931 43.014 97.2428 43.3575 97.5422 43.6217C97.8417 43.8771 98.2336 44.0048 98.718 44.0048C99.3697 44.0048 99.8849 43.811 100.264 43.4235C100.642 43.0272 100.832 42.5032 100.832 41.8515V41.2306C100.532 41.2042 100.272 41.1866 100.052 41.1778C99.8408 41.1689 99.6383 41.1645 99.4445 41.1645C98.6607 41.1645 98.0706 41.2834 97.6743 41.5212C97.2868 41.7502 97.0931 42.1069 97.0931 42.5913ZM104.587 44.5464H103.662V35.0614H104.587V44.5464ZM110.408 44.5464H109.417V35.0614H110.408V44.5464ZM113.411 40.4908V44.5464H112.486V37.5846H113.345V38.8924C113.574 38.4696 113.886 38.1262 114.283 37.862C114.688 37.589 115.141 37.4524 115.643 37.4524C116.365 37.4524 116.942 37.677 117.374 38.1262C117.814 38.5753 118.034 39.2094 118.034 40.0285V44.5464H117.11V40.3455C117.11 39.6762 116.96 39.161 116.66 38.7999C116.37 38.4388 115.938 38.2583 115.366 38.2583C115.005 38.2583 114.674 38.3552 114.375 38.5489C114.076 38.7338 113.838 38.9937 113.662 39.3283C113.494 39.663 113.411 40.0505 113.411 40.4908ZM122.584 44.6917C121.967 44.6917 121.426 44.5376 120.959 44.2293C120.492 43.9211 120.127 43.494 119.862 42.9479C119.598 42.4019 119.466 41.7722 119.466 41.0589C119.466 40.3543 119.598 39.7334 119.862 39.1962C120.127 38.6502 120.492 38.223 120.959 37.9148C121.434 37.6066 121.976 37.4524 122.584 37.4524C123.121 37.4524 123.605 37.5669 124.037 37.7959C124.468 38.0249 124.821 38.3507 125.094 38.7735C125.376 39.1962 125.56 39.6982 125.649 40.2795H124.711C124.605 39.6454 124.363 39.1522 123.984 38.7999C123.614 38.4388 123.147 38.2583 122.584 38.2583C122.152 38.2583 121.769 38.3772 121.434 38.615C121.109 38.8527 120.853 39.1786 120.668 39.5925C120.492 40.0064 120.404 40.4952 120.404 41.0589C120.404 41.6225 120.492 42.1201 120.668 42.5516C120.853 42.9744 121.109 43.3046 121.434 43.5424C121.769 43.7714 122.152 43.8859 122.584 43.8859C123.156 43.8859 123.627 43.7097 123.997 43.3575C124.367 42.9964 124.605 42.4944 124.711 41.8515H125.649C125.569 42.4415 125.389 42.9479 125.107 43.3707C124.834 43.7934 124.482 44.1193 124.05 44.3482C123.619 44.5772 123.13 44.6917 122.584 44.6917ZM129.825 44.6785C129.35 44.6785 128.909 44.5904 128.504 44.4143C128.099 44.2381 127.747 43.9872 127.448 43.6613C127.157 43.3354 126.928 42.9523 126.761 42.512C126.602 42.0717 126.523 41.5873 126.523 41.0589C126.523 40.5393 126.602 40.0593 126.761 39.6189C126.928 39.1786 127.157 38.7999 127.448 38.4829C127.747 38.157 128.099 37.906 128.504 37.7299C128.909 37.5537 129.35 37.4657 129.825 37.4657C130.31 37.4657 130.754 37.5537 131.16 37.7299C131.565 37.906 131.913 38.157 132.203 38.4829C132.503 38.7999 132.732 39.1786 132.89 39.6189C133.057 40.0593 133.141 40.5393 133.141 41.0589C133.141 41.5873 133.057 42.0717 132.89 42.512C132.732 42.9523 132.503 43.3354 132.203 43.6613C131.913 43.9872 131.565 44.2381 131.16 44.4143C130.754 44.5904 130.31 44.6785 129.825 44.6785ZM129.825 43.8859C130.283 43.8859 130.688 43.7714 131.041 43.5424C131.402 43.3046 131.684 42.9744 131.886 42.5516C132.098 42.1289 132.203 41.6313 132.203 41.0589C132.203 40.4864 132.098 39.9932 131.886 39.5793C131.684 39.1654 131.402 38.8439 131.041 38.615C130.688 38.386 130.283 38.2715 129.825 38.2715C129.376 38.2715 128.971 38.386 128.61 38.615C128.258 38.8439 127.976 39.1654 127.765 39.5793C127.562 39.9932 127.461 40.4864 127.461 41.0589C127.461 41.6313 127.562 42.1289 127.765 42.5516C127.976 42.9744 128.258 43.3046 128.61 43.5424C128.971 43.7714 129.376 43.8859 129.825 43.8859ZM135.561 44.5464H134.636V37.5846H135.495V38.8924C135.733 38.4432 136.046 38.0909 136.433 37.8355C136.829 37.5801 137.274 37.4524 137.767 37.4524C138.313 37.4524 138.776 37.5934 139.154 37.8752C139.542 38.157 139.806 38.5533 139.947 39.0641C140.158 38.5709 140.475 38.179 140.898 37.8884C141.321 37.5978 141.805 37.4524 142.351 37.4524C143.073 37.4524 143.642 37.6814 144.055 38.1394C144.478 38.5885 144.69 39.2182 144.69 40.0285V44.5464H143.778V40.3323C143.778 39.663 143.628 39.1522 143.329 38.7999C143.038 38.4388 142.611 38.2583 142.047 38.2583C141.695 38.2583 141.374 38.3552 141.083 38.5489C140.792 38.7338 140.559 38.9937 140.383 39.3283C140.216 39.6542 140.132 40.0329 140.132 40.4644V44.5464H139.207V40.3323C139.207 39.663 139.062 39.1522 138.771 38.7999C138.481 38.4388 138.049 38.2583 137.477 38.2583C137.124 38.2583 136.799 38.3552 136.499 38.5489C136.209 38.7338 135.98 38.9937 135.812 39.3283C135.645 39.6542 135.561 40.0329 135.561 40.4644V44.5464ZM149.369 44.6785C148.717 44.6785 148.145 44.5288 147.651 44.2293C147.167 43.9211 146.788 43.4896 146.515 42.9347C146.251 42.3799 146.119 41.737 146.119 41.006C146.119 40.3279 146.255 39.7246 146.528 39.1962C146.81 38.659 147.189 38.2363 147.665 37.928C148.149 37.611 148.699 37.4524 149.316 37.4524C149.809 37.4524 150.254 37.5493 150.65 37.7431C151.055 37.928 151.394 38.1922 151.667 38.5357C151.949 38.8792 152.156 39.2843 152.288 39.751C152.429 40.209 152.478 40.7198 152.433 41.2834H146.621V40.6493H151.469C151.434 39.8655 151.223 39.2579 150.835 38.8263C150.456 38.386 149.946 38.1658 149.303 38.1658C148.853 38.1658 148.457 38.2847 148.114 38.5225C147.779 38.7515 147.515 39.0773 147.321 39.5C147.127 39.9228 147.03 40.4248 147.03 41.006C147.03 41.6049 147.123 42.1289 147.308 42.578C147.493 43.0184 147.757 43.3575 148.1 43.5952C148.453 43.833 148.871 43.9519 149.355 43.9519C149.937 43.9519 150.417 43.7978 150.795 43.4896C151.183 43.1725 151.434 42.741 151.548 42.195H152.46C152.301 42.9611 151.945 43.5688 151.39 44.018C150.844 44.4583 150.17 44.6785 149.369 44.6785Z" fill="#8C89B4"/>
<rect x="191.42" y="53.6636" width="52.2054" height="18.9898" rx="8.25645" fill="#02B15A" fill-opacity="0.15"/>
<path d="M202.578 65.7041V61.0598H203.366V65.7041H202.578ZM200.65 63.776V62.9879H205.294V63.776H200.65ZM209.517 59.7651V66.9707H208.645V60.6799H208.602L206.843 61.848V60.9613L208.645 59.7651H209.517ZM211.783 67.027C211.609 67.027 211.46 66.9648 211.336 66.8405C211.212 66.7162 211.15 66.5673 211.15 66.3937C211.15 66.2201 211.212 66.0712 211.336 65.9469C211.46 65.8225 211.609 65.7604 211.783 65.7604C211.957 65.7604 212.105 65.8225 212.23 65.9469C212.354 66.0712 212.416 66.2201 212.416 66.3937C212.416 66.5086 212.387 66.6142 212.328 66.7103C212.272 66.8065 212.196 66.8839 212.1 66.9426C212.006 66.9989 211.9 67.027 211.783 67.027ZM213.892 66.9707V66.3374L216.271 63.7338C216.55 63.4289 216.78 63.1638 216.96 62.9386C217.141 62.7111 217.275 62.4977 217.361 62.2983C217.45 62.0966 217.495 61.8855 217.495 61.665C217.495 61.4117 217.434 61.1924 217.312 61.0071C217.192 60.8218 217.028 60.6787 216.82 60.5778C216.611 60.477 216.376 60.4265 216.116 60.4265C215.839 60.4265 215.597 60.484 215.391 60.5989C215.187 60.7115 215.029 60.8698 214.916 61.0739C214.806 61.278 214.751 61.5172 214.751 61.7917H213.92C213.92 61.3695 214.018 60.9989 214.212 60.6799C214.407 60.3609 214.672 60.1122 215.008 59.934C215.345 59.7557 215.724 59.6666 216.144 59.6666C216.566 59.6666 216.94 59.7557 217.266 59.934C217.592 60.1122 217.848 60.3526 218.033 60.6552C218.219 60.9578 218.311 61.2944 218.311 61.665C218.311 61.93 218.263 62.1892 218.167 62.4426C218.073 62.6935 217.909 62.9738 217.674 63.2834C217.442 63.5907 217.12 63.966 216.707 64.4093L215.088 66.1404V66.1967H218.438V66.9707H213.892ZM222.185 59.6666C222.481 59.6689 222.776 59.7252 223.072 59.8354C223.367 59.9457 223.637 60.1286 223.881 60.3843C224.125 60.6376 224.321 60.9836 224.468 61.4222C224.616 61.8609 224.69 62.4109 224.69 63.0723C224.69 63.7127 224.629 64.2815 224.507 64.7788C224.388 65.2737 224.214 65.6912 223.986 66.0313C223.761 66.3714 223.487 66.6294 223.163 66.8053C222.842 66.9813 222.478 67.0692 222.072 67.0692C221.669 67.0692 221.309 66.9895 220.992 66.83C220.678 66.6681 220.42 66.4441 220.218 66.158C220.019 65.8695 219.891 65.5352 219.835 65.1552H220.693C220.771 65.486 220.924 65.7592 221.154 65.975C221.386 66.1885 221.692 66.2952 222.072 66.2952C222.628 66.2952 223.067 66.0524 223.388 65.5669C223.712 65.0813 223.874 64.3953 223.874 63.5086H223.818C223.686 63.7057 223.53 63.8757 223.35 64.0188C223.169 64.1619 222.968 64.2721 222.748 64.3495C222.527 64.4269 222.293 64.4656 222.044 64.4656C221.631 64.4656 221.253 64.3636 220.908 64.1595C220.565 63.9531 220.291 63.6705 220.085 63.3116C219.88 62.9504 219.778 62.5376 219.778 62.0731C219.778 61.6322 219.877 61.2287 220.074 60.8628C220.273 60.4946 220.553 60.2014 220.911 59.9832C221.273 59.7651 221.697 59.6595 222.185 59.6666ZM222.185 60.4406C221.889 60.4406 221.623 60.5145 221.386 60.6623C221.152 60.8077 220.965 61.0047 220.827 61.2533C220.691 61.4996 220.623 61.7729 220.623 62.0731C220.623 62.3734 220.689 62.6466 220.82 62.8929C220.954 63.1369 221.135 63.3315 221.365 63.477C221.597 63.62 221.861 63.6916 222.157 63.6916C222.38 63.6916 222.587 63.6482 222.78 63.5614C222.972 63.4723 223.14 63.3515 223.283 63.199C223.428 63.0442 223.542 62.8695 223.624 62.6748C223.706 62.4777 223.747 62.2725 223.747 62.0591C223.747 61.7776 223.679 61.5137 223.543 61.2674C223.409 61.0211 223.224 60.8218 222.987 60.6693C222.753 60.5168 222.485 60.4406 222.185 60.4406ZM229.747 65.6196V65.2397C229.747 64.977 229.801 64.7365 229.909 64.5184C230.019 64.2979 230.178 64.122 230.387 63.9906C230.598 63.8569 230.854 63.7901 231.154 63.7901C231.459 63.7901 231.715 63.8569 231.921 63.9906C232.128 64.122 232.284 64.2979 232.389 64.5184C232.495 64.7365 232.548 64.977 232.548 65.2397V65.6196C232.548 65.8824 232.494 66.1239 232.386 66.3444C232.28 66.5626 232.123 66.7385 231.914 66.8722C231.708 67.0035 231.454 67.0692 231.154 67.0692C230.849 67.0692 230.592 67.0035 230.384 66.8722C230.175 66.7385 230.017 66.5626 229.909 66.3444C229.801 66.1239 229.747 65.8824 229.747 65.6196ZM230.465 65.2397V65.6196C230.465 65.8378 230.516 66.0336 230.619 66.2072C230.723 66.3784 230.901 66.4641 231.154 66.4641C231.401 66.4641 231.574 66.3784 231.675 66.2072C231.778 66.0336 231.83 65.8378 231.83 65.6196V65.2397C231.83 65.0215 231.781 64.8268 231.682 64.6556C231.583 64.482 231.408 64.3953 231.154 64.3953C230.908 64.3953 230.731 64.482 230.623 64.6556C230.517 64.8268 230.465 65.0215 230.465 65.2397ZM226.158 61.4961V61.1161C226.158 60.8534 226.212 60.613 226.32 60.3949C226.43 60.1744 226.59 59.9985 226.798 59.8671C227.01 59.7334 227.265 59.6666 227.565 59.6666C227.87 59.6666 228.126 59.7334 228.333 59.8671C228.539 59.9985 228.695 60.1744 228.8 60.3949C228.906 60.613 228.959 60.8534 228.959 61.1161V61.4961C228.959 61.7588 228.905 62.0004 228.797 62.2209C228.691 62.439 228.534 62.615 228.325 62.7487C228.119 62.88 227.866 62.9457 227.565 62.9457C227.261 62.9457 227.004 62.88 226.795 62.7487C226.586 62.615 226.428 62.439 226.32 62.2209C226.212 62.0004 226.158 61.7588 226.158 61.4961ZM226.876 61.1161V61.4961C226.876 61.7143 226.927 61.9101 227.031 62.0837C227.134 62.2549 227.312 62.3405 227.565 62.3405C227.812 62.3405 227.985 62.2549 228.086 62.0837C228.189 61.9101 228.241 61.7143 228.241 61.4961V61.1161C228.241 60.898 228.192 60.7033 228.093 60.5321C227.995 60.3585 227.819 60.2717 227.565 60.2717C227.319 60.2717 227.142 60.3585 227.034 60.5321C226.929 60.7033 226.876 60.898 226.876 61.1161ZM226.426 66.9707L231.379 59.7651H232.182L227.228 66.9707H226.426Z" fill="#02B15A"/>
<path d="M32.3253 58.8282C32.3787 59.2803 32.7898 59.6033 33.2434 59.5496L40.6359 58.6759C41.0895 58.6222 41.414 58.2123 41.3606 57.7603C41.3071 57.3082 40.8961 56.9853 40.4424 57.0389L33.8713 57.8156L33.0974 51.2677C33.0439 50.8157 32.6329 50.4927 32.1792 50.5463C31.7256 50.5999 31.4012 51.0098 31.4546 51.4619L32.3253 58.8282ZM41.7336 46.5514L32.4975 58.221L33.7959 59.2413L43.032 47.5716L41.7336 46.5514Z" fill="white"/>
</svg>
