<svg width="266" height="105" viewBox="0 0 266 105" fill="none" xmlns="http://www.w3.org/2000/svg">
<rect y="0.132324" width="265.999" height="104.031" rx="16.5129" fill="white"/>
<rect x="23.2026" y="33.9797" width="37.2896" height="37.154" rx="8.25645" fill="#142D6F"/>
<path d="M83.1838 73.8753V56.4575H84.4916V73.8753H83.1838ZM84.016 72.3892C83.0121 72.3892 82.1138 72.2174 81.3211 71.874C80.5417 71.5305 79.9208 71.0285 79.4585 70.368C79.0093 69.7075 78.7782 68.9082 78.7649 67.9703H81.5986C81.6118 68.3798 81.7175 68.7497 81.9156 69.08C82.1138 69.4102 82.3846 69.6744 82.728 69.8726C83.0847 70.0575 83.5074 70.15 83.9962 70.15C84.419 70.15 84.7822 70.084 85.0861 69.9519C85.4031 69.8065 85.6475 69.6084 85.8193 69.3574C85.991 69.1064 86.0769 68.8092 86.0769 68.4657C86.0769 68.0562 85.9778 67.7193 85.7796 67.4551C85.5947 67.1909 85.3305 66.9663 84.987 66.7814C84.6435 66.5964 84.2472 66.4313 83.7981 66.286C83.3621 66.1275 82.8998 65.9689 82.411 65.8104C81.3277 65.4537 80.4955 64.9782 79.9142 64.3837C79.3462 63.7892 79.0622 63.0032 79.0622 62.0257C79.0622 61.1934 79.2603 60.4801 79.6566 59.8856C80.0662 59.2911 80.6276 58.8354 81.341 58.5183C82.0543 58.2013 82.8667 58.0428 83.7783 58.0428C84.7162 58.0428 85.5352 58.2079 86.2354 58.5381C86.9487 58.8552 87.5102 59.3175 87.9197 59.9252C88.3424 60.5329 88.5604 61.2463 88.5736 62.0653H85.7202C85.707 61.7615 85.6145 61.4774 85.4428 61.2132C85.2842 60.9358 85.0597 60.7178 84.769 60.5593C84.4784 60.3876 84.1349 60.3017 83.7386 60.3017C83.3952 60.2885 83.0781 60.3413 82.7875 60.4602C82.5101 60.5791 82.2855 60.7575 82.1138 60.9953C81.9552 61.2198 81.876 61.5039 81.876 61.8473C81.876 62.1776 81.9552 62.455 82.1138 62.6796C82.2855 62.9041 82.5167 63.1023 82.8073 63.274C83.0979 63.4326 83.4414 63.5845 83.8377 63.7298C84.234 63.8619 84.6634 64.0006 85.1257 64.1459C85.8126 64.3837 86.4467 64.6677 87.028 64.998C87.6093 65.315 88.0716 65.7312 88.4151 66.2464C88.7585 66.7616 88.9303 67.4419 88.9303 68.2874C88.9303 69.0139 88.7387 69.6876 88.3556 70.3085C87.9725 70.9294 87.4177 71.4314 86.6911 71.8145C85.9778 72.1976 85.0861 72.3892 84.016 72.3892ZM96.392 72.3892C95.3484 72.3892 94.4633 72.1976 93.7368 71.8145C93.0234 71.4182 92.4488 70.903 92.0128 70.2689C91.5769 69.6216 91.2598 68.9016 91.0617 68.109C90.8767 67.3032 90.7843 66.4907 90.7843 65.6717C90.7843 64.1129 91.0022 62.7654 91.4382 61.6294C91.8741 60.4933 92.5016 59.6148 93.3206 58.9939C94.1529 58.3598 95.1503 58.0428 96.3128 58.0428C97.2771 58.0428 98.0962 58.2343 98.7699 58.6174C99.4436 58.9873 99.9654 59.4827 100.335 60.1036C100.705 60.7112 100.923 61.3651 100.989 62.0653H98.4925C98.3868 61.484 98.1424 61.0349 97.7593 60.7178C97.3762 60.4008 96.8808 60.2423 96.2732 60.2423C95.7183 60.2423 95.2295 60.414 94.8068 60.7575C94.3841 61.1009 94.0538 61.6161 93.816 62.3031C93.5782 62.99 93.4395 63.8553 93.3999 64.8989C93.3999 64.9121 93.3999 64.9319 93.3999 64.9584C93.3999 64.9716 93.3999 64.9914 93.3999 65.0178C93.6113 64.6611 93.8887 64.3441 94.2322 64.0667C94.5888 63.7892 94.9918 63.5713 95.4409 63.4127C95.8901 63.2542 96.359 63.175 96.8478 63.175C97.6272 63.175 98.3472 63.3599 99.0077 63.7298C99.6814 64.0997 100.223 64.6215 100.633 65.2952C101.042 65.9689 101.247 66.7682 101.247 67.6929C101.247 68.5251 101.042 69.3045 100.633 70.0311C100.223 70.7445 99.655 71.3191 98.9284 71.7551C98.2019 72.1778 97.3564 72.3892 96.392 72.3892ZM96.2335 70.0906C96.7091 70.0906 97.1318 69.9915 97.5017 69.7933C97.8716 69.5952 98.1622 69.3244 98.3736 68.9809C98.585 68.6242 98.6906 68.2213 98.6906 67.7721C98.6906 67.2966 98.585 66.8871 98.3736 66.5436C98.1622 66.2001 97.865 65.9293 97.4819 65.7312C97.112 65.533 96.6893 65.4339 96.2137 65.4339C95.7513 65.4339 95.3286 65.5396 94.9455 65.751C94.5756 65.9491 94.2784 66.2265 94.0538 66.5832C93.8425 66.9267 93.7368 67.3164 93.7368 67.7523C93.7368 68.2147 93.8425 68.6242 94.0538 68.9809C94.2784 69.3244 94.5756 69.5952 94.9455 69.7933C95.3286 69.9915 95.7579 70.0906 96.2335 70.0906ZM108.277 72.3892C107.379 72.3892 106.553 72.224 105.8 71.8938C105.047 71.5635 104.446 71.0615 103.997 70.3878C103.548 69.7141 103.31 68.862 103.284 67.8316H105.919C105.932 68.2675 106.031 68.6638 106.216 69.0205C106.401 69.364 106.665 69.6414 107.009 69.8528C107.366 70.0509 107.795 70.15 108.297 70.15C108.759 70.15 109.149 70.0575 109.466 69.8726C109.796 69.6876 110.047 69.4433 110.219 69.1394C110.391 68.8356 110.477 68.4855 110.477 68.0892C110.477 67.6268 110.364 67.2437 110.14 66.9399C109.915 66.6229 109.598 66.3851 109.189 66.2265C108.792 66.0548 108.33 65.9689 107.802 65.9689H106.771V63.7694H107.802C108.449 63.7694 108.991 63.6175 109.426 63.3137C109.876 63.0098 110.1 62.5607 110.1 61.9662C110.1 61.4642 109.935 61.0613 109.605 60.7575C109.288 60.4536 108.845 60.3017 108.277 60.3017C107.643 60.3017 107.148 60.4867 106.791 60.8565C106.448 61.2264 106.256 61.6822 106.216 62.2238H103.601C103.64 61.3519 103.858 60.6056 104.255 59.9847C104.651 59.3506 105.193 58.8684 105.879 58.5381C106.566 58.2079 107.366 58.0428 108.277 58.0428C109.241 58.0428 110.054 58.2145 110.714 58.558C111.375 58.8882 111.877 59.3374 112.22 59.9054C112.564 60.4735 112.736 61.0877 112.736 61.7482C112.736 62.2899 112.63 62.772 112.419 63.1948C112.22 63.6043 111.95 63.9478 111.606 64.2252C111.276 64.5026 110.899 64.7008 110.477 64.8196C111.005 64.9253 111.461 65.1301 111.844 65.4339C112.24 65.7378 112.544 66.1209 112.755 66.5832C112.98 67.0456 113.092 67.5806 113.092 68.1883C113.092 68.9413 112.907 69.6414 112.537 70.2887C112.168 70.9228 111.626 71.4314 110.913 71.8145C110.199 72.1976 109.321 72.3892 108.277 72.3892ZM115.244 72.1514V70.1896C116.077 69.5159 116.889 68.8422 117.682 68.1685C118.474 67.4947 119.188 66.8276 119.822 66.1671C120.456 65.4934 120.958 64.8395 121.328 64.2054C121.698 63.5713 121.883 62.957 121.883 62.3625C121.883 61.9926 121.817 61.6558 121.684 61.3519C121.552 61.0349 121.341 60.7839 121.05 60.5989C120.773 60.4008 120.403 60.3017 119.941 60.3017C119.492 60.3017 119.108 60.4074 118.791 60.6188C118.474 60.8301 118.237 61.1142 118.078 61.4708C117.92 61.8143 117.84 62.204 117.84 62.6399H115.244C115.284 61.6227 115.515 60.7707 115.938 60.0837C116.361 59.3968 116.929 58.8882 117.642 58.558C118.355 58.2145 119.148 58.0428 120.02 58.0428C120.998 58.0428 121.823 58.2277 122.497 58.5976C123.171 58.9543 123.679 59.443 124.023 60.0639C124.379 60.6848 124.558 61.3982 124.558 62.204C124.558 62.8117 124.445 63.4061 124.221 63.9874C123.996 64.5686 123.692 65.1367 123.309 65.6915C122.926 66.2331 122.49 66.755 122.002 67.2569C121.513 67.7589 121.004 68.2411 120.476 68.7035C119.961 69.1526 119.452 69.5754 118.95 69.9717H124.875V72.1514H115.244ZM128.109 72.2504C127.62 72.2504 127.217 72.1051 126.9 71.8145C126.596 71.5107 126.445 71.1408 126.445 70.7048C126.445 70.2689 126.596 69.9056 126.9 69.615C127.217 69.3111 127.62 69.1592 128.109 69.1592C128.598 69.1592 128.994 69.3111 129.298 69.615C129.602 69.9056 129.754 70.2689 129.754 70.7048C129.754 71.1408 129.602 71.5107 129.298 71.8145C128.994 72.1051 128.598 72.2504 128.109 72.2504ZM136.808 72.3892C135.526 72.3892 134.423 72.0853 133.499 71.4776C132.587 70.87 131.887 70.0311 131.398 68.9611C130.909 67.8778 130.665 66.6295 130.665 65.216C130.665 63.8024 130.909 62.5607 131.398 61.4906C131.887 60.4074 132.587 59.5619 133.499 58.9543C134.423 58.3466 135.526 58.0428 136.808 58.0428C138.076 58.0428 139.166 58.3466 140.077 58.9543C140.989 59.5619 141.689 60.4074 142.178 61.4906C142.68 62.5607 142.931 63.8024 142.931 65.216C142.931 66.6295 142.68 67.8778 142.178 68.9611C141.689 70.0311 140.989 70.87 140.077 71.4776C139.166 72.0853 138.076 72.3892 136.808 72.3892ZM136.808 69.9915C137.481 69.9915 138.069 69.7999 138.571 69.4168C139.086 69.0205 139.483 68.4657 139.76 67.7523C140.051 67.039 140.196 66.1935 140.196 65.216C140.196 64.2252 140.051 63.3797 139.76 62.6796C139.483 61.9662 139.086 61.418 138.571 61.0349C138.069 60.6518 137.481 60.4602 136.808 60.4602C136.134 60.4602 135.54 60.6518 135.024 61.0349C134.509 61.418 134.106 61.9662 133.816 62.6796C133.538 63.3797 133.399 64.2252 133.399 65.216C133.399 66.1935 133.538 67.039 133.816 67.7523C134.106 68.4657 134.509 69.0205 135.024 69.4168C135.54 69.7999 136.134 69.9915 136.808 69.9915ZM150.857 72.3892C149.575 72.3892 148.472 72.0853 147.547 71.4776C146.636 70.87 145.936 70.0311 145.447 68.9611C144.958 67.8778 144.714 66.6295 144.714 65.216C144.714 63.8024 144.958 62.5607 145.447 61.4906C145.936 60.4074 146.636 59.5619 147.547 58.9543C148.472 58.3466 149.575 58.0428 150.857 58.0428C152.125 58.0428 153.215 58.3466 154.126 58.9543C155.038 59.5619 155.738 60.4074 156.227 61.4906C156.729 62.5607 156.98 63.8024 156.98 65.216C156.98 66.6295 156.729 67.8778 156.227 68.9611C155.738 70.0311 155.038 70.87 154.126 71.4776C153.215 72.0853 152.125 72.3892 150.857 72.3892ZM150.857 69.9915C151.53 69.9915 152.118 69.7999 152.62 69.4168C153.135 69.0205 153.532 68.4657 153.809 67.7523C154.1 67.039 154.245 66.1935 154.245 65.216C154.245 64.2252 154.1 63.3797 153.809 62.6796C153.532 61.9662 153.135 61.418 152.62 61.0349C152.118 60.6518 151.53 60.4602 150.857 60.4602C150.183 60.4602 149.588 60.6518 149.073 61.0349C148.558 61.418 148.155 61.9662 147.864 62.6796C147.587 63.3797 147.448 64.2252 147.448 65.216C147.448 66.1935 147.587 67.039 147.864 67.7523C148.155 68.4657 148.558 69.0205 149.073 69.4168C149.588 69.7999 150.183 69.9915 150.857 69.9915ZM164.905 72.3892C163.624 72.3892 162.521 72.0853 161.596 71.4776C160.685 70.87 159.985 70.0311 159.496 68.9611C159.007 67.8778 158.763 66.6295 158.763 65.216C158.763 63.8024 159.007 62.5607 159.496 61.4906C159.985 60.4074 160.685 59.5619 161.596 58.9543C162.521 58.3466 163.624 58.0428 164.905 58.0428C166.174 58.0428 167.263 58.3466 168.175 58.9543C169.086 59.5619 169.787 60.4074 170.275 61.4906C170.777 62.5607 171.028 63.8024 171.028 65.216C171.028 66.6295 170.777 67.8778 170.275 68.9611C169.787 70.0311 169.086 70.87 168.175 71.4776C167.263 72.0853 166.174 72.3892 164.905 72.3892ZM164.905 69.9915C165.579 69.9915 166.167 69.7999 166.669 69.4168C167.184 69.0205 167.581 68.4657 167.858 67.7523C168.149 67.039 168.294 66.1935 168.294 65.216C168.294 64.2252 168.149 63.3797 167.858 62.6796C167.581 61.9662 167.184 61.418 166.669 61.0349C166.167 60.6518 165.579 60.4602 164.905 60.4602C164.232 60.4602 163.637 60.6518 163.122 61.0349C162.607 61.418 162.204 61.9662 161.913 62.6796C161.636 63.3797 161.497 64.2252 161.497 65.216C161.497 66.1935 161.636 67.039 161.913 67.7523C162.204 68.4657 162.607 69.0205 163.122 69.4168C163.637 69.7999 164.232 69.9915 164.905 69.9915Z" fill="#142D6F"/>
<path d="M82.3185 44.6787H81.341V36.0788H78.1573V35.1937H85.5022V36.0788H82.3185V44.6787ZM88.5734 44.8108C88.0978 44.8108 87.6575 44.7227 87.2524 44.5466C86.8473 44.3705 86.495 44.1195 86.1955 43.7936C85.9049 43.4678 85.6759 43.0847 85.5086 42.6443C85.3501 42.204 85.2708 41.7196 85.2708 41.1912C85.2708 40.6716 85.3501 40.1916 85.5086 39.7513C85.6759 39.3109 85.9049 38.9322 86.1955 38.6152C86.495 38.2893 86.8473 38.0383 87.2524 37.8622C87.6575 37.6861 88.0978 37.598 88.5734 37.598C89.0578 37.598 89.5025 37.6861 89.9076 37.8622C90.3128 38.0383 90.6606 38.2893 90.9513 38.6152C91.2507 38.9322 91.4797 39.3109 91.6382 39.7513C91.8055 40.1916 91.8892 40.6716 91.8892 41.1912C91.8892 41.7196 91.8055 42.204 91.6382 42.6443C91.4797 43.0847 91.2507 43.4678 90.9513 43.7936C90.6606 44.1195 90.3128 44.3705 89.9076 44.5466C89.5025 44.7227 89.0578 44.8108 88.5734 44.8108ZM88.5734 44.0182C89.0314 44.0182 89.4365 43.9037 89.7887 43.6747C90.1498 43.4369 90.4316 43.1067 90.6342 42.684C90.8456 42.2612 90.9513 41.7636 90.9513 41.1912C90.9513 40.6187 90.8456 40.1256 90.6342 39.7116C90.4316 39.2977 90.1498 38.9763 89.7887 38.7473C89.4365 38.5183 89.0314 38.4038 88.5734 38.4038C88.1242 38.4038 87.7191 38.5183 87.358 38.7473C87.0058 38.9763 86.724 39.2977 86.5126 39.7116C86.31 40.1256 86.2088 40.6187 86.2088 41.1912C86.2088 41.7636 86.31 42.2612 86.5126 42.684C86.724 43.1067 87.0058 43.4369 87.358 43.6747C87.7191 43.9037 88.1242 44.0182 88.5734 44.0182ZM96.8355 43.7936V44.6127C96.6594 44.6919 96.4921 44.7448 96.3335 44.7712C96.175 44.7976 96.0077 44.8108 95.8315 44.8108C95.4528 44.8108 95.1094 44.7404 94.8011 44.5994C94.4929 44.4585 94.2463 44.234 94.0614 43.9257C93.8852 43.6175 93.7971 43.2124 93.7971 42.7104V38.4963H92.1591V37.7169H93.7971V35.6561H94.7219V37.7169H96.9016V38.4963H94.7219V42.5122C94.7219 43.0582 94.8408 43.4369 95.0786 43.6483C95.3251 43.8597 95.6378 43.9654 96.0165 43.9654C96.1662 43.9654 96.3027 43.9521 96.426 43.9257C96.5581 43.8993 96.6946 43.8553 96.8355 43.7936ZM102.58 44.6787V43.4105C102.377 43.8421 102.073 44.1855 101.668 44.4409C101.263 44.6875 100.788 44.8108 100.242 44.8108C99.5194 44.8108 98.9426 44.6259 98.5111 44.256C98.0795 43.8773 97.8638 43.3753 97.8638 42.75C97.8638 42.0719 98.1324 41.5611 98.6696 41.2176C99.2068 40.8653 100.004 40.6892 101.061 40.6892C101.272 40.6892 101.479 40.6936 101.682 40.7024C101.884 40.7112 102.153 40.7332 102.487 40.7685V40.174C102.487 39.5927 102.338 39.1392 102.038 38.8133C101.748 38.4875 101.338 38.3245 100.81 38.3245C100.246 38.3245 99.7969 38.4919 99.4622 38.8265C99.1275 39.1524 98.9558 39.5971 98.947 40.1608H98.1015C98.1103 39.6412 98.2292 39.192 98.4582 38.8133C98.6872 38.4258 98.9998 38.1264 99.3962 37.915C99.8013 37.6949 100.268 37.5848 100.796 37.5848C101.615 37.5848 102.25 37.8093 102.699 38.2585C103.148 38.7076 103.372 39.3373 103.372 40.1476V44.6787H102.58ZM98.7488 42.7236C98.7488 43.1463 98.8986 43.4898 99.198 43.754C99.4974 44.0094 99.8893 44.1371 100.374 44.1371C101.025 44.1371 101.541 43.9433 101.919 43.5558C102.298 43.1595 102.487 42.6355 102.487 41.9838V41.3629C102.188 41.3365 101.928 41.3189 101.708 41.3101C101.497 41.3013 101.294 41.2969 101.1 41.2969C100.316 41.2969 99.7264 41.4158 99.3301 41.6535C98.9426 41.8825 98.7488 42.2392 98.7488 42.7236ZM106.242 44.6787H105.318V35.1937H106.242V44.6787ZM115.313 44.8769C114.627 44.8769 113.992 44.7492 113.411 44.4938C112.83 44.2384 112.324 43.8861 111.892 43.4369C111.46 42.9878 111.126 42.4638 110.888 41.8649C110.65 41.2572 110.531 40.6099 110.531 39.923C110.531 39.2361 110.65 38.5932 110.888 37.9943C111.126 37.3954 111.46 36.8714 111.892 36.4223C112.324 35.9731 112.83 35.6252 113.411 35.3786C113.992 35.1233 114.627 34.9956 115.313 34.9956C116 34.9956 116.634 35.1233 117.216 35.3786C117.797 35.6252 118.303 35.9731 118.735 36.4223C119.175 36.8714 119.514 37.3954 119.752 37.9943C119.99 38.5932 120.109 39.2361 120.109 39.923C120.109 40.6099 119.99 41.2572 119.752 41.8649C119.514 42.4638 119.175 42.9878 118.735 43.4369C118.303 43.8861 117.797 44.2384 117.216 44.4938C116.634 44.7492 116 44.8769 115.313 44.8769ZM115.313 43.9918C115.877 43.9918 116.388 43.8905 116.846 43.6879C117.304 43.4766 117.7 43.1859 118.035 42.8161C118.369 42.4374 118.625 42.0014 118.801 41.5082C118.986 41.0151 119.078 40.4866 119.078 39.923C119.078 39.3594 118.986 38.8309 118.801 38.3378C118.625 37.8446 118.369 37.4174 118.035 37.0564C117.7 36.6865 117.304 36.4002 116.846 36.1977C116.388 35.9863 115.877 35.8806 115.313 35.8806C114.759 35.8806 114.248 35.9863 113.781 36.1977C113.323 36.4002 112.927 36.6865 112.592 37.0564C112.257 37.4174 111.998 37.8446 111.813 38.3378C111.637 38.8309 111.549 39.3594 111.549 39.923C111.549 40.4866 111.637 41.0151 111.813 41.5082C111.998 42.0014 112.257 42.4374 112.592 42.8161C112.927 43.1859 113.323 43.4766 113.781 43.6879C114.248 43.8905 114.759 43.9918 115.313 43.9918ZM126.076 41.8781V37.7169H126.988V44.6787H126.129V43.4237C125.953 43.8288 125.667 44.1635 125.27 44.4277C124.874 44.6831 124.42 44.8108 123.91 44.8108C123.443 44.8108 123.029 44.7227 122.668 44.5466C122.316 44.3617 122.042 44.0798 121.849 43.7011C121.655 43.3136 121.558 42.8293 121.558 42.248V37.7169H122.483V42.0499C122.483 42.7544 122.641 43.2608 122.958 43.569C123.275 43.8685 123.676 44.0182 124.161 44.0182C124.53 44.0182 124.856 43.9257 125.138 43.7408C125.429 43.5558 125.658 43.3004 125.825 42.9746C125.992 42.6487 126.076 42.2832 126.076 41.8781ZM132.57 43.7936V44.6127C132.394 44.6919 132.227 44.7448 132.068 44.7712C131.91 44.7976 131.743 44.8108 131.566 44.8108C131.188 44.8108 130.844 44.7404 130.536 44.5994C130.228 44.4585 129.981 44.234 129.796 43.9257C129.62 43.6175 129.532 43.2124 129.532 42.7104V38.4963H127.894V37.7169H129.532V35.6561H130.457V37.7169H132.637V38.4963H130.457V42.5122C130.457 43.0582 130.576 43.4369 130.813 43.6483C131.06 43.8597 131.373 43.9654 131.751 43.9654C131.901 43.9654 132.038 43.9521 132.161 43.9257C132.293 43.8993 132.43 43.8553 132.57 43.7936ZM136.405 44.824C135.788 44.824 135.247 44.6699 134.78 44.3617C134.313 44.0534 133.948 43.6263 133.684 43.0803C133.419 42.5342 133.287 41.9045 133.287 41.1912C133.287 40.4866 133.419 39.8658 133.684 39.3285C133.948 38.7825 134.313 38.3554 134.78 38.0471C135.256 37.7389 135.797 37.5848 136.405 37.5848C136.942 37.5848 137.426 37.6993 137.858 37.9282C138.29 38.1572 138.642 38.4831 138.915 38.9058C139.197 39.3285 139.382 39.8305 139.47 40.4118H138.532C138.426 39.7777 138.184 39.2845 137.805 38.9322C137.435 38.5711 136.968 38.3906 136.405 38.3906C135.973 38.3906 135.59 38.5095 135.256 38.7473C134.93 38.9851 134.674 39.3109 134.489 39.7248C134.313 40.1388 134.225 40.6275 134.225 41.1912C134.225 41.7548 134.313 42.2524 134.489 42.684C134.674 43.1067 134.93 43.4369 135.256 43.6747C135.59 43.9037 135.973 44.0182 136.405 44.0182C136.977 44.0182 137.448 43.8421 137.818 43.4898C138.188 43.1287 138.426 42.6267 138.532 41.9838H139.47C139.39 42.5739 139.21 43.0803 138.928 43.503C138.655 43.9257 138.303 44.2516 137.871 44.4806C137.44 44.7095 136.951 44.824 136.405 44.824ZM143.646 44.8108C143.171 44.8108 142.731 44.7227 142.325 44.5466C141.92 44.3705 141.568 44.1195 141.269 43.7936C140.978 43.4678 140.749 43.0847 140.582 42.6443C140.423 42.204 140.344 41.7196 140.344 41.1912C140.344 40.6716 140.423 40.1916 140.582 39.7513C140.749 39.3109 140.978 38.9322 141.269 38.6152C141.568 38.2893 141.92 38.0383 142.325 37.8622C142.731 37.6861 143.171 37.598 143.646 37.598C144.131 37.598 144.576 37.6861 144.981 37.8622C145.386 38.0383 145.734 38.2893 146.024 38.6152C146.324 38.9322 146.553 39.3109 146.711 39.7513C146.879 40.1916 146.962 40.6716 146.962 41.1912C146.962 41.7196 146.879 42.204 146.711 42.6443C146.553 43.0847 146.324 43.4678 146.024 43.7936C145.734 44.1195 145.386 44.3705 144.981 44.5466C144.576 44.7227 144.131 44.8108 143.646 44.8108ZM143.646 44.0182C144.104 44.0182 144.51 43.9037 144.862 43.6747C145.223 43.4369 145.505 43.1067 145.707 42.684C145.919 42.2612 146.024 41.7636 146.024 41.1912C146.024 40.6187 145.919 40.1256 145.707 39.7116C145.505 39.2977 145.223 38.9763 144.862 38.7473C144.51 38.5183 144.104 38.4038 143.646 38.4038C143.197 38.4038 142.792 38.5183 142.431 38.7473C142.079 38.9763 141.797 39.2977 141.586 39.7116C141.383 40.1256 141.282 40.6187 141.282 41.1912C141.282 41.7636 141.383 42.2612 141.586 42.684C141.797 43.1067 142.079 43.4369 142.431 43.6747C142.792 43.9037 143.197 44.0182 143.646 44.0182ZM149.382 44.6787H148.458V37.7169H149.316V39.0247C149.554 38.5755 149.867 38.2233 150.254 37.9679C150.651 37.7125 151.095 37.5848 151.588 37.5848C152.134 37.5848 152.597 37.7257 152.976 38.0075C153.363 38.2893 153.627 38.6856 153.768 39.1964C153.98 38.7032 154.297 38.3113 154.719 38.0207C155.142 37.7301 155.626 37.5848 156.172 37.5848C156.895 37.5848 157.463 37.8138 157.877 38.2717C158.299 38.7209 158.511 39.3506 158.511 40.1608V44.6787H157.599V40.4646C157.599 39.7953 157.449 39.2845 157.15 38.9322C156.859 38.5711 156.432 38.3906 155.869 38.3906C155.516 38.3906 155.195 38.4875 154.904 38.6812C154.614 38.8662 154.38 39.126 154.204 39.4606C154.037 39.7865 153.953 40.1652 153.953 40.5967V44.6787H153.028V40.4646C153.028 39.7953 152.883 39.2845 152.592 38.9322C152.302 38.5711 151.87 38.3906 151.298 38.3906C150.946 38.3906 150.62 38.4875 150.32 38.6812C150.03 38.8662 149.801 39.126 149.633 39.4606C149.466 39.7865 149.382 40.1652 149.382 40.5967V44.6787ZM163.19 44.8108C162.538 44.8108 161.966 44.6611 161.472 44.3617C160.988 44.0534 160.609 43.6219 160.336 43.0671C160.072 42.5122 159.94 41.8693 159.94 41.1383C159.94 40.4602 160.077 39.8569 160.35 39.3285C160.631 38.7913 161.01 38.3686 161.486 38.0603C161.97 37.7433 162.52 37.5848 163.137 37.5848C163.63 37.5848 164.075 37.6816 164.471 37.8754C164.876 38.0603 165.215 38.3245 165.488 38.668C165.77 39.0115 165.977 39.4166 166.109 39.8834C166.25 40.3413 166.299 40.8521 166.255 41.4158H160.442V40.7817H165.29C165.255 39.9979 165.044 39.3902 164.656 38.9586C164.277 38.5183 163.767 38.2981 163.124 38.2981C162.675 38.2981 162.278 38.417 161.935 38.6548C161.6 38.8838 161.336 39.2096 161.142 39.6324C160.948 40.0551 160.852 40.5571 160.852 41.1383C160.852 41.7372 160.944 42.2612 161.129 42.7104C161.314 43.1507 161.578 43.4898 161.922 43.7276C162.274 43.9654 162.692 44.0842 163.177 44.0842C163.758 44.0842 164.238 43.9301 164.617 43.6219C165.004 43.3048 165.255 42.8733 165.369 42.3273H166.281C166.122 43.0935 165.766 43.7011 165.211 44.1503C164.665 44.5906 163.991 44.8108 163.19 44.8108Z" fill="#8C89B4"/>
<rect x="192.248" y="57.103" width="52.2054" height="18.9898" rx="8.25645" fill="#EB001B" fill-opacity="0.15"/>
<path d="M204.234 69.1374V64.4932H205.022V69.1374H204.234ZM202.306 67.2094V66.4213H206.95V67.2094H202.306ZM211.173 63.1984V70.4041H210.301V64.1132H210.259L208.499 65.2813V64.3947L210.301 63.1984H211.173ZM213.439 70.4603C213.266 70.4603 213.117 70.3982 212.992 70.2739C212.868 70.1496 212.806 70.0006 212.806 69.827C212.806 69.6535 212.868 69.5045 212.992 69.3802C213.117 69.2559 213.266 69.1937 213.439 69.1937C213.613 69.1937 213.762 69.2559 213.886 69.3802C214.01 69.5045 214.073 69.6535 214.073 69.827C214.073 69.942 214.043 70.0475 213.985 70.1437C213.928 70.2399 213.852 70.3173 213.756 70.3759C213.662 70.4322 213.556 70.4603 213.439 70.4603ZM215.548 70.4041V69.7707L217.927 67.1672C218.206 66.8622 218.436 66.5972 218.616 66.372C218.797 66.1445 218.931 65.931 219.018 65.7317C219.107 65.5299 219.151 65.3188 219.151 65.0983C219.151 64.845 219.09 64.6257 218.968 64.4404C218.849 64.2551 218.685 64.112 218.476 64.0112C218.267 63.9103 218.032 63.8599 217.772 63.8599C217.495 63.8599 217.254 63.9173 217.047 64.0323C216.843 64.1449 216.685 64.3032 216.572 64.5073C216.462 64.7113 216.407 64.9506 216.407 65.225H215.577C215.577 64.8028 215.674 64.4322 215.869 64.1132C216.063 63.7942 216.328 63.5456 216.664 63.3673C217.002 63.189 217.38 63.0999 217.8 63.0999C218.222 63.0999 218.597 63.189 218.923 63.3673C219.249 63.5456 219.504 63.786 219.69 64.0886C219.875 64.3912 219.968 64.7277 219.968 65.0983C219.968 65.3634 219.919 65.6226 219.823 65.8759C219.729 66.1269 219.565 66.4072 219.331 66.7168C219.099 67.0241 218.776 67.3994 218.363 67.8427L216.745 69.5737V69.63H220.094V70.4041H215.548ZM223.841 63.0999C224.137 63.1023 224.432 63.1586 224.728 63.2688C225.023 63.379 225.293 63.562 225.537 63.8177C225.781 64.071 225.977 64.417 226.125 64.8556C226.272 65.2942 226.346 65.8442 226.346 66.5057C226.346 67.146 226.285 67.7148 226.163 68.2121C226.044 68.707 225.87 69.1245 225.643 69.4646C225.418 69.8048 225.143 70.0628 224.819 70.2387C224.498 70.4146 224.134 70.5026 223.729 70.5026C223.325 70.5026 222.965 70.4228 222.649 70.2633C222.334 70.1015 222.076 69.8775 221.875 69.5913C221.675 69.3028 221.547 68.9686 221.491 68.5886H222.349C222.427 68.9193 222.581 69.1926 222.81 69.4084C223.043 69.6218 223.349 69.7285 223.729 69.7285C224.285 69.7285 224.723 69.4858 225.045 69.0002C225.368 68.5147 225.53 67.8286 225.53 66.942H225.474C225.342 67.139 225.186 67.3091 225.006 67.4521C224.825 67.5952 224.625 67.7055 224.404 67.7829C224.184 67.8603 223.949 67.899 223.701 67.899C223.288 67.899 222.909 67.7969 222.564 67.5929C222.222 67.3865 221.947 67.1038 221.741 66.7449C221.537 66.3837 221.435 65.9709 221.435 65.5065C221.435 65.0655 221.533 64.6621 221.73 64.2962C221.93 63.9279 222.209 63.6347 222.568 63.4166C222.929 63.1984 223.353 63.0929 223.841 63.0999ZM223.841 63.874C223.546 63.874 223.28 63.9478 223.043 64.0956C222.808 64.241 222.622 64.4381 222.483 64.6867C222.347 64.933 222.279 65.2062 222.279 65.5065C222.279 65.8067 222.345 66.08 222.476 66.3263C222.61 66.5702 222.792 66.7649 223.021 66.9103C223.254 67.0534 223.518 67.1249 223.813 67.1249C224.036 67.1249 224.244 67.0815 224.436 66.9948C224.628 66.9056 224.796 66.7848 224.939 66.6324C225.084 66.4775 225.198 66.3028 225.28 66.1081C225.362 65.9111 225.403 65.7059 225.403 65.4924C225.403 65.2109 225.335 64.9471 225.199 64.7008C225.066 64.4545 224.88 64.2551 224.643 64.1026C224.409 63.9502 224.142 63.874 223.841 63.874ZM231.403 69.053V68.673C231.403 68.4103 231.457 68.1699 231.565 67.9517C231.675 67.7313 231.835 67.5553 232.043 67.424C232.255 67.2903 232.51 67.2234 232.81 67.2234C233.115 67.2234 233.371 67.2903 233.577 67.424C233.784 67.5553 233.94 67.7313 234.045 67.9517C234.151 68.1699 234.204 68.4103 234.204 68.673V69.053C234.204 69.3157 234.15 69.5573 234.042 69.7778C233.936 69.9959 233.779 70.1718 233.57 70.3055C233.364 70.4369 233.111 70.5026 232.81 70.5026C232.506 70.5026 232.249 70.4369 232.04 70.3055C231.831 70.1718 231.673 69.9959 231.565 69.7778C231.457 69.5573 231.403 69.3157 231.403 69.053ZM232.121 68.673V69.053C232.121 69.2711 232.172 69.467 232.276 69.6406C232.379 69.8118 232.557 69.8974 232.81 69.8974C233.057 69.8974 233.23 69.8118 233.331 69.6406C233.434 69.467 233.486 69.2711 233.486 69.053V68.673C233.486 68.4549 233.437 68.2602 233.338 68.089C233.24 67.9154 233.064 67.8286 232.81 67.8286C232.564 67.8286 232.387 67.9154 232.279 68.089C232.174 68.2602 232.121 68.4549 232.121 68.673ZM227.814 64.9295V64.5495C227.814 64.2868 227.868 64.0464 227.976 63.8282C228.086 63.6077 228.246 63.4318 228.455 63.3005C228.666 63.1668 228.922 63.0999 229.222 63.0999C229.527 63.0999 229.782 63.1668 229.989 63.3005C230.195 63.4318 230.351 63.6077 230.457 63.8282C230.562 64.0464 230.615 64.2868 230.615 64.5495V64.9295C230.615 65.1922 230.561 65.4338 230.453 65.6543C230.348 65.8724 230.19 66.0483 229.982 66.182C229.775 66.3134 229.522 66.379 229.222 66.379C228.917 66.379 228.66 66.3134 228.451 66.182C228.242 66.0483 228.084 65.8724 227.976 65.6543C227.868 65.4338 227.814 65.1922 227.814 64.9295ZM228.532 64.5495V64.9295C228.532 65.1476 228.584 65.3435 228.687 65.517C228.79 65.6883 228.968 65.7739 229.222 65.7739C229.468 65.7739 229.642 65.6883 229.742 65.517C229.846 65.3435 229.897 65.1476 229.897 64.9295V64.5495C229.897 64.3313 229.848 64.1367 229.75 63.9654C229.651 63.7919 229.475 63.7051 229.222 63.7051C228.975 63.7051 228.798 63.7919 228.69 63.9654C228.585 64.1367 228.532 64.3313 228.532 64.5495ZM228.082 70.4041L233.036 63.1984H233.838L228.884 70.4041H228.082Z" fill="#E41414"/>
<path d="M47.8631 47.9012C47.7978 47.4507 47.3785 47.1386 46.9264 47.2041L39.5595 48.271C39.1074 48.3365 38.7939 48.7548 38.8591 49.2053C38.9243 49.6558 39.3437 49.9679 39.7958 49.9024L46.3441 48.954L47.2892 55.4795C47.3545 55.93 47.7739 56.2421 48.2259 56.1767C48.678 56.1112 48.9916 55.6929 48.9263 55.2424L47.8631 47.9012ZM38.7805 60.4192L47.7069 48.5127L46.3822 47.5268L37.4558 59.4333L38.7805 60.4192Z" fill="white"/>
</svg>
