<svg width="60" height="60" viewBox="0 0 60 60" fill="none" xmlns="http://www.w3.org/2000/svg">
<rect width="60" height="60" rx="5" fill="#A3BDFF"/>
<path d="M48.7948 31.3472L45.2189 34.9231C45.1082 35.0339 44.9768 35.1218 44.8321 35.1818C44.6874 35.2418 44.5323 35.2726 44.3756 35.2726C44.219 35.2726 44.0639 35.2418 43.9192 35.1818C43.7745 35.1218 43.643 35.0339 43.5323 34.9231L39.9564 31.3472C39.7328 31.1235 39.6071 30.8202 39.6071 30.5039C39.6071 30.1876 39.7328 29.8842 39.9564 29.6605C40.1801 29.4369 40.4834 29.3112 40.7997 29.3112C41.116 29.3112 41.4194 29.4369 41.643 29.6605L43.1837 31.2027V30.5039C43.185 27.7275 42.3051 25.0224 40.6706 22.7782C39.0361 20.534 36.7314 18.8666 34.0885 18.0161C31.4457 17.1657 28.601 17.1761 25.9645 18.0458C23.3279 18.9156 21.0355 20.5998 19.4174 22.8559C19.2329 23.1128 18.9539 23.2858 18.6417 23.3369C18.3296 23.3881 18.01 23.3131 17.7531 23.1286C17.4963 22.9441 17.3233 22.665 17.2721 22.3529C17.221 22.0408 17.2959 21.7212 17.4805 21.4643C19.3928 18.7981 22.1021 16.8077 25.2181 15.7799C28.3341 14.7521 31.696 14.7399 34.8193 15.7451C37.9427 16.7503 40.6664 18.7211 42.598 21.3734C44.5295 24.0257 45.5694 27.2227 45.5676 30.5039V31.2027L47.1082 29.6605C47.3319 29.4369 47.6352 29.3112 47.9515 29.3112C48.2678 29.3112 48.5712 29.4369 48.7948 29.6605C49.0185 29.8842 49.1441 30.1876 49.1441 30.5039C49.1441 30.8202 49.0185 31.1235 48.7948 31.3472ZM42.6592 39.5419C40.7463 42.2061 38.0374 44.1947 34.9224 45.2213C31.8074 46.248 28.4469 46.2597 25.3248 45.2549C22.2027 44.2501 19.4799 42.2805 17.5485 39.6297C15.617 36.979 14.5764 33.7837 14.5766 30.5039V29.8051L13.0359 31.3472C12.8123 31.5708 12.5089 31.6965 12.1926 31.6965C11.8763 31.6965 11.573 31.5708 11.3493 31.3472C11.1257 31.1235 11 30.8202 11 30.5039C11 30.1876 11.1257 29.8842 11.3493 29.6605L14.9252 26.0847C15.0359 25.9738 15.1674 25.8859 15.3121 25.8259C15.4568 25.7659 15.6119 25.7351 15.7685 25.7351C15.9252 25.7351 16.0803 25.7659 16.225 25.8259C16.3697 25.8859 16.5011 25.9738 16.6118 26.0847L20.1877 29.6605C20.4114 29.8842 20.537 30.1876 20.537 30.5039C20.537 30.8202 20.4114 31.1235 20.1877 31.3472C19.9641 31.5708 19.6607 31.6965 19.3444 31.6965C19.0281 31.6965 18.7247 31.5708 18.5011 31.3472L16.9605 29.8051V30.5039C16.9577 33.7135 18.1373 36.8117 20.2741 39.2067C21.6035 37.2803 23.4728 35.7899 25.6469 34.9231C24.4791 34.0032 23.6269 32.7423 23.2089 31.3157C22.7908 29.8891 22.8278 28.3677 23.3145 26.9631C23.8013 25.5584 24.7136 24.3403 25.9247 23.4783C27.1358 22.6162 28.5855 22.1529 30.0721 22.1529C31.5587 22.1529 33.0083 22.6162 34.2194 23.4783C35.4305 24.3403 36.3429 25.5584 36.8296 26.9631C37.3164 28.3677 37.3533 29.8891 36.9353 31.3157C36.5173 32.7423 35.6651 34.0032 34.4972 34.9231C36.6733 35.7901 38.5439 37.2822 39.873 39.2112C40.1744 38.8727 40.4583 38.5191 40.7237 38.1518C40.9083 37.8949 41.1873 37.7219 41.4994 37.6708C41.8115 37.6196 42.1312 37.6946 42.388 37.8791C42.6449 38.0637 42.8179 38.3427 42.869 38.6548C42.9202 38.9669 42.8452 39.2866 42.6607 39.5434L42.6592 39.5419ZM30.0721 34.0798C31.0151 34.0798 31.9369 33.8001 32.7209 33.2762C33.505 32.7523 34.1161 32.0077 34.477 31.1365C34.8379 30.2653 34.9323 29.3066 34.7483 28.3817C34.5643 27.4569 34.1102 26.6073 33.4434 25.9405C32.7767 25.2737 31.9271 24.8196 31.0022 24.6357C30.0774 24.4517 29.1187 24.5461 28.2475 24.907C27.3763 25.2678 26.6316 25.879 26.1077 26.663C25.5838 27.4471 25.3042 28.3689 25.3042 29.3119C25.3042 30.5764 25.8065 31.7891 26.7007 32.6833C27.5948 33.5774 28.8076 34.0798 30.0721 34.0798ZM30.0721 43.6155C32.9811 43.6117 35.8067 42.6427 38.1059 40.8605C37.2436 39.5119 36.0557 38.4021 34.6517 37.6334C33.2477 36.8646 31.6728 36.4617 30.0721 36.4617C28.4714 36.4617 26.8964 36.8646 25.4924 37.6334C24.0884 38.4021 22.9005 39.5119 22.0382 40.8605C24.334 42.6491 27.1618 43.6188 30.0721 43.6155Z" fill="#142D6F"/>
</svg>
