<svg width="60" height="60" viewBox="0 0 60 60" fill="none" xmlns="http://www.w3.org/2000/svg">
<rect width="60" height="60" rx="5" fill="#A3BDFF"/>
<path d="M39.264 31.1733L32.3731 28.6269L29.8347 21.7306C29.6844 21.3223 29.4124 20.9698 29.0555 20.7209C28.6986 20.4719 28.2739 20.3385 27.8388 20.3385C27.4036 20.3385 26.9789 20.4719 26.622 20.7209C26.2651 20.9698 25.9932 21.3223 25.8428 21.7306L23.2885 28.6269L16.3922 31.1653C15.9838 31.3156 15.6314 31.5876 15.3824 31.9445C15.1335 32.3014 15 32.7261 15 33.1612C15 33.5964 15.1335 34.0211 15.3824 34.378C15.6314 34.7349 15.9838 35.0068 16.3922 35.1572L23.2885 37.7115L25.8268 44.6078C25.9771 45.0162 26.2491 45.3686 26.606 45.6176C26.9629 45.8665 27.3876 46 27.8228 46C28.2579 46 28.6826 45.8665 29.0395 45.6176C29.3964 45.3686 29.6684 45.0162 29.8187 44.6078L32.3731 37.7115L39.2694 35.1732C39.6777 35.0229 40.0302 34.7509 40.2791 34.394C40.5281 34.0371 40.6615 33.6124 40.6615 33.1772C40.6615 32.7421 40.5281 32.3174 40.2791 31.9605C40.0302 31.6036 39.6777 31.3316 39.2694 31.1813L39.264 31.1733ZM31.1707 35.8706C31.0256 35.924 30.8939 36.0083 30.7846 36.1177C30.6752 36.227 30.5909 36.3587 30.5375 36.5038L27.8308 43.837L25.1294 36.5092C25.0761 36.3626 24.9912 36.2294 24.8809 36.1191C24.7706 36.0088 24.6374 35.9239 24.4908 35.8706L17.163 33.1692L24.4908 30.4679C24.6374 30.4145 24.7706 30.3297 24.8809 30.2194C24.9912 30.109 25.0761 29.9759 25.1294 29.8293L27.8308 22.5015L30.5321 29.8293C30.5856 29.9744 30.6699 30.1061 30.7792 30.2154C30.8885 30.3248 31.0203 30.4091 31.1654 30.4625L38.4985 33.1692L31.1707 35.8706ZM32.1059 19.2751C32.1059 18.9917 32.2185 18.7198 32.4189 18.5194C32.6194 18.3189 32.8912 18.2063 33.1747 18.2063H35.3122V16.0688C35.3122 15.7853 35.4248 15.5135 35.6253 15.313C35.8257 15.1126 36.0975 15 36.381 15C36.6645 15 36.9363 15.1126 37.1367 15.313C37.3372 15.5135 37.4498 15.7853 37.4498 16.0688V18.2063H39.5873C39.8708 18.2063 40.1426 18.3189 40.3431 18.5194C40.5435 18.7198 40.6561 18.9917 40.6561 19.2751C40.6561 19.5586 40.5435 19.8304 40.3431 20.0309C40.1426 20.2313 39.8708 20.3439 39.5873 20.3439H37.4498V22.4814C37.4498 22.7649 37.3372 23.0368 37.1367 23.2372C36.9363 23.4376 36.6645 23.5502 36.381 23.5502C36.0975 23.5502 35.8257 23.4376 35.6253 23.2372C35.4248 23.0368 35.3122 22.7649 35.3122 22.4814V20.3439H33.1747C32.8912 20.3439 32.6194 20.2313 32.4189 20.0309C32.2185 19.8304 32.1059 19.5586 32.1059 19.2751ZM46 25.6878C46 25.9712 45.8874 26.2431 45.687 26.4435C45.4865 26.644 45.2147 26.7566 44.9312 26.7566H43.8624V27.8253C43.8624 28.1088 43.7498 28.3806 43.5494 28.5811C43.349 28.7815 43.0771 28.8941 42.7937 28.8941C42.5102 28.8941 42.2384 28.7815 42.0379 28.5811C41.8375 28.3806 41.7249 28.1088 41.7249 27.8253V26.7566H40.6561C40.3727 26.7566 40.1008 26.644 39.9004 26.4435C39.6999 26.2431 39.5873 25.9712 39.5873 25.6878C39.5873 25.4043 39.6999 25.1325 39.9004 24.932C40.1008 24.7316 40.3727 24.619 40.6561 24.619H41.7249V23.5502C41.7249 23.2668 41.8375 22.9949 42.0379 22.7945C42.2384 22.5941 42.5102 22.4814 42.7937 22.4814C43.0771 22.4814 43.349 22.5941 43.5494 22.7945C43.7498 22.9949 43.8624 23.2668 43.8624 23.5502V24.619H44.9312C45.2147 24.619 45.4865 24.7316 45.687 24.932C45.8874 25.1325 46 25.4043 46 25.6878Z" fill="#142D6F"/>
</svg>
