<svg width="60" height="60" viewBox="0 0 60 60" fill="none" xmlns="http://www.w3.org/2000/svg">
<rect width="60" height="60" rx="5" fill="#A3BDFF"/>
<path d="M39.6923 23.7033V19.0769C39.6923 18.5261 39.4735 17.9978 39.084 17.6083C38.6945 17.2188 38.1662 17 37.6154 17H23.0769C22.5261 17 21.9978 17.2188 21.6083 17.6083C21.2188 17.9978 21 18.5261 21 19.0769V23.75C21.0007 24.0723 21.0761 24.3901 21.2202 24.6784C21.3644 24.9666 21.5733 25.2176 21.8308 25.4115L28.6158 30.5L21.8308 35.5885C21.5733 35.7824 21.3644 36.0334 21.2202 36.3216C21.0761 36.6099 21.0007 36.9277 21 37.25V41.9231C21 42.4739 21.2188 43.0022 21.6083 43.3917C21.9978 43.7812 22.5261 44 23.0769 44H37.6154C38.1662 44 38.6945 43.7812 39.084 43.3917C39.4735 43.0022 39.6923 42.4739 39.6923 41.9231V37.2967C39.6915 36.9759 39.6167 36.6595 39.4737 36.3722C39.3307 36.085 39.1235 35.8345 38.868 35.6404L32.0687 30.5L38.868 25.3596C39.1237 25.1657 39.3311 24.9153 39.4741 24.628C39.6171 24.3406 39.6918 24.0242 39.6923 23.7033ZM36.8664 36.7308H23.7688L30.3462 31.7981L36.8664 36.7308ZM23.0769 41.9231V38.8077H37.6154V41.9231H23.0769ZM37.6154 23.7033L30.3462 29.2019L23.0769 23.75V19.0769H37.6154V23.7033Z" fill="#142D6F"/>
</svg>
