<svg width="24" height="25" viewBox="0 0 24 25" fill="none" xmlns="http://www.w3.org/2000/svg">
<path d="M12 0.5C9.62663 0.5 7.30655 1.20379 5.33316 2.52236C3.35977 3.84094 1.8217 5.71508 0.913451 7.9078C0.00519941 10.1005 -0.232441 12.5133 0.230582 14.8411C0.693605 17.1689 1.83649 19.307 3.51472 20.9853C5.19295 22.6635 7.33115 23.8064 9.65892 24.2694C11.9867 24.7324 14.3995 24.4948 16.5922 23.5865C18.7849 22.6783 20.6591 21.1402 21.9776 19.1668C23.2962 17.1934 24 14.8734 24 12.5C23.9966 9.31843 22.7313 6.26814 20.4816 4.01843C18.2319 1.76872 15.1816 0.50336 12 0.5ZM12 22.6538C9.99176 22.6538 8.02862 22.0583 6.35883 20.9426C4.68904 19.8269 3.38759 18.2411 2.61907 16.3857C1.85055 14.5303 1.64947 12.4887 2.04126 10.5191C2.43305 8.54943 3.40011 6.74019 4.82015 5.32015C6.24019 3.90011 8.04943 2.93305 10.0191 2.54126C11.9887 2.14947 14.0303 2.35055 15.8857 3.11907C17.7411 3.88759 19.3269 5.18903 20.4426 6.85882C21.5583 8.52861 22.1538 10.4918 22.1538 12.5C22.1508 15.192 21.08 17.7729 19.1765 19.6765C17.2729 21.58 14.692 22.6508 12 22.6538ZM19.3846 12.5C19.3846 12.7448 19.2874 12.9796 19.1143 13.1527C18.9411 13.3258 18.7064 13.4231 18.4615 13.4231H12C11.7552 13.4231 11.5204 13.3258 11.3473 13.1527C11.1742 12.9796 11.0769 12.7448 11.0769 12.5V6.03846C11.0769 5.79365 11.1742 5.55886 11.3473 5.38575C11.5204 5.21264 11.7552 5.11538 12 5.11538C12.2448 5.11538 12.4796 5.21264 12.6527 5.38575C12.8258 5.55886 12.9231 5.79365 12.9231 6.03846V11.5769H18.4615C18.7064 11.5769 18.9411 11.6742 19.1143 11.8473C19.2874 12.0204 19.3846 12.2552 19.3846 12.5Z" fill="#142D6F"/>
</svg>
