<svg width="25" height="25" viewBox="0 0 25 25" fill="none" xmlns="http://www.w3.org/2000/svg">
<path d="M12.2148 0.5C9.84147 0.5 7.52139 1.20379 5.54801 2.52236C3.57462 3.84094 2.03655 5.71508 1.12829 7.9078C0.220043 10.1005 -0.0175968 12.5133 0.445426 14.8411C0.908448 17.1689 2.05134 19.307 3.72957 20.9853C5.4078 22.6635 7.54599 23.8064 9.87376 24.2694C12.2015 24.7324 14.6143 24.4948 16.807 23.5865C18.9998 22.6783 20.8739 21.1402 22.1925 19.1668C23.5111 17.1934 24.2148 14.8734 24.2148 12.5C24.2115 9.31843 22.9461 6.26814 20.6964 4.01843C18.4467 1.76872 15.3964 0.50336 12.2148 0.5ZM12.2148 22.6538C10.2066 22.6538 8.24346 22.0583 6.57367 20.9426C4.90388 19.8269 3.60244 18.2411 2.83392 16.3857C2.0654 14.5303 1.86432 12.4887 2.25611 10.5191C2.64789 8.54943 3.61495 6.74019 5.03499 5.32015C6.45504 3.90011 8.26428 2.93305 10.2339 2.54126C12.2036 2.14947 14.2452 2.35055 16.1006 3.11907C17.9559 3.88759 19.5417 5.18903 20.6575 6.85882C21.7732 8.52861 22.3687 10.4918 22.3687 12.5C22.3656 15.192 21.2949 17.7729 19.3913 19.6765C17.4878 21.58 14.9069 22.6508 12.2148 22.6538ZM16.8302 14.8077C16.8302 15.6645 16.4898 16.4863 15.884 17.0922C15.2781 17.6981 14.4563 18.0385 13.5995 18.0385H13.1379V18.9615C13.1379 19.2064 13.0407 19.4411 12.8676 19.6143C12.6945 19.7874 12.4597 19.8846 12.2148 19.8846C11.97 19.8846 11.7352 19.7874 11.5621 19.6143C11.389 19.4411 11.2918 19.2064 11.2918 18.9615V18.0385H9.44562C9.2008 18.0385 8.96601 17.9412 8.7929 17.7681C8.61979 17.595 8.52254 17.3602 8.52254 17.1154C8.52254 16.8706 8.61979 16.6358 8.7929 16.4627C8.96601 16.2896 9.2008 16.1923 9.44562 16.1923H13.5995C13.9667 16.1923 14.3189 16.0464 14.5785 15.7868C14.8382 15.5271 14.9841 15.1749 14.9841 14.8077C14.9841 14.4405 14.8382 14.0883 14.5785 13.8286C14.3189 13.569 13.9667 13.4231 13.5995 13.4231H10.8302C9.97338 13.4231 9.15162 13.0827 8.54573 12.4768C7.93985 11.8709 7.59946 11.0492 7.59946 10.1923C7.59946 9.33545 7.93985 8.51369 8.54573 7.90781C9.15162 7.30192 9.97338 6.96154 10.8302 6.96154H11.2918V6.03846C11.2918 5.79365 11.389 5.55886 11.5621 5.38575C11.7352 5.21264 11.97 5.11538 12.2148 5.11538C12.4597 5.11538 12.6945 5.21264 12.8676 5.38575C13.0407 5.55886 13.1379 5.79365 13.1379 6.03846V6.96154H14.9841C15.2289 6.96154 15.4637 7.05879 15.6368 7.2319C15.8099 7.40501 15.9072 7.6398 15.9072 7.88461C15.9072 8.12943 15.8099 8.36422 15.6368 8.53733C15.4637 8.71044 15.2289 8.80769 14.9841 8.80769H10.8302C10.463 8.80769 10.1108 8.95357 9.85116 9.21323C9.59149 9.4729 9.44562 9.82508 9.44562 10.1923C9.44562 10.5595 9.59149 10.9117 9.85116 11.1714C10.1108 11.431 10.463 11.5769 10.8302 11.5769H13.5995C14.4563 11.5769 15.2781 11.9173 15.884 12.5232C16.4898 13.1291 16.8302 13.9508 16.8302 14.8077Z" fill="#142D6F"/>
</svg>
