<svg width="60" height="60" viewBox="0 0 60 60" fill="none" xmlns="http://www.w3.org/2000/svg">
<rect width="60" height="60" rx="5" fill="#A3BDFF"/>
<path d="M22.8095 30.0382C22.8172 32.8708 22.1627 35.666 20.8982 38.2007C20.8378 38.3321 20.7517 38.45 20.6448 38.5475C20.538 38.645 20.4127 38.72 20.2764 38.7682C20.14 38.8163 19.9954 38.8366 19.851 38.8278C19.7067 38.819 19.5656 38.7812 19.4361 38.7169C19.3066 38.6525 19.1914 38.5627 19.0972 38.453C19.0031 38.3432 18.9319 38.2157 18.888 38.0779C18.8441 37.9401 18.8283 37.7949 18.8415 37.6509C18.8548 37.5069 18.8969 37.367 18.9652 37.2396C20.0802 35.0032 20.657 32.5371 20.6498 30.0382C20.6473 28.581 20.9737 27.142 21.6047 25.8285C22.2358 24.515 23.1551 23.3609 24.2943 22.4522C24.5179 22.2732 24.8034 22.1903 25.0881 22.2218C25.3727 22.2534 25.6332 22.3967 25.8122 22.6202C25.9912 22.8438 26.0741 23.1293 26.0425 23.414C26.011 23.6986 25.8677 23.9591 25.6442 24.1381C24.7579 24.8447 24.0427 25.7423 23.5519 26.7639C23.061 27.7855 22.8073 28.9048 22.8095 30.0382ZM30.3686 28.9584C30.0822 28.9584 29.8075 29.0721 29.605 29.2747C29.4025 29.4772 29.2887 29.7518 29.2887 30.0382C29.2885 34.2454 28.2202 38.3836 26.1841 42.0652C26.0452 42.3158 26.0115 42.6113 26.0905 42.8867C26.1695 43.1622 26.3546 43.3949 26.6052 43.5338C26.8558 43.6727 27.1513 43.7064 27.4268 43.6274C27.7022 43.5484 27.9349 43.3633 28.0738 43.1127C30.287 39.1103 31.4481 34.6117 31.4484 30.0382C31.4484 29.7518 31.3347 29.4772 31.1321 29.2747C30.9296 29.0721 30.655 28.9584 30.3686 28.9584ZM30.3686 24.6389C28.9366 24.6389 27.5632 25.2078 26.5507 26.2203C25.5381 27.2329 24.9692 28.6062 24.9692 30.0382C24.9692 30.3246 25.083 30.5993 25.2855 30.8018C25.488 31.0043 25.7627 31.1181 26.0491 31.1181C26.3355 31.1181 26.6102 31.0043 26.8127 30.8018C27.0152 30.5993 27.129 30.3246 27.129 30.0382C27.129 29.179 27.4703 28.355 28.0778 27.7475C28.6854 27.14 29.5094 26.7986 30.3686 26.7986C31.2278 26.7986 32.0518 27.14 32.6593 27.7475C33.2668 28.355 33.6082 29.179 33.6082 30.0382C33.6193 34.332 32.6736 38.5743 30.8397 42.4567C30.7791 42.5853 30.7445 42.7245 30.7378 42.8665C30.7311 43.0085 30.7524 43.1504 30.8005 43.2842C30.8487 43.4179 30.9227 43.5408 31.0183 43.646C31.114 43.7511 31.2294 43.8364 31.358 43.8969C31.4866 43.9575 31.6259 43.9921 31.7678 43.9988C31.9098 44.0055 32.0517 43.9842 32.1855 43.9361C32.3192 43.8879 32.4422 43.8139 32.5473 43.7183C32.6524 43.6226 32.7377 43.5072 32.7983 43.3786C34.7668 39.2076 35.7812 34.6504 35.7679 30.0382C35.7679 28.6062 35.199 27.2329 34.1865 26.2203C33.1739 25.2078 31.8005 24.6389 30.3686 24.6389ZM30.3686 16C26.6466 16.0039 23.0782 17.4842 20.4464 20.116C17.8145 22.7479 16.3343 26.3163 16.3303 30.0382C16.3323 31.3867 16.1041 32.7256 15.6554 33.9973C15.56 34.2674 15.5758 34.5643 15.6993 34.8228C15.8229 35.0813 16.044 35.2801 16.3141 35.3755C16.5842 35.4709 16.8812 35.4551 17.1396 35.3315C17.3981 35.208 17.5969 34.9869 17.6923 34.7167C18.2221 33.2139 18.4919 31.6317 18.4901 30.0382C18.4901 26.8879 19.7415 23.8665 21.9692 21.6389C24.1968 19.4112 27.2182 18.1597 30.3686 18.1597C33.5189 18.1597 36.5403 19.4112 38.7679 21.6389C40.9956 23.8665 42.2471 26.8879 42.2471 30.0382C42.2476 32.5055 42.0085 34.967 41.533 37.3881C41.5055 37.5272 41.5057 37.6704 41.5335 37.8095C41.5614 37.9486 41.6164 38.0808 41.6953 38.1986C41.7743 38.3165 41.8757 38.4176 41.9938 38.4962C42.1118 38.5748 42.2442 38.6294 42.3834 38.6569C42.4523 38.6702 42.5224 38.677 42.5926 38.6771C42.8425 38.6769 43.0846 38.59 43.2776 38.4312C43.4705 38.2724 43.6025 38.0517 43.6509 37.8065C44.1538 35.2477 44.4069 32.646 44.4068 30.0382C44.4025 26.3164 42.9221 22.7482 40.2904 20.1164C37.6586 17.4847 34.0904 16.0043 30.3686 16ZM25.8331 33.3008C25.5531 33.2451 25.2623 33.3025 25.0245 33.4606C24.7868 33.6187 24.6213 33.8646 24.5643 34.1444C24.1261 36.301 23.3416 38.3723 22.2412 40.278C22.098 40.5261 22.0593 40.8209 22.1334 41.0976C22.2076 41.3743 22.3886 41.6102 22.6367 41.7534C22.8848 41.8966 23.1796 41.9354 23.4563 41.8612C23.733 41.787 23.9689 41.606 24.1121 41.3579C25.3281 39.2505 26.1943 36.9598 26.6768 34.575C26.7052 34.4359 26.7058 34.2926 26.6788 34.1533C26.6517 34.014 26.5975 33.8813 26.5191 33.763C26.4408 33.6446 26.3398 33.5429 26.2221 33.4636C26.1044 33.3843 25.9722 33.329 25.8331 33.3008ZM30.3686 20.3195C29.9624 20.3195 29.5567 20.3448 29.1537 20.395C28.8749 20.4369 28.6234 20.5862 28.4532 20.811C28.283 21.0357 28.2074 21.3182 28.2426 21.598C28.2779 21.8777 28.4212 22.1326 28.6419 22.3081C28.8626 22.4836 29.1432 22.5659 29.4237 22.5372C30.4875 22.4049 31.5673 22.5001 32.5916 22.8165C33.6159 23.1328 34.5613 23.6631 35.3652 24.3722C36.1692 25.0814 36.8133 25.9532 37.2551 26.93C37.6968 27.9068 37.9261 28.9662 37.9276 30.0382C37.9273 31.4371 37.8407 32.8345 37.6684 34.2227C37.6495 34.3639 37.6587 34.5074 37.6954 34.645C37.7322 34.7826 37.7958 34.9116 37.8826 35.0245C37.9695 35.1374 38.0778 35.2321 38.2013 35.303C38.3249 35.3738 38.4612 35.4196 38.6025 35.4375C38.6473 35.4429 38.6924 35.4456 38.7375 35.4456C39.0001 35.4451 39.2535 35.3488 39.4503 35.1749C39.6471 35.001 39.7737 34.7613 39.8066 34.5008C39.9887 33.023 40.0788 31.5353 40.0765 30.0463C40.0758 27.4701 39.0534 24.9993 37.2335 23.1759C35.4136 21.3524 32.9448 20.3252 30.3686 20.3195ZM38.1881 37.631C38.0507 37.5955 37.9077 37.5874 37.7672 37.6072C37.6267 37.627 37.4915 37.6743 37.3692 37.7463C37.247 37.8184 37.1402 37.9139 37.0549 38.0273C36.9696 38.1407 36.9074 38.2698 36.872 38.4072C36.675 39.1752 36.4468 39.946 36.1971 40.7019C36.1057 40.9727 36.1255 41.2687 36.252 41.5251C36.3785 41.7814 36.6015 41.9771 36.872 42.0693C36.9829 42.107 37.0992 42.1261 37.2162 42.126C37.4425 42.1258 37.663 42.0546 37.8466 41.9223C38.0302 41.7901 38.1676 41.6035 38.2394 41.389C38.5094 40.5899 38.751 39.7692 38.9616 38.9525C38.9978 38.8151 39.0065 38.672 38.9873 38.5312C38.968 38.3904 38.9212 38.2548 38.8495 38.1322C38.7778 38.0096 38.6825 37.9023 38.5693 37.8165C38.456 37.7308 38.327 37.6682 38.1895 37.6324L38.1881 37.631Z" fill="#142D6F"/>
</svg>
