<svg width="60" height="60" viewBox="0 0 60 60" fill="none" xmlns="http://www.w3.org/2000/svg">
<rect width="60" height="60" rx="5" fill="#A3BDFF"/>
<path d="M47.2249 32.1017C47.1009 32.1947 46.9599 32.2623 46.8098 32.3008C46.6597 32.3392 46.5035 32.3477 46.3501 32.3258C46.1967 32.3039 46.0491 32.252 45.9158 32.1731C45.7825 32.0941 45.666 31.9897 45.573 31.8657C44.8618 30.9098 43.9361 30.1342 42.8705 29.6013C41.8048 29.0685 40.6289 28.7933 39.4374 28.7979C39.2054 28.7979 38.9785 28.7295 38.7852 28.6012C38.5919 28.4729 38.4406 28.2905 38.3504 28.0767C38.2892 27.9315 38.2576 27.7756 38.2576 27.618C38.2576 27.4604 38.2892 27.3045 38.3504 27.1593C38.4406 26.9455 38.5919 26.7631 38.7852 26.6348C38.9785 26.5065 39.2054 26.4381 39.4374 26.4381C40.0995 26.438 40.7482 26.2523 41.31 25.902C41.8718 25.5517 42.3241 25.0509 42.6155 24.4565C42.9069 23.862 43.0258 23.1978 42.9586 22.5391C42.8914 21.8805 42.6409 21.2539 42.2354 20.7306C41.83 20.2072 41.2859 19.808 40.665 19.5784C40.0441 19.3487 39.3712 19.2978 38.7227 19.4314C38.0743 19.565 37.4764 19.8778 36.9968 20.3342C36.5172 20.7906 36.1753 21.3724 36.0098 22.0134C35.971 22.1635 35.9031 22.3045 35.8099 22.4284C35.7166 22.5522 35.5999 22.6565 35.4664 22.7352C35.3329 22.814 35.1851 22.8657 35.0316 22.8873C34.8781 22.909 34.7218 22.9002 34.5717 22.8615C34.4216 22.8227 34.2806 22.7548 34.1568 22.6616C34.0329 22.5683 33.9286 22.4516 33.8499 22.3181C33.7711 22.1845 33.7194 22.0368 33.6978 21.8833C33.6761 21.7298 33.6849 21.5735 33.7237 21.4234C33.9534 20.5345 34.3874 19.7115 34.9912 19.0199C35.595 18.3282 36.3518 17.787 37.2016 17.4394C38.0513 17.0917 38.9704 16.9471 39.8859 17.0172C40.8013 17.0873 41.6877 17.37 42.4747 17.843C43.2616 18.3159 43.9273 18.966 44.4187 19.7415C44.9102 20.517 45.2139 21.3964 45.3057 22.31C45.3974 23.2235 45.2747 24.1458 44.9473 25.0035C44.6199 25.8613 44.0968 26.6307 43.4197 27.2508C45.0241 27.9454 46.4188 29.0478 47.4653 30.4483C47.5583 30.5726 47.6258 30.714 47.664 30.8644C47.7023 31.0148 47.7105 31.1713 47.6881 31.3249C47.6658 31.4785 47.6134 31.6261 47.5339 31.7594C47.4544 31.8927 47.3494 32.009 47.2249 32.1017ZM39.2781 41.1871C39.3635 41.3214 39.4208 41.4716 39.4467 41.6286C39.4725 41.7856 39.4663 41.9462 39.4284 42.1008C39.3906 42.2554 39.3218 42.4007 39.2264 42.528C39.1309 42.6553 39.0106 42.762 38.8729 42.8416C38.7351 42.9213 38.5826 42.9722 38.4247 42.9914C38.2667 43.0106 38.1065 42.9976 37.9536 42.9533C37.8008 42.9089 37.6585 42.8341 37.5353 42.7334C37.4122 42.6326 37.3106 42.508 37.2369 42.367C36.4936 41.1084 35.435 40.0654 34.1656 39.3408C32.8962 38.6162 31.4597 38.2351 29.9981 38.2351C28.5364 38.2351 27.1 38.6162 25.8306 39.3408C24.5611 40.0654 23.5025 41.1084 22.7593 42.367C22.6855 42.508 22.584 42.6326 22.4608 42.7334C22.3376 42.8341 22.1953 42.9089 22.0425 42.9533C21.8897 42.9976 21.7295 43.0106 21.5715 42.9914C21.4135 42.9722 21.261 42.9213 21.1233 42.8416C20.9855 42.762 20.8653 42.6553 20.7698 42.528C20.6743 42.4007 20.6056 42.2554 20.5677 42.1008C20.5299 41.9462 20.5237 41.7856 20.5495 41.6286C20.5753 41.4716 20.6326 41.3214 20.718 41.1871C21.8619 39.2216 23.6061 37.6749 25.6943 36.7742C24.5193 35.8745 23.6557 34.6293 23.225 33.2135C22.7943 31.7977 22.8181 30.2825 23.2931 28.881C23.768 27.4794 24.6702 26.2619 25.8729 25.3996C27.0756 24.5373 28.5182 24.0735 29.9981 24.0735C31.4779 24.0735 32.9206 24.5373 34.1233 25.3996C35.3259 26.2619 36.2281 27.4794 36.7031 28.881C37.178 30.2825 37.2018 31.7977 36.7711 33.2135C36.3404 34.6293 35.4768 35.8745 34.3018 36.7742C36.39 37.6749 38.1342 39.2216 39.2781 41.1871ZM29.9981 35.8774C30.9315 35.8774 31.844 35.6006 32.6202 35.082C33.3963 34.5634 34.0013 33.8263 34.3585 32.9639C34.7157 32.1015 34.8092 31.1525 34.6271 30.237C34.445 29.3215 33.9954 28.4805 33.3354 27.8204C32.6753 27.1604 31.8344 26.7109 30.9188 26.5288C30.0033 26.3467 29.0543 26.4401 28.1919 26.7973C27.3295 27.1546 26.5924 27.7595 26.0738 28.5357C25.5552 29.3118 25.2784 30.2243 25.2784 31.1578C25.2784 32.4095 25.7756 33.61 26.6608 34.4951C27.5459 35.3802 28.7463 35.8774 29.9981 35.8774ZM21.7386 27.618C21.7386 27.3051 21.6143 27.005 21.393 26.7837C21.1718 26.5624 20.8716 26.4381 20.5587 26.4381C19.8967 26.438 19.2479 26.2523 18.6861 25.902C18.1244 25.5517 17.6721 25.0509 17.3806 24.4565C17.0892 23.862 16.9704 23.1978 17.0375 22.5391C17.1047 21.8805 17.3553 21.2539 17.7607 20.7306C18.1661 20.2072 18.7102 19.808 19.3312 19.5784C19.9521 19.3487 20.625 19.2978 21.2734 19.4314C21.9218 19.565 22.5198 19.8778 22.9993 20.3342C23.4789 20.7906 23.8209 21.3724 23.9864 22.0134C24.0646 22.3165 24.2601 22.5762 24.5298 22.7352C24.7994 22.8943 25.1213 22.9397 25.4244 22.8615C25.7276 22.7832 25.9872 22.5878 26.1463 22.3181C26.3053 22.0484 26.3507 21.7266 26.2725 21.4234C26.0428 20.5345 25.6087 19.7115 25.005 19.0199C24.4012 18.3282 23.6443 17.787 22.7946 17.4394C21.9449 17.0917 21.0257 16.9471 20.1103 17.0172C19.1949 17.0873 18.3084 17.37 17.5215 17.843C16.7346 18.3159 16.0689 18.966 15.5774 19.7415C15.0859 20.517 14.7822 21.3964 14.6905 22.31C14.5987 23.2235 14.7214 24.1458 15.0488 25.0035C15.3763 25.8613 15.8994 26.6307 16.5765 27.2508C14.9737 27.9461 13.5805 29.0484 12.5353 30.4483C12.3473 30.6987 12.2665 31.0134 12.3106 31.3234C12.3547 31.6333 12.5202 31.913 12.7705 32.101C13.0209 32.2889 13.3356 32.3697 13.6455 32.3256C13.9555 32.2815 14.2352 32.1161 14.4231 31.8657C15.1343 30.9098 16.06 30.1342 17.1257 29.6013C18.1914 29.0685 19.3673 28.7933 20.5587 28.7979C20.8716 28.7979 21.1718 28.6736 21.393 28.4523C21.6143 28.2311 21.7386 27.9309 21.7386 27.618Z" fill="#142D6F"/>
</svg>
