<svg width="60" height="60" viewBox="0 0 60 60" fill="none" xmlns="http://www.w3.org/2000/svg">
<rect width="60" height="60" rx="5" fill="#A3BDFF"/>
<path d="M33.0004 43.0001C33.0004 43.2653 32.8951 43.5196 32.7076 43.7071C32.52 43.8946 32.2657 44 32.0005 44H28.0007C27.7355 44 27.4812 43.8946 27.2936 43.7071C27.1061 43.5196 27.0008 43.2653 27.0008 43.0001C27.0008 42.7349 27.1061 42.4805 27.2936 42.293C27.4812 42.1055 27.7355 42.0001 28.0007 42.0001H32.0005C32.2657 42.0001 32.52 42.1055 32.7076 42.293C32.8951 42.4805 33.0004 42.7349 33.0004 43.0001ZM30.0006 29.0008C30.2973 29.0008 30.5872 28.9129 30.8339 28.7481C31.0806 28.5832 31.2728 28.349 31.3863 28.0749C31.4999 27.8008 31.5296 27.4993 31.4717 27.2083C31.4138 26.9173 31.271 26.6501 31.0612 26.4403C30.8514 26.2306 30.5842 26.0877 30.2932 26.0298C30.0023 25.9719 29.7007 26.0017 29.4266 26.1152C29.1525 26.2287 28.9183 26.4209 28.7535 26.6676C28.5887 26.9143 28.5007 27.2043 28.5007 27.5009C28.5007 27.8987 28.6587 28.2802 28.94 28.5615C29.2213 28.8428 29.6028 29.0008 30.0006 29.0008ZM41.9524 34.4793L40.4075 41.4326C40.3342 41.7628 40.1784 42.0691 39.9546 42.3226C39.7308 42.5762 39.4463 42.7689 39.1277 42.8827C38.8092 42.9964 38.467 43.0275 38.1332 42.9731C37.7994 42.9186 37.4848 42.7804 37.219 42.5713L33.8141 40.0002H26.1896L22.7823 42.5713C22.5164 42.7804 22.2018 42.9186 21.868 42.9731C21.5342 43.0275 21.192 42.9964 20.8735 42.8827C20.5549 42.7689 20.2705 42.5762 20.0466 42.3226C19.8228 42.0691 19.667 41.7628 19.5937 41.4326L18.0488 34.4793C17.9832 34.1809 17.9865 33.8715 18.0584 33.5746C18.1304 33.2776 18.269 33.001 18.4637 32.7656L22.0335 28.4834C22.1534 26.9096 22.5147 25.3637 23.1047 23.8999C24.7171 19.8576 27.6045 17.3215 28.7757 16.419C29.1262 16.1474 29.5571 16 30.0006 16C30.4441 16 30.875 16.1474 31.2255 16.419C32.393 17.3215 35.2841 19.8576 36.8965 23.8999C37.4866 25.3637 37.8478 26.9096 37.9677 28.4834L41.5375 32.7656C41.7322 33.001 41.8709 33.2776 41.9428 33.5746C42.0147 33.8715 42.018 34.1809 41.9524 34.4793ZM26.4296 38.0003H33.5717C36.2115 33.3081 36.7052 28.8158 35.0391 24.6411C33.5692 20.9563 30.8118 18.6264 30.0006 18.0014C29.1869 18.6264 26.4295 20.9563 24.9596 24.6411C23.296 28.8158 23.7897 33.3081 26.4296 38.0003ZM24.5547 38.7315C23.2089 36.2858 22.3923 33.8822 22.1048 31.5207L20.0012 34.0456L21.5461 41.0002L21.5686 40.9839L24.5547 38.7315ZM40 34.0456L37.8964 31.5207C37.6114 33.8772 36.7965 36.2808 35.4515 38.7315L38.4326 40.9814L38.4551 40.9977L40 34.0456Z" fill="#142D6F"/>
</svg>
