<svg width="60" height="60" viewBox="0 0 60 60" fill="none" xmlns="http://www.w3.org/2000/svg">
<rect width="60" height="60" rx="5" fill="#A3BDFF"/>
<path d="M36.0002 43.0001C36.0002 43.2653 35.8948 43.5196 35.7073 43.7071C35.5198 43.8947 35.2655 44 35.0003 44H25.0014C24.7362 44 24.4819 43.8947 24.2944 43.7071C24.1069 43.5196 24.0015 43.2653 24.0015 43.0001C24.0015 42.7349 24.1069 42.4806 24.2944 42.2931C24.4819 42.1056 24.7362 42.0002 25.0014 42.0002H35.0003C35.2655 42.0002 35.5198 42.1056 35.7073 42.2931C35.8948 42.4806 36.0002 42.7349 36.0002 43.0001ZM40.9996 27.0019C41.0039 28.6688 40.6274 30.3146 39.8987 31.8138C39.17 33.3129 38.1085 34.6258 36.7951 35.6522C36.5495 35.8404 36.3502 36.0823 36.2124 36.3594C36.0747 36.6365 36.0021 36.9414 36.0002 37.2508V38.0007C36.0002 38.5311 35.7895 39.0397 35.4145 39.4147C35.0394 39.7898 34.5308 40.0005 34.0004 40.0005H26.0013C25.4709 40.0005 24.9623 39.7898 24.5873 39.4147C24.2122 39.0397 24.0015 38.5311 24.0015 38.0007V37.2508C24.0013 36.945 23.931 36.6434 23.7961 36.3691C23.6611 36.0948 23.465 35.8551 23.2229 35.6684C21.913 34.6483 20.8522 33.3435 20.121 31.8528C19.3897 30.3622 19.0071 28.7248 19.0021 27.0644C18.9696 21.1064 23.7841 16.1469 29.7359 16.0032C31.2024 15.9679 32.6612 16.2262 34.0263 16.7631C35.3915 17.3 36.6355 18.1046 37.685 19.1294C38.7346 20.1543 39.5685 21.3788 40.1378 22.7308C40.707 24.0828 41 25.535 40.9996 27.0019ZM38.9998 27.0019C39.0002 25.8017 38.7604 24.6134 38.2946 23.5072C37.8289 22.401 37.1465 21.3991 36.2877 20.5606C35.4289 19.722 34.411 19.0638 33.294 18.6245C32.1769 18.1853 30.9833 17.974 29.7834 18.003C24.9089 18.118 20.9756 22.1762 21.0019 27.0507C21.0064 28.4088 21.3197 29.7481 21.9182 30.9672C22.5167 32.1863 23.3847 33.2533 24.4565 34.0874C24.9382 34.4619 25.3279 34.9417 25.5957 35.49C25.8634 36.0383 26.0022 36.6406 26.0013 37.2508V38.0007H29.001V32.4151L25.2939 28.7092C25.1063 28.5216 25.0009 28.2672 25.0009 28.0018C25.0009 27.7365 25.1063 27.482 25.2939 27.2944C25.4815 27.1068 25.736 27.0014 26.0013 27.0014C26.2667 27.0014 26.5211 27.1068 26.7087 27.2944L30.0009 30.5878L33.293 27.2944C33.3859 27.2015 33.4962 27.1278 33.6176 27.0775C33.7389 27.0273 33.869 27.0014 34.0004 27.0014C34.1318 27.0014 34.2619 27.0273 34.3833 27.0775C34.5046 27.1278 34.6149 27.2015 34.7078 27.2944C34.8007 27.3873 34.8744 27.4976 34.9247 27.619C34.975 27.7404 35.0008 27.8704 35.0008 28.0018C35.0008 28.1332 34.975 28.2633 34.9247 28.3847C34.8744 28.5061 34.8007 28.6163 34.7078 28.7092L31.0007 32.4151V38.0007H34.0004V37.2508C34.0015 36.6388 34.1425 36.0352 34.4126 35.486C34.6828 34.9369 35.0749 34.4568 35.559 34.0824C36.634 33.2423 37.5028 32.1676 38.0991 30.9405C38.6955 29.7134 39.0035 28.3663 38.9998 27.0019Z" fill="#142D6F"/>
</svg>
