<svg width="60" height="60" viewBox="0 0 60 60" fill="none" xmlns="http://www.w3.org/2000/svg">
<rect width="60" height="60" rx="5" fill="#A3BDFF"/>
<path d="M45.5875 32.4107C45.2178 32.1258 44.794 31.9191 44.342 31.8033C43.8899 31.6874 43.4189 31.6647 42.9578 31.7367C45.6115 29.0576 46.9539 26.394 46.9539 23.7827C46.9539 20.0424 43.9455 17.0001 40.2476 17.0001C39.2664 16.994 38.2958 17.2027 37.4038 17.6115C36.5118 18.0204 35.7202 18.6196 35.0844 19.367C34.4486 18.6196 33.6569 18.0204 32.765 17.6115C31.873 17.2027 30.9023 16.994 29.9211 17.0001C26.2232 17.0001 23.2149 20.0424 23.2149 23.7827C23.2149 25.337 23.6727 26.8476 24.6364 28.4457C23.8471 28.6457 23.1268 29.0559 22.5522 29.6327L19.3559 32.8261H15.3019C14.7023 32.8261 14.1272 33.0643 13.7032 33.4883C13.2792 33.9123 13.041 34.4874 13.041 35.087V40.7391C13.041 41.3388 13.2792 41.9138 13.7032 42.3378C14.1272 42.7618 14.7023 43 15.3019 43H29.9975C30.0899 43 30.182 42.9887 30.2716 42.9661L39.315 40.7052C39.3727 40.6915 39.4289 40.6726 39.4832 40.6487L44.9756 38.3115L45.0378 38.2833C45.5657 38.0195 46.0177 37.6257 46.3513 37.139C46.6849 36.6522 46.8891 36.0885 46.9447 35.5011C47.0002 34.9136 46.9053 34.3216 46.6688 33.781C46.4324 33.2403 46.0622 32.7687 45.5931 32.4107H45.5875ZM29.9211 19.261C30.7967 19.2482 31.6561 19.4968 32.3896 19.975C33.1231 20.4533 33.6973 21.1394 34.0387 21.9458C34.1239 22.1531 34.2688 22.3304 34.455 22.4552C34.6412 22.58 34.8602 22.6467 35.0844 22.6467C35.3085 22.6467 35.5276 22.58 35.7138 22.4552C35.9 22.3304 36.0449 22.1531 36.13 21.9458C36.4715 21.1394 37.0456 20.4533 37.7791 19.975C38.5126 19.4968 39.3721 19.2482 40.2476 19.261C42.6568 19.261 44.693 21.3311 44.693 23.7827C44.693 26.5395 42.4618 29.6581 38.2411 32.812L36.674 33.1723C36.8116 32.5913 36.8158 31.9866 36.6865 31.4037C36.5571 30.8208 36.2975 30.2747 35.927 29.8064C35.5566 29.3381 35.085 28.9597 34.5475 28.6996C34.01 28.4394 33.4206 28.3044 32.8235 28.3044H27.2675C26.048 26.6596 25.4757 25.2127 25.4757 23.7827C25.4757 21.3311 27.5119 19.261 29.9211 19.261ZM15.3019 35.087H18.6932V40.7391H15.3019V35.087ZM44.0473 36.2471L38.6777 38.5334L29.8561 40.7391H20.954V34.4243L24.1517 31.228C24.3609 31.0171 24.6099 30.85 24.8843 30.7362C25.1586 30.6224 25.4529 30.5643 25.7499 30.5653H32.8235C33.2732 30.5653 33.7045 30.7439 34.0225 31.0619C34.3405 31.3799 34.5192 31.8112 34.5192 32.2609C34.5192 32.7106 34.3405 33.1419 34.0225 33.4599C33.7045 33.7779 33.2732 33.9566 32.8235 33.9566H28.867C28.5672 33.9566 28.2797 34.0757 28.0677 34.2877C27.8557 34.4997 27.7366 34.7872 27.7366 35.087C27.7366 35.3868 27.8557 35.6743 28.0677 35.8863C28.2797 36.0983 28.5672 36.2174 28.867 36.2174H33.3887C33.4738 36.2172 33.5586 36.2077 33.6417 36.1892L43.109 34.0117L43.1528 34.0004C43.4418 33.9201 43.7503 33.9496 44.0189 34.0831C44.2875 34.2167 44.4972 34.4448 44.6076 34.7237C44.7181 35.0025 44.7216 35.3124 44.6174 35.5936C44.5131 35.8748 44.3086 36.1076 44.043 36.2471H44.0473Z" fill="#142D6F"/>
</svg>
