<svg width="60" height="60" viewBox="0 0 60 60" fill="none" xmlns="http://www.w3.org/2000/svg">
<rect width="60" height="60" rx="5" fill="#A3BDFF"/>
<path d="M46.8069 30C46.8054 28.5158 46.3837 27.0624 45.5905 25.808C44.7973 24.5535 43.6651 23.5493 42.325 22.9116V22.7169C42.3237 21.2732 41.8577 19.8682 40.9959 18.7099C40.1341 17.5516 38.9224 16.7015 37.5399 16.2853C36.1575 15.8692 34.6778 15.9091 33.3198 16.3992C31.9619 16.8893 30.7977 17.8036 29.9997 19.0067C29.2016 17.8036 28.0375 16.8893 26.6795 16.3992C25.3215 15.9091 23.8419 15.8692 22.4594 16.2853C21.077 16.7015 19.8652 17.5516 19.0035 18.7099C18.1417 19.8682 17.6757 21.2732 17.6744 22.7169V22.9116C16.3331 23.5475 15.1998 24.5511 14.4062 25.8056C13.6127 27.0602 13.1914 28.5141 13.1914 29.9986C13.1914 31.483 13.6127 32.937 14.4062 34.1915C15.1998 35.4461 16.3331 36.4496 17.6744 37.0856V37.2831C17.6757 38.7268 18.1417 40.1318 19.0035 41.2901C19.8652 42.4484 21.077 43.2985 22.4594 43.7147C23.8419 44.1308 25.3215 44.0909 26.6795 43.6008C28.0375 43.1107 29.2016 42.1964 29.9997 40.9933C30.7977 42.1964 31.9619 43.1107 33.3198 43.6008C34.6778 44.0909 36.1575 44.1308 37.5399 43.7147C38.9224 43.2985 40.1341 42.4484 40.9959 41.2901C41.8577 40.1318 42.3237 38.7268 42.325 37.2831V37.0856C43.6649 36.4484 44.797 35.4447 45.5902 34.1907C46.3834 32.9367 46.8052 31.4838 46.8069 30ZM24.3973 41.7651C23.2921 41.7649 22.226 41.3564 21.4037 40.6181C20.5813 39.8798 20.0608 38.8637 19.942 37.7649C20.3043 37.8166 20.6698 37.8428 21.0358 37.8434H22.1563C22.4535 37.8434 22.7385 37.7253 22.9486 37.5152C23.1587 37.3051 23.2768 37.0201 23.2768 36.7229C23.2768 36.4257 23.1587 36.1407 22.9486 35.9306C22.7385 35.7205 22.4535 35.6024 22.1563 35.6024H21.0358C19.713 35.604 18.4324 35.1374 17.4206 34.2853C16.4088 33.4333 15.7311 32.2507 15.5075 30.9469C15.2839 29.6432 15.5288 28.3024 16.199 27.1619C16.8691 26.0214 17.9211 25.1548 19.1688 24.7155C19.3871 24.6382 19.5761 24.4952 19.7098 24.3061C19.8435 24.117 19.9153 23.8911 19.9153 23.6595V22.7169C19.9153 21.5282 20.3875 20.3882 21.2281 19.5477C22.0686 18.7071 23.2086 18.2349 24.3973 18.2349C25.586 18.2349 26.7259 18.7071 27.5665 19.5477C28.407 20.3882 28.8792 21.5282 28.8792 22.7169V32.2774C27.6488 31.1707 26.0521 30.559 24.3973 30.5602C24.1001 30.5602 23.8151 30.6783 23.605 30.8884C23.3948 31.0986 23.2768 31.3836 23.2768 31.6807C23.2768 31.9779 23.3948 32.2629 23.605 32.473C23.8151 32.6832 24.1001 32.8012 24.3973 32.8012C25.586 32.8012 26.7259 33.2734 27.5665 34.1139C28.407 34.9545 28.8792 36.0944 28.8792 37.2831C28.8792 38.4718 28.407 39.6118 27.5665 40.4523C26.7259 41.2929 25.586 41.7651 24.3973 41.7651ZM38.9635 35.6024H37.843C37.5459 35.6024 37.2609 35.7205 37.0507 35.9306C36.8406 36.1407 36.7226 36.4257 36.7226 36.7229C36.7226 37.0201 36.8406 37.3051 37.0507 37.5152C37.2609 37.7253 37.5459 37.8434 37.843 37.8434H38.9635C39.3295 37.8428 39.6951 37.8166 40.0574 37.7649C39.9643 38.6258 39.6238 39.4413 39.0771 40.1129C38.5304 40.7844 37.8009 41.2831 36.9767 41.5488C36.1526 41.8145 35.2691 41.8358 34.4331 41.6101C33.5971 41.3844 32.8444 40.9213 32.266 40.2769C31.6876 39.6325 31.3083 38.8343 31.1739 37.9789C31.0394 37.1235 31.1557 36.2474 31.5086 35.4567C31.8614 34.6659 32.4358 33.9943 33.1623 33.5231C33.8887 33.0518 34.7362 32.8011 35.6021 32.8012C35.8993 32.8012 36.1843 32.6832 36.3944 32.473C36.6045 32.2629 36.7226 31.9779 36.7226 31.6807C36.7226 31.3836 36.6045 31.0986 36.3944 30.8884C36.1843 30.6783 35.8993 30.5602 35.6021 30.5602C33.9472 30.559 32.3506 31.1707 31.1202 32.2774V22.7169C31.1202 21.5282 31.5924 20.3882 32.4329 19.5477C33.2734 18.7071 34.4134 18.2349 35.6021 18.2349C36.7908 18.2349 37.9308 18.7071 38.7713 19.5477C39.6118 20.3882 40.084 21.5282 40.084 22.7169V23.6595C40.084 23.8911 40.1558 24.117 40.2895 24.3061C40.4232 24.4952 40.6122 24.6382 40.8305 24.7155C42.0783 25.1548 43.1303 26.0214 43.8004 27.1619C44.4705 28.3024 44.7155 29.6432 44.4919 30.9469C44.2683 32.2507 43.5906 33.4333 42.5788 34.2853C41.567 35.1374 40.2863 35.604 38.9635 35.6024ZM41.2045 28.3193C41.2045 28.6164 41.0864 28.9014 40.8763 29.1116C40.6662 29.3217 40.3812 29.4398 40.084 29.4398H39.5238C38.1865 29.4398 36.904 28.9085 35.9584 27.9629C35.0128 27.0174 34.4816 25.7349 34.4816 24.3976V23.8374C34.4816 23.5402 34.5997 23.2552 34.8098 23.0451C35.0199 22.8349 35.3049 22.7169 35.6021 22.7169C35.8993 22.7169 36.1843 22.8349 36.3944 23.0451C36.6045 23.2552 36.7226 23.5402 36.7226 23.8374V24.3976C36.7226 25.1405 37.0177 25.853 37.543 26.3783C38.0683 26.9037 38.7808 27.1988 39.5238 27.1988H40.084C40.3812 27.1988 40.6662 27.3168 40.8763 27.527C41.0864 27.7371 41.2045 28.0221 41.2045 28.3193ZM20.4756 29.4398H19.9153C19.6182 29.4398 19.3332 29.3217 19.123 29.1116C18.9129 28.9014 18.7949 28.6164 18.7949 28.3193C18.7949 28.0221 18.9129 27.7371 19.123 27.527C19.3332 27.3168 19.6182 27.1988 19.9153 27.1988H20.4756C21.2185 27.1988 21.931 26.9037 22.4563 26.3783C22.9817 25.853 23.2768 25.1405 23.2768 24.3976V23.8374C23.2768 23.5402 23.3948 23.2552 23.605 23.0451C23.8151 22.8349 24.1001 22.7169 24.3973 22.7169C24.6944 22.7169 24.9794 22.8349 25.1896 23.0451C25.3997 23.2552 25.5178 23.5402 25.5178 23.8374V24.3976C25.5178 25.7349 24.9865 27.0174 24.0409 27.9629C23.0953 28.9085 21.8129 29.4398 20.4756 29.4398Z" fill="#142D6F"/>
</svg>
