<svg width="22" height="27" viewBox="0 0 22 27" fill="none" xmlns="http://www.w3.org/2000/svg">
<path d="M10.6072 5.78577C9.65365 5.78577 8.72147 6.06855 7.92858 6.59834C7.13569 7.12813 6.51771 7.88114 6.15278 8.76215C5.78786 9.64316 5.69238 10.6126 5.87841 11.5479C6.06445 12.4831 6.52365 13.3423 7.19795 14.0165C7.87224 14.6908 8.73135 15.15 9.66662 15.3361C10.6019 15.5221 11.5713 15.4266 12.4523 15.0617C13.3334 14.6968 14.0864 14.0788 14.6162 13.2859C15.1459 12.493 15.4287 11.5608 15.4287 10.6072C15.4287 9.32851 14.9207 8.10215 14.0165 7.19795C13.1123 6.29375 11.886 5.78577 10.6072 5.78577ZM10.6072 13.5001C10.0351 13.5001 9.47578 13.3305 9.00005 13.0126C8.52431 12.6947 8.15352 12.2429 7.93457 11.7143C7.71561 11.1857 7.65832 10.604 7.76995 10.0429C7.88157 9.48171 8.15709 8.96625 8.56167 8.56167C8.96625 8.15709 9.48171 7.88157 10.0429 7.76995C10.604 7.65833 11.1857 7.71561 11.7143 7.93457C12.2429 8.15353 12.6947 8.52431 13.0126 9.00005C13.3305 9.47578 13.5001 10.0351 13.5001 10.6072C13.5001 11.3745 13.1953 12.1103 12.6528 12.6528C12.1103 13.1954 11.3745 13.5001 10.6072 13.5001ZM10.6072 0C7.79501 0.00319029 5.09887 1.12176 3.11031 3.11032C1.12176 5.09887 0.00319029 7.79501 0 10.6072C0 14.3921 1.74899 18.4036 5.06255 22.2089C6.55145 23.9285 8.22719 25.4769 10.0588 26.8255C10.2209 26.9391 10.4141 27 10.6121 27C10.81 27 11.0032 26.9391 11.1653 26.8255C12.9936 25.4763 14.6661 23.9279 16.1519 22.2089C19.4607 18.4036 21.2145 14.3921 21.2145 10.6072C21.2113 7.79501 20.0927 5.09887 18.1042 3.11032C16.1156 1.12176 13.4195 0.00319029 10.6072 0ZM10.6072 24.8306C8.61477 23.2636 1.92859 17.508 1.92859 10.6072C1.92859 8.30553 2.84295 6.09807 4.47051 4.47051C6.09807 2.84295 8.30552 1.92859 10.6072 1.92859C12.909 1.92859 15.1164 2.84295 16.744 4.47051C18.3715 6.09807 19.2859 8.30553 19.2859 10.6072C19.2859 17.5056 12.5997 23.2636 10.6072 24.8306Z" fill="#142D6F"/>
</svg>
