<svg width="30" height="30" viewBox="0 0 30 30" fill="none" xmlns="http://www.w3.org/2000/svg">
<path d="M21.5855 10.7221C21.6928 10.8293 21.7779 10.9565 21.836 11.0966C21.894 11.2367 21.9239 11.3868 21.9239 11.5385C21.9239 11.6901 21.894 11.8402 21.836 11.9803C21.7779 12.1204 21.6928 12.2476 21.5855 12.3548L13.5086 20.4317C13.4014 20.539 13.2742 20.6241 13.1341 20.6822C12.994 20.7402 12.8439 20.7701 12.6923 20.7701C12.5406 20.7701 12.3905 20.7402 12.2504 20.6822C12.1103 20.6241 11.9831 20.539 11.8759 20.4317L8.41437 16.9702C8.19786 16.7537 8.07623 16.46 8.07623 16.1538C8.07623 15.8477 8.19786 15.554 8.41437 15.3375C8.63087 15.121 8.92452 14.9994 9.23071 14.9994C9.5369 14.9994 9.83055 15.121 10.0471 15.3375L12.6923 17.9841L19.9528 10.7221C20.06 10.6148 20.1872 10.5297 20.3273 10.4717C20.4674 10.4136 20.6175 10.3837 20.7692 10.3837C20.9208 10.3837 21.071 10.4136 21.211 10.4717C21.3511 10.5297 21.4784 10.6148 21.5855 10.7221ZM29.9999 15C29.9999 17.9667 29.1202 20.8668 27.472 23.3335C25.8238 25.8003 23.4811 27.7229 20.7402 28.8582C17.9993 29.9935 14.9833 30.2906 12.0736 29.7118C9.16387 29.133 6.49113 27.7044 4.39334 25.6066C2.29556 23.5088 0.866945 20.8361 0.288166 17.9264C-0.290612 15.0166 0.00643823 12.0006 1.14175 9.25975C2.27707 6.51886 4.19965 4.17618 6.66639 2.52796C9.13313 0.879735 12.0332 0 14.9999 0C18.9769 0.00419974 22.7898 1.5859 25.6019 4.39804C28.414 7.21017 29.9957 11.023 29.9999 15ZM27.6922 15C27.6922 12.4897 26.9479 10.0358 25.5532 7.94853C24.1586 5.86129 22.1763 4.23449 19.8571 3.27384C17.5379 2.31319 14.9859 2.06184 12.5238 2.55157C10.0617 3.04131 7.80018 4.25013 6.02513 6.02518C4.25008 7.80023 3.04125 10.0618 2.55152 12.5239C2.06178 14.9859 2.31313 17.5379 3.27378 19.8571C4.23443 22.1763 5.86124 24.1586 7.94848 25.5533C10.0357 26.9479 12.4896 27.6923 14.9999 27.6923C18.365 27.6885 21.5911 26.35 23.9705 23.9706C26.35 21.5912 27.6884 18.365 27.6922 15Z" fill="#142D6F"/>
</svg>
